<?xml version="1.0" standalone="no"?>
<!DOCTYPE svg PUBLIC "-//W3C//DTD SVG 1.1//EN" "http://www.w3.org/Graphics/SVG/1.1/DTD/svg11.dtd" >
<svg xmlns="http://www.w3.org/2000/svg" xmlns:xlink="http://www.w3.org/1999/xlink" version="1.1">
<metadata></metadata>
<defs>
<font id="arabesqueregular" horiz-adv-x="1228" >
<font-face units-per-em="2048" ascent="1597" descent="-451" />
<missing-glyph horiz-adv-x="614" />
<glyph horiz-adv-x="0" />
<glyph horiz-adv-x="682" />
<glyph unicode=" "  horiz-adv-x="614" />
<glyph unicode="&#x09;" horiz-adv-x="614" />
<glyph unicode="&#xa0;" horiz-adv-x="614" />
<glyph unicode="0" />
<glyph unicode="1" />
<glyph unicode="2" />
<glyph unicode="3" />
<glyph unicode="4" />
<glyph unicode="5" />
<glyph unicode="6" />
<glyph unicode="7" />
<glyph unicode="8" />
<glyph unicode="9" />
<glyph unicode="A" />
<glyph unicode="B" />
<glyph unicode="C" />
<glyph unicode="D" />
<glyph unicode="E" />
<glyph unicode="F" />
<glyph unicode="G" />
<glyph unicode="H" />
<glyph unicode="I" />
<glyph unicode="J" />
<glyph unicode="K" />
<glyph unicode="L" />
<glyph unicode="M" />
<glyph unicode="N" />
<glyph unicode="O" />
<glyph unicode="P" />
<glyph unicode="Q" />
<glyph unicode="R" />
<glyph unicode="S" />
<glyph unicode="T" />
<glyph unicode="U" />
<glyph unicode="V" />
<glyph unicode="W" />
<glyph unicode="X" />
<glyph unicode="Y" />
<glyph unicode="Z" />
<glyph unicode="`" />
<glyph unicode="a" horiz-adv-x="1282" d="M51 201q0 104 39 223.5t108.5 229.5t156.5 201t192 145.5t205 54.5q67 0 105 -45t46 -127q24 59 66 141h155q-129 -200 -218 -428q-78 -199 -78 -311q0 -67 28 -103q28 -37 86 -37q68 0 144.5 81t146.5 210l24 -22q-37 -79 -82 -152.5t-100 -142t-119 -109.5t-125 -41 q-157 0 -157 192q0 29 4 62h-16q-88 -117 -191 -185.5t-207 -68.5q-85 0 -149 65.5t-64 166.5zM186 330q0 -92 44 -148.5t120 -56.5q81 0 163.5 60.5t143 150.5t100 196.5t42.5 196.5v11q0 84 -45 128q-48 46 -127 47q-82 0 -165 -61t-142 -150t-96.5 -191t-37.5 -183z" />
<glyph unicode="b" horiz-adv-x="1021" d="M90 233q0 134 68 295l2 2q5 14 35 76l374 799q-93 -41 -209 -51q-34 -3 -65 -2q-74 0 -131 16l90 195q57 -15 125 -19q14 -1 28 -1q55 1 115 11q75 14 137 43l56 -34l-322 -680q179 172 348 172q110 0 165 -70t55 -192q0 -71 -19.5 -158.5t-55 -180t-91 -179t-122.5 -155 t-156 -110t-185 -41.5q-109 0 -175.5 73.5t-66.5 190.5zM207 369v-8q0 -101 52 -166q54 -68 161 -68q87 0 169.5 53.5t140 134.5t92 177t34.5 180q0 109 -51 167t-152 58q-87 0 -170.5 -51t-142.5 -128.5t-95.5 -171t-37.5 -177.5z" />
<glyph unicode="c" horiz-adv-x="919" d="M61 242q3 202 98 391.5t245.5 305.5t308.5 116q76 0 121 -42.5t45 -129.5q0 -69 -50.5 -122.5t-123.5 -53.5q-56 0 -85.5 27.5t-29.5 70.5q0 41 30 66.5t70 25.5q47 0 47 35q0 33 -57 33q-106 0 -218.5 -85.5t-187 -219.5t-75.5 -263v-10q1 -121 49 -189q50 -72 153 -71 q108 0 205 85.5t174 240.5l41 -23q-94 -230 -216 -345.5t-302 -115.5q-108 0 -176 79q-66 77 -66 187v7z" />
<glyph unicode="d" horiz-adv-x="1355" d="M61 233q0 97 36.5 211t102 220.5t147 195t180 142t192.5 53.5q213 0 213 -258q0 -54 -8 -101l327 709q-95 -41 -211 -51q-34 -3 -64 -2q-75 0 -132 16l90 195q57 -15 125 -19q14 -1 28 -1q55 1 115 11q75 14 137 43l76 -34l-553 -1162q-31 -69 -31 -132q0 -57 24 -89 q25 -34 67 -35q69 0 142.5 57t141.5 154l25 -22q-56 -102 -114.5 -179.5t-131 -131.5t-139.5 -54q-74 0 -114 49t-40 119q0 13 4 41q-176 -209 -393 -209q-109 0 -175.5 73.5t-66.5 190.5zM178 369v-8q0 -101 52 -166q54 -68 161 -68q87 0 171 53.5t143 134.5t95 177t36 180 q0 109 -51.5 167t-153.5 58q-87 0 -171.5 -51t-144.5 -128.5t-98 -171t-39 -177.5z" />
<glyph unicode="e" horiz-adv-x="983" d="M53 242q-3 23 -3 47q0 105 54 231q106 233 269 382.5t342 152.5h8q82 0 132 -45.5t50 -126.5q0 -75 -47.5 -146t-134.5 -127t-227 -86q-102 -21 -217 -21q-43 0 -89 3l-6 -21q-19 -66 -20 -119q0 -22 4 -40q10 -68 49.5 -112.5t90 -66.5t104.5 -22q140 0 245 73.5 t193 227.5l37 -20q-43 -86 -77 -142t-85 -117.5t-105.5 -96.5t-133 -58t-173.5 -23q-99 0 -172 75.5t-88 197.5zM219 578q20 -1 39 -1q94 1 173 13q95 14 156.5 41t102.5 64.5t58.5 77t17.5 81.5q0 40 -27 68.5t-80 29.5h-8q-138 -7 -248 -106.5t-178 -253.5z" />
<glyph unicode="f" horiz-adv-x="1030" d="M-246 -256q0 71 45 123.5t117 52.5q56 0 84.5 -27t28.5 -71q0 -42 -26.5 -67t-65.5 -25q-48 0 -48 -31q0 -21 23 -34t61 -13v-103q-95 0 -157 55t-62 140zM-27 -348q51 0 96.5 20.5t82 55t70.5 88.5t60.5 113t53 137t46.5 151.5t43 165.5t40.5 170t41 174.5t42.5 169.5 h-184v104h213q30 107 61 191t72.5 162t88 130t107 82.5t129.5 30.5q95 0 157 -54.5t62 -139.5q0 -71 -44.5 -123.5t-116.5 -52.5q-56 0 -84.5 27t-28.5 71q0 42 26.5 67t65.5 25q21 0 31 6t10 25q0 21 -20.5 34t-57.5 13q-50 -1 -94 -26.5t-79.5 -67.5t-68 -105.5 t-58.5 -133t-52 -158.5h295v-105l-324 -2q-20 -73 -45 -175.5t-44.5 -184.5t-45.5 -182.5t-49.5 -179.5t-55 -165.5t-63.5 -151t-73 -125.5t-86 -99.5t-100.5 -61.5t-117.5 -23z" />
<glyph unicode="g" horiz-adv-x="1232" d="M41 -276q0 71 45 123.5t117 52.5q56 0 84 -27.5t28 -71.5q0 -42 -26.5 -67t-65.5 -25q-47 0 -47 -31q0 -36 84 -36q78 0 148 27.5t127 79.5t105 116.5t89.5 150t73.5 167t63 179.5q-97 -175 -217.5 -284t-249.5 -109q-85 0 -149 65.5t-64 166.5q0 104 39 223.5 t108.5 229.5t156.5 201t192 145.5t205 54.5q53 0 91.5 -27t55.5 -76q5 17 27 72h143q-38 -60 -77.5 -163.5t-72 -215t-76 -241.5t-87.5 -249t-107.5 -231t-135.5 -194t-172 -131.5t-216 -49.5q-98 0 -158.5 46t-60.5 129zM324 330q0 -92 43.5 -148.5t117.5 -56.5 q81 0 163.5 60.5t143 150.5t100 196.5t42.5 196.5v11q0 85 -45 128q-48 47 -127 47q-82 0 -164.5 -61t-141 -150t-95.5 -191t-37 -183z" />
<glyph unicode="h" horiz-adv-x="1351" d="M72 0l747 1597l55 -34l-616 -1319h39q74 141 139.5 251.5t144 219.5t151.5 180.5t155 115.5t162 44q91 0 136.5 -45t45.5 -123q0 -55 -24.5 -118.5t-64 -124t-80 -117t-81 -116.5t-59.5 -104q-17 -46 -17 -74q0 -39 27.5 -68.5t60.5 -29.5q73 0 154 77.5t158 225.5 l24 -24q-172 -445 -395 -445q-76 0 -124 53.5t-48 127.5q0 65 63 157q19 27 76.5 103.5t86.5 119t57 106t28 112.5q0 54 -28.5 83t-75.5 29q-89 0 -180 -59.5t-183 -175.5t-181.5 -268t-188.5 -357h-164zM324 1368l90 195q57 -15 125 -19q14 -1 28 -1q55 1 115 11 q75 14 137 43l-90 -192q-93 -41 -209 -51q-34 -3 -65 -2q-74 0 -131 16z" />
<glyph unicode="i" horiz-adv-x="821" d="M72 795l90 194q60 -20 143 -20q25 0 53 2q117 8 209 53l56 -35l-273 -588q-31 -69 -31 -132q0 -57 24 -89q25 -34 67 -35q69 0 142.5 57t141.5 154l25 -22q-56 -102 -114.5 -179.5t-131 -131.5t-139.5 -54q-73 0 -111.5 49t-38.5 119q0 13 2 27.5t4.5 26.5t9 30t10 28 t13 32t13.5 31t17 35.5t17 35.5l207 448q-93 -41 -209 -50q-32 -3 -63 -3q-75 0 -133 17zM502 1292q0 51 35 87t84 36q53 0 88.5 -35.5t35.5 -87.5q0 -51 -35 -86t-89 -35q-50 0 -84.5 35t-34.5 86z" />
<glyph unicode="j" horiz-adv-x="1058" d="M-106 -276q0 71 44.5 123.5t116.5 52.5q56 0 84.5 -27.5t28.5 -71.5q0 -42 -26.5 -67t-65.5 -25q-47 0 -47 -31q0 -20 23 -32.5t61 -12.5q72 0 139.5 40t132.5 133t112.5 172t111 234t94 236t93.5 256q31 86 46 127q-93 -41 -214 -50q-33 -3 -64 -3q-78 0 -136 17l90 194 q62 -20 144 -20q23 0 48 2q113 7 205 51v2h3l59 -37q-29 -76 -71.5 -200.5t-77 -230.5t-84 -237t-96 -235t-107.5 -207.5t-124 -172.5t-141.5 -112t-162.5 -43q-98 0 -158.5 46t-60.5 129zM856 1319q0 51 35 87t84 36q53 0 89 -36t36 -87t-35.5 -86t-89.5 -35 q-50 0 -84.5 35t-34.5 86z" />
<glyph unicode="k" horiz-adv-x="1241" d="M41 0l747 1597h72l-633 -1353h39q75 145 136.5 252t139.5 218t149.5 181.5t156.5 115t170 44.5q91 0 136.5 -45t45.5 -123q0 -77 -20.5 -139.5t-55.5 -104.5t-82.5 -74.5t-101.5 -49t-112 -29t-114 -14.5q-56 -1 -108 -4q-22 -1 -43 -1q-27 0 -51 2h-47q0 -155 72 -253.5 t180 -98.5q115 0 239 70t191 165l24 -22q-85 -154 -208.5 -259.5t-251.5 -105.5q-62 0 -111.5 27t-80.5 70t-52.5 102.5t-31.5 118t-13 123.5q-96 -161 -217 -410h-164zM293 1368l90 195q57 -15 125 -19q14 -1 28 -1q55 1 115 11q75 14 137 43l-90 -192q-94 -41 -210 -51 q-34 -3 -64 -2q-74 0 -131 16zM489 516q59 0 123 5.5t142 21t139 40t103.5 67.5t45.5 98v10q0 50 -28 86q-30 40 -76 41q-207 0 -449 -369z" />
<glyph unicode="l" horiz-adv-x="868" d="M72 133q0 61 41 154l10 20l33 74l481 1036q-97 -43 -213 -57q-45 -5 -85 -5q-63 0 -114 13l90 195q57 -15 125 -19q14 -1 28 -1q56 1 116 11q76 14 137 43l72 -34l-539 -1162q-33 -75 -33 -136q1 -23 5 -44q18 -76 81 -76q87 0 176 80.5t142 212.5l28 -24 q-26 -80 -66.5 -156.5t-92.5 -142t-116 -106t-128 -40.5q-76 0 -127 49t-51 115z" />
<glyph unicode="m" horiz-adv-x="1976" d="M72 821l90 195q60 -20 143 -20q25 0 53 2q117 8 209 53l56 -35l-359 -772h41q61 118 114.5 211t115.5 190t121.5 167.5t123.5 127.5t130.5 86t133.5 29q91 0 137 -45t46 -123q0 -51 -39 -136.5t-122.5 -240.5t-135.5 -266h33q74 144 135 251.5t137 218.5t145 181.5 t149.5 115t160.5 44.5q91 0 136.5 -45t45.5 -123q0 -56 -26.5 -120t-68.5 -124.5t-85.5 -116.5t-85 -115.5t-60.5 -103.5q-16 -43 -16 -74q0 -39 27.5 -68.5t60.5 -29.5q73 0 153.5 77t157.5 226l25 -24q-172 -445 -395 -445q-76 0 -124.5 53.5t-48.5 127.5q0 63 64 157 q25 35 80 104t90 115.5t64.5 108.5t29.5 113q0 54 -28.5 83t-75.5 29q-71 0 -142.5 -40.5t-136.5 -110t-138 -182t-139.5 -235.5t-148.5 -292h-137q67 175 148.5 353t117 262.5t35.5 132.5q0 54 -28.5 83t-75.5 29q-89 0 -178 -59t-179.5 -176.5t-176.5 -267t-187 -357.5 h-164l397 858q-93 -40 -209 -50q-34 -3 -65 -3q-74 0 -131 16z" />
<glyph unicode="n" horiz-adv-x="1357" d="M72 795l90 194q60 -20 143 -20q25 0 53 2q117 8 209 53l56 -35l-351 -745h43q61 117 114 211t115 190.5t121.5 167t123 127.5t130.5 86t134 29q91 0 136.5 -45t45.5 -123q0 -56 -25 -120t-64 -124.5t-80 -116.5t-80.5 -115.5t-57.5 -103.5q-17 -46 -17 -74 q0 -39 27.5 -68.5t60.5 -29.5q73 0 154 77.5t158 225.5l24 -24q-172 -445 -395 -445q-76 0 -124 53.5t-48 127.5q0 65 63 157q21 30 76.5 104t85 117.5t57 106t27.5 113.5q0 54 -28.5 83t-75.5 29q-71 0 -143.5 -40t-140.5 -111t-142 -181t-143.5 -236.5t-149.5 -291.5h-92 l16 45l-20 -45h-68l387 831q-93 -41 -209 -50q-32 -3 -63 -3q-75 0 -133 17z" />
<glyph unicode="o" horiz-adv-x="989" d="M61 248q0 97 35.5 209.5t99.5 217t144 190.5t177.5 138t191.5 52q110 0 164.5 -70t54.5 -192q0 -72 -19 -159t-53.5 -179.5t-89.5 -179t-121.5 -155t-155 -110t-184.5 -41.5q-108 0 -176 80.5t-68 198.5zM190 369v-7q0 -98 52 -162q54 -66 155 -67q87 0 165.5 52.5 t131 133t83 174.5t30.5 179q0 112 -41 166.5t-137 54.5q-70 0 -138 -32.5t-120.5 -87t-93.5 -122.5t-63.5 -141.5t-23.5 -140.5z" />
<glyph unicode="p" horiz-adv-x="1288" d="M-358 -451l34 103h12q118 0 190 18q75 20 121 62.5t87 122.5l-141 -306h-303zM-55 -451l149 324q-1 -3 -4 -9t-4 -9l463 1003q-94 -41 -210 -50q-34 -3 -65 -3q-74 0 -131 16l90 195q57 -16 125 -19q12 -1 25 -1q57 0 119 12q75 13 137 43l61 -35l-94 -205 q97 111 203 177.5t197 66.5q213 0 213 -258q0 -71 -19.5 -159t-55.5 -180.5t-92.5 -180t-123.5 -156.5t-155.5 -110.5t-182.5 -41.5q-109 0 -175.5 73.5t-66.5 190.5v21l-325 -705h-78zM23 -451l157 340q-40 -81 -40 -132v-10q5 -53 71 -75q63 -20 207 -20h14l-31 -103h-378 zM473 369v-8q0 -103 49 -167q50 -67 156 -67q84 0 167 53.5t143 134.5t97 177t37 180q0 110 -50.5 170.5t-151.5 60.5q-87 0 -171 -52t-142.5 -131t-95.5 -173t-38 -178z" />
<glyph unicode="q" horiz-adv-x="1249" d="M53 233q0 126 65.5 274.5t162 268t214.5 199.5t216 80q213 0 213 -258v-21l123 275l79 -35l-677 -1467h-78l153 340l-12 -28l113 254q-153 -146 -330 -146q-109 0 -175.5 73.5t-66.5 190.5zM68 -451l34 103h12q119 0 191 20q76 20 121 63t86 126l-141 -312h-303zM178 369 v-8q0 -103 48 -167q51 -67 157 -67q84 0 167 53.5t143 134.5t97 177t37 180q0 110 -50.5 170.5t-151.5 60.5q-87 0 -171 -52t-142.5 -131t-95.5 -173t-38 -178zM449 -451l157 340q-40 -81 -40 -132v-10q5 -53 71 -75q63 -20 207 -20h14l-31 -103h-378z" />
<glyph unicode="r" horiz-adv-x="1189" d="M72 821l90 195q60 -20 143 -20q25 0 53 2q117 8 209 53l56 -35l-355 -772h29q54 118 84 180.5t82 163.5t88 155.5t90 123.5t101.5 103.5t107.5 59.5t123 25q76 0 121 -42.5t45 -129.5q0 -69 -50.5 -122.5t-123.5 -53.5q-56 0 -85.5 27.5t-29.5 70.5q0 41 30 66.5t70 25.5 q47 0 47 35q0 33 -57 33q-55 -1 -106 -24t-93 -59t-87 -96t-79.5 -119.5t-78.5 -147t-77.5 -160t-82.5 -177.5t-88 -182h-66l31 63l-37 -63h-92l395 858q-95 -40 -211 -50q-34 -3 -64 -3q-75 0 -132 16z" />
<glyph unicode="s" horiz-adv-x="954" d="M41 221q0 201 149 201q101 0 101 -111q0 -26 -12.5 -46.5t-27.5 -31.5t-27.5 -29.5t-12.5 -41.5q0 -48 62 -74.5t159 -26.5q122 0 187 67t65 165q0 49 -45.5 94.5t-111 85t-131 82t-111 101.5t-45.5 128q0 119 91 194t251 75q137 0 219 -72.5t82 -189.5q0 -81 -40.5 -136 t-97.5 -55q-50 0 -78 28.5t-28 80.5q0 31 9.5 49t22.5 25.5t26 13.5t22.5 19t9.5 36q0 37 -43 73t-104 36q-120 0 -175 -47.5t-55 -129.5q0 -40 24.5 -76t63.5 -65t86.5 -57t94.5 -58t86 -63t63.5 -77t24.5 -95q0 -62 -26 -120t-72 -103.5t-115.5 -73t-149.5 -27.5 q-175 0 -283 69.5t-108 182.5z" />
<glyph unicode="t" horiz-adv-x="731" d="M72 891v94h235q64 203 101 354l170 2q-155 -341 -162 -356h258v-94h-297q-148 -367 -148 -557q0 -76 38 -133.5t102 -57.5q144 0 297 295l24 -24q-39 -100 -77.5 -175.5t-85.5 -139t-102.5 -97t-117.5 -33.5q-89 0 -149 60.5t-60 148.5q3 67 15 140t42.5 181.5 t45.5 157.5t62 193q3 9 4.5 14t4 13t4.5 14h-204z" />
<glyph unicode="u" horiz-adv-x="1384" d="M82 821l90 195q62 -20 146 -20q24 0 49 2q116 7 208 51v2h3v-2l43 -33q-24 -71 -78 -183t-100.5 -202.5t-83.5 -188t-37 -155.5q0 -54 35 -88.5t83 -34.5q55 0 102.5 18t97.5 71.5t83.5 94.5t90 147t85 163.5t99.5 205.5q17 34 26 53.5t23.5 50t27.5 56.5h158l-334 -719 q-16 -43 -16 -74q0 -40 33.5 -68t80.5 -28q73 0 154 77.5t158 225.5l24 -24q-172 -445 -395 -445q-75 0 -118.5 52.5t-43.5 128.5q0 56 45 141l228 489h-29q-156 -329 -234 -459q-150 -252 -297 -321q-65 -31 -135 -31q-91 0 -136.5 45t-45.5 123q0 66 36 162.5t77.5 174.5 t110.5 200.5t100 183.5q-97 -35 -217 -46q-43 -4 -80 -4q-67 0 -117 13z" />
<glyph unicode="v" horiz-adv-x="1144" d="M82 821l90 195q62 -20 146 -20q24 0 49 2q116 7 208 51v2h3v-2l43 -33q-24 -71 -78 -183t-100.5 -202.5t-83.5 -188t-37 -155.5q0 -54 35 -88.5t83 -34.5q72 0 139.5 33t119 82.5t99 119.5t79 132.5t59.5 132.5q2 6 6 21.5t5 20t3.5 16t2 15.5t0 12.5t-2 12.5t-5.5 10.5 t-8.5 12t-12.5 10.5q-32 15 -52 49.5t-20 75.5q0 56 34 95.5t83 39.5t81.5 -30.5t31.5 -84.5v-16q-5 -76 -37 -176.5t-84 -206.5t-123 -209t-148 -183.5t-165.5 -130t-170.5 -49.5q-91 0 -136.5 45t-45.5 123q0 66 36 162.5t77.5 174.5t110.5 200.5t100 183.5 q-97 -35 -217 -46q-43 -4 -80 -4q-67 0 -117 13z" />
<glyph unicode="w" horiz-adv-x="1773" d="M82 821l90 195q62 -20 146 -20q24 0 49 2q116 7 208 51v2h3v-2l43 -33q-24 -71 -79.5 -183t-104 -202.5t-86.5 -188t-38 -155.5q0 -54 35.5 -88.5t83.5 -34.5q138 0 260 151q94 115 238 409q27 54 84 174l61 126h94v2l80 -2q-33 -96 -111.5 -254t-133 -283.5 t-54.5 -199.5q0 -54 35.5 -88.5t83.5 -34.5q72 0 139.5 33t119 82.5t99 119.5t79 132.5t59.5 132.5q17 49 17 78q0 31 -30 53q-32 15 -51.5 49.5t-19.5 75.5q0 56 33.5 95.5t82.5 39.5t82 -30.5t33 -84.5v-16q-5 -76 -37.5 -176.5t-84.5 -206.5t-123 -209t-148 -183.5 t-165.5 -130t-170.5 -49.5q-91 0 -136.5 45t-45.5 123q0 79 47.5 196.5t106.5 222t121.5 230t84.5 207.5l-94 -213h-47q-57 -119 -88.5 -183t-85 -164.5t-90.5 -155t-90 -123t-99.5 -102.5t-104 -58.5t-116.5 -24.5q-91 0 -136.5 45t-45.5 123q0 65 36.5 161.5t79 175 t112.5 201t102 183.5q-97 -35 -216 -46q-42 -4 -79 -4q-67 0 -117 13z" />
<glyph unicode="x" horiz-adv-x="1378" d="M82 141q0 69 50.5 122.5t123.5 53.5q56 0 85.5 -27.5t29.5 -70.5q0 -41 -30.5 -66.5t-70.5 -25.5q-47 0 -47 -35q0 -33 58 -33q56 1 107.5 27t87.5 61.5t69 89t51.5 94t36 92.5t22 68t9.5 37h-2q19 81 19 144q-1 69 -23 118q-44 93 -128 93q-109 0 -203 -75t-147 -222 l-30 24q78 227 183 336t257 109q86 -1 132 -77q44 -72 44 -190v-16q153 283 364 283q76 0 121 -42.5t45 -129.5q0 -69 -50.5 -122.5t-123.5 -53.5q-56 0 -85 27t-29 71q0 41 30 66.5t70 25.5q47 0 47 35q0 33 -57 33q-56 -1 -107.5 -27t-87.5 -61.5t-69 -89t-51.5 -94 t-36 -92.5t-22 -68t-9.5 -37h2q-19 -81 -19 -145q0 -69 22 -117q43 -93 128 -93q109 0 203 75t147 222l31 -24q-78 -227 -183.5 -336t-257.5 -109q-86 1 -132 77q-44 72 -44 190v16q-153 -283 -364 -283q-76 0 -121 42.5t-45 129.5z" />
<glyph unicode="y" horiz-adv-x="1314" d="M82 -276q0 71 45 123.5t117 52.5q56 0 84 -27.5t28 -71.5q0 -42 -26.5 -67t-65.5 -25q-47 0 -47 -31q0 -36 84 -36q75 0 143 27t122.5 71t104.5 112t87.5 138t74 161t62.5 170t53 175q-264 -527 -534 -527q-91 0 -137 45t-46 123q0 66 36 162.5t77.5 174.5t110.5 200.5 t100 183.5q-97 -35 -217 -46q-43 -4 -80 -4q-67 0 -117 13l90 195q62 -20 146 -20q24 0 49 2q117 7 209 51v2h2v-2l43 -33q-24 -71 -78 -183t-100.5 -202.5t-83.5 -188t-37 -155.5q0 -54 35.5 -88.5t83.5 -34.5q56 0 112 32.5t111.5 105t97.5 134.5t96.5 176.5t80.5 171.5 t76 175q19 44 28 65h143q-38 -60 -77.5 -163.5t-72 -215t-76 -241.5t-87.5 -249t-107.5 -231t-135.5 -194t-172 -131.5t-216 -49.5q-98 0 -158.5 46t-60.5 129z" />
<glyph unicode="z" horiz-adv-x="1292" d="M41 0v57l1036 877q-79 -24 -139 -28l-34 -2q-39 0 -69 8q-43 11 -82 25t-101.5 27t-137.5 13q-48 0 -83.5 -27.5t-35.5 -62.5q0 -53 41 -53q7 0 20.5 4t20.5 4q36 0 60 -28.5t24 -76.5q0 -55 -33.5 -83.5t-85.5 -28.5q-65 0 -119.5 52t-54.5 130q0 106 66 176t180 70h12 q70 0 135 -11q71 -12 121 -25t106 -22q34 -5 74 -6q26 0 56 3q74 6 166 32l67 2v-53l-1038 -879q81 23 161 23q12 0 24 -1q92 -4 147 -19.5t146 -32.5t181 -17q48 0 83.5 27.5t35.5 62.5q0 53 -41 53q-7 0 -20.5 -4t-20.5 -4q-36 0 -60 28.5t-24 76.5q0 55 33.5 83.5 t85.5 28.5q65 0 119.5 -52t54.5 -130q0 -106 -66 -176t-180 -70h-10q-86 0 -184 16q-104 17 -178 33q-67 14 -162 14h-19q-107 -2 -219 -34h-59z" />
<glyph unicode="&#xa8;" />
<glyph unicode="&#xaf;" />
<glyph unicode="&#xb4;" />
<glyph unicode="&#xb8;" />
<glyph unicode="&#xe0;" horiz-adv-x="1282" d="M51 201q0 104 39 223.5t108.5 229.5t156.5 201t192 145.5t205 54.5q67 0 105 -45t46 -127q24 59 66 141h155q-129 -200 -218 -428q-124 -317 -50 -414q28 -37 86 -37q68 0 144.5 81t146.5 210l24 -22q-37 -79 -82 -152.5t-100 -142t-119 -109.5t-125 -41q-180 0 -153 254 h-16q-88 -117 -191 -185.5t-207 -68.5q-85 0 -149 65.5t-64 166.5zM186 330q0 -92 44 -148.5t120 -56.5q81 0 163.5 60.5t143 150.5t100 196.5t42.5 196.5q3 93 -45 139.5t-127 46.5q-82 0 -165 -61t-142 -150t-96.5 -191t-37.5 -183zM537 1343q0 60 73 60q76 0 205.5 -95.5 t212.5 -209.5l-8 -6q-62 48 -260 96q-101 25 -162 71t-61 84z" />
<glyph unicode="&#xe1;" horiz-adv-x="1282" d="M51 201q0 104 39 223.5t108.5 229.5t156.5 201t192 145.5t205 54.5q67 0 105 -45t46 -127q24 59 66 141h155q-129 -200 -218 -428q-124 -317 -50 -414q28 -37 86 -37q68 0 144.5 81t146.5 210l24 -22q-37 -79 -82 -152.5t-100 -142t-119 -109.5t-125 -41q-180 0 -153 254 h-16q-88 -117 -191 -185.5t-207 -68.5q-85 0 -149 65.5t-64 166.5zM186 330q0 -92 44 -148.5t120 -56.5q81 0 163.5 60.5t143 150.5t100 196.5t42.5 196.5q3 93 -45 139.5t-127 46.5q-82 0 -165 -61t-142 -150t-96.5 -191t-37.5 -183zM592 1063q83 114 212.5 209.5 t205.5 95.5q73 0 73 -59q0 -39 -61 -85t-162 -71q-198 -48 -260 -96z" />
<glyph unicode="&#xe2;" horiz-adv-x="1282" d="M51 201q0 104 39 223.5t108.5 229.5t156.5 201t192 145.5t205 54.5q67 0 105 -45t46 -127q24 59 66 141h155q-129 -200 -218 -428q-124 -317 -50 -414q28 -37 86 -37q68 0 144.5 81t146.5 210l24 -22q-37 -79 -82 -152.5t-100 -142t-119 -109.5t-125 -41q-180 0 -153 254 h-16q-88 -117 -191 -185.5t-207 -68.5q-85 0 -149 65.5t-64 166.5zM186 330q0 -92 44 -148.5t120 -56.5q81 0 163.5 60.5t143 150.5t100 196.5t42.5 196.5q3 93 -45 139.5t-127 46.5q-82 0 -165 -61t-142 -150t-96.5 -191t-37.5 -183zM334 1079q62 39 131.5 94.5t113 94.5 t91 67.5t82.5 28.5h2h2q10 0 14 -2q11 0 23 -4q40 -15 98.5 -64t135 -112.5t147.5 -102.5l-9 -18q-42 25 -197.5 77.5t-213.5 84.5q-54 -31 -207.5 -83t-200.5 -79z" />
<glyph unicode="&#xe8;" horiz-adv-x="983" d="M53 242.5q-15 122.5 51 277.5q106 233 269 382.5t342 152.5h8q82 0 132 -45.5t50 -126.5q0 -75 -47.5 -146t-134.5 -127t-226.5 -85.5t-306.5 -18.5l-6 -21q-27 -91 -16.5 -158.5t50 -112.5t90 -67t104.5 -22q140 0 245 73.5t193 227.5l37 -20q-43 -86 -77 -142 t-85 -117.5t-105.5 -96.5t-133 -58t-173.5 -23q-99 0 -172 75.5t-88 198zM219 578q117 -3 212 11.5t156.5 41.5t102.5 64.5t58.5 77t17.5 81.5q0 40 -27 68.5t-80 29.5h-8q-138 -7 -248 -106.5t-178 -253.5zM438 1343q0 60 74 60q76 0 205.5 -95.5t212.5 -209.5l-8 -6 q-62 48 -260 96q-101 25 -162.5 71t-61.5 84z" />
<glyph unicode="&#xe9;" horiz-adv-x="983" d="M53 242.5q-15 122.5 51 277.5q106 233 269 382.5t342 152.5h8q82 0 132 -45.5t50 -126.5q0 -75 -47.5 -146t-134.5 -127t-226.5 -85.5t-306.5 -18.5l-6 -21q-27 -91 -16.5 -158.5t50 -112.5t90 -67t104.5 -22q140 0 245 73.5t193 227.5l37 -20q-43 -86 -77 -142 t-85 -117.5t-105.5 -96.5t-133 -58t-173.5 -23q-99 0 -172 75.5t-88 198zM219 578q117 -3 212 11.5t156.5 41.5t102.5 64.5t58.5 77t17.5 81.5q0 40 -27 68.5t-80 29.5h-8q-138 -7 -248 -106.5t-178 -253.5zM494 1063q83 114 212 209.5t205 95.5q74 0 74 -59q0 -39 -61 -85 t-162 -71q-198 -48 -260 -96z" />
<glyph unicode="&#xea;" horiz-adv-x="983" d="M53 242.5q-15 122.5 51 277.5q106 233 269 382.5t342 152.5h8q82 0 132 -45.5t50 -126.5q0 -75 -47.5 -146t-134.5 -127t-226.5 -85.5t-306.5 -18.5l-6 -21q-27 -91 -16.5 -158.5t50 -112.5t90 -67t104.5 -22q140 0 245 73.5t193 227.5l37 -20q-43 -86 -77 -142 t-85 -117.5t-105.5 -96.5t-133 -58t-173.5 -23q-99 0 -172 75.5t-88 198zM219 578q117 -3 212 11.5t156.5 41.5t102.5 64.5t58.5 77t17.5 81.5q0 40 -27 68.5t-80 29.5h-8q-138 -7 -248 -106.5t-178 -253.5zM236 1079q62 39 131 94.5t112.5 94.5t91 67.5t82.5 28.5h2h2 q11 0 15 -2q10 0 22 -4q40 -15 98.5 -64t135 -112.5t147.5 -102.5l-8 -18q-42 25 -198 77.5t-214 84.5q-54 -31 -207 -83t-200 -79z" />
<glyph unicode="&#xf4;" horiz-adv-x="989" d="M61 248q0 97 35.5 209.5t99.5 217t144 190.5t177.5 138t191.5 52q110 0 164.5 -70t54.5 -192q0 -72 -19 -159t-53.5 -179.5t-89.5 -179t-121.5 -155t-155 -110t-184.5 -41.5q-108 0 -176 80.5t-68 198.5zM190 369q-2 -103 51.5 -169.5t155.5 -66.5q87 0 165.5 52.5 t131 133t83 174.5t30.5 179q0 112 -41 166.5t-137 54.5q-70 0 -138 -32.5t-120.5 -87t-93.5 -122.5t-63.5 -141.5t-23.5 -140.5zM297 1079q62 39 131.5 94.5t113 94.5t91 67.5t82.5 28.5h2h2q10 0 14 -2q11 0 23 -4q40 -15 98.5 -64t135 -112.5t147.5 -102.5l-9 -18 q-42 25 -197.5 77.5t-213.5 84.5q-54 -31 -207.5 -83t-200.5 -79z" />
<glyph unicode="&#x2c6;" />
<glyph unicode="&#x2dc;" />
<glyph unicode="&#x2000;" horiz-adv-x="798" />
<glyph unicode="&#x2001;" horiz-adv-x="1597" />
<glyph unicode="&#x2002;" horiz-adv-x="798" />
<glyph unicode="&#x2003;" horiz-adv-x="1597" />
<glyph unicode="&#x2004;" horiz-adv-x="532" />
<glyph unicode="&#x2005;" horiz-adv-x="399" />
<glyph unicode="&#x2006;" horiz-adv-x="266" />
<glyph unicode="&#x2007;" horiz-adv-x="266" />
<glyph unicode="&#x2008;" horiz-adv-x="199" />
<glyph unicode="&#x2009;" horiz-adv-x="319" />
<glyph unicode="&#x200a;" horiz-adv-x="88" />
<glyph unicode="&#x202f;" horiz-adv-x="319" />
<glyph unicode="&#x205f;" horiz-adv-x="399" />
<glyph unicode="&#x25fc;" horiz-adv-x="1054" d="M0 0v1055h1055v-1055h-1055z" />
</font>
</defs>
</svg>
