<?xml version="1.0" encoding="UTF-8" standalone="no"?>
<svg width="121px" height="121px" viewBox="0 0 121 121" version="1.1" xmlns="http://www.w3.org/2000/svg" xmlns:xlink="http://www.w3.org/1999/xlink">
    <!-- Generator: Sketch 40.3 (33839) - http://www.bohemiancoding.com/sketch -->
    <title>about</title>
    <desc>Created with Sketch.</desc>
    <defs>
        <linearGradient x1="50.0281657%" y1="-0.233670627%" x2="50.0281573%" y2="98.9851666%" id="linearGradient-1">
            <stop stop-color="#4E4E4E" offset="0%"></stop>
            <stop stop-color="#8E8C8C" offset="100%"></stop>
        </linearGradient>
        <linearGradient x1="49.8921076%" y1="4.1539962%" x2="49.8921051%" y2="97.8753317%" id="linearGradient-2">
            <stop stop-color="#8E8C8C" offset="0%"></stop>
            <stop stop-color="#4E4E4E" offset="90.04%"></stop>
        </linearGradient>
        <linearGradient x1="68.3438504%" y1="84.4329693%" x2="27.8960452%" y2="17.0336693%" id="linearGradient-3">
            <stop stop-color="#010202" stop-opacity="0" offset="0%"></stop>
            <stop stop-color="#010202" stop-opacity="0.8817" offset="47.56%"></stop>
            <stop stop-color="#010202" offset="53.94%"></stop>
            <stop stop-color="#010202" stop-opacity="0.8564" offset="60.55%"></stop>
            <stop stop-color="#010202" stop-opacity="0" offset="100%"></stop>
        </linearGradient>
        <linearGradient x1="0.956387733%" y1="49.4173552%" x2="98.2270918%" y2="51.3063027%" id="linearGradient-4">
            <stop stop-color="#010202" stop-opacity="0" offset="0%"></stop>
            <stop stop-color="#010202" stop-opacity="0.8604" offset="48.18%"></stop>
            <stop stop-color="#010202" offset="56%"></stop>
            <stop stop-color="#010202" stop-opacity="0.8587" offset="62.22%"></stop>
            <stop stop-color="#010202" stop-opacity="0" offset="100%"></stop>
        </linearGradient>
        <linearGradient x1="30.4893482%" y1="84.3956854%" x2="74.3849028%" y2="13.9689935%" id="linearGradient-5">
            <stop stop-color="#010202" stop-opacity="0" offset="0%"></stop>
            <stop stop-color="#010202" stop-opacity="0.8817" offset="47.56%"></stop>
            <stop stop-color="#010202" offset="53.94%"></stop>
            <stop stop-color="#010202" stop-opacity="0.8564" offset="60.55%"></stop>
            <stop stop-color="#010202" stop-opacity="0" offset="100%"></stop>
        </linearGradient>
        <linearGradient x1="-2210.72114%" y1="-404.673144%" x2="270.90003%" y2="94.3333067%" id="linearGradient-6">
            <stop stop-color="#8E8C8C" offset="0%"></stop>
            <stop stop-color="#DADBE0" offset="100%"></stop>
        </linearGradient>
        <linearGradient x1="50.2513057%" y1="0.866724003%" x2="50.2512455%" y2="95.411489%" id="linearGradient-7">
            <stop stop-color="#4E4E4E" offset="0%"></stop>
            <stop stop-color="#8E8C8C" offset="100%"></stop>
        </linearGradient>
    </defs>
    <g id="Page-1" stroke="none" stroke-width="1" fill="none" fill-rule="evenodd">
        <g id="about">
            <path d="M33.6,0.7 L30,0.7 C27.3,0.8 24.6,0.9 22.2,1.4 C19.5,1.9 17.1,2.6 14.7,3.8 C12.3,5 10.1,6.7 8.3,8.6 C6.5,10.5 4.8,12.6 3.5,15.1 C2.3,17.5 1.6,19.9 1.1,22.6 C0.6,25 0.5,27.8 0.4,30.4 L0.4,34 L0.4,38.4 L0.4,83 L0.4,87.4 L0.4,91 C0.5,93.7 0.6,96.4 1.1,98.8 C1.6,101.5 2.3,103.9 3.5,106.3 C4.7,108.7 6.4,110.9 8.3,112.7 C10.2,114.5 12.3,116.2 14.7,117.5 C17.1,118.7 19.5,119.4 22.2,119.9 C24.6,120.4 27.4,120.5 30,120.6 L33.6,120.6 L38,120.6 L82.6,120.6 L87,120.6 L90.6,120.6 C93.3,120.5 96,120.4 98.4,119.9 C101.1,119.4 103.5,118.7 105.9,117.5 C108.3,116.3 110.5,114.6 112.3,112.7 C114.1,110.8 115.8,108.7 117.1,106.3 C118.3,103.9 119,101.5 119.5,98.8 C120,96.4 120.1,93.6 120.2,91 L120.2,87.4 L120.2,83 L120.2,38.4 L120.2,34 L120.2,30.4 C120.1,27.7 120,25 119.5,22.6 C119,19.9 118.3,17.5 117.1,15.1 C115.9,12.7 114.2,10.5 112.3,8.6 C110.4,6.8 108.3,5.1 105.9,3.8 C103.5,2.6 101.1,1.9 98.4,1.4 C96,0.9 93.2,0.8 90.6,0.7 L87,0.7 L82.6,0.7 L38,0.7 C37,0.6 35.5,0.6 33.6,0.7 L33.6,0.7 Z" id="Shape" fill="url(#linearGradient-1)"></path>
            <circle id="Oval" fill="#E6E6E6" cx="60.3" cy="60.6" r="52.2"></circle>
            <path d="M60.3,33.2 L59.7,33.2 L59.4,30 L58.1,30.1 L58,33.3 C57.5,33.3 57,33.4 56.5,33.5 L55.8,30.4 L54.6,30.6 L54.9,33.8 C54.4,33.9 53.9,34 53.4,34.1 L52.3,31.1 L51.1,31.5 L51.8,34.6 C51.3,34.8 50.8,34.9 50.4,35.1 L49,32.2 L47.8,32.7 L48.8,35.7 C48.3,35.9 47.9,36.1 47.4,36.4 L45.7,33.7 L44.6,34.3 L46,37.2 C45.6,37.5 45.1,37.7 44.7,38 L42.7,35.5 L41.7,36.3 L43.4,39 C43,39.3 42.6,39.6 42.2,40 L39.9,37.8 L39,38.7 L41,41.2 C40.6,41.6 40.3,41.9 40,42.3 L37.5,40.4 L36.7,41.4 L38.9,43.6 C38.6,44 38.3,44.4 38,44.8 L35.3,43.2 L34.6,44.3 L37.1,46.3 C36.8,46.7 36.6,47.2 36.3,47.6 L33.4,46.3 L32.8,47.4 L35.5,49 C35.3,49.5 35.1,49.9 34.9,50.4 L31.9,49.5 L31.5,50.7 L34.4,52 C34.2,52.5 34.1,53 34,53.5 L30.9,52.9 L30.6,54.1 L33.6,55.1 C33.5,55.6 33.4,56.1 33.3,56.6 L30.2,56.4 L30,57.7 L33.1,58.3 C33.1,58.8 33,59.4 33,59.9 L29.9,60.2 L29.9,61.5 L33,61.7 C33,62.2 33,62.7 33.1,63.2 L30,63.8 L30.1,65.1 L33.2,64.9 C33.3,65.4 33.4,65.9 33.5,66.4 L30.5,67.4 L30.8,68.6 L33.9,68 C34,68.5 34.2,69 34.3,69.5 L31.4,70.8 L31.8,72 L34.8,71.1 C35,71.6 35.2,72 35.4,72.5 L32.7,74.1 L33.3,75.2 L36.2,73.9 C36.4,74.3 36.7,74.8 37,75.2 L34.5,77.1 L35.2,78.2 L37.9,76.6 C38.2,77 38.5,77.4 38.8,77.8 L36.5,80 L37.3,81 L39.8,79.1 C40.1,79.5 40.5,79.8 40.8,80.2 L38.8,82.7 L39.7,83.6 L42,81.4 C42.4,81.7 42.8,82.1 43.2,82.4 L41.5,85.1 L42.5,85.9 L44.5,83.4 C44.9,83.7 45.3,84 45.8,84.2 L44.4,87.1 L45.5,87.7 L47.2,85 C47.6,85.2 48.1,85.5 48.6,85.7 L47.6,88.7 L48.8,89.2 L50.2,86.3 C50.7,86.5 51.1,86.7 51.6,86.8 L50.9,89.9 L52.1,90.3 L53.2,87.3 C53.7,87.4 54.2,87.5 54.7,87.6 L54.4,90.8 L55.6,91 L56.3,87.9 C56.8,88 57.3,88 57.8,88.1 L57.9,91.3 L59.2,91.4 L59.5,88.2 L60.2,88.2 L61,88.2 L61.4,91.4 L62.7,91.3 L62.7,88.1 C63.2,88.1 63.7,88 64.2,87.9 L65,91 L66.2,90.8 L65.8,87.6 C66.3,87.5 66.8,87.4 67.3,87.2 L68.5,90.2 L69.7,89.8 L68.9,86.6 C69.4,86.4 69.8,86.3 70.3,86.1 L71.8,89 L73,88.5 L71.9,85.5 C72.4,85.3 72.8,85.1 73.2,84.8 L75,87.5 L76.1,86.9 L74.6,84 C75,83.7 75.4,83.5 75.8,83.2 L78,85.7 L79,84.9 L77.2,82.2 C77.6,81.9 78,81.6 78.3,81.2 L80.7,83.4 L81.6,82.5 L79.5,80 C79.9,79.6 80.2,79.3 80.5,78.9 L83.2,80.8 L84,79.8 L81.6,77.6 C81.9,77.2 82.2,76.8 82.5,76.4 L85.4,78 L86.1,76.9 L83.4,75 C83.7,74.6 83.9,74.2 84.2,73.7 L87.3,74.9 L87.9,73.8 L85,72.2 C85.2,71.8 85.4,71.3 85.6,70.8 L88.8,71.7 L89.2,70.5 L86.2,69.2 C86.4,68.7 86.5,68.3 86.6,67.8 L89.9,68.3 L90.2,67.1 L87,66.2 C87.1,65.7 87.2,65.2 87.3,64.7 L90.6,64.8 L90.8,63.5 L87.5,63 C87.5,62.5 87.6,62 87.6,61.5 L90.9,61.3 L90.9,60 L87.6,59.7 C87.6,59.2 87.6,58.7 87.5,58.2 L90.8,57.7 L90.7,56.4 L87.4,56.5 C87.3,56 87.2,55.5 87.1,55 L90.3,54.1 L90,53 L86.7,53.5 C86.6,53 86.4,52.5 86.3,52.1 L89.3,50.8 L88.9,49.6 L85.7,50.5 C85.5,50 85.3,49.6 85.1,49.1 L88,47.5 L87.4,46.4 L84.3,47.6 C84.1,47.2 83.8,46.7 83.6,46.3 L86.3,44.4 L85.6,43.3 L82.7,44.9 C82.4,44.5 82.1,44.1 81.8,43.7 L84.2,41.5 L83.4,40.5 L80.7,42.4 C80.4,42 80,41.7 79.7,41.3 L81.8,38.8 L81,38 L78.6,40.2 C78.2,39.9 77.8,39.5 77.5,39.2 L79.3,36.5 L78.3,35.7 L76.1,38.2 C75.7,37.9 75.3,37.6 74.9,37.4 L76.4,34.5 L75.3,33.9 L73.4,36.6 C73,36.4 72.5,36.1 72.1,35.9 L73.2,32.9 L72,32.4 L70.5,35.3 C70,35.1 69.6,34.9 69.1,34.8 L69.9,31.7 L68.7,31.3 L67.5,34.3 C67,34.2 66.5,34.1 66,33.9 L66.4,30.7 L65.2,30.5 L64.4,33.6 C63.9,33.5 63.4,33.5 62.9,33.4 L62.9,30.2 L61.6,30.1 L61.1,33.3 C60.8,33.2 60.6,33.2 60.3,33.2 L60.3,33.2 Z M82.7,60.6 C82.7,73 72.7,83 60.3,83 C48,83 38,73 38,60.6 C38,48.2 48,38.2 60.4,38.2 C72.7,38.3 82.7,48.3 82.7,60.6 L82.7,60.6 Z" id="Shape" fill="url(#linearGradient-2)"></path>
            <path d="M48.6,72.4 L43.7,75.5 C47.8,80.1 53.8,83 60.4,83 C72.8,83 82.8,73 82.8,60.6 C82.8,48.2 72.8,38.2 60.4,38.2 C48,38.2 38,48.2 38,60.6 C38,62.7 38.3,64.7 38.8,66.7 L44.6,63.1 L38.8,66.7 C39.7,70 41.4,73 43.6,75.5 L48.6,72.4 L48.6,72.4 Z" id="Shape"></path>
            <path d="M38.8,66.7 L31.6,71.2 L31.8,71.7 L34.8,70.8 C35,71.3 35.2,71.7 35.4,72.2 L32.7,73.8 L33.3,74.9 L36.2,73.6 C36.4,74 36.7,74.5 37,74.9 L34.5,76.8 L35.2,77.9 L37.9,76.3 C38.2,76.7 38.5,77.1 38.8,77.5 L36.5,79.7 L36.6,79.8 L43.7,75.4 C41.4,73 39.7,70 38.8,66.7 L38.8,66.7 Z" id="Shape" fill="url(#linearGradient-3)"></path>
            <path d="M62.8,33.3 L62.8,30.1 L61.5,30 L61,33.2 L60.1,33.2 L59.5,33.2 L59.2,30 L57.9,30.1 L57.8,33.3 C57.3,33.3 56.8,33.4 56.3,33.5 L55.6,30.4 L55.5,30.4 L54.9,38.9 C56.6,38.5 58.4,38.3 60.2,38.3 C61.6,38.3 63,38.4 64.3,38.7 L64.8,31.4 L64.2,33.6 C63.8,33.4 63.3,33.4 62.8,33.3 L62.8,33.3 Z" id="Shape" fill="url(#linearGradient-4)"></path>
            <path d="M80.7,78.9 L81.3,79.2 L80.7,78.9 L80.7,78.9 L80.7,78.9 Z" id="Shape"></path>
            <path d="M76.2,76.4 L80.6,79 L80.6,79 L81.1,79.4 L83.4,80.7 L84.1,79.9 L81.7,77.7 C82,77.3 82.3,76.9 82.6,76.5 L85.5,78.1 L86.2,77 L83.5,75.1 C83.8,74.7 84,74.3 84.3,73.8 L87.4,75 L88,73.9 L85.1,72.3 C85.3,71.9 85.5,71.4 85.7,70.9 L88.9,71.8 L89.3,70.6 L86.3,69.3 C86.4,69.1 86.4,68.9 86.5,68.7 L82,66.5 C80.9,70.2 78.9,73.7 76.2,76.4 L76.2,76.4 Z" id="Shape" fill="url(#linearGradient-5)"></path>
            <polygon id="Shape" fill="url(#linearGradient-6)" points="83.4 80.8 83.5 80.6 81.2 79.3"></polygon>
            <path d="M60.2,18.9 L59.3,18.9 L58.8,14 L56.9,14.1 L56.8,19 C56,19.1 55.3,19.1 54.5,19.2 L53.4,14.4 L51.5,14.7 L51.9,19.6 C51.1,19.8 50.4,19.9 49.7,20.1 L48.1,15.5 L46.3,16.1 L47.3,20.9 C46.6,21.1 45.8,21.4 45.1,21.7 L43,17.3 L41.2,18.1 L42.7,22.7 C42,23 41.3,23.4 40.6,23.7 L38,19.6 L36.3,20.6 L38.4,25 C37.7,25.4 37.1,25.8 36.5,26.3 L33.4,22.6 L31.9,23.7 L34.5,27.8 C33.9,28.3 33.3,28.8 32.7,29.3 L29.2,25.9 L27.8,27.2 L30.8,31 C30.3,31.5 29.7,32.1 29.2,32.7 L25.4,29.8 L24.2,31.3 L27.6,34.7 C27.1,35.3 26.7,35.9 26.2,36.5 L22,34 L20.9,35.6 L24.7,38.6 C24.3,39.3 23.9,39.9 23.5,40.6 L19.1,38.6 L18.2,40.3 L22.3,42.8 C22,43.5 21.7,44.2 21.4,44.9 L16.8,43.5 L16.1,45.3 L20.4,47.3 C20.2,48 19.9,48.8 19.7,49.5 L15,48.6 L14.6,50.5 L19.1,52 C18.9,52.8 18.8,53.5 18.7,54.3 L13.9,54 L13.7,55.9 L18.4,56.9 C18.3,57.7 18.3,58.6 18.3,59.4 L13.5,59.8 L13.5,61.7 L18.3,61.9 C18.3,62.7 18.4,63.4 18.4,64.2 L13.7,65.1 L13.9,67 L18.7,66.7 C18.8,67.5 18.9,68.2 19.1,69 L14.6,70.5 L15,72.4 L19.7,71.5 C19.9,72.3 20.1,73 20.4,73.7 L16,75.7 L16.7,77.5 L21.3,76.1 C21.6,76.8 21.9,77.5 22.2,78.2 L18.1,80.7 L19,82.4 L23.4,80.5 C23.8,81.2 24.2,81.8 24.6,82.5 L20.8,85.5 L21.9,87.1 L26,84.7 C26.4,85.3 26.9,85.9 27.4,86.6 L24,90 L25.2,91.5 L29,88.6 C29.5,89.2 30,89.7 30.6,90.3 L27.6,94.1 L29,95.4 L32.5,92.1 C33.1,92.6 33.7,93.1 34.3,93.6 L31.7,97.7 L33.2,98.9 L36.3,95.2 C36.9,95.6 37.6,96.1 38.2,96.5 L36.1,100.9 L37.8,101.9 L40.4,97.8 C41.1,98.2 41.8,98.5 42.5,98.8 L40.9,103.4 L42.7,104.2 L44.8,99.8 C45.5,100.1 46.2,100.3 47,100.6 L46,105.4 L47.8,106 L49.4,101.4 C50.1,101.6 50.9,101.8 51.6,101.9 L51.1,106.8 L53,107.1 L54.1,102.3 C54.9,102.4 55.6,102.5 56.4,102.6 L56.5,107.5 L58.4,107.6 L58.9,102.7 L60,102.7 L61.2,102.7 L61.9,107.6 L63.8,107.5 L63.8,102.6 C64.6,102.5 65.3,102.4 66.1,102.3 L67.3,107.1 L69.2,106.8 L68.6,101.9 C69.4,101.7 70.1,101.6 70.8,101.4 L72.6,106 L74.4,105.5 L73.2,100.7 C73.9,100.5 74.6,100.2 75.3,99.9 L77.6,104.3 L79.4,103.5 L77.7,98.9 C78.4,98.6 79.1,98.2 79.7,97.9 L82.5,102 L84.2,101 L81.9,96.6 C82.5,96.2 83.2,95.8 83.8,95.3 L87.1,99.1 L88.7,98 L85.9,93.9 C86.5,93.4 87.1,92.9 87.6,92.4 L91.3,95.8 L92.7,94.5 L89.5,90.7 C90,90.2 90.5,89.6 91.1,89 L95.2,91.9 L96.4,90.4 L92.7,87 C93.2,86.4 93.6,85.8 94.1,85.2 L98.5,87.6 L99.6,86 L95.6,83 C96,82.4 96.4,81.7 96.7,81 L101.3,82.9 L102.2,81.2 L97.8,78.7 C98.1,78 98.4,77.3 98.7,76.6 L103.5,77.9 L104.2,76.1 L99.6,74.1 C99.8,73.4 100.1,72.7 100.3,71.9 L105.3,72.7 L105.8,70.8 L101,69.4 C101.2,68.7 101.3,67.9 101.4,67.2 L106.4,67.4 L106.6,65.5 L101.6,64.7 C101.7,63.9 101.7,63.1 101.7,62.4 L106.7,62.2 L106.7,60.3 L101.7,59.9 C101.7,59.1 101.6,58.4 101.6,57.6 L106.6,56.8 L106.4,54.9 L101.4,55.1 C101.3,54.4 101.2,53.6 101,52.9 L105.8,51.5 L105.4,49.6 L100.4,50.4 C100.2,49.7 100,48.9 99.8,48.2 L104.4,46.3 L103.7,44.5 L98.9,45.8 C98.6,45.1 98.3,44.4 98,43.7 L102.4,41.2 L101.5,39.5 L96.8,41.4 C96.4,40.7 96.1,40.1 95.7,39.4 L99.7,36.5 L98.6,34.9 L94.2,37.3 C93.8,36.7 93.3,36.1 92.9,35.5 L96.6,32.1 L95.4,30.6 L91.3,33.5 C90.8,32.9 90.3,32.4 89.8,31.8 L93.1,28 L91.7,26.7 L88,30 C87.4,29.5 86.9,29 86.3,28.5 L89.1,24.4 L87.6,23.2 L84.3,26.9 C83.7,26.5 83.1,26 82.4,25.6 L84.7,21.2 L83,20.2 L80.2,24.3 C79.5,23.9 78.9,23.6 78.2,23.3 L79.9,18.7 L78.1,17.9 L75.8,22.3 C75.1,22 74.4,21.8 73.7,21.5 L74.9,16.7 L73.1,16.1 L71.3,20.7 C70.6,20.5 69.8,20.3 69.1,20.2 L69.7,15.3 L67.8,15 L66.5,19.8 C65.7,19.7 65,19.6 64.2,19.5 L64.3,14.6 L62.4,14.5 L61.7,19.4 C61.1,18.9 60.7,18.9 60.2,18.9 L60.2,18.9 Z M83.4,76.1 C88,79.4 87.1,85.5 81.7,89.2 C76.3,92.9 69.2,96.3 59.3,96.6 C50,96.9 40.8,92.8 35.2,87.7 C29.6,82.5 32.3,78.1 35.5,76.3 C38.7,74.4 46,70 53.2,66.4 C59.9,63 62,64.1 68.5,67.4 C68.6,67.4 79,73 83.4,76.1 L83.4,76.1 Z M74.2,26.3 C80.1,29.1 86.6,33.5 91.9,42 C96.9,49.9 97.9,59.9 96.2,67.3 C94.5,74.7 89.4,74.6 86.1,72.7 C82.9,70.8 75.4,66.7 68.7,62.4 C62.4,58.3 62.3,56 61.9,48.7 C61.9,48.7 61.5,36.9 62,31.5 C62.5,25.8 68.3,23.5 74.2,26.3 L74.2,26.3 Z M58.2,31.2 C58.2,35 58.3,43.5 57.9,51.4 C57.5,58.9 55.5,60.2 49.4,64.2 C49.4,64.2 39.4,70.4 34.4,72.7 C29.3,75.1 24.4,71.2 23.9,64.7 C23.4,58.2 24,50.4 28.7,41.6 C33.1,33.4 41.2,27.5 48.5,25.2 C55.7,22.9 58.2,27.4 58.2,31.2 L58.2,31.2 Z" id="Shape" fill="url(#linearGradient-7)"></path>
            <circle id="Oval" fill="#E6E6E6" cx="60.3" cy="60.6" r="2.3"></circle>
        </g>
    </g>
</svg>