<?xml version="1.0" encoding="UTF-8" standalone="no"?>
<svg width="120px" height="121px" viewBox="0 0 120 121" version="1.1" xmlns="http://www.w3.org/2000/svg" xmlns:xlink="http://www.w3.org/1999/xlink">
    <!-- Generator: Sketch 40.3 (33839) - http://www.bohemiancoding.com/sketch -->
    <title>archives</title>
    <desc>Created with Sketch.</desc>
    <defs></defs>
    <g id="Page-1" stroke="none" stroke-width="1" fill="none" fill-rule="evenodd">
        <g id="archives">
            <path d="M119.9,33.5 L119.9,29.9 C119.8,27.2 119.7,24.5 119.2,22.1 C118.7,19.4 118,17 116.8,14.6 C115.6,12.2 113.9,10 112,8.2 C110.1,6.4 108,4.7 105.5,3.4 C103.1,2.2 100.7,1.5 98,1 C95.6,0.5 92.8,0.4 90.2,0.3 L86.6,0.3 L82.2,0.3 L37.6,0.3 L33.2,0.3 L29.6,0.3 C26.9,0.4 24.2,0.5 21.8,1 C19.1,1.5 16.7,2.2 14.3,3.4 C11.9,4.6 9.7,6.3 7.9,8.2 C6.1,10.1 4.4,12.2 3.1,14.6 C1.9,17 1.2,19.4 0.7,22.1 C0.2,24.5 0.1,27.3 5.68434189e-14,29.9 L5.68434189e-14,33.5 L5.68434189e-14,37.9 L5.68434189e-14,82.5 L5.68434189e-14,86.9 L5.68434189e-14,90.5 C0.1,93.2 0.2,95.9 0.7,98.3 C1.2,101 1.9,103.4 3.1,105.8 C4.3,108.2 6,110.4 7.9,112.2 C9.8,114 11.9,115.7 14.3,117 C16.7,118.2 19.1,118.9 21.8,119.4 C24.2,119.9 27,120 29.6,120.1 L33.2,120.1 L37.6,120.1 L82.2,120.1 L86.6,120.1 L90.2,120.1 C92.9,120 95.6,119.9 98,119.4 C100.7,118.9 103.1,118.2 105.5,117 C107.9,115.8 110.1,114.1 112,112.2 C113.8,110.3 115.5,108.2 116.8,105.8 C118,103.4 118.7,101 119.2,98.3 C119.7,95.9 119.8,93.1 119.9,90.5 L119.9,86.9 L119.9,82.5 L119.9,37.9 L119.9,33.5 L119.9,33.5 Z" id="Shape" fill="#CDCCCC"></path>
            <circle id="Oval" fill="#010202" cx="59.9" cy="60.2" r="51.2"></circle>
            <path d="M56.3,16.4 C56.1,16.7 55.7,17 55.3,17.3 C54.9,17.6 54.5,17.7 54.1,17.8 L54.1,17.6 C54.3,17.5 54.6,17.4 54.8,17.3 C55,17.2 55.2,17.1 55.3,17 C55.5,16.9 55.6,16.7 55.8,16.6 L56.3,16.1 L56.6,16.1 L56.6,24.3 L56.4,24.3 L56.3,16.4 L56.3,16.4 L56.3,16.4 Z" id="Shape" fill="#FFFFFF"></path>
            <path d="M65.6,24.2 L60.1,24.2 C60.1,23.9 60.2,23.5 60.3,23.3 C60.5,23 60.7,22.8 60.9,22.5 C61.1,22.3 61.4,22 61.7,21.8 C62,21.6 62.3,21.4 62.6,21.1 C62.9,20.9 63.2,20.7 63.5,20.4 C63.8,20.2 64.1,19.9 64.3,19.7 C64.5,19.5 64.7,19.2 64.9,18.9 C65,18.6 65.1,18.3 65.1,18 C65.1,17.7 65,17.4 64.9,17.2 C64.8,17 64.6,16.8 64.4,16.6 C64.2,16.4 64,16.3 63.7,16.2 C63.4,16.1 63.1,16.1 62.8,16.1 C62.4,16.1 62,16.2 61.7,16.3 C61.4,16.4 61.1,16.6 61,16.8 C60.8,17 60.7,17.3 60.6,17.6 C60.5,17.9 60.5,18.3 60.5,18.6 L60.3,18.6 C60.3,17.7 60.5,17 61,16.5 C61.4,16 62.1,15.8 63,15.8 C63.4,15.8 63.7,15.8 64,15.9 C64.3,16 64.6,16.1 64.8,16.3 C65,16.5 65.2,16.7 65.3,17 C65.4,17.3 65.5,17.6 65.5,18 C65.5,18.4 65.4,18.9 65.1,19.2 C64.9,19.6 64.6,19.9 64.2,20.2 C63.8,20.5 63.4,20.8 63,21.1 C62.6,21.4 62.2,21.7 61.8,22 C61.4,22.3 61.1,22.6 60.8,22.9 C60.5,23.2 60.4,23.5 60.4,23.9 L65.7,23.9 L65.7,24.2 L65.6,24.2 Z" id="Shape" fill="#FFFFFF"></path>
            <path d="M80.3,21.9 C80.1,22.2 79.7,22.5 79.3,22.8 C78.9,23.1 78.5,23.2 78.1,23.3 L78.1,23.1 C78.3,23 78.6,22.9 78.8,22.8 C79,22.7 79.2,22.6 79.3,22.5 C79.5,22.4 79.6,22.2 79.8,22.1 C80,21.9 80.1,21.8 80.3,21.6 L80.6,21.6 L80.6,29.8 L80.4,29.8 L80.3,21.9 L80.3,21.9 L80.3,21.9 Z" id="Shape" fill="#FFFFFF"></path>
            <path d="M97.2,44.2 L91.7,44.2 C91.7,43.9 91.8,43.5 91.9,43.3 C92.1,43 92.3,42.8 92.5,42.5 C92.7,42.3 93,42 93.3,41.8 C93.6,41.6 93.9,41.4 94.2,41.1 C94.5,40.9 94.8,40.7 95.1,40.4 C95.4,40.2 95.7,39.9 95.9,39.7 C96.1,39.5 96.3,39.2 96.5,38.9 C96.6,38.6 96.7,38.3 96.7,38 C96.7,37.7 96.6,37.4 96.5,37.2 C96.4,37 96.2,36.8 96,36.6 C95.8,36.4 95.6,36.3 95.3,36.2 C95,36.1 94.7,36.1 94.4,36.1 C94,36.1 93.6,36.2 93.3,36.3 C93,36.4 92.7,36.6 92.6,36.8 C92.4,37 92.3,37.3 92.2,37.6 C92.1,37.9 92.1,38.3 92.1,38.6 L91.9,38.6 C91.9,37.7 92.1,37 92.6,36.5 C93,36 93.7,35.8 94.6,35.8 C95,35.8 95.3,35.8 95.6,35.9 C95.9,36 96.2,36.1 96.4,36.3 C96.6,36.5 96.8,36.7 96.9,37 C97,37.3 97.1,37.6 97.1,38 C97.1,38.4 97,38.9 96.7,39.2 C96.5,39.6 96.2,39.9 95.8,40.2 C95.4,40.5 95,40.8 94.6,41.1 C94.2,41.4 93.8,41.7 93.4,42 C93,42.3 92.7,42.6 92.4,42.9 C92.1,43.2 92,43.5 92,43.9 L97.3,43.9 L97.3,44.2 L97.2,44.2 Z" id="Shape" fill="#FFFFFF"></path>
            <path d="M97.7,57 C97.8,56.7 98,56.4 98.3,56.2 C98.5,56 98.8,55.8 99.2,55.7 C99.5,55.6 99.9,55.5 100.4,55.5 C100.7,55.5 101,55.5 101.3,55.6 C101.6,55.7 101.9,55.8 102.1,55.9 C102.3,56.1 102.5,56.3 102.7,56.5 C102.8,56.8 102.9,57.1 102.9,57.4 C102.9,58 102.7,58.4 102.4,58.7 C102.1,59 101.6,59.2 101.1,59.3 L101.1,59.3 C101.3,59.3 101.6,59.4 101.8,59.5 C102,59.6 102.2,59.7 102.4,59.9 C102.6,60.1 102.7,60.3 102.8,60.5 C102.9,60.8 103,61.1 103,61.4 C103,61.8 102.9,62.1 102.8,62.4 C102.7,62.7 102.5,62.9 102.2,63.2 C101.9,63.4 101.7,63.6 101.3,63.7 C101,63.8 100.6,63.9 100.2,63.9 C99.7,63.9 99.3,63.8 98.9,63.7 C98.5,63.6 98.2,63.4 97.9,63.1 C97.6,62.9 97.4,62.6 97.3,62.2 C97.2,61.8 97.1,61.4 97.1,61 L97.3,61 C97.3,61.4 97.3,61.8 97.4,62.1 C97.5,62.4 97.7,62.7 97.9,62.9 C98.1,63.1 98.4,63.3 98.8,63.4 C99.2,63.5 99.5,63.6 100,63.6 C100.3,63.6 100.6,63.6 100.9,63.5 C101.2,63.4 101.5,63.3 101.7,63.1 C101.9,62.9 102.1,62.7 102.3,62.4 C102.4,62.1 102.5,61.8 102.5,61.5 C102.5,61.1 102.4,60.8 102.3,60.6 C102.2,60.4 102,60.1 101.8,60 C101.6,59.8 101.3,59.7 101.1,59.6 C100.8,59.5 100.5,59.5 100.2,59.5 L99.6,59.5 L99.6,59.3 L100.2,59.3 C100.5,59.3 100.7,59.3 101,59.2 C101.3,59.1 101.5,59 101.7,58.9 C101.9,58.8 102.1,58.6 102.2,58.3 C102.3,58.1 102.4,57.8 102.4,57.5 C102.4,57.2 102.3,56.9 102.2,56.7 C102.1,56.5 101.9,56.3 101.7,56.2 C101.5,56.1 101.2,56 101,55.9 C100.7,55.8 100.4,55.8 100.2,55.8 C99.8,55.8 99.5,55.9 99.1,56 C98.8,56.1 98.5,56.3 98.3,56.5 C98.1,56.7 97.9,57 97.8,57.3 C97.7,57.6 97.6,58 97.6,58.4 L97.4,58.4 C97.5,57.8 97.5,57.4 97.7,57 L97.7,57 Z" id="Shape" fill="#FFFFFF"></path>
            <path d="M91.9,81.9 L96,76.2 L96.3,76.2 L96.3,82 L97.8,82 L97.8,82.2 L96.3,82.2 L96.3,84.3 L96.1,84.3 L96.1,82.2 L92,82.2 L92,81.9 L91.9,81.9 Z M96.1,76.5 L92.2,82 L96.1,82 L96.1,76.5 L96.1,76.5 L96.1,76.5 Z" id="Shape" fill="#FFFFFF"></path>
            <path d="M77.2,94.3 L77.2,94.3 C77.5,93.9 77.8,93.6 78.2,93.5 C78.6,93.3 79,93.2 79.5,93.2 C79.9,93.2 80.3,93.3 80.7,93.4 C81,93.5 81.3,93.7 81.6,94 C81.8,94.2 82,94.5 82.2,94.9 C82.3,95.2 82.4,95.6 82.4,96 C82.4,96.4 82.3,96.8 82.2,97.2 C82.1,97.6 81.9,97.9 81.6,98.1 C81.4,98.3 81.1,98.5 80.7,98.7 C80.4,98.8 80,98.9 79.5,98.9 C79.1,98.9 78.7,98.8 78.3,98.7 C77.9,98.6 77.6,98.4 77.4,98.2 C77.1,98 77,97.7 76.8,97.3 C76.7,97 76.6,96.6 76.6,96.1 L76.8,96.1 C76.8,96.5 76.8,96.9 77,97.2 C77.1,97.5 77.3,97.8 77.5,98 C77.7,98.2 78,98.4 78.3,98.5 C78.6,98.6 79,98.7 79.4,98.7 C79.8,98.7 80.2,98.6 80.5,98.5 C80.8,98.4 81.1,98.2 81.3,98 C81.5,97.8 81.7,97.5 81.8,97.2 C81.9,96.9 82,96.5 82,96.1 C82,95.7 81.9,95.4 81.8,95.1 C81.7,94.8 81.5,94.5 81.3,94.3 C81.1,94.1 80.8,93.9 80.5,93.8 C80.2,93.7 79.8,93.6 79.4,93.6 C78.9,93.6 78.5,93.7 78.1,93.9 C77.7,94.1 77.4,94.4 77.2,94.8 L76.9,94.8 L77.8,90.7 L82,90.7 L82,90.9 L78,90.9 L77.2,94.3 L77.2,94.3 Z" id="Shape" fill="#FFFFFF"></path>
            <path d="M61.7,96.9 C61.5,96.7 61.3,96.5 61.1,96.3 C60.9,96.2 60.7,96.1 60.4,96 C60.2,95.9 59.9,95.9 59.7,95.9 C59.1,95.9 58.6,96.1 58.2,96.4 C57.8,96.7 57.5,97.1 57.3,97.6 C57.1,98.1 57,98.6 56.9,99.1 C56.8,99.6 56.8,100.1 56.8,100.6 L56.8,100.6 C56.9,100.3 57,100 57.1,99.8 C57.3,99.6 57.5,99.3 57.7,99.1 C57.9,98.9 58.2,98.8 58.5,98.7 C58.8,98.6 59.1,98.5 59.4,98.5 C59.8,98.5 60.1,98.6 60.4,98.7 C60.7,98.8 61,99 61.3,99.3 C61.6,99.5 61.8,99.8 61.9,100.2 C62.1,100.5 62.1,100.9 62.1,101.4 C62.1,101.8 62,102.2 61.9,102.5 C61.7,102.8 61.5,103.1 61.3,103.4 C61,103.6 60.7,103.8 60.4,104 C60.1,104.1 59.7,104.2 59.3,104.2 C59,104.2 58.8,104.2 58.5,104.1 C58.3,104 58,103.9 57.8,103.8 C57.6,103.7 57.4,103.5 57.3,103.4 C57.1,103.2 57,103.1 56.9,102.9 C56.7,102.5 56.5,102.1 56.5,101.7 C56.4,101.2 56.4,100.7 56.4,100.2 C56.4,99.7 56.4,99.2 56.5,98.7 C56.6,98.2 56.8,97.7 57,97.3 C57.2,96.9 57.5,96.5 57.9,96.2 C58.3,95.9 58.8,95.8 59.4,95.8 C59.8,95.8 60.1,95.9 60.4,96 C60.7,96.1 60.9,96.3 61.2,96.4 C61.4,96.6 61.6,96.8 61.7,97.1 C61.8,97.4 61.9,97.6 62,97.9 L61.8,97.9 C62,97.5 61.9,97.2 61.7,96.9 L61.7,96.9 Z M62,100.4 C61.9,100.1 61.7,99.8 61.4,99.6 C61.2,99.4 60.9,99.2 60.6,99 C60.3,98.9 60,98.8 59.6,98.8 C59.2,98.8 58.9,98.9 58.6,99 C58.3,99.1 58,99.3 57.8,99.6 C57.6,99.8 57.4,100.1 57.2,100.4 C57.1,100.7 57,101 57,101.4 C57,101.8 57.1,102.1 57.2,102.4 C57.3,102.7 57.5,103 57.8,103.2 C58,103.4 58.3,103.6 58.6,103.8 C58.9,103.9 59.2,104 59.6,104 C60,104 60.3,103.9 60.6,103.8 C60.9,103.7 61.2,103.5 61.4,103.2 C61.6,103 61.8,102.7 62,102.4 C62.1,102.1 62.2,101.8 62.2,101.4 C62.3,101.1 62.2,100.7 62,100.4 L62,100.4 Z" id="Shape" fill="#FFFFFF"></path>
            <path d="M36.6,90.2 L41.8,90.2 L41.8,90.5 C41.2,91.1 40.7,91.6 40.3,92.2 C39.8,92.8 39.5,93.4 39.1,94 C38.8,94.6 38.5,95.3 38.4,96 C38.2,96.7 38.1,97.5 38.1,98.3 L37.9,98.3 C37.9,97.5 38,96.7 38.1,96 C38.3,95.3 38.5,94.6 38.8,93.9 C39.1,93.2 39.5,92.6 40,92 C40.5,91.4 41,90.8 41.5,90.3 L36.6,90.3 L36.6,90.2 L36.6,90.2 Z" id="Shape" fill="#FFFFFF"></path>
            <path d="M27,80.7 C27.4,81.1 27.6,81.6 27.6,82.2 C27.6,82.6 27.5,83 27.4,83.3 C27.2,83.6 27,83.9 26.8,84.1 C26.5,84.3 26.2,84.4 25.9,84.5 C25.5,84.6 25.2,84.6 24.8,84.6 C24.4,84.6 24,84.6 23.7,84.5 C23.3,84.4 23,84.3 22.8,84.1 C22.5,83.9 22.3,83.7 22.2,83.3 C22,83 22,82.6 22,82.2 C22,81.6 22.2,81.1 22.6,80.7 C23,80.3 23.5,80.1 24.1,80 L24.1,80 C23.9,80 23.6,79.9 23.4,79.8 C23.2,79.7 23,79.6 22.9,79.4 C22.7,79.3 22.6,79.1 22.5,78.9 C22.4,78.7 22.4,78.5 22.4,78.3 C22.4,77.9 22.5,77.6 22.6,77.4 C22.7,77.1 22.9,76.9 23.1,76.8 C23.3,76.6 23.6,76.5 23.9,76.4 C24.2,76.3 24.5,76.3 24.9,76.3 C25.3,76.3 25.6,76.3 25.9,76.4 C26.2,76.5 26.5,76.6 26.7,76.8 C26.9,77 27.1,77.2 27.2,77.4 C27.3,77.7 27.4,78 27.4,78.3 C27.4,78.5 27.4,78.7 27.3,78.9 C27.2,79.1 27.1,79.3 26.9,79.4 C26.7,79.5 26.6,79.7 26.4,79.8 C26.2,79.9 26,80 25.7,80 L25.7,80 C26.1,80.1 26.7,80.3 27,80.7 L27,80.7 Z M27.1,81.2 C26.9,80.9 26.7,80.7 26.5,80.6 C26.2,80.4 26,80.3 25.6,80.3 C25.3,80.2 24.9,80.2 24.6,80.2 C24.2,80.2 23.9,80.2 23.6,80.3 C23.3,80.4 23,80.5 22.7,80.6 C22.4,80.8 22.2,81 22.1,81.2 C21.9,81.5 21.9,81.8 21.9,82.2 C21.9,82.6 22,82.9 22.1,83.2 C22.2,83.5 22.4,83.7 22.7,83.9 C23,84.1 23.2,84.2 23.6,84.3 C23.9,84.4 24.3,84.4 24.6,84.4 C25,84.4 25.3,84.4 25.6,84.3 C25.9,84.2 26.2,84.1 26.5,83.9 C26.8,83.7 27,83.5 27.1,83.2 C27.2,82.9 27.3,82.6 27.3,82.2 C27.3,81.8 27.3,81.5 27.1,81.2 L27.1,81.2 Z M26.7,77.3 C26.6,77.1 26.4,76.9 26.2,76.7 C26,76.6 25.7,76.5 25.5,76.4 C25.2,76.3 24.9,76.3 24.6,76.3 C24.3,76.3 24,76.3 23.7,76.4 C23.4,76.5 23.2,76.6 23,76.7 C22.8,76.8 22.6,77 22.5,77.3 C22.4,77.5 22.3,77.8 22.3,78.2 C22.3,78.5 22.4,78.7 22.5,79 C22.6,79.2 22.8,79.4 23,79.5 C23.2,79.6 23.5,79.7 23.7,79.8 C24,79.9 24.2,79.9 24.5,79.9 C24.8,79.9 25,79.9 25.3,79.8 C25.6,79.7 25.8,79.6 26,79.5 C26.2,79.4 26.4,79.2 26.5,79 C26.6,78.8 26.7,78.5 26.7,78.2 C26.9,77.9 26.9,77.6 26.7,77.3 L26.7,77.3 Z" id="Shape" fill="#FFFFFF"></path>
            <path d="M17.3,62.9 C17.5,63.1 17.7,63.3 17.9,63.5 C18.1,63.6 18.3,63.7 18.6,63.8 C18.8,63.9 19.1,63.9 19.3,63.9 C19.7,63.9 20.1,63.8 20.4,63.7 C20.7,63.6 21,63.4 21.2,63.1 C21.4,62.9 21.6,62.6 21.7,62.3 C21.8,62 21.9,61.7 22,61.3 C22.1,61 22.1,60.6 22.2,60.3 L22.2,59.3 L22.2,59.3 C22.1,59.6 22,59.9 21.9,60.1 C21.7,60.3 21.5,60.6 21.3,60.8 C21.1,61 20.8,61.1 20.5,61.2 C20.2,61.3 19.9,61.4 19.6,61.4 C19.2,61.4 18.9,61.3 18.6,61.2 C18.3,61.1 18,60.9 17.7,60.6 C17.4,60.4 17.2,60.1 17.1,59.7 C16.9,59.4 16.9,59 16.9,58.6 C16.9,58.2 17,57.8 17.1,57.5 C17.3,57.2 17.5,56.9 17.7,56.6 C18,56.3 18.3,56.2 18.6,56 C18.9,55.9 19.3,55.8 19.7,55.8 C20,55.8 20.2,55.8 20.5,55.9 C20.7,56 21,56.1 21.2,56.2 C21.4,56.3 21.6,56.5 21.7,56.6 C21.9,56.8 22,56.9 22.1,57.1 C22.3,57.5 22.5,57.9 22.6,58.3 C22.7,58.8 22.7,59.3 22.7,59.8 C22.7,60.3 22.7,60.8 22.6,61.4 C22.5,62 22.3,62.4 22.1,62.8 C21.9,63.2 21.5,63.6 21.2,63.8 C20.8,64.1 20.3,64.2 19.7,64.2 C19.3,64.2 19,64.1 18.7,64 C18.4,63.9 18.2,63.8 17.9,63.6 C17.7,63.4 17.5,63.2 17.4,62.9 C17.3,62.6 17.2,62.4 17.1,62.1 L17.3,62.1 C17,62.4 17.1,62.7 17.3,62.9 L17.3,62.9 Z M21.7,57.5 C21.6,57.2 21.4,56.9 21.1,56.7 C20.9,56.5 20.6,56.3 20.3,56.1 C20,56 19.7,55.9 19.3,55.9 C18.9,55.9 18.6,56 18.3,56.1 C18,56.2 17.7,56.4 17.5,56.7 C17.3,56.9 17.1,57.2 16.9,57.5 C16.8,57.8 16.7,58.1 16.7,58.5 C16.7,58.9 16.8,59.2 16.9,59.5 C17,59.8 17.2,60.1 17.5,60.3 C17.7,60.5 18,60.7 18.3,60.9 C18.6,61 18.9,61.1 19.3,61.1 C19.7,61.1 20,61 20.3,60.9 C20.6,60.8 20.9,60.6 21.1,60.3 C21.3,60.1 21.5,59.8 21.7,59.5 C21.8,59.2 21.9,58.9 21.9,58.5 C21.9,58.1 21.8,57.8 21.7,57.5 L21.7,57.5 Z" id="Shape" fill="#FFFFFF"></path>
            <path d="M21.6,36.5 C21.4,36.8 21,37.1 20.6,37.4 C20.2,37.7 19.8,37.8 19.4,37.9 L19.4,37.7 C19.6,37.6 19.9,37.5 20.1,37.4 C20.3,37.3 20.5,37.2 20.6,37.1 C20.8,37 20.9,36.8 21.1,36.7 L21.6,36.2 L21.9,36.2 L21.9,44.4 L21.7,44.4 L21.6,36.5 L21.6,36.5 L21.6,36.5 Z" id="Shape" fill="#FFFFFF"></path>
            <path d="M31,41.8 C30.9,42.3 30.7,42.8 30.5,43.2 C30.3,43.6 29.9,43.9 29.6,44.2 C29.2,44.4 28.7,44.6 28.1,44.6 C27.5,44.6 27,44.5 26.6,44.2 C26.2,44 25.9,43.6 25.6,43.2 C25.4,42.8 25.2,42.3 25.1,41.8 C25,41.3 24.9,40.8 24.9,40.3 C24.9,39.8 25,39.3 25.1,38.8 C25.2,38.3 25.4,37.8 25.6,37.4 C25.8,37 26.2,36.7 26.6,36.4 C27,36.2 27.5,36 28.1,36 C28.7,36 29.2,36.1 29.6,36.4 C30,36.6 30.3,37 30.5,37.4 C30.7,37.8 30.9,38.3 31,38.8 C31.1,39.3 31.1,39.8 31.1,40.3 C31.1,40.8 31.1,41.3 31,41.8 L31,41.8 Z M30.8,38.9 C30.7,38.4 30.6,38 30.3,37.6 C30.1,37.2 29.8,36.9 29.4,36.7 C29,36.5 28.6,36.3 28,36.3 C27.4,36.3 27,36.4 26.6,36.7 C26.2,36.9 25.9,37.3 25.7,37.6 C25.5,38 25.3,38.4 25.2,38.9 C25.1,39.4 25.1,39.8 25.1,40.3 C25.1,40.8 25.1,41.2 25.2,41.7 C25.3,42.2 25.4,42.6 25.7,43 C25.9,43.4 26.2,43.7 26.6,43.9 C27,44.1 27.4,44.3 28,44.3 C28.6,44.3 29,44.2 29.4,43.9 C29.8,43.7 30.1,43.3 30.3,43 C30.5,42.6 30.7,42.2 30.8,41.7 C30.9,41.2 30.9,40.8 30.9,40.3 C30.9,39.8 30.8,39.3 30.8,38.9 L30.8,38.9 Z" id="Shape" fill="#FFFFFF"></path>
            <path d="M36.7,22 C36.5,22.3 36.1,22.6 35.7,22.9 C35.3,23.2 34.9,23.3 34.5,23.4 L34.5,23.2 C34.7,23.1 35,23 35.2,22.9 C35.4,22.8 35.6,22.7 35.7,22.6 C35.9,22.5 36,22.3 36.2,22.2 L36.7,21.7 L37,21.7 L37,29.9 L36.8,29.9 L36.7,22 L36.7,22 L36.7,22 Z" id="Shape" fill="#FFFFFF"></path>
            <path d="M43.4,22 C43.2,22.3 42.8,22.6 42.4,22.9 C42,23.2 41.6,23.3 41.2,23.4 L41.2,23.2 C41.4,23.1 41.7,23 41.9,22.9 C42.1,22.8 42.3,22.7 42.4,22.6 C42.6,22.5 42.7,22.3 42.9,22.2 L43.4,21.7 L43.7,21.7 L43.7,29.9 L43.5,29.9 L43.4,22 L43.4,22 L43.4,22 Z" id="Shape" fill="#FFFFFF"></path>
            <polygon id="Shape" fill="#FFFFFF" points="61.9 61.9 40 51.7 40.8 49.9 61.8 59.8"></polygon>
            <rect id="Rectangle-path" fill="#FFFFFF" x="60.1" y="60.5" width="1" height="29.7"></rect>
            <polygon id="Shape" fill="#FFFFFF" points="27.6 76.3 26.8 74.4 60.2 59.8 61.8 60.6 61.9 61.9"></polygon>
        </g>
    </g>
</svg>