<?xml version="1.0" encoding="UTF-8" standalone="no"?>
<svg width="121px" height="120px" viewBox="0 0 121 120" version="1.1" xmlns="http://www.w3.org/2000/svg" xmlns:xlink="http://www.w3.org/1999/xlink">
    <!-- Generator: Sketch 40.3 (33839) - http://www.bohemiancoding.com/sketch -->
    <title>none-2</title>
    <desc>Created with Sketch.</desc>
    <defs>
        <linearGradient x1="49.9483736%" y1="1.92020033%" x2="49.9483736%" y2="98.4996661%" id="linearGradient-1">
            <stop stop-color="#F2F2F2" offset="0%"></stop>
            <stop stop-color="#808081" offset="100%"></stop>
        </linearGradient>
    </defs>
    <g id="Page-1" stroke="none" stroke-width="1" fill="none" fill-rule="evenodd">
        <g id="none-2">
            <path d="M120.8,33.3 L120.8,29.7 C120.7,27 120.6,24.3 120.1,21.9 C119.6,19.2 118.9,16.8 117.7,14.4 C116.5,12 114.8,9.8 112.9,8 C111,6.2 108.9,4.5 106.4,3.2 C104,2 101.6,1.3 98.9,0.8 C96.5,0.3 93.7,0.2 91.1,0.1 L87.5,0.1 L83.1,0.1 L38.5,0.1 L34.1,0.1 L30.5,0.1 C27.8,0.2 25.1,0.3 22.7,0.8 C20,1.3 17.6,2 15.2,3.2 C12.8,4.4 10.6,6.1 8.8,8 C7,9.9 5.3,12 4,14.4 C2.8,16.8 2.1,19.2 1.6,21.9 C1.1,24.3 1,27.1 0.9,29.7 L0.9,33.3 L0.9,37.7 L0.9,82.3 L0.9,86.7 L0.9,90.3 C1,93 1.1,95.7 1.6,98.1 C2.1,100.8 2.8,103.2 4,105.6 C5.2,108 6.9,110.2 8.8,112 C10.7,113.8 12.8,115.5 15.2,116.8 C17.6,118 20,118.7 22.7,119.2 C25.1,119.7 27.9,119.8 30.5,119.9 L34.1,119.9 L38.5,119.9 L83.1,119.9 L87.5,119.9 L91.1,119.9 C93.8,119.8 96.5,119.7 98.9,119.2 C101.6,118.7 104,118 106.4,116.8 C108.8,115.6 111,113.9 112.9,112 C114.7,110.1 116.4,108 117.7,105.6 C118.9,103.2 119.6,100.8 120.1,98.1 C120.6,95.7 120.7,92.9 120.8,90.3 L120.8,86.7 L120.8,82.3 L120.8,37.7 L120.8,33.3 L120.8,33.3 Z" id="Shape" fill="url(#linearGradient-1)"></path>
            <circle id="Oval" fill="#F2F2F2" cx="60.8" cy="51.5" r="22.5"></circle>
            <path d="M97.7,72.2 C97.7,62.4 89.9,54.4 80.2,54.4 C79.4,54.4 78.7,54.5 77.9,54.6 C74.8,46 66.7,39.9 57.2,39.9 C45,39.9 35.2,49.9 35.2,62.2 L35.2,63 C28.9,64.8 24,69.7 24,76.7 C24,82.4 27.3,90.9 34.5,90.9 L82.6,90.9 C87,91 97.7,84.6 97.7,72.2 L97.7,72.2 Z" id="Shape" fill="#808081" opacity="0.9"></path>
        </g>
    </g>
</svg>