<?xml version="1.0" encoding="UTF-8" standalone="no"?>
<svg width="121px" height="120px" viewBox="0 0 121 120" version="1.1" xmlns="http://www.w3.org/2000/svg" xmlns:xlink="http://www.w3.org/1999/xlink">
    <!-- Generator: Sketch 40.3 (33839) - http://www.bohemiancoding.com/sketch -->
    <title>socials</title>
    <desc>Created with Sketch.</desc>
    <defs>
        <linearGradient x1="49.9861638%" y1="2.52186978%" x2="49.9861638%" y2="98.9361436%" id="linearGradient-1">
            <stop stop-color="#F2F2F2" offset="0%"></stop>
            <stop stop-color="#808081" offset="100%"></stop>
        </linearGradient>
    </defs>
    <g id="Page-1" stroke="none" stroke-width="1" fill="none" fill-rule="evenodd">
        <g id="socials">
            <path d="M120.7,33.3 L120.7,29.7 C120.6,27 120.5,24.3 120,21.9 C119.5,19.2 118.8,16.8 117.6,14.4 C116.4,12 114.7,9.8 112.8,8 C110.9,6.2 108.8,4.5 106.3,3.2 C103.9,2 101.5,1.3 98.8,0.8 C96.4,0.3 93.6,0.2 91,0.1 L87.4,0.1 L83,0.1 L38.4,0.1 L34,0.1 L30.4,0.1 C27.7,0.2 25,0.3 22.6,0.8 C19.9,1.3 17.5,2 15.1,3.2 C12.7,4.4 10.5,6.1 8.7,8 C6.9,9.9 5.2,12 3.9,14.4 C2.7,16.8 2,19.2 1.5,21.9 C1,24.3 0.9,27.1 0.8,29.7 L0.8,33.3 L0.8,37.7 L0.8,82.3 L0.8,86.7 L0.8,90.3 C0.9,93 1,95.7 1.5,98.1 C2,100.8 2.7,103.2 3.9,105.6 C5.1,108 6.8,110.2 8.7,112 C10.6,113.8 12.7,115.5 15.1,116.8 C17.5,118 19.9,118.7 22.6,119.2 C25,119.7 27.8,119.8 30.4,119.9 L34,119.9 L38.4,119.9 L83,119.9 L87.4,119.9 L91,119.9 C93.7,119.8 96.4,119.7 98.8,119.2 C101.5,118.7 103.9,118 106.3,116.8 C108.7,115.6 110.9,113.9 112.8,112 C114.6,110.1 116.3,108 117.6,105.6 C118.8,103.2 119.5,100.8 120,98.1 C120.5,95.7 120.6,92.9 120.7,90.3 L120.7,86.7 L120.7,82.3 L120.7,37.7 C120.8,36.6 120.8,35.1 120.7,33.3 L120.7,33.3 Z" id="Shape" fill="url(#linearGradient-1)"></path>
            <path d="M101.2,47.4 C97.4,44.6 92.5,41.6 85.7,42.1 C79.3,42.5 75,45.5 71.3,48.7 C73.7,48.5 76.2,49.4 76.9,51 C77.9,53.2 75.6,54.8 74.1,55.6 C79.2,55.4 82,57.5 83.8,60.6 C82.8,62.1 80.8,62.7 78.5,62.9 C82.9,64.2 86.7,66.1 87.3,71.2 C85.9,71.5 84.4,71.7 82.8,71.8 C85.9,74 89.3,76.4 89.3,81.9 C81.9,79.1 74.4,76.1 67.9,72.3 C65.7,71.1 64,69.3 62.3,67.6 C60.9,71.6 59.2,75.3 57.2,78.8 C55.3,82.2 53,85.4 49.6,87.4 C49.7,86.6 50.1,86.1 50.4,85.6 C48.8,86.6 46.9,87.9 44.4,88.2 C44.6,86.8 45.8,86.4 46.7,85.7 C45.8,86 44.9,86.4 43.8,86.7 C42.9,86.9 41,87.3 40.8,86.3 C40.6,85.2 42.8,84.4 43.6,84.2 C44.9,83.7 46.1,83.4 47.5,83.2 C37.3,82.3 32.3,76.2 30.1,67.4 C27.4,66.5 23,66.5 20.6,67.6 C21.9,64.5 25.3,63.5 29.3,63.1 C27.1,62.1 23.5,61.7 20.4,62.2 C20.3,62 20.7,61.7 20.9,61.5 C22.8,59.6 25.9,58.3 29.9,58.7 C34,44.2 45,35.5 60.8,32.6 C65.1,31.8 69.8,31.6 74,32 C86.6,33.1 95,39.7 101.2,47.4 L101.2,47.4 Z" id="Shape" fill="#010202"></path>
        </g>
    </g>
</svg>