<?xml version="1.0" encoding="UTF-8" standalone="no"?>
<svg width="121px" height="120px" viewBox="0 0 121 120" version="1.1" xmlns="http://www.w3.org/2000/svg" xmlns:xlink="http://www.w3.org/1999/xlink">
    <!-- Generator: Sketch 40.3 (33839) - http://www.bohemiancoding.com/sketch -->
    <title>yearbook</title>
    <desc>Created with Sketch.</desc>
    <defs>
        <linearGradient x1="49.9854748%" y1="98.0429883%" x2="49.9854748%" y2="1.46427379%" id="linearGradient-1">
            <stop stop-color="#F2F2F2" offset="0%"></stop>
            <stop stop-color="#808081" offset="100%"></stop>
        </linearGradient>
    </defs>
    <g id="Page-1" stroke="none" stroke-width="1" fill="none" fill-rule="evenodd">
        <g id="yearbook">
            <path d="M120.4,33.3 L120.4,29.7 C120.3,27 120.2,24.3 119.7,21.9 C119.2,19.2 118.5,16.8 117.3,14.4 C116.1,12 114.4,9.8 112.5,8 C110.6,6.2 108.5,4.5 106.1,3.2 C103.7,2 101.3,1.3 98.6,0.8 C96.2,0.3 93.4,0.2 90.8,0.1 L87.2,0.1 L82.8,0.1 L38.2,0.1 L33.8,0.1 L30.2,0.1 C27.5,0.2 24.8,0.3 22.4,0.8 C19.7,1.3 17.3,2 14.9,3.2 C12.5,4.4 10.3,6.1 8.4,8 C6.6,9.9 4.9,12 3.6,14.4 C2.4,16.8 1.7,19.2 1.2,21.9 C0.7,24.3 0.6,27.1 0.5,29.7 L0.5,33.3 L0.5,37.7 L0.5,82.3 L0.5,86.7 L0.5,90.3 C0.6,93 0.7,95.7 1.2,98.1 C1.7,100.8 2.4,103.2 3.6,105.6 C4.8,108 6.5,110.2 8.4,112 C10.3,113.8 12.4,115.5 14.9,116.8 C17.3,118 19.7,118.7 22.4,119.2 C24.8,119.7 27.6,119.8 30.2,119.9 L33.8,119.9 L38.2,119.9 L82.8,119.9 L87.2,119.9 L90.8,119.9 C93.5,119.8 96.2,119.7 98.6,119.2 C101.3,118.7 103.7,118 106.1,116.8 C108.5,115.6 110.7,113.9 112.5,112 C114.3,110.1 116,108 117.3,105.6 C118.5,103.2 119.2,100.8 119.7,98.1 C120.2,95.7 120.3,92.9 120.4,90.3 L120.4,86.7 L120.4,82.3 L120.4,37.7 C120.5,36.6 120.4,35.1 120.4,33.3 L120.4,33.3 Z" id="Shape" fill="url(#linearGradient-1)"></path>
            <path d="M36.9,45.7 C42.8,45.7 45.8,51.2 45.8,51.2 C45.8,51.2 48.9,47 55.4,47 C62.5,47.1 66.1,54.1 66.1,54.2 C66.1,54.2 70.9,49.8 77.5,49.8 L77.7,49.8 C85.5,49.9 93.2,55.6 94.4,65.6 L94.4,97.7 L60.4,97.7 L60.4,82.3 L42.4,82.3 L42.4,74.4 L26.5,74.4 L26.5,59.4 C26.7,48.7 31.7,45.7 36.9,45.7 L36.9,45.7 Z M36.3,29.2 C40.3,29.2 43.9,32.3 44.1,36.5 L44.1,36.9 C44.1,40.7 41,44.1 36.9,44.1 C33,44.1 29.4,41 29.4,37.2 C29.4,33.3 32.3,29.2 36.3,29.2 L36.3,29.2 Z M55.1,27 C60.2,27 64,31.8 64,36 C64,40.8 59.7,45.3 54.9,45.3 C50.1,45.3 45.9,41.2 45.9,36.2 L45.9,36 C45.9,30.9 50.1,27 55.1,27 L55.1,27 Z M77.6,22.4 C83.9,22.4 89.9,28.1 89.9,35 C89.9,41.8 83.5,47.4 77.5,47.4 C70.7,47.4 65.1,41.8 65.1,35 C65.1,28.1 70.7,22.4 77.6,22.4 L77.6,22.4 Z" id="Shape" fill="#010202"></path>
        </g>
    </g>
</svg>