<?xml version="1.0" standalone="no"?>
<!DOCTYPE svg PUBLIC "-//W3C//DTD SVG 1.1//EN" "http://www.w3.org/Graphics/SVG/1.1/DTD/svg11.dtd" >
<svg>
<metadata>
Created by FontForge 20120731 at Wed Oct 12 16:56:09 2016
 By ,,,
PropCourier was designed by Manufactura Independente (Ana Carvalho &#38; Ricardo Lafuente), in October 2010. It is a friendly fork of OSP's NotCourier.
NotCourier was designed by OSP (Ludivine Loiseau), in July 2008. It is based on Nimbus Mono, copyright (URW)++,Copyright 1999 by (URW)++ Design &#38; Development; Cyrillic glyphs added by Valek Filippov (C) 2001-2005
</metadata>
<defs>
<font id="PropCourierSans-Bold" horiz-adv-x="600" >
  <font-face 
    font-family="PropCourierSans"
    font-weight="700"
    font-stretch="normal"
    units-per-em="1000"
    panose-1="2 11 8 9 3 1 2 2 2 3"
    ascent="800"
    descent="-200"
    x-height="437"
    cap-height="565"
    bbox="-153 -278 944 1086"
    underline-thickness="50"
    underline-position="-100"
    unicode-range="U+0020-FB02"
  />
<missing-glyph horiz-adv-x="364" 
d="M33 0v666h265v-666h-265zM66 33h199v600h-199v-600z" />
    <glyph glyph-name="Ldot" unicode="L&#xb7;" horiz-adv-x="506" 
d="M289 219h-17q-26 0 -45 18.5t-19 44.5t19 45t45 19h17q27 0 45.5 -18.5t18.5 -45.5q0 -26 -18.5 -44.5t-45.5 -18.5zM70 0v583h100v-483h315v-100h-415z" />
    <glyph glyph-name="ldot" unicode="l&#xb7;" horiz-adv-x="485" 
d="M365 208h-17q-26 0 -45 18.5t-19 44.5t19 45t45 19h17q27 0 45.5 -18.5t18.5 -45.5q0 -26 -18.5 -44.5t-45.5 -18.5zM139 0v524h-8q-35 0 -46 10q-21 14 -21 40q0 29 24 43q10 7 43 7h108v-624h-100z" />
    <glyph glyph-name="fi" unicode="fi" horiz-adv-x="607" 
d="M221 0h-100v337h-38q-33 0 -46 10q-21 15 -21 40q0 29 24 43q10 7 43 7h38v39q0 62 39.5 104.5t96.5 42.5q62 0 99 -24q22 -14 22 -40q0 -21 -14.5 -36t-34.5 -15q-10 0 -30 7q-24 9 -39 9q-16 0 -27.5 -14.5t-11.5 -33.5v-39h33q32 0 45 -9q21 -16 21 -41q0 -27 -24 -43
q-11 -7 -42 -7h-33v-337zM443 0v337h-20q-33 0 -45 10q-21 15 -21 40q0 29 24 43q11 7 42 7h120v-437h-100zM526 624v-105h-118v105h118z" />
    <glyph glyph-name="fl" unicode="fl" horiz-adv-x="553" 
d="M258 523q-40 0 -40 -48v-38h33q32 0 45 -9q21 -16 21 -41q0 -27 -24 -43q-11 -7 -42 -7h-33v-337h-100v337h-37q-33 0 -46 10q-21 15 -21 40q0 29 24 43q10 7 43 7h37v38q0 61 39 104.5t94 43.5h108h130v-623h-100v523h-34h-97z" />
    <glyph glyph-name=".notdef" horiz-adv-x="364" 
d="M33 0v666h265v-666h-265zM66 33h199v600h-199v-600z" />
    <glyph glyph-name=".null" horiz-adv-x="0" 
 />
    <glyph glyph-name="nonmarkingreturn" horiz-adv-x="333" 
 />
    <glyph glyph-name="space" unicode=" " horiz-adv-x="375" 
 />
    <glyph glyph-name="exclam" unicode="!" horiz-adv-x="377" 
d="M267 525l-29 -297q-5 -49 -49 -49q-21 0 -34.5 13t-15.5 36l-29 297q-2 24 -2 33q0 35 23 57.5t58 22.5t57.5 -23t22.5 -57q0 -7 -2 -33zM197 -15h-17q-28 0 -47.5 19.5t-19.5 46.5t19.5 46.5t47.5 19.5h17q28 0 47 -19t19 -47t-19 -47t-47 -19z" />
    <glyph glyph-name="quotedbl" unicode="&#x22;" horiz-adv-x="474" 
d="M73 602h128l-31 -254q-3 -20 -10 -28t-22 -8q-27 0 -31 35zM273 602h128l-31 -254q-3 -20 -10 -28t-22 -8q-27 0 -31 35z" />
    <glyph glyph-name="numbersign" unicode="#" horiz-adv-x="580" 
d="M437 444h25q32 0 45 -9q21 -16 21 -41q0 -29 -24 -43q-13 -7 -42 -7h-32l-8 -106h19q34 0 46 -9q21 -16 21 -41q0 -28 -24 -42q-13 -7 -42 -7h-27l-11 -168q-2 -31 -13 -44q-16 -19 -39 -19q-19 0 -34 14.5t-15 33.5v3l2 19l11 161h-72l-12 -168q0 -63 -50 -63
q-22 0 -36 14.5t-14 37.5q0 11 1 18l11 161h-26q-32 0 -45 9q-21 16 -21 41q0 28 24 42q10 7 42 7h33l7 106h-19q-33 0 -46 9q-21 16 -21 41q0 29 24 43q10 7 43 7h26l12 168q1 30 11 44q16 19 40 19q21 0 35.5 -15t14.5 -35v-2l-1 -18l-11 -161h71l12 168q1 32 11 44
q16 19 40 19q19 0 34.5 -14.5t15.5 -30.5v-3l-2 -22zM330 344h-71l-8 -106h72z" />
    <glyph glyph-name="dollar" unicode="$" horiz-adv-x="546" 
d="M464 438q-15 -21 -41 -21q-43 0 -52 42q-2 14 -27.5 25t-56.5 11q-45 0 -72 -17t-27 -45q0 -41 75 -56l65 -14q87 -18 124 -55q42 -42 42 -109q0 -65 -44 -111t-122 -61v-83q0 -35 -9 -46q-16 -21 -40 -21q-29 0 -43 24q-7 11 -7 43v83q-37 8 -79 25q-34 14 -62 50.5
t-28 71.5q0 19 9 34q13 21 41 21q20 0 36 -14q7 -8 15 -35q6 -23 40.5 -39.5t75.5 -16.5q49 0 81 22t32 54q0 26 -19 41.5t-61 23.5l-74 15q-152 31 -152 155q0 59 40.5 102.5t104.5 54.5v26q0 32 9 46q17 20 41 20q28 0 42 -24q7 -10 7 -42v-26q50 -9 67 -18
q35 -19 56.5 -49t21.5 -58q0 -17 -9 -29z" />
    <glyph glyph-name="percent" unicode="%" horiz-adv-x="489" 
d="M172 617q59 0 99.5 -41t40.5 -100q0 -56 -41 -97t-98 -41q-58 0 -99 41t-41 99q0 57 41 98t98 41zM172 552q-30 0 -52 -22t-22 -52q0 -31 22 -53t52 -22q31 0 53 22t22 52q0 31 -21.5 53t-53.5 22zM435 331l-362 -118q-14 -4 -20 -4q-11 0 -20 9.5t-9 22.5q0 21 30 31
l362 118q12 4 20 4q11 0 20 -9.5t9 -22.5q0 -23 -30 -31zM312 264q59 0 99.5 -41t40.5 -100q0 -56 -41 -97t-99 -41q-57 0 -98 41t-41 99q0 57 41 98t98 41zM312 199q-30 0 -52 -22t-22 -52q0 -31 22 -53t53 -22q30 0 52 22t22 52q0 32 -21.5 53.5t-53.5 21.5z" />
    <glyph glyph-name="ampersand" unicode="&#x26;" horiz-adv-x="503" 
d="M405 100l66 -100h-119l-11 15q-41 -29 -113 -29q-83 0 -132.5 43t-49.5 115q0 103 96 159q-34 58 -34 96q0 61 45.5 106t106.5 45q18 0 38 -4.5t52.5 -26.5t55.5 -59l-82 -44q-38 34 -63 34q-22 0 -37.5 -14.5t-15.5 -35.5q0 -17 28 -57l100 -145l23 82h99
q-25 -129 -53 -180zM283 100l-84 120q-53 -24 -53 -76q0 -58 82 -58q31 0 55 14z" />
    <glyph glyph-name="quotesingle" unicode="'" horiz-adv-x="274" 
d="M73 602h128l-31 -254q-3 -20 -10 -28t-22 -8q-27 0 -31 35z" />
    <glyph glyph-name="parenleft" unicode="(" horiz-adv-x="351" 
d="M239 632q22 0 36.5 -14.5t14.5 -34.5q0 -15 -12 -34q-101 -162 -101 -309q0 -146 101 -310q12 -19 12 -34q0 -20 -14.5 -34.5t-36.5 -14.5q-18 0 -31 11.5t-35 46.5q-107 170 -107 338q0 80 30.5 171t85.5 173q17 27 28.5 36t28.5 9z" />
    <glyph glyph-name="parenright" unicode=")" horiz-adv-x="351" 
d="M112 632q18 0 31 -11.5t35 -46.5q107 -170 107 -338q0 -80 -30.5 -171.5t-85.5 -173.5q-17 -26 -28.5 -35t-28.5 -9q-22 0 -36.5 14.5t-14.5 34.5q0 15 12 34q101 162 101 309q0 146 -101 310q-12 19 -12 34q0 20 14.5 34.5t36.5 14.5z" />
    <glyph glyph-name="asterisk" unicode="*" horiz-adv-x="464" 
d="M151 372l-86 28q-28 8 -39 20t-11 32t14 35t33 15q10 0 34 -7l86 -28v89q0 33 9 45q16 21 41 21q29 0 43 -24q7 -13 7 -42v-89l86 28q24 7 33 7q19 0 33.5 -15t14.5 -35q0 -37 -50 -52l-86 -28l52 -71q19 -27 19 -43q0 -20 -15 -35t-35 -15q-16 0 -25 6.5t-25 27.5
l-52 72l-52 -72q-15 -21 -25 -27.5t-25 -6.5q-20 0 -35 15t-15 35q0 15 19 43z" />
    <glyph glyph-name="plus" unicode="+" horiz-adv-x="678" 
d="M389 230v-164q0 -32 -9 -45q-16 -21 -41 -21q-29 0 -43 24q-7 13 -7 42v164h-142q-33 0 -45 9q-21 16 -21 41q0 29 24 43q10 7 42 7h142v164q0 34 10 45q14 21 40 21q29 0 43 -24q7 -10 7 -42v-164h141q33 0 46 -9q21 -16 21 -41q0 -29 -24 -43q-11 -7 -43 -7h-141z" />
    <glyph glyph-name="comma" unicode="," horiz-adv-x="323" 
d="M113 134h132l-141 -268q-12 -24 -32 -24q-13 0 -22 8.5t-9 19.5q0 8 3 19z" />
    <glyph glyph-name="hyphen" unicode="-" horiz-adv-x="598" 
d="M491 229h-384q-33 0 -45 9q-21 16 -21 41q0 27 24 43q10 7 42 7h384q33 0 46 -9q20 -15 20 -41q0 -29 -24 -43q-11 -7 -42 -7z" />
    <glyph glyph-name="period" unicode="." horiz-adv-x="306" 
d="M162 -15h-18q-27 0 -46.5 19.5t-19.5 46.5t19.5 46.5t46.5 19.5h18q28 0 47 -19t19 -47t-19 -47t-47 -19z" />
    <glyph glyph-name="slash" unicode="/" horiz-adv-x="434" 
d="M422 610l-320 -679q-11 -25 -22.5 -34.5t-29.5 -9.5q-20 0 -35 14.5t-15 33.5q0 14 12 38l321 678q11 25 22 34.5t29 9.5q20 0 35 -14.5t15 -33.5q0 -13 -12 -37z" />
    <glyph glyph-name="zero" unicode="0" horiz-adv-x="506" 
d="M470 359v-95q0 -143 -78 -224q-52 -55 -139 -55t-139 55q-78 81 -78 224v95q0 143 78 224q52 55 139 55t139 -55q78 -81 78 -224zM136 366v-109q0 -78 32 -125t85 -47t85 47t32 125v109q0 78 -32 125t-85 47t-85 -47t-32 -125z" />
    <glyph glyph-name="one" unicode="1" horiz-adv-x="405" 
d="M252 0v509l-87 -23q-23 -6 -32 -6q-19 0 -32.5 15t-13.5 37t11.5 32.5t41.5 18.5l212 55v-638h-100z" />
    <glyph glyph-name="two" unicode="2" horiz-adv-x="582" 
d="M515 100v-100h-454v105q184 152 232 196q75 68 96 94.5t21 52.5q0 38 -33 64t-82 26q-62 0 -97 -41q-11 -13 -22 -46q-9 -29 -45 -29q-20 0 -35 14.5t-15 33.5q0 24 17.5 56.5t42.5 55.5q62 56 156 56q91 0 152 -55.5t61 -138.5q0 -49 -24.5 -87.5t-98.5 -105.5
q-26 -24 -173 -151h301z" />
    <glyph glyph-name="three" unicode="3" horiz-adv-x="575" 
d="M261 383h40q37 0 64 23.5t27 55.5q0 35 -30 55.5t-82 20.5q-41 0 -66 -10t-49 -36q-15 -15 -36 -15q-20 0 -34.5 15t-14.5 35q0 43 63 77t143 34q99 0 156 -58q50 -48 50 -116q0 -41 -21 -71.5t-70 -59.5q113 -55 113 -151q0 -92 -74 -150q-63 -47 -184 -47
q-92 0 -148.5 23.5t-56.5 61.5q0 21 14.5 35.5t35.5 14.5q13 0 32 -12q35 -23 120 -23q95 0 133 34q28 26 28 64q0 28 -20.5 52.5t-55.5 38.5q-25 11 -77 13q-52 3 -52 46q0 22 14.5 36t37.5 14z" />
    <glyph glyph-name="four" unicode="4" horiz-adv-x="502" 
d="M306 0v138h-272v83l241 401h131v-384q61 0 61 -50q0 -48 -61 -50v-138h-100zM306 238v242l-150 -242h150z" />
    <glyph glyph-name="five" unicode="5" horiz-adv-x="575" 
d="M212 522v-115q56 17 99 17q91 0 151 -63t60 -159q0 -89 -55 -149q-62 -68 -196 -68q-90 0 -151 28.5t-61 70.5q0 20 15 34.5t35 14.5q17 0 36 -15q23 -19 49.5 -26t75.5 -7q78 0 115 28.5t37 87.5q0 55 -31 89t-81 34q-54 0 -120 -34q-17 -8 -28 -8q-22 0 -36 16t-14 40
v284h302q32 0 46 -9q20 -17 20 -41q0 -29 -24 -43q-10 -7 -42 -7h-202z" />
    <glyph glyph-name="six" unicode="6" horiz-adv-x="523" 
d="M150 324q36 38 67.5 54t69.5 16q79 0 134.5 -60t55.5 -145q0 -88 -52 -145q-53 -59 -152 -59q-125 0 -182 102q-44 81 -44 198q0 132 77 229q101 124 241 124q53 0 85 -18t32 -47q0 -21 -15 -36t-36 -15q-14 0 -35 8q-14 5 -25 5q-79 0 -141.5 -59.5t-79.5 -151.5z
M160 209q11 -65 39 -94.5t77 -29.5q47 0 74 28t27 77q0 43 -28 73.5t-69 30.5q-32 0 -66 -24t-54 -61z" />
    <glyph glyph-name="seven" unicode="7" horiz-adv-x="545" 
d="M51 522v100h433v-99l-159 -475q-10 -27 -21.5 -38t-30.5 -11q-20 0 -35.5 14.5t-15.5 33.5q0 10 7 34l150 441h-328z" />
    <glyph glyph-name="eight" unicode="8" horiz-adv-x="528" 
d="M384 319q97 -61 97 -154q0 -80 -60.5 -130t-157.5 -50q-96 0 -156 50t-60 130q0 93 97 154q-88 59 -88 136t60.5 130t147.5 53q86 0 147 -53t61 -128q0 -79 -88 -138zM264 538q-48 0 -78 -24.5t-30 -62.5t30.5 -62.5t77.5 -24.5t77.5 24t30.5 62q0 39 -30 63.5t-78 24.5z
M264 263q-48 0 -82.5 -26.5t-34.5 -63.5q0 -38 33 -63t84 -25t84 24.5t33 62.5t-34 64.5t-83 26.5z" />
    <glyph glyph-name="nine" unicode="9" horiz-adv-x="523" 
d="M371 299q-66 -70 -136 -70q-79 0 -135 60t-56 145q0 88 52 145q53 59 152 59q125 0 182 -102q44 -80 44 -198q0 -132 -77 -229q-101 -124 -241 -124q-53 0 -85 18t-32 47q0 21 15 36t36 15q14 0 35 -8q14 -5 25 -5q79 0 141.5 59.5t79.5 151.5zM361 414q-11 65 -39 94.5
t-77 29.5q-47 0 -74 -28t-27 -77q0 -43 28 -73.5t69 -30.5q32 0 66 24t54 61z" />
    <glyph glyph-name="colon" unicode=":" horiz-adv-x="322" 
d="M170 -15h-18q-27 0 -46.5 19.5t-19.5 46.5t19.5 46.5t46.5 19.5h18q28 0 47 -19t19 -47t-19 -47t-47 -19zM170 304h-18q-27 0 -46.5 19.5t-19.5 46.5q0 28 19.5 47.5t46.5 19.5h18q28 0 47 -19.5t19 -47.5t-19 -47t-47 -19z" />
    <glyph glyph-name="semicolon" unicode=";" horiz-adv-x="338" 
d="M120 134h132l-141 -268q-12 -24 -32 -24q-13 0 -22 8.5t-9 19.5q0 8 3 19zM177 437q34 0 54.5 -18t20.5 -49q0 -30 -20.5 -48t-54.5 -18t-54.5 18.5t-20.5 48.5q0 29 20.5 47.5t54.5 18.5z" />
    <glyph glyph-name="less" unicode="&#x3c;" horiz-adv-x="664" 
d="M290 279l261 -136q32 -17 32 -43q0 -7 -5 -19l-1 -2q-11 -25 -36 -25q-14 0 -30 9l-430 217l430 212q18 9 30 9q25 0 36 -25l1 -2q5 -10 5 -19q0 -26 -32 -43z" />
    <glyph glyph-name="equal" unicode="=" horiz-adv-x="678" 
d="M147 422h384q32 0 45 -9q21 -16 21 -41q0 -29 -24 -43q-11 -7 -42 -7h-384q-34 0 -45 10q-21 15 -21 40q0 29 24 43q10 7 42 7zM147 238h384q32 0 45 -9q21 -16 21 -41q0 -29 -24 -43q-11 -7 -42 -7h-384q-34 0 -45 10q-21 15 -21 40q0 29 24 43q10 7 42 7z" />
    <glyph glyph-name="greater" unicode="&#x3e;" horiz-adv-x="664" 
d="M374 275l-261 137q-32 15 -32 41q0 8 5 20l1 2q4 10 15 17.5t21 7.5q14 0 30 -9l430 -217l-430 -212q-18 -9 -30 -9q-25 0 -36 25l-1 2q-5 12 -5 20q0 25 32 42z" />
    <glyph glyph-name="question" unicode="?" horiz-adv-x="516" 
d="M53 539q72 35 114 47t90 12q93 0 151 -52.5t58 -136.5q0 -61 -36.5 -101t-127.5 -80q-6 -54 -50 -54q-29 0 -43 24q-7 13 -7 42v56q96 37 130 61.5t34 56.5q0 37 -30 60.5t-78 23.5q-55 0 -105 -24zM260 -15h-17q-28 0 -47.5 19.5t-19.5 46.5t19.5 46.5t47.5 19.5h17
q28 0 47 -19t19 -47t-19 -47t-47 -19z" />
    <glyph glyph-name="at" unicode="@" horiz-adv-x="537" 
d="M381 397v32q0 50 -29.5 81t-75.5 31q-63 0 -105 -64t-42 -160v-156q0 -114 51 -185q34 -50 99 -50q73 0 103 32q17 17 31 17q17 0 28.5 -12t11.5 -29q0 -35 -52.5 -60.5t-124.5 -25.5q-118 0 -179 107q-47 85 -47 199v169q0 129 63.5 213t161.5 84q81 0 133 -54t52 -137
v-281q23 -10 23 -35q0 -41 -55 -41h-47v3q-23 -3 -33 -3q-64 0 -110 46t-46 108q0 70 52.5 117.5t136.5 53.5zM381 155v161q-50 -5 -80 -29.5t-30 -61.5q0 -31 24 -51.5t60 -20.5q12 0 26 2z" />
    <glyph glyph-name="A" unicode="A" horiz-adv-x="595" 
d="M3 0l237 583h112l240 -583h-116l-62 158h-238l-62 -158h-111zM373 258l-78 192l-79 -192h157z" />
    <glyph glyph-name="B" unicode="B" horiz-adv-x="601" 
d="M350 0h-280v583h238q85 0 140.5 -47t55.5 -118q0 -64 -63 -113q106 -53 106 -145q0 -72 -54 -116t-143 -44zM170 342h113q54 0 87.5 21.5t33.5 55.5q0 30 -27 47t-74 17h-133v-141zM170 100h175q102 0 102 54q0 40 -43 66q-37 22 -99 22h-135v-142z" />
    <glyph glyph-name="C" unicode="C" horiz-adv-x="618" 
d="M545 388q-13 -21 -41 -21q-21 0 -35 14q-9 9 -14 39q-4 18 -13.5 29.5t-30.5 23.5q-43 24 -97 24q-76 0 -126 -51.5t-50 -130.5v-64q0 -75 53.5 -120t143.5 -45q72 0 110 23q11 6 38 34q16 16 36 16t35 -15t15 -35q0 -36 -53 -73q-69 -50 -184 -50q-127 0 -210.5 74.5
t-83.5 188.5v66q0 120 78 201t194 81q71 0 142 -34q43 -21 72.5 -62t29.5 -78q0 -20 -9 -35z" />
    <glyph glyph-name="D" unicode="D" horiz-adv-x="590" 
d="M284 0h-210v583h-4h55.5h110.5h56q109 0 183.5 -80t74.5 -198v-47q0 -110 -70 -183q-71 -75 -196 -75zM174 100h111q45 0 73 10t51 34q41 45 41 117v46q0 72 -45 125q-44 51 -121 51h-110v-383z" />
    <glyph glyph-name="E" unicode="E" horiz-adv-x="582" 
d="M504 583v-100h-334v-141h184v-99h-184v-143h356v-100h-456v583h434z" />
    <glyph glyph-name="F" unicode="F" horiz-adv-x="590" 
d="M170 0h-100v583h456v-100h-356v-141h184v-99h-184v-243z" />
    <glyph glyph-name="G" unicode="G" horiz-adv-x="612" 
d="M343 180v100l212 -1v-231q-66 -35 -113 -48.5t-106 -13.5q-73 0 -134 20.5t-98 58.5q-30 32 -48 80.5t-18 100.5v71q0 57 22.5 110t61.5 93q79 77 200 77q83 0 145 -32q28 -14 58.5 -48t30.5 -72q0 -19 -10 -37q-11 -21 -41 -21q-21 0 -35 15q-6 7 -14 38
q-7 26 -42.5 41.5t-90.5 15.5q-85 0 -132 -47q-24 -25 -38.5 -60.5t-14.5 -72.5v-64q0 -85 45 -123q52 -44 147 -44q70 0 125 25v69h-112z" />
    <glyph glyph-name="H" unicode="H" horiz-adv-x="554" 
d="M484 0h-100v241h-214v-241h-100v584h100v-243h214v243h100v-584z" />
    <glyph glyph-name="I" unicode="I" horiz-adv-x="241" 
d="M170 0h-100v584h100v-584z" />
    <glyph glyph-name="J" unicode="J" horiz-adv-x="464" 
d="M-43 51l100 66q69 -31 117 -31q57 0 95 36q16 16 20 29t4 47v385h100v-396q0 -49 -14.5 -81.5t-49.5 -63.5q-65 -56 -157 -56q-84 0 -215 65z" />
    <glyph glyph-name="K" unicode="K" horiz-adv-x="497" 
d="M170 0h-100v584h100v-250l211 249h36h103l-209 -253q54 -29 113.5 -118t82.5 -212h-105q-35 107 -80.5 176t-91.5 83l-60 -51v-208z" />
    <glyph glyph-name="L" unicode="L" horiz-adv-x="506" 
d="M70 0v583h100v-483h315v-100h-415z" />
    <glyph glyph-name="M" unicode="M" horiz-adv-x="661" 
d="M590 583v-583h-100v389l-111 -251h-91q-118 250 -118 251v-389h-100v583h123l138 -297l135 297h124z" />
    <glyph glyph-name="N" unicode="N" horiz-adv-x="598" 
d="M528 583v-583h-99l-259 394v-394h-100v583h100l258 -392v392h100z" />
    <glyph glyph-name="O" unicode="O" horiz-adv-x="634" 
d="M317 597q103 0 185 -77q94 -90 94 -233q0 -123 -82.5 -212t-196.5 -89q-116 0 -197.5 89.5t-81.5 216.5q0 126 82 215.5t197 89.5zM317 497q-73 0 -126 -60.5t-53 -144.5q0 -85 52.5 -145.5t126.5 -60.5q73 0 126 60t53 143q0 86 -52.5 147t-126.5 61z" />
    <glyph glyph-name="P" unicode="P" horiz-adv-x="536" 
d="M288 583q95 0 156 -53t61 -136q0 -73 -50 -128q-33 -37 -75 -51.5t-112 -14.5h-98v-200h-100v583h218zM170 483v-183h118q52 0 81.5 24.5t29.5 66.5q0 43 -29.5 67.5t-81.5 24.5h-118z" />
    <glyph glyph-name="Q" unicode="Q" horiz-adv-x="634" 
d="M288 -6l-4 -24q30 5 51 5q38 0 84 -13q27 -7 41 -7q19 0 43 15q26 17 40 17q22 0 36.5 -14.5t14.5 -35.5q0 -29 -38 -51q-51 -31 -95 -31q-19 0 -30 3t-47 17q-22 8 -48 8q-44 0 -126 -21q-20 -5 -28 -5q-19 0 -33.5 15.5t-14.5 36.5q0 19 20 38l62 60q-56 32 -84.5 57
t-49.5 60q-44 77 -44 168q0 126 82 215.5t197 89.5t197 -89t82 -214q0 -83 -39.5 -153.5t-110.5 -113.5q-56 -34 -140 -34q-10 0 -18 1zM317 497q-74 0 -126.5 -60.5t-52.5 -145.5q0 -84 53 -145t126 -61t126 60t53 143q0 87 -52.5 148t-126.5 61z" />
    <glyph glyph-name="R" unicode="R" horiz-adv-x="581" 
d="M566 0h-116q-37 72 -94.5 141.5t-89.5 80.5h-96v-222h-100v583h208q97 0 158.5 -49.5t61.5 -128.5q0 -92 -108 -151q59 -55 98 -113.5t78 -140.5zM170 322h76q63 0 104.5 24.5t41.5 61.5q0 32 -31 53.5t-79 21.5h-112v-161z" />
    <glyph glyph-name="S" unicode="S" horiz-adv-x="587" 
d="M64 179q12 20 41 20q22 0 36 -14q7 -7 15 -34q7 -27 48 -46t91 -19q56 0 94 22t38 54q0 33 -36 53q-24 13 -105 27q-85 14 -129 39q-38 22 -60 59t-22 80q0 76 62 126.5t155 50.5q64 0 130 -33q38 -19 63 -56.5t25 -73.5q0 -21 -9 -37q-12 -21 -40 -21q-22 0 -36 14
q-7 8 -14 40q-7 30 -39.5 48.5t-79.5 18.5t-80 -22t-33 -54q0 -16 10.5 -31.5t26.5 -23.5q23 -12 100 -26q114 -21 156 -55q59 -47 59 -125t-63 -126t-166 -48q-73 0 -156 39q-35 16 -63 51t-28 69q0 18 9 34z" />
    <glyph glyph-name="T" unicode="T" horiz-adv-x="523" 
d="M519 584v-101h-209v-483h-100v483h-207v101h516z" />
    <glyph glyph-name="U" unicode="U" horiz-adv-x="598" 
d="M528 583v-378q0 -107 -84 -170q-64 -49 -145 -49t-145 49q-84 65 -84 170v378h100v-387q0 -46 38 -78t91 -32t91 32t38 78v387h100z" />
    <glyph glyph-name="V" unicode="V" horiz-adv-x="597" 
d="M594 584l-248 -584h-99l-244 583h112l186 -439l187 440h106z" />
    <glyph glyph-name="W" unicode="W" 
d="M576 583l-73 -583h-110l-93 277l-91 -277h-111l-75 583h103l49 -372l76 226h104l76 -226l48 372h97z" />
    <glyph glyph-name="X" unicode="X" horiz-adv-x="540" 
d="M396 0l-126 220l-126 -220h-130l190 298l-185 285h128l122 -208l118 208h128l-182 -286l192 -297h-129z" />
    <glyph glyph-name="Y" unicode="Y" horiz-adv-x="554" 
d="M228 0v245l-235 338h120l165 -235l163 235h120l-233 -338v-245h-100z" />
    <glyph glyph-name="Z" unicode="Z" horiz-adv-x="523" 
d="M489 0h-455v100l302 383h-279v100h408v-97l-303 -386h327v-100z" />
    <glyph glyph-name="bracketleft" unicode="[" horiz-adv-x="343" 
d="M166 527v-575h59q32 0 45 -9q21 -16 21 -41q0 -27 -24 -43q-11 -7 -42 -7h-159v775h158q32 0 46 -9q20 -15 20 -41q0 -29 -24 -43q-11 -7 -42 -7h-58z" />
    <glyph glyph-name="backslash" unicode="\" horiz-adv-x="434" 
d="M101 651l321 -678q12 -24 12 -38q0 -19 -15 -33.5t-35 -14.5q-18 0 -29 9.5t-23 34.5l-320 679q-12 24 -12 37q0 19 15 33.5t35 14.5q18 0 29 -9.5t22 -34.5z" />
    <glyph glyph-name="bracketright" unicode="]" horiz-adv-x="343" 
d="M177 -48v575h-59q-32 0 -45 9q-21 16 -21 41q0 27 24 43q11 7 42 7h159v-775h-158q-32 0 -46 9q-20 15 -20 41q0 29 24 43q11 7 42 7h58z" />
    <glyph glyph-name="asciicircum" unicode="^" horiz-adv-x="590" 
d="M294 494l-117 -138q-17 -20 -25.5 -25.5t-23.5 -5.5q-20 0 -35 15t-15 35q0 18 22 44l194 233l196 -233q22 -26 22 -44q0 -20 -15 -35t-35 -15q-14 0 -23.5 5.5t-25.5 24.5z" />
    <glyph glyph-name="underscore" unicode="_" horiz-adv-x="624" 
d="M624 -75v-50h-624v50h624z" />
    <glyph glyph-name="grave" unicode="`" horiz-adv-x="397" 
d="M104 680l133 -111q23 -19 23 -37q0 -14 -11 -25t-26 -11q-12 0 -32 16l-133 112q-23 18 -23 36q0 15 10.5 25.5t26.5 10.5q12 0 32 -16z" />
    <glyph glyph-name="a" unicode="a" horiz-adv-x="540" 
d="M379 0v23q-75 -39 -166 -39q-74 0 -127 39.5t-53 95.5q0 49 39 93q68 76 203 76q45 0 104 -10v23q0 49 -93 49q-51 0 -116 -17q-25 -6 -40 -6q-21 0 -35 14.5t-14 36.5q0 32 30 42q85 30 172 30q92 0 144.5 -39t52.5 -109v-302h-101zM380 135v50q-63 11 -111 11
q-51 0 -90.5 -22t-39.5 -51q0 -17 22 -28t54 -11q82 0 165 51z" />
    <glyph glyph-name="b" unicode="b" horiz-adv-x="595" 
d="M164 624v-223q63 50 150 50q109 0 177 -65q70 -67 70 -168q0 -99 -70 -167q-68 -65 -176 -65q-80 0 -151 49v-35h-100v624h100zM313 351q-70 0 -110 -40q-39 -39 -39 -91q0 -59 41.5 -96.5t107.5 -37.5q68 0 109 40q39 39 39 93q0 51 -39 92q-41 40 -109 40z" />
    <glyph glyph-name="c" unicode="c" horiz-adv-x="595" 
d="M510 262q-13 -21 -41 -21q-22 0 -36 14q-9 7 -15 34q-5 24 -23 36q-41 25 -106 25q-74 0 -116 -43q-40 -40 -40 -100q0 -123 176 -123q66 0 105 13q19 6 50 31q13 12 30 12q20 0 35 -15t15 -36q0 -40 -64 -73q-66 -32 -178 -32q-138 0 -208 69q-61 61 -61 154
q0 107 71.5 175t184.5 68q80 0 144 -30q35 -17 60.5 -53t25.5 -70q0 -20 -9 -35z" />
    <glyph glyph-name="d" unicode="d" horiz-adv-x="596" 
d="M432 624h100v-624h-100v35q-72 -49 -151 -49q-109 0 -177 65q-70 68 -70 168t70 167q68 65 178 65q87 0 150 -50v223zM282 351q-69 0 -109 -40q-39 -39 -39 -92q0 -52 39 -93q41 -40 110 -40t110 40q39 39 39 91q0 55 -39 94q-41 40 -111 40z" />
    <glyph glyph-name="e" unicode="e" horiz-adv-x="587" 
d="M550 172h-408q34 -88 164 -88q56 0 163 28q20 5 33 5q20 0 34 -14.5t14 -35.5q0 -29 -35 -45q-34 -15 -99.5 -26.5t-118.5 -11.5q-116 0 -190 65t-74 167q0 99 74.5 166.5t183.5 67.5q112 0 185.5 -68t73.5 -171v-39zM145 260h294q-12 41 -52 65.5t-95 24.5t-95.5 -25
t-51.5 -65z" />
    <glyph glyph-name="f" unicode="f" horiz-adv-x="493" 
d="M227 0h-100v337h-47q-34 0 -45 10q-21 15 -21 40q0 29 24 43q10 7 43 7h46v37q0 69 52 109t141 40q80 0 137 -16q42 -11 42 -47q0 -22 -13.5 -36.5t-33.5 -14.5q-10 0 -28 3q-62 11 -113 11q-84 0 -84 -49v-37h151q32 0 45 -9q21 -16 21 -41q0 -27 -24 -43q-11 -7 -42 -7
h-151v-337z" />
    <glyph glyph-name="g" unicode="g" horiz-adv-x="575" 
d="M511 437v-457q0 -79 -54.5 -132t-136.5 -53h-112q-34 0 -45 10q-21 15 -21 40q0 29 24 43q10 7 42 7h109q43 0 68.5 23t25.5 62v55q-66 -49 -141 -49q-101 0 -168.5 66.5t-67.5 165.5q0 100 67.5 166.5t168.5 66.5q82 0 141 -50v36h100zM272 351q-57 0 -97.5 -38.5
t-40.5 -93.5t40.5 -94t97.5 -39t98 38.5t41 92.5q0 56 -40.5 95t-98.5 39z" />
    <glyph glyph-name="h" unicode="h" horiz-adv-x="538" 
d="M65 624h99v-235q60 61 137 61q80 0 128.5 -45.5t48.5 -120.5v-284h-100v271q0 26 -4 38t-17 22q-23 19 -67 19q-35 0 -59 -13t-67 -54v-283h-100z" />
    <glyph glyph-name="i" unicode="i" horiz-adv-x="246" 
d="M173 437v-437h-100v436zM182 623v-105h-118v105h118z" />
    <glyph glyph-name="j" unicode="j" horiz-adv-x="311" 
d="M138 337h-44q-34 0 -45 10q-21 15 -21 40q0 29 24 43q11 7 42 7h144v-457q0 -79 -54.5 -132t-136.5 -53h-6q-34 0 -45 10q-21 15 -21 40q0 28 24 43q10 7 42 7h3q43 0 68.5 23t25.5 62v357zM247 623v-105h-119v105h119z" />
    <glyph glyph-name="k" unicode="k" horiz-adv-x="520" 
d="M534 0h-151l-201 178l-18 -14v-164h-100v624h100v-337l188 150h148l-240 -196z" />
    <glyph glyph-name="l" unicode="l" horiz-adv-x="303" 
d="M139 0v524h-8q-35 0 -46 10q-21 14 -21 40q0 29 24 43q10 7 43 7h108v-624h-100z" />
    <glyph glyph-name="m" unicode="m" horiz-adv-x="648" 
d="M64 437h101v-24q46 37 85 37q57 0 102 -49q45 49 104 49q56 0 93.5 -37.5t37.5 -93.5v-319h-100v311q0 22 -7.5 30.5t-27.5 8.5t-35.5 -9t-40.5 -36v-305h-100v311q0 21 -8 30t-27 9q-36 0 -76 -45v-305h-101v437z" />
    <glyph glyph-name="n" unicode="n" horiz-adv-x="538" 
d="M64 437h99v-48q36 34 66 47.5t71 13.5q68 0 119 -37q59 -44 59 -131v-282h-100v278q0 72 -90 72q-35 0 -62.5 -15t-62.5 -53v-282h-99v437z" />
    <glyph glyph-name="o" unicode="o" horiz-adv-x="582" 
d="M294 450q106 0 180.5 -68t74.5 -165q0 -98 -75 -165.5t-183 -67.5t-183 67.5t-75 165.5q0 99 75 166t186 67zM293 350q-68 0 -114 -38t-46 -95q0 -56 45.5 -94.5t112.5 -38.5t112.5 38.5t45.5 94.5t-45.5 94.5t-110.5 38.5z" />
    <glyph glyph-name="p" unicode="p" horiz-adv-x="595" 
d="M64 437h100v-45q68 58 153 58q105 0 174.5 -64.5t69.5 -161.5q0 -92 -69 -153t-173 -61q-82 0 -155 56v-271h-100v642zM313 350q-63 0 -101 -29q-22 -16 -35 -41t-13 -49q0 -53 41.5 -87t107.5 -34q65 0 106.5 34t41.5 86q0 25 -13 50t-35 41q-38 29 -100 29z" />
    <glyph glyph-name="q" unicode="q" horiz-adv-x="596" 
d="M532 437v-642h-100v271q-73 -56 -156 -56q-104 0 -173 61t-69 153q0 97 69.5 161.5t174.5 64.5q47 0 82 -13t72 -45v45h100zM282 350q-60 0 -100 -29q-48 -36 -48 -91t48 -91q38 -29 101 -29t101 29q22 16 35 41t13 49q0 53 -41.5 87t-108.5 34z" />
    <glyph glyph-name="r" unicode="r" horiz-adv-x="459" 
d="M64 437h100v-65q60 45 95 61t72 16q53 0 98 -38q28 -23 28 -47q0 -21 -15 -36t-35 -15q-18 0 -39 18t-39 18q-24 0 -58.5 -21.5t-106.5 -80.5v-247h-100v437z" />
    <glyph glyph-name="s" unicode="s" horiz-adv-x="529" 
d="M49 146q16 21 41 21q38 0 51 -44q44 -39 125 -39q48 0 82.5 13t34.5 30q0 22 -34 35q-23 9 -92 17q-105 11 -152 43t-47 91q0 60 58 98.5t148 38.5q75 0 129 -26q34 -16 56.5 -40.5t22.5 -51.5q0 -16 -9 -31q-14 -20 -41 -20q-30 0 -47 31l-5 9q-41 29 -103 29
q-38 0 -68.5 -10.5t-30.5 -24.5t26 -24q15 -5 84 -15q102 -14 145 -38q33 -18 51.5 -48t18.5 -65q0 -61 -63 -101t-160 -40q-81 0 -148 29q-36 15 -59.5 45t-23.5 58q0 17 10 30z" />
    <glyph glyph-name="t" unicode="t" horiz-adv-x="543" 
d="M211 337v-196q0 -28 8 -37q18 -20 78 -20q79 0 146 34q21 11 35 11q20 0 34 -15t14 -36q0 -18 -11 -29.5t-39 -24.5q-36 -17 -88.5 -28.5t-91.5 -11.5q-85 0 -135 37t-50 101v215h-35q-34 0 -46 10q-20 15 -20 40q0 29 24 43q10 7 42 7h35v88q0 33 10 46q15 20 40 20
q29 0 43 -24q7 -11 7 -42v-88h181q32 0 46 -9q20 -17 20 -41q0 -29 -24 -43q-11 -7 -42 -7h-181z" />
    <glyph glyph-name="u" unicode="u" horiz-adv-x="539" 
d="M475 0h-100v48q-37 -35 -66.5 -48t-70.5 -13q-70 0 -119 37q-59 44 -59 132v281h100v-278q0 -72 88 -72q38 0 63 13.5t64 54.5v282h100v-437z" />
    <glyph glyph-name="v" unicode="v" horiz-adv-x="560" 
d="M11 437h112l160 -315l157 315h109l-217 -437h-104z" />
    <glyph glyph-name="w" unicode="w" horiz-adv-x="597" 
d="M133 437l64 -252l60 158h88l61 -158l66 252h99l-109 -437h-92l-71 181l-68 -181h-94l-110 437h106z" />
    <glyph glyph-name="x" unicode="x" horiz-adv-x="545" 
d="M534 0h-148l-118 161l-112 -161h-145l178 228l-166 209h145l100 -144l97 144h149l-172 -210z" />
    <glyph glyph-name="y" unicode="y" horiz-adv-x="583" 
d="M463 437h107l-334 -642h-109l106 208l-224 434h115l165 -323z" />
    <glyph glyph-name="z" unicode="z" horiz-adv-x="504" 
d="M46 337v100h409v-81l-262 -256h275v-100h-434v83l261 254h-249z" />
    <glyph glyph-name="braceleft" unicode="{" horiz-adv-x="458" 
d="M277 485v-157q0 -32 -6 -49.5t-23 -38.5q18 -22 23.5 -40.5t5.5 -57.5v-157q0 -20 7.5 -27.5t28.5 -9.5q22 -1 35.5 -15.5t13.5 -35.5q0 -23 -15 -36.5t-40 -13.5q-53 0 -91.5 39t-38.5 92v173q0 21 -6 28.5t-26 9.5q-49 6 -49 51t49 50q19 2 25.5 10t6.5 28v164
q0 53 38.5 92t90.5 39q25 0 40.5 -13.5t15.5 -36.5q0 -21 -13.5 -35.5t-35.5 -15.5q-21 -1 -28.5 -9t-7.5 -28z" />
    <glyph glyph-name="bar" unicode="|" horiz-adv-x="296" 
d="M198 556v-643q0 -32 -9 -45q-16 -21 -41 -21q-27 0 -43 24q-7 11 -7 42v643q0 33 9 46q17 20 41 20q29 0 43 -24q7 -13 7 -42z" />
    <glyph glyph-name="braceright" unicode="}" horiz-adv-x="458" 
d="M181 -15v157q0 32 6 49.5t23 38.5q-18 22 -23.5 40.5t-5.5 57.5v157q0 20 -7.5 27.5t-28.5 9.5q-22 1 -35.5 15.5t-13.5 35.5q0 23 15 36.5t40 13.5q53 0 91.5 -39t38.5 -92v-173q0 -21 6 -28.5t26 -9.5q49 -6 49 -51t-49 -50q-19 -2 -25.5 -10t-6.5 -28v-164
q0 -53 -38.5 -92t-90.5 -39q-25 0 -40.5 13.5t-15.5 36.5q0 21 13.5 35.5t35.5 15.5q21 1 28.5 9t7.5 28z" />
    <glyph glyph-name="asciitilde" unicode="~" horiz-adv-x="638" 
d="M507 364q20 0 35 -15t15 -35q0 -25 -41 -73q-52 -62 -106 -62t-137 75q-32 27 -42 27q-13 0 -47 -42q-20 -24 -29.5 -31t-22.5 -7q-20 0 -35.5 15.5t-15.5 35.5q0 27 39 70q55 63 112 63q32 0 59 -15.5t78 -62.5q28 -23 39 -23q14 0 49 46q15 20 25 27t25 7z" />
    <glyph glyph-name="exclamdown" unicode="&#xa1;" horiz-adv-x="377" 
d="M110 -114l29 297q5 49 49 49q21 0 34.5 -13t15.5 -36l29 -297q2 -26 2 -33q0 -35 -23 -57.5t-58 -22.5q-34 0 -57 22.5t-23 57.5q0 9 2 33zM180 426h17q28 0 47 -19t19 -47t-19 -47t-47 -19h-17q-28 0 -47.5 19t-19.5 47t19.5 47t47.5 19z" />
    <glyph glyph-name="cent" unicode="&#xa2;" horiz-adv-x="580" 
d="M468 354q-16 -21 -41 -21q-20 0 -35 13q-7 8 -15 38q-10 43 -75 43q-59 0 -98 -33.5t-39 -83.5q0 -47 36.5 -80t90.5 -33q56 0 105 36q18 12 34 12q20 0 35 -15.5t15 -35.5q0 -31 -41 -57.5t-107 -37.5v-77q0 -32 -9 -45q-16 -21 -41 -21q-27 0 -43 24q-7 11 -7 42v81
q-77 19 -122.5 75.5t-45.5 133.5q0 73 47 130t121 75v77q0 34 10 46q15 21 40 21q29 0 43 -24q7 -11 7 -43v-67q42 -7 73 -24q28 -16 49.5 -49t21.5 -65q0 -20 -9 -35z" />
    <glyph glyph-name="sterling" unicode="&#xa3;" horiz-adv-x="628" 
d="M328 243h-45q1 -12 1 -27q0 -59 -23 -116h203q6 46 49 46q23 0 37 -15t14 -41q0 -44 -28 -67t-80 -23h-321q-32 0 -45 10q-21 15 -21 41q0 39 50 49q33 7 45 32q19 37 19 92q0 11 -1 19h-69q-33 0 -45 9q-21 16 -21 41q0 29 24 43q11 7 42 7h44q-17 51 -17 89
q0 73 48.5 119.5t124.5 46.5q59 0 108.5 -32.5t49.5 -70.5q0 -21 -14.5 -36t-34.5 -15q-14 0 -22 4.5t-25 23.5q-23 26 -63 26q-31 0 -51.5 -17.5t-20.5 -43.5q0 -23 20 -94h68q33 0 46 -9q21 -16 21 -41q0 -27 -24 -43q-13 -7 -43 -7z" />
    <glyph glyph-name="currency" unicode="&#xa4;" horiz-adv-x="508" 
d="M85 388l-33 32q-25 25 -25 49q0 20 15 35t36 15q20 0 47 -26l32 -31q48 26 97 26q47 0 97 -27l31 30q26 26 47 26t36 -15t15 -36q0 -13 -4.5 -21t-21.5 -25l-31 -32q25 -49 25 -96q0 -48 -26 -96l33 -34q26 -26 26 -46q0 -21 -15.5 -36.5t-36.5 -15.5q-13 0 -21 4.5
t-25 21.5l-34 32q-47 -25 -95 -25t-96 26l-33 -32q-17 -17 -25.5 -22t-21.5 -5q-21 0 -36 15t-15 36q0 20 26 47l32 34q-25 49 -25 96q0 49 25 96zM254 388q-39 0 -66.5 -27.5t-27.5 -67.5q0 -39 28 -67.5t66 -28.5t66 28.5t28 66.5q0 41 -27 68.5t-67 27.5z" />
    <glyph glyph-name="yen" unicode="&#xa5;" horiz-adv-x="583" 
d="M240 0v135h-97q-31 0 -31 28t31 28h97v34h-97q-31 0 -31 28t31 28h72l-206 299h120l162 -232l166 232h117l-209 -299h72q31 0 31 -28t-31 -28h-97v-34h97q31 0 31 -28t-31 -28h-97v-135h-100z" />
    <glyph glyph-name="brokenbar" unicode="&#xa6;" horiz-adv-x="296" 
d="M198 556v-203q0 -32 -9 -45q-16 -21 -41 -21q-29 0 -43 24q-7 11 -7 42v203q0 33 9 45q16 21 41 21q43 0 49 -45q1 -11 1 -21zM198 116v-203q0 -32 -9 -45q-16 -21 -41 -21q-27 0 -43 24q-7 11 -7 42v203q0 33 9 46q17 20 41 20q29 0 43 -24q7 -13 7 -42z" />
    <glyph glyph-name="section" unicode="&#xa7;" horiz-adv-x="536" 
d="M488 492l-232 1q-29 0 -49.5 -15.5t-20.5 -37.5q0 -37 107 -98l92 -51q87 -49 117.5 -82t30.5 -80q0 -46 -26.5 -77t-75.5 -42q5 -21 5 -38q0 -51 -38 -95q-43 -47 -117 -47h-231v88h233q27 0 47 16t20 37q0 39 -105 98l-106 61q-75 43 -104.5 76.5t-29.5 76.5
q0 91 101 119q-5 15 -5 30q0 59 42 103q44 48 120 48h225v-91zM340 214l-99 57q-38 21 -80 55q-60 0 -60 -34q0 -37 86 -87l103 -58q65 -40 86 -59h6h11q19 1 31.5 10t12.5 23q0 37 -97 93z" />
    <glyph glyph-name="dieresis" unicode="&#xa8;" horiz-adv-x="476" 
d="M134 654q25 0 42.5 -17.5t17.5 -43.5q0 -24 -17.5 -41.5t-42.5 -17.5t-42.5 17.5t-17.5 42.5t17.5 42.5t42.5 17.5zM342 654q25 0 42.5 -17.5t17.5 -43.5q0 -24 -17.5 -41.5t-42.5 -17.5t-42.5 17.5t-17.5 42.5t17.5 42.5t42.5 17.5z" />
    <glyph glyph-name="copyright" unicode="&#xa9;" horiz-adv-x="825" 
d="M509 324q-29 0 -36 36q-2 14 -22 24.5t-45 10.5q-38 0 -62.5 -25.5t-24.5 -65.5v-34q0 -37 26.5 -59t70.5 -22q29 0 43.5 5.5t31.5 23.5q11 11 25 11t25 -11t11 -25q0 -29 -42 -52t-95 -23q-72 0 -119.5 43t-47.5 108v36q0 69 44.5 115t111.5 46q41 0 79 -19
q28 -12 44 -36.5t16 -47.5q0 -17 -8.5 -28t-25.5 -11zM412 598q127 0 217 -89.5t90 -216.5q0 -128 -90 -217.5t-220 -89.5q-124 0 -213.5 90.5t-89.5 216.5q0 127 89.5 216.5t216.5 89.5zM413 525q-97 0 -165.5 -68t-68.5 -165q0 -96 68 -165t163 -69q99 0 167.5 68
t68.5 166q0 97 -68.5 165t-164.5 68z" />
    <glyph glyph-name="ordfeminine" unicode="&#xaa;" horiz-adv-x="488" 
d="M295 284v11q-55 -22 -108 -22t-90.5 28t-37.5 68q0 34 28 65q47 53 146 53q26 0 62 -5v8q0 27 -58 27q-35 0 -79 -11q-18 -5 -28 -5q-16 0 -27 11.5t-11 28.5q0 24 24 34q57 20 117 20q67 0 103.5 -27.5t36.5 -77.5v-128h6q51 0 51 -39t-50 -39h-85zM295 383v27
q-37 7 -66 7q-32 0 -55.5 -13t-23.5 -30q0 -10 12 -16t31 -6q57 0 102 31zM373 182h-256q-33 0 -42.5 8t-9.5 37q0 19 10.5 25.5t41.5 6.5h255q52 0 52 -38q0 -39 -51 -39z" />
    <glyph glyph-name="guillemotleft" unicode="&#xab;" horiz-adv-x="669" 
d="M201 218l151 -141q16 -15 16 -27t-10 -21t-23 -9q-11 0 -28 13l-248 185l248 184q17 13 29 13q13 0 22.5 -9t9.5 -21q0 -14 -16 -27zM430 218l151 -141q16 -15 16 -27t-10 -21t-23 -9q-11 0 -28 13l-248 185l248 184q17 13 29 13q13 0 22.5 -9t9.5 -21q0 -14 -16 -27z
" />
    <glyph glyph-name="logicalnot" unicode="&#xac;" horiz-adv-x="585" 
d="M504 445v-264q0 -32 -9 -45q-16 -21 -41 -21q-29 0 -43 24q-7 13 -7 42v164h-257q-34 0 -45 10q-21 15 -21 40q0 29 24 43q10 7 42 7h357z" />
    <glyph glyph-name="registered" unicode="&#xae;" horiz-adv-x="825" 
d="M549 126h-73q-9 36 -33.5 73t-45.5 47h-15v-120h-72v332h95q56 0 91.5 -29t35.5 -75q0 -28 -16.5 -51.5t-44.5 -36.5q57 -52 78 -140zM382 316h25q23 0 38.5 11t15.5 28q0 14 -14.5 23t-39.5 9h-25v-71zM413 598q126 0 216 -89.5t90 -216.5q0 -128 -90 -217.5t-220 -89.5
q-124 0 -213.5 90.5t-89.5 216.5t90 216t217 90zM413 525q-97 0 -165.5 -68.5t-68.5 -164.5t68 -165t163 -69q99 0 167.5 68t68.5 166q0 96 -68.5 164.5t-164.5 68.5z" />
    <glyph glyph-name="macron" unicode="&#xaf;" horiz-adv-x="498" 
d="M127 626h244q32 0 42 -11q11 -13 11 -29q0 -40 -53 -40h-244q-31 0 -42 12q-11 15 -11 28q0 40 53 40z" />
    <glyph glyph-name="degree" unicode="&#xb0;" horiz-adv-x="484" 
d="M242 596q73 0 124 -51.5t51 -124.5q0 -74 -51.5 -125.5t-125.5 -51.5q-71 0 -122 52t-51 125t51 124.5t124 51.5zM242 535q-47 0 -80.5 -34t-33.5 -81t33.5 -81.5t79.5 -34.5q48 0 81.5 34t33.5 82q0 47 -33.5 81t-80.5 34z" />
    <glyph glyph-name="plusminus" unicode="&#xb1;" horiz-adv-x="678" 
d="M389 330v-100q0 -32 -9 -45q-16 -21 -41 -21q-28 0 -43 24q-7 13 -7 42v100h-142q-34 0 -45 10q-21 15 -21 40q0 28 24 43q10 7 42 7h142v128q0 34 10 45q15 21 40 21q29 0 43 -24q7 -10 7 -42v-128h141q33 0 46 -9q21 -16 21 -41q0 -29 -24 -43q-11 -7 -43 -7h-141z
M147 100h384q32 0 45 -9q21 -16 21 -41q0 -29 -24 -43q-11 -7 -42 -7h-384q-34 0 -45 10q-21 15 -21 40q0 28 24 43q10 7 42 7z" />
    <glyph glyph-name="twosuperior" unicode="&#xb2;" horiz-adv-x="364" 
d="M321 314v-67h-280v68q139 115 174 149.5t35 55.5t-18.5 35.5t-46.5 14.5q-37 0 -56 -24q-6 -7 -12 -26q-7 -20 -30 -20q-14 0 -24 9.5t-10 23.5q0 15 10.5 35t26.5 34q40 35 96 35t93.5 -34t37.5 -86q0 -38 -30 -73.5t-142 -129.5h176z" />
    <glyph glyph-name="threesuperior" unicode="&#xb3;" horiz-adv-x="359" 
d="M162 484h25q20 0 35.5 13.5t15.5 30.5q0 19 -17 30.5t-46 11.5q-43 0 -67 -27q-10 -10 -24 -10q-13 0 -23 10t-10 24q0 28 38.5 49t88.5 21q55 0 91 -30.5t36 -77.5q0 -49 -48 -79q-2 -1 -3 -2q64 -33 64 -93q0 -55 -46 -89q-38 -28 -111 -28q-59 0 -93.5 14.5
t-34.5 39.5q0 14 9.5 24t23.5 10q11 0 22 -8q20 -13 71 -13q92 0 92 52q0 34 -44 54q-14 6 -45 7q-34 3 -34 33q0 14 10 23.5t24 9.5z" />
    <glyph glyph-name="acute" unicode="&#xb4;" horiz-adv-x="397" 
d="M339 624l-133 -112q-20 -16 -32 -16q-15 0 -26 11t-11 25q0 18 23 37l133 111q20 16 32 16q16 0 26.5 -10.5t10.5 -26.5q0 -17 -23 -35z" />
    <glyph glyph-name="paragraph" unicode="&#xb6;" horiz-adv-x="622" 
d="M269 -174v359q-97 10 -159 59.5t-62 116.5v46q0 73 75 124.5t181 51.5h197q54 0 54 -39t-54 -39h-34v-679h-76v679h-44v-679h-78zM269 266v234q-50 -11 -79 -36t-29 -59v-44q0 -34 29 -59t79 -36z" />
    <glyph glyph-name="periodcentered" unicode="&#xb7;" horiz-adv-x="306" 
d="M162 214h-18q-27 0 -46.5 19.5t-19.5 46.5t19.5 46.5t46.5 19.5h18q28 0 47 -19t19 -47t-19 -47t-47 -19z" />
    <glyph glyph-name="cedilla" unicode="&#xb8;" horiz-adv-x="441" 
d="M180 0h70v-41q75 -16 75 -91q0 -43 -30 -70t-77 -27q-48 0 -92 24q-28 16 -28 39q0 14 10.5 24.5t24.5 10.5q9 0 29 -11q31 -17 57 -17q36 0 36 25q0 34 -53 34q-9 0 -22 -2v102z" />
    <glyph glyph-name="onesuperior" unicode="&#xb9;" horiz-adv-x="255" 
d="M145 247v304l-48 -12q-15 -4 -20 -4q-13 0 -22 10.5t-9 24.5t7.5 21.5t26.5 12.5l132 34v-391h-67z" />
    <glyph glyph-name="ordmasculine" unicode="&#xba;" horiz-adv-x="446" 
d="M223 595q71 0 120.5 -48.5t49.5 -118.5q0 -64 -50 -109.5t-120 -45.5q-71 0 -120.5 46t-49.5 111q0 68 50 116.5t120 48.5zM223 517q-37 0 -64 -26t-27 -61q0 -31 27.5 -55t63.5 -24t63.5 24t27.5 55q0 35 -27 61t-64 26zM350 182h-254q-52 0 -52 39q0 21 18 32
q10 6 34 6h254q52 0 52 -38q0 -39 -52 -39z" />
    <glyph glyph-name="guillemotright" unicode="&#xbb;" horiz-adv-x="669" 
d="M469 217l-151 141q-16 15 -16 27t10 21t23 9q11 0 28 -13l247 -185l-247 -184q-17 -13 -29 -13q-13 0 -22.5 9t-9.5 21q0 14 16 27zM239 217l-151 141q-16 15 -16 27t10 21t23 9q11 0 28 -13l247 -185l-247 -184q-17 -13 -29 -13q-13 0 -22.5 9t-9.5 21q0 14 16 27z" />
    <glyph glyph-name="onequarter" unicode="&#xbc;" horiz-adv-x="758" 
d="M136 247v304l-48 -12q-15 -4 -20 -4q-13 0 -22 10.5t-9 24.5t7.5 21.5t26.5 12.5l132 34v-391h-67zM542 528l-260 -451q-15 -26 -34 -26q-13 0 -23.5 10t-10.5 23q0 10 10 26l260 451q16 26 35 26q13 0 23.5 -10t10.5 -22q0 -9 -11 -27zM661 0h-67v83h-163v55l146 242h84
v-230q37 -2 37 -33q0 -32 -37 -34v-83zM594 150v129l-79 -129h79z" />
    <glyph glyph-name="onehalf" unicode="&#xbd;" horiz-adv-x="735" 
d="M136 247v304l-48 -12q-15 -4 -20 -4q-13 0 -22 10.5t-9 24.5t7.5 21.5t26.5 12.5l132 34v-391h-67zM542 528l-260 -451q-15 -26 -34 -26q-13 0 -23.5 10t-10.5 23q0 10 10 26l260 451q16 26 35 26q13 0 23.5 -10t10.5 -22q0 -9 -11 -27zM698 67v-67h-280v68
q139 115 174 149.5t35 55.5t-18.5 35.5t-46.5 14.5q-37 0 -56 -24q-6 -7 -12 -26q-7 -20 -30 -20q-14 0 -24 9.5t-10 23.5q0 15 10.5 35t26.5 34q40 35 96 35t93.5 -34t37.5 -86q0 -38 -30 -73.5t-142 -129.5h176z" />
    <glyph glyph-name="threequarters" unicode="&#xbe;" horiz-adv-x="771" 
d="M674 0h-67v83h-163v55l146 242h84v-230q37 -2 37 -33q0 -32 -37 -34v-83zM607 150v129l-79 -129h79zM168 484h25q20 0 35.5 13.5t15.5 30.5q0 19 -17 30.5t-46 11.5q-43 0 -67 -27q-10 -10 -24 -10q-13 0 -23 10t-10 24q0 28 38.5 49t88.5 21q55 0 91 -30.5t36 -77.5
q0 -49 -48 -79q-2 -1 -3 -2q64 -33 64 -93q0 -55 -46 -89q-38 -28 -111 -28q-59 0 -93.5 14.5t-34.5 39.5q0 14 9.5 24t23.5 10q11 0 22 -8q20 -13 71 -13q92 0 92 52q0 34 -44 54q-14 6 -45 7q-34 3 -34 33q0 14 10 23.5t24 9.5zM556 528l-261 -451q-15 -26 -34 -26
q-14 0 -24 10t-10 23q0 10 10 26l261 451q14 26 34 26q13 0 23.5 -10t10.5 -22q0 -9 -10 -27z" />
    <glyph glyph-name="questiondown" unicode="&#xbf;" horiz-adv-x="516" 
d="M466 -168q-72 -35 -114 -47t-90 -12q-93 0 -151 52.5t-58 136.5q0 61 36.5 101t127.5 80q6 54 50 54q29 0 43 -24q7 -13 7 -42v-56q-96 -37 -130 -61.5t-34 -56.5q0 -37 30 -60.5t78 -23.5q55 0 105 24zM259 386h17q28 0 47.5 -19.5t19.5 -46.5t-19.5 -46.5t-47.5 -19.5
h-17q-28 0 -47 19t-19 47t19 47t47 19z" />
    <glyph glyph-name="Agrave" unicode="&#xc0;" horiz-adv-x="595" 
d="M71 824l133 -111q23 -19 23 -37q0 -14 -11 -25t-26 -11q-12 0 -32 16l-133 112q-23 18 -23 36q0 15 10.5 25.5t26.5 10.5q12 0 32 -16zM-44 0l237 583h112l240 -583h-116l-62 158h-238l-62 -158h-111zM326 258l-78 192l-79 -192h157z" />
    <glyph glyph-name="Aacute" unicode="&#xc1;" horiz-adv-x="595" 
d="M248 768l-133 -112q-20 -16 -32 -16q-15 0 -26 11t-11 25q0 18 23 37l133 111q20 16 32 16q16 0 26.5 -10.5t10.5 -26.5q0 -17 -23 -35zM-44 0l237 583h112l240 -583h-116l-62 158h-238l-62 -158h-111zM326 258l-78 192l-79 -192h157z" />
    <glyph glyph-name="Acircumflex" unicode="&#xc2;" horiz-adv-x="595" 
d="M177 750l-113 -97q-16 -13 -28 -13q-14 0 -24.5 10.5t-10.5 24.5q0 11 4 16.5t20 18.5l152 129l151 -129q6 -4 9 -7q15 -12 15 -28q0 -14 -10.5 -24.5t-23.5 -10.5t-29 13zM-44 0l237 583h112l240 -583h-116l-62 158h-238l-62 -158h-111zM326 258l-78 192l-79 -192h157z
" />
    <glyph glyph-name="Atilde" unicode="&#xc3;" horiz-adv-x="595" 
d="M333 799q13 0 22.5 -8.5t9.5 -19.5q0 -20 -29 -57q-38 -48 -80 -48q-34 0 -99 43q-31 21 -50 21q-13 0 -23 -8.5t-32 -37.5q-11 -15 -26 -15q-13 0 -22 9t-9 21q0 22 27 55q39 45 83 45q29 0 90 -38q44 -26 58 -26q11 0 17.5 5.5t23.5 28.5q21 30 39 30zM-44 0l237 583
h112l240 -583h-116l-62 158h-238l-62 -158h-111zM326 258l-78 192l-79 -192h157z" />
    <glyph glyph-name="Adieresis" unicode="&#xc4;" horiz-adv-x="595" 
d="M83 798q25 0 42.5 -17.5t17.5 -43.5q0 -24 -17.5 -41.5t-42.5 -17.5t-42.5 17.5t-17.5 42.5t17.5 42.5t42.5 17.5zM291 798q25 0 42.5 -17.5t17.5 -43.5q0 -24 -17.5 -41.5t-42.5 -17.5t-42.5 17.5t-17.5 42.5t17.5 42.5t42.5 17.5zM-44 0l237 583h112l240 -583h-116
l-62 158h-238l-62 -158h-111zM326 258l-78 192l-79 -192h157z" />
    <glyph glyph-name="Aring" unicode="&#xc5;" horiz-adv-x="595" 
d="M142 871q51 0 87 -36t36 -86q0 -48 -36.5 -83.5t-86.5 -35.5t-86.5 36t-36.5 85t36.5 84.5t86.5 35.5zM142 818q-28 0 -49 -20t-21 -47t21 -47t49 -20t49 20t21 46q0 28 -20.5 48t-49.5 20zM-44 0l237 583h112l240 -583h-116l-62 158h-238l-62 -158h-111zM326 258
l-78 192l-79 -192h157z" />
    <glyph glyph-name="AE" unicode="&#xc6;" horiz-adv-x="647" 
d="M175 583h395v-100h-226v-141h119v-99h-119v-143h247v-100h-347v158h-93l-46 -158h-105zM244 259v212l-64 -212h64z" />
    <glyph glyph-name="Ccedilla" unicode="&#xc7;" horiz-adv-x="618" 
d="M314 497q-74 0 -125 -51.5t-51 -130.5v-64q0 -75 53.5 -120t142.5 -45q73 0 111 23q11 6 38 34q16 16 36 16t35 -15t15 -36q0 -20 -20 -43t-53 -42q-57 -31 -154 -37v-28q75 -15 75 -90q0 -42 -30 -69.5t-75 -27.5q-59 0 -104 30q-18 13 -18 33q0 14 10.5 24.5t24.5 10.5
q8 0 29 -11q28 -17 57 -17q36 0 36 25q0 34 -50 34q-8 0 -25 -2v93q-81 17 -130 52q-50 37 -77 91t-27 115v66q0 120 78.5 201t193.5 81q42 0 71.5 -7t70.5 -27q43 -21 72.5 -62t29.5 -78q0 -20 -9 -35q-13 -21 -41 -21q-21 0 -35 14q-9 9 -14 39q-4 18 -13.5 29.5
t-30.5 23.5q-43 24 -97 24z" />
    <glyph glyph-name="Egrave" unicode="&#xc8;" horiz-adv-x="582" 
d="M96 824l133 -111q23 -19 23 -37q0 -14 -11 -25t-26 -11q-12 0 -32 16l-133 112q-23 18 -23 36q0 15 10.5 25.5t26.5 10.5q12 0 32 -16zM504 583v-100h-334v-141h184v-99h-184v-143h356v-100h-456v583h434z" />
    <glyph glyph-name="Eacute" unicode="&#xc9;" horiz-adv-x="582" 
d="M280 768l-133 -112q-20 -16 -32 -16q-15 0 -26 11t-11 25q0 18 23 37l133 111q20 16 32 16q16 0 26.5 -10.5t10.5 -26.5q0 -17 -23 -35zM504 583v-100h-334v-141h184v-99h-184v-143h356v-100h-456v583h434z" />
    <glyph glyph-name="Ecircumflex" unicode="&#xca;" horiz-adv-x="582" 
d="M193 750l-113 -97q-16 -13 -28 -13q-14 0 -24.5 10.5t-10.5 24.5q0 11 4 16.5t20 18.5l152 129l151 -129q6 -4 9 -7q15 -12 15 -28q0 -14 -10.5 -24.5t-23.5 -10.5t-29 13zM504 583v-100h-334v-141h184v-99h-184v-143h356v-100h-456v583h434z" />
    <glyph glyph-name="Edieresis" unicode="&#xcb;" horiz-adv-x="582" 
d="M101 798q25 0 42.5 -17.5t17.5 -43.5q0 -24 -17.5 -41.5t-42.5 -17.5t-42.5 17.5t-17.5 42.5t17.5 42.5t42.5 17.5zM309 798q25 0 42.5 -17.5t17.5 -43.5q0 -24 -17.5 -41.5t-42.5 -17.5t-42.5 17.5t-17.5 42.5t17.5 42.5t42.5 17.5zM504 583v-100h-334v-141h184v-99
h-184v-143h356v-100h-456v583h434z" />
    <glyph glyph-name="Igrave" unicode="&#xcc;" horiz-adv-x="304" 
d="M207 0h-100v584h100v-584zM77 824l133 -111q23 -19 23 -37q0 -14 -11 -25t-26 -11q-12 0 -32 16l-133 112q-23 18 -23 36q0 15 10.5 25.5t26.5 10.5q12 0 32 -16z" />
    <glyph glyph-name="Iacute" unicode="&#xcd;" horiz-adv-x="322" 
d="M170 0h-100v584h100v-584zM272 768l-133 -112q-20 -16 -32 -16q-15 0 -26 11t-11 25q0 18 23 37l133 111q20 16 32 16q16 0 26.5 -10.5t10.5 -26.5q0 -17 -23 -35z" />
    <glyph glyph-name="Icircumflex" unicode="&#xce;" horiz-adv-x="353" 
d="M227 0h-100v584h100v-584zM177 750l-113 -97q-16 -13 -28 -13q-14 0 -24.5 10.5t-10.5 24.5q0 11 4 16.5t20 18.5l152 129l151 -129q6 -4 9 -7q15 -12 15 -28q0 -14 -10.5 -24.5t-23.5 -10.5t-29 13z" />
    <glyph glyph-name="Idieresis" unicode="&#xcf;" horiz-adv-x="377" 
d="M22 798q25 0 42.5 -17.5t17.5 -43.5q0 -24 -17.5 -41.5t-42.5 -17.5t-42.5 17.5t-17.5 42.5t17.5 42.5t42.5 17.5zM230 798q25 0 42.5 -17.5t17.5 -43.5q0 -24 -17.5 -41.5t-42.5 -17.5t-42.5 17.5t-17.5 42.5t17.5 42.5t42.5 17.5zM238 0h-100v584h100v-584z" />
    <glyph glyph-name="Eth" unicode="&#xd0;" horiz-adv-x="601" 
d="M86 243h-8q-32 0 -45 10q-21 15 -21 40q0 29 24 43q10 7 43 7h7v140q-61 0 -61 50q0 29 24 43q11 7 43 7h212q109 0 183.5 -80t74.5 -198v-47q0 -110 -70 -183q-71 -75 -196 -75h-205q-32 0 -45 10q-21 15 -21 40q0 24 16 37t45 13v143zM186 243v-143h111q45 0 73 10
t51 34q41 45 41 117v46q0 72 -45 125q-44 51 -121 51h-110v-140h74q32 0 45 -9q21 -15 21 -41q0 -50 -66 -50h-74z" />
    <glyph glyph-name="Ntilde" unicode="&#xd1;" horiz-adv-x="598" 
d="M395 799q13 0 22.5 -8.5t9.5 -19.5q0 -20 -29 -57q-38 -48 -80 -48q-34 0 -99 43q-31 21 -50 21q-13 0 -23 -8.5t-32 -37.5q-11 -15 -26 -15q-13 0 -22 9t-9 21q0 22 27 55q39 45 83 45q29 0 90 -38q44 -26 58 -26q11 0 17.5 5.5t23.5 28.5q21 30 39 30zM528 583v-583
h-99l-259 394v-394h-100v583h100l258 -392v392h100z" />
    <glyph glyph-name="Ograve" unicode="&#xd2;" horiz-adv-x="634" 
d="M147 824l133 -111q23 -19 23 -37q0 -14 -11 -25t-26 -11q-12 0 -32 16l-133 112q-23 18 -23 36q0 15 10.5 25.5t26.5 10.5q12 0 32 -16zM315 597q103 0 185 -77q94 -90 94 -233q0 -123 -82.5 -212t-196.5 -89q-116 0 -197.5 89.5t-81.5 216.5q0 126 82 215.5t197 89.5z
M315 497q-73 0 -126 -60.5t-53 -144.5q0 -85 52.5 -145.5t126.5 -60.5q73 0 126 60t53 143q0 86 -52.5 147t-126.5 61z" />
    <glyph glyph-name="Oacute" unicode="&#xd3;" horiz-adv-x="634" 
d="M315 597q103 0 185 -77q94 -90 94 -233q0 -123 -82.5 -212t-196.5 -89q-116 0 -197.5 89.5t-81.5 216.5q0 126 82 215.5t197 89.5zM315 497q-73 0 -126 -60.5t-53 -144.5q0 -85 52.5 -145.5t126.5 -60.5q73 0 126 60t53 143q0 86 -52.5 147t-126.5 61zM325 768l-133 -112
q-20 -16 -32 -16q-15 0 -26 11t-11 25q0 18 23 37l133 111q20 16 32 16q16 0 26.5 -10.5t10.5 -26.5q0 -17 -23 -35z" />
    <glyph glyph-name="Ocircumflex" unicode="&#xd4;" horiz-adv-x="634" 
d="M240 750l-113 -97q-16 -13 -28 -13q-14 0 -24.5 10.5t-10.5 24.5q0 11 4 16.5t20 18.5l152 129l151 -129q6 -4 9 -7q15 -12 15 -28q0 -14 -10.5 -24.5t-23.5 -10.5t-29 13zM315 597q103 0 185 -77q94 -90 94 -233q0 -123 -82.5 -212t-196.5 -89q-116 0 -197.5 89.5
t-81.5 216.5q0 126 82 215.5t197 89.5zM315 497q-73 0 -126 -60.5t-53 -144.5q0 -85 52.5 -145.5t126.5 -60.5q73 0 126 60t53 143q0 86 -52.5 147t-126.5 61z" />
    <glyph glyph-name="Otilde" unicode="&#xd5;" horiz-adv-x="634" 
d="M421 799q13 0 22.5 -8.5t9.5 -19.5q0 -20 -29 -57q-38 -48 -80 -48q-34 0 -99 43q-31 21 -50 21q-13 0 -23 -8.5t-32 -37.5q-11 -15 -26 -15q-13 0 -22 9t-9 21q0 22 27 55q39 45 83 45q29 0 90 -38q44 -26 58 -26q11 0 17.5 5.5t23.5 28.5q21 30 39 30zM315 597
q103 0 185 -77q94 -90 94 -233q0 -123 -82.5 -212t-196.5 -89q-116 0 -197.5 89.5t-81.5 216.5q0 126 82 215.5t197 89.5zM315 497q-73 0 -126 -60.5t-53 -144.5q0 -85 52.5 -145.5t126.5 -60.5q73 0 126 60t53 143q0 86 -52.5 147t-126.5 61z" />
    <glyph glyph-name="Odieresis" unicode="&#xd6;" horiz-adv-x="634" 
d="M149 798q25 0 42.5 -17.5t17.5 -43.5q0 -24 -17.5 -41.5t-42.5 -17.5t-42.5 17.5t-17.5 42.5t17.5 42.5t42.5 17.5zM357 798q25 0 42.5 -17.5t17.5 -43.5q0 -24 -17.5 -41.5t-42.5 -17.5t-42.5 17.5t-17.5 42.5t17.5 42.5t42.5 17.5zM315 597q103 0 185 -77
q94 -90 94 -233q0 -123 -82.5 -212t-196.5 -89q-116 0 -197.5 89.5t-81.5 216.5q0 126 82 215.5t197 89.5zM315 497q-73 0 -126 -60.5t-53 -144.5q0 -85 52.5 -145.5t126.5 -60.5q73 0 126 60t53 143q0 86 -52.5 147t-126.5 61z" />
    <glyph glyph-name="multiply" unicode="&#xd7;" horiz-adv-x="592" 
d="M296 209l-103 -103q-27 -26 -47 -26t-35 15t-15 36q0 20 26 46l103 103l-103 103q-26 27 -26 47t15 35t35 15t47 -26l103 -103l103 103q27 26 47 26t35 -15t15 -35t-26 -47l-103 -103l103 -103q26 -26 26 -47q0 -20 -15 -35t-35 -15q-21 0 -47 26z" />
    <glyph glyph-name="Oslash" unicode="&#xd8;" horiz-adv-x="617" 
d="M166 28l-54 -68q-15 -19 -24 -24.5t-23 -5.5q-20 0 -34.5 14t-14.5 33q0 16 21 42l57 73q-67 88 -67 200q0 126 82 215.5t198 89.5q77 0 149 -48l46 58q14 19 23.5 25t23.5 6q20 0 34 -14t14 -34q0 -16 -20 -42l-52 -65q61 -80 61 -192q0 -126 -82 -215.5t-197 -89.5
q-74 0 -141 42zM459 400l-231 -293q37 -21 79 -21q73 0 126 60.5t53 143.5q0 61 -27 110zM159 174l235 297q-44 26 -88 26q-73 0 -126 -60.5t-53 -144.5q0 -64 32 -118z" />
    <glyph glyph-name="Ugrave" unicode="&#xd9;" horiz-adv-x="598" 
d="M131 824l133 -111q23 -19 23 -37q0 -14 -11 -25t-26 -11q-12 0 -32 16l-133 112q-23 18 -23 36q0 15 10.5 25.5t26.5 10.5q12 0 32 -16zM528 583v-378q0 -107 -84 -170q-64 -49 -145 -49t-145 49q-84 65 -84 170v378h100v-387q0 -46 38 -78t91 -32t91 32t38 78v387h100z
" />
    <glyph glyph-name="Uacute" unicode="&#xda;" horiz-adv-x="598" 
d="M309 768l-133 -112q-20 -16 -32 -16q-15 0 -26 11t-11 25q0 18 23 37l133 111q20 16 32 16q16 0 26.5 -10.5t10.5 -26.5q0 -17 -23 -35zM528 583v-378q0 -107 -84 -170q-64 -49 -145 -49t-145 49q-84 65 -84 170v378h100v-387q0 -46 38 -78t91 -32t91 32t38 78v387h100z
" />
    <glyph glyph-name="Ucircumflex" unicode="&#xdb;" horiz-adv-x="598" 
d="M224 750l-113 -97q-16 -13 -28 -13q-14 0 -24.5 10.5t-10.5 24.5q0 11 4 16.5t20 18.5l152 129l151 -129q6 -4 9 -7q15 -12 15 -28q0 -14 -10.5 -24.5t-23.5 -10.5t-29 13zM528 583v-378q0 -107 -84 -170q-64 -49 -145 -49t-145 49q-84 65 -84 170v378h100v-387
q0 -46 38 -78t91 -32t91 32t38 78v387h100z" />
    <glyph glyph-name="Udieresis" unicode="&#xdc;" horiz-adv-x="598" 
d="M195 798q25 0 42.5 -17.5t17.5 -43.5q0 -24 -17.5 -41.5t-42.5 -17.5t-42.5 17.5t-17.5 42.5t17.5 42.5t42.5 17.5zM403 798q25 0 42.5 -17.5t17.5 -43.5q0 -24 -17.5 -41.5t-42.5 -17.5t-42.5 17.5t-17.5 42.5t17.5 42.5t42.5 17.5zM528 583v-378q0 -107 -84 -170
q-64 -49 -145 -49t-145 49q-84 65 -84 170v378h100v-387q0 -46 38 -78t91 -32t91 32t38 78v387h100z" />
    <glyph glyph-name="Yacute" unicode="&#xdd;" horiz-adv-x="554" 
d="M234 768l-133 -112q-20 -16 -32 -16q-15 0 -26 11t-11 25q0 18 23 37l133 111q20 16 32 16q16 0 26.5 -10.5t10.5 -26.5q0 -17 -23 -35zM171 0v245l-235 338h120l165 -235l163 235h120l-233 -338v-245h-100z" />
    <glyph glyph-name="Thorn" unicode="&#xde;" horiz-adv-x="533" 
d="M70 0v583h100v-140h98q77 0 120.5 -13.5t74.5 -47.5q35 -38 35 -90q0 -53 -35 -91q-31 -34 -74.5 -47.5t-120.5 -13.5h-98v-140h-100zM170 240h131q50 0 72.5 12t22.5 39q0 28 -22.5 40t-72.5 12h-131v-103z" />
    <glyph glyph-name="germandbls" unicode="&#xdf;" horiz-adv-x="531" 
d="M64 0v478q0 64 48.5 104.5t124.5 40.5t127 -48t51 -119q0 -50 -35 -91q118 -69 118 -200q0 -81 -42.5 -131t-112.5 -50q-52 0 -85.5 32t-33.5 81q0 28 13.5 43.5t36.5 15.5t35 -14q7 -8 12 -29q6 -29 30 -29q21 0 34 22t13 58q0 56 -41 95q-37 36 -110 44q-55 6 -55 50
t53 49q32 4 45 13q25 16 25 44t-22 46t-56 18q-73 0 -73 -62v-461h-100z" />
    <glyph glyph-name="agrave" unicode="&#xe0;" horiz-adv-x="540" 
d="M100 680l133 -111q23 -19 23 -37q0 -14 -11 -25t-26 -11q-12 0 -32 16l-133 112q-23 18 -23 36q0 15 10.5 25.5t26.5 10.5q12 0 32 -16zM372 0v23q-75 -39 -166 -39q-74 0 -127 39.5t-53 95.5q0 49 39 93q68 76 203 76q45 0 104 -10v23q0 49 -93 49q-51 0 -116 -17
q-25 -6 -40 -6q-21 0 -35 14.5t-14 36.5q0 32 30 42q85 30 172 30q92 0 144.5 -39t52.5 -109v-302h-101zM373 135v50q-63 11 -111 11q-51 0 -90.5 -22t-39.5 -51q0 -17 22 -28t54 -11q82 0 165 51z" />
    <glyph glyph-name="aacute" unicode="&#xe1;" horiz-adv-x="540" 
d="M290 624l-133 -112q-20 -16 -32 -16q-15 0 -26 11t-11 25q0 18 23 37l133 111q20 16 32 16q16 0 26.5 -10.5t10.5 -26.5q0 -17 -23 -35zM372 0v23q-75 -39 -166 -39q-74 0 -127 39.5t-53 95.5q0 49 39 93q68 76 203 76q45 0 104 -10v23q0 49 -93 49q-51 0 -116 -17
q-25 -6 -40 -6q-21 0 -35 14.5t-14 36.5q0 32 30 42q85 30 172 30q92 0 144.5 -39t52.5 -109v-302h-101zM373 135v50q-63 11 -111 11q-51 0 -90.5 -22t-39.5 -51q0 -17 22 -28t54 -11q82 0 165 51z" />
    <glyph glyph-name="acircumflex" unicode="&#xe2;" horiz-adv-x="540" 
d="M199 607l-113 -97q-16 -13 -28 -13q-14 0 -24.5 10.5t-10.5 24.5q0 11 4 16.5t20 18.5l152 129l151 -129q6 -4 9 -7q15 -12 15 -28q0 -14 -10.5 -24.5t-23.5 -10.5t-29 13zM372 0v23q-75 -39 -166 -39q-74 0 -127 39.5t-53 95.5q0 49 39 93q68 76 203 76q45 0 104 -10v23
q0 49 -93 49q-51 0 -116 -17q-25 -6 -40 -6q-21 0 -35 14.5t-14 36.5q0 32 30 42q85 30 172 30q92 0 144.5 -39t52.5 -109v-302h-101zM373 135v50q-63 11 -111 11q-51 0 -90.5 -22t-39.5 -51q0 -17 22 -28t54 -11q82 0 165 51z" />
    <glyph glyph-name="atilde" unicode="&#xe3;" horiz-adv-x="540" 
d="M376 656q13 0 22.5 -8.5t9.5 -19.5q0 -20 -29 -57q-38 -48 -80 -48q-34 0 -99 43q-31 21 -50 21q-13 0 -23 -8.5t-32 -37.5q-11 -15 -26 -15q-13 0 -22 9t-9 21q0 22 27 55q39 45 83 45q29 0 90 -38q44 -26 58 -26q11 0 17.5 5.5t23.5 28.5q21 30 39 30zM372 0v23
q-75 -39 -166 -39q-74 0 -127 39.5t-53 95.5q0 49 39 93q68 76 203 76q45 0 104 -10v23q0 49 -93 49q-51 0 -116 -17q-25 -6 -40 -6q-21 0 -35 14.5t-14 36.5q0 32 30 42q85 30 172 30q92 0 144.5 -39t52.5 -109v-302h-101zM373 135v50q-63 11 -111 11q-51 0 -90.5 -22
t-39.5 -51q0 -17 22 -28t54 -11q82 0 165 51z" />
    <glyph glyph-name="adieresis" unicode="&#xe4;" horiz-adv-x="540" 
d="M107 654q25 0 42.5 -17.5t17.5 -43.5q0 -24 -17.5 -41.5t-42.5 -17.5t-42.5 17.5t-17.5 42.5t17.5 42.5t42.5 17.5zM315 654q25 0 42.5 -17.5t17.5 -43.5q0 -24 -17.5 -41.5t-42.5 -17.5t-42.5 17.5t-17.5 42.5t17.5 42.5t42.5 17.5zM372 0v23q-75 -39 -166 -39
q-74 0 -127 39.5t-53 95.5q0 49 39 93q68 76 203 76q45 0 104 -10v23q0 49 -93 49q-51 0 -116 -17q-25 -6 -40 -6q-21 0 -35 14.5t-14 36.5q0 32 30 42q85 30 172 30q92 0 144.5 -39t52.5 -109v-302h-101zM373 135v50q-63 11 -111 11q-51 0 -90.5 -22t-39.5 -51
q0 -17 22 -28t54 -11q82 0 165 51z" />
    <glyph glyph-name="aring" unicode="&#xe5;" horiz-adv-x="540" 
d="M181 727q51 0 87 -36t36 -86q0 -48 -36.5 -83.5t-86.5 -35.5t-86.5 36t-36.5 85t36.5 84.5t86.5 35.5zM181 674q-28 0 -49 -20t-21 -47t21 -47t49 -20t49 20t21 46q0 28 -20.5 48t-49.5 20zM372 0v23q-75 -39 -166 -39q-74 0 -127 39.5t-53 95.5q0 49 39 93q68 76 203 76
q45 0 104 -10v23q0 49 -93 49q-51 0 -116 -17q-25 -6 -40 -6q-21 0 -35 14.5t-14 36.5q0 32 30 42q85 30 172 30q92 0 144.5 -39t52.5 -109v-302h-101zM373 135v50q-63 11 -111 11q-51 0 -90.5 -22t-39.5 -51q0 -17 22 -28t54 -11q82 0 165 51z" />
    <glyph glyph-name="ae" unicode="&#xe6;" horiz-adv-x="694" 
d="M657 172h-251q13 -47 31.5 -67.5t49.5 -20.5q30 0 68 17q41 17 57 17q20 0 33 -15t13 -37q0 -28 -25 -44q-26 -16 -67.5 -27t-77.5 -11q-53 0 -100 32q-14 -17 -37 -17q-21 0 -36 17q-51 -32 -110 -32q-78 0 -125 44t-47 117q0 33 13.5 55.5t44.5 41.5q30 19 72 31.5
t78 12.5q17 0 60 -5v20q0 21 -13.5 35t-34.5 14q-19 0 -90 -21q-12 -4 -23 -4q-20 0 -34 15t-14 36q0 36 41 50q74 24 120 24q66 0 116 -56q52 56 112 56q74 0 128 -69q48 -62 48 -163v-46zM301 130v59q-31 8 -56 8q-63 0 -98 -26q-13 -11 -13 -29q0 -26 19 -42t51 -16
q43 0 97 46zM408 258h140q-6 39 -15 55q-19 37 -55 37q-17 0 -33 -12t-24 -31q-7 -16 -13 -49z" />
    <glyph glyph-name="ccedilla" unicode="&#xe7;" horiz-adv-x="595" 
d="M297 42q19 -1 39 -24q23 -27 -5 -33q-5 -1 -10 -1v-26q75 -15 75 -91q0 -41 -30 -68.5t-75 -27.5q-59 0 -104 30q-18 13 -18 33q0 14 10.5 24.5t24.5 10.5q9 0 29 -11q31 -17 57 -17q36 0 36 25q0 34 -56 34q-1 0 -19 -2v88q-35 4 -11 28q23 23 51 28h6zM510 262
q-13 -21 -41 -21q-22 0 -36 14q-9 7 -15 34q-5 24 -23 36q-41 25 -106 25q-74 0 -116 -43q-40 -40 -40 -100q0 -123 176 -123q66 0 105 13q19 6 50 31q13 12 30 12q20 0 35 -15t15 -36q0 -40 -64 -73q-66 -32 -178 -32q-138 0 -208 69q-61 61 -61 154q0 107 71.5 175
t184.5 68q80 0 144 -30q35 -17 60.5 -53t25.5 -70q0 -20 -9 -35z" />
    <glyph glyph-name="egrave" unicode="&#xe8;" horiz-adv-x="587" 
d="M121 680l133 -111q23 -19 23 -37q0 -14 -11 -25t-26 -11q-12 0 -32 16l-133 112q-23 18 -23 36q0 15 10.5 25.5t26.5 10.5q12 0 32 -16zM543 172h-408q34 -88 164 -88q56 0 163 28q20 5 33 5q20 0 34 -14.5t14 -35.5q0 -29 -35 -45q-34 -15 -99.5 -26.5t-118.5 -11.5
q-116 0 -190 65t-74 167q0 99 74.5 166.5t183.5 67.5q112 0 185.5 -68t73.5 -171v-39zM138 260h294q-12 41 -52 65.5t-95 24.5t-95.5 -25t-51.5 -65z" />
    <glyph glyph-name="eacute" unicode="&#xe9;" horiz-adv-x="587" 
d="M311 624l-133 -112q-20 -16 -32 -16q-15 0 -26 11t-11 25q0 18 23 37l133 111q20 16 32 16q16 0 26.5 -10.5t10.5 -26.5q0 -17 -23 -35zM543 172h-408q34 -88 164 -88q56 0 163 28q20 5 33 5q20 0 34 -14.5t14 -35.5q0 -29 -35 -45q-34 -15 -99.5 -26.5t-118.5 -11.5
q-116 0 -190 65t-74 167q0 99 74.5 166.5t183.5 67.5q112 0 185.5 -68t73.5 -171v-39zM138 260h294q-12 41 -52 65.5t-95 24.5t-95.5 -25t-51.5 -65z" />
    <glyph glyph-name="ecircumflex" unicode="&#xea;" horiz-adv-x="587" 
d="M222 607l-113 -97q-16 -13 -28 -13q-14 0 -24.5 10.5t-10.5 24.5q0 11 4 16.5t20 18.5l152 129l151 -129q6 -4 9 -7q15 -12 15 -28q0 -14 -10.5 -24.5t-23.5 -10.5t-29 13zM543 172h-408q34 -88 164 -88q56 0 163 28q20 5 33 5q20 0 34 -14.5t14 -35.5q0 -29 -35 -45
q-34 -15 -99.5 -26.5t-118.5 -11.5q-116 0 -190 65t-74 167q0 99 74.5 166.5t183.5 67.5q112 0 185.5 -68t73.5 -171v-39zM138 260h294q-12 41 -52 65.5t-95 24.5t-95.5 -25t-51.5 -65z" />
    <glyph glyph-name="edieresis" unicode="&#xeb;" horiz-adv-x="587" 
d="M131 654q25 0 42.5 -17.5t17.5 -43.5q0 -24 -17.5 -41.5t-42.5 -17.5t-42.5 17.5t-17.5 42.5t17.5 42.5t42.5 17.5zM339 654q25 0 42.5 -17.5t17.5 -43.5q0 -24 -17.5 -41.5t-42.5 -17.5t-42.5 17.5t-17.5 42.5t17.5 42.5t42.5 17.5zM543 172h-408q34 -88 164 -88
q56 0 163 28q20 5 33 5q20 0 34 -14.5t14 -35.5q0 -29 -35 -45q-34 -15 -99.5 -26.5t-118.5 -11.5q-116 0 -190 65t-74 167q0 99 74.5 166.5t183.5 67.5q112 0 185.5 -68t73.5 -171v-39zM138 260h294q-12 41 -52 65.5t-95 24.5t-95.5 -25t-51.5 -65z" />
    <glyph glyph-name="igrave" unicode="&#xec;" horiz-adv-x="306" 
d="M-4 680l133 -111q23 -19 23 -37q0 -14 -11 -25t-26 -11q-12 0 -32 16l-133 112q-23 18 -23 36q0 15 10.5 25.5t26.5 10.5q12 0 32 -16zM88 0v337h-78q-35 0 -46 10q-21 15 -21 40q0 29 24 43q11 7 43 7h178v-437h-100z" />
    <glyph glyph-name="iacute" unicode="&#xed;" horiz-adv-x="358" 
d="M256 624l-133 -112q-20 -16 -32 -16q-15 0 -26 11t-11 25q0 18 23 37l133 111q20 16 32 16q16 0 26.5 -10.5t10.5 -26.5q0 -17 -23 -35zM168 0v337h-78q-35 0 -46 10q-21 15 -21 40q0 29 24 43q11 7 43 7h178v-437h-100z" />
    <glyph glyph-name="icircumflex" unicode="&#xee;" horiz-adv-x="335" 
d="M94 607l-113 -97q-16 -13 -28 -13q-14 0 -24.5 10.5t-10.5 24.5q0 11 4 16.5t20 18.5l152 129l151 -129q6 -4 9 -7q15 -12 15 -28q0 -14 -10.5 -24.5t-23.5 -10.5t-29 13zM94 0v337h-78q-35 0 -46 10q-21 15 -21 40q0 29 24 43q11 7 43 7h178v-437h-100z" />
    <glyph glyph-name="idieresis" unicode="&#xef;" horiz-adv-x="368" 
d="M25 654q25 0 42.5 -17.5t17.5 -43.5q0 -24 -17.5 -41.5t-42.5 -17.5t-42.5 17.5t-17.5 42.5t17.5 42.5t42.5 17.5zM233 654q25 0 42.5 -17.5t17.5 -43.5q0 -24 -17.5 -41.5t-42.5 -17.5t-42.5 17.5t-17.5 42.5t17.5 42.5t42.5 17.5zM117 0v337h-78q-35 0 -46 10
q-21 15 -21 40q0 29 24 43q11 7 43 7h178v-437h-100z" />
    <glyph glyph-name="eth" unicode="&#xf0;" horiz-adv-x="582" 
d="M408 583l-45 -25q97 -67 141.5 -145.5t44.5 -179.5q0 -115 -69 -178q-79 -71 -189 -71q-107 0 -182.5 66.5t-75.5 160.5q0 96 71.5 164t172.5 68q38 0 67.5 -9.5t76.5 -37.5q-63 79 -137 122l-92 -50q-21 -12 -32 -12q-13 0 -21.5 10.5t-8.5 26.5q0 10 4 15t20 14l50 29
q-18 8 -21 9q-10 4 -18 8l-16 5q-26 9 -26 31q0 14 12 25t28 11q34 0 99 -31l28 -13l77 41q18 9 33 9q13 0 22 -9.5t9 -23.5q0 -19 -23 -30zM291 350q-65 0 -110.5 -40t-45.5 -98q0 -53 45.5 -90.5t110.5 -37.5q64 0 110 37t46 89q0 59 -45 99.5t-111 40.5z" />
    <glyph glyph-name="ntilde" unicode="&#xf1;" horiz-adv-x="538" 
d="M58 437h99v-48q36 34 66 47.5t71 13.5q68 0 119 -37q59 -44 59 -131v-282h-100v278q0 72 -90 72q-35 0 -62.5 -15t-62.5 -53v-282h-99v437zM355 656q13 0 22.5 -8.5t9.5 -19.5q0 -20 -29 -57q-38 -48 -80 -48q-34 0 -99 43q-31 21 -50 21q-13 0 -23 -8.5t-32 -37.5
q-11 -15 -26 -15q-13 0 -22 9t-9 21q0 22 27 55q39 45 83 45q29 0 90 -38q44 -26 58 -26q11 0 17.5 5.5t23.5 28.5q21 30 39 30z" />
    <glyph glyph-name="ograve" unicode="&#xf2;" horiz-adv-x="582" 
d="M111 680l133 -111q23 -19 23 -37q0 -14 -11 -25t-26 -11q-12 0 -32 16l-133 112q-23 18 -23 36q0 15 10.5 25.5t26.5 10.5q12 0 32 -16zM287 450q106 0 180.5 -68t74.5 -165q0 -98 -75 -165.5t-183 -67.5t-183 67.5t-75 165.5q0 99 75 166t186 67zM286 350
q-68 0 -114 -38t-46 -95q0 -56 45.5 -94.5t112.5 -38.5t112.5 38.5t45.5 94.5t-45.5 94.5t-110.5 38.5z" />
    <glyph glyph-name="oacute" unicode="&#xf3;" horiz-adv-x="582" 
d="M301 624l-133 -112q-20 -16 -32 -16q-15 0 -26 11t-11 25q0 18 23 37l133 111q20 16 32 16q16 0 26.5 -10.5t10.5 -26.5q0 -17 -23 -35zM287 450q106 0 180.5 -68t74.5 -165q0 -98 -75 -165.5t-183 -67.5t-183 67.5t-75 165.5q0 99 75 166t186 67zM286 350
q-68 0 -114 -38t-46 -95q0 -56 45.5 -94.5t112.5 -38.5t112.5 38.5t45.5 94.5t-45.5 94.5t-110.5 38.5z" />
    <glyph glyph-name="ocircumflex" unicode="&#xf4;" horiz-adv-x="582" 
d="M210 607l-113 -97q-16 -13 -28 -13q-14 0 -24.5 10.5t-10.5 24.5q0 11 4 16.5t20 18.5l152 129l151 -129q6 -4 9 -7q15 -12 15 -28q0 -14 -10.5 -24.5t-23.5 -10.5t-29 13zM287 450q106 0 180.5 -68t74.5 -165q0 -98 -75 -165.5t-183 -67.5t-183 67.5t-75 165.5
q0 99 75 166t186 67zM286 350q-68 0 -114 -38t-46 -95q0 -56 45.5 -94.5t112.5 -38.5t112.5 38.5t45.5 94.5t-45.5 94.5t-110.5 38.5z" />
    <glyph glyph-name="otilde" unicode="&#xf5;" horiz-adv-x="582" 
d="M391 656q13 0 22.5 -8.5t9.5 -19.5q0 -20 -29 -57q-38 -48 -80 -48q-34 0 -99 43q-31 21 -50 21q-13 0 -23 -8.5t-32 -37.5q-11 -15 -26 -15q-13 0 -22 9t-9 21q0 22 27 55q39 45 83 45q29 0 90 -38q44 -26 58 -26q11 0 17.5 5.5t23.5 28.5q21 30 39 30zM287 450
q106 0 180.5 -68t74.5 -165q0 -98 -75 -165.5t-183 -67.5t-183 67.5t-75 165.5q0 99 75 166t186 67zM286 350q-68 0 -114 -38t-46 -95q0 -56 45.5 -94.5t112.5 -38.5t112.5 38.5t45.5 94.5t-45.5 94.5t-110.5 38.5z" />
    <glyph glyph-name="odieresis" unicode="&#xf6;" horiz-adv-x="582" 
d="M118 654q25 0 42.5 -17.5t17.5 -43.5q0 -24 -17.5 -41.5t-42.5 -17.5t-42.5 17.5t-17.5 42.5t17.5 42.5t42.5 17.5zM326 654q25 0 42.5 -17.5t17.5 -43.5q0 -24 -17.5 -41.5t-42.5 -17.5t-42.5 17.5t-17.5 42.5t17.5 42.5t42.5 17.5zM287 450q106 0 180.5 -68t74.5 -165
q0 -98 -75 -165.5t-183 -67.5t-183 67.5t-75 165.5q0 99 75 166t186 67zM286 350q-68 0 -114 -38t-46 -95q0 -56 45.5 -94.5t112.5 -38.5t112.5 38.5t45.5 94.5t-45.5 94.5t-110.5 38.5z" />
    <glyph glyph-name="divide" unicode="&#xf7;" horiz-adv-x="678" 
d="M147 330h384q32 0 45 -9q21 -16 21 -41q0 -29 -24 -43q-11 -7 -42 -7h-384q-34 0 -45 10q-21 15 -21 40q0 28 24 43q10 7 42 7zM339 160q34 0 54.5 -18t20.5 -49q0 -29 -20.5 -47t-54.5 -18t-54.5 18.5t-20.5 47.5t20.5 47.5t54.5 18.5zM339 532q34 0 54.5 -18t20.5 -49
q0 -29 -20.5 -47t-54.5 -18t-54.5 18.5t-20.5 47.5t20.5 47.5t54.5 18.5z" />
    <glyph glyph-name="oslash" unicode="&#xf8;" horiz-adv-x="611" 
d="M554 402l-42 -43q52 -66 52 -142q0 -98 -75 -165.5t-183 -67.5q-66 0 -128 30l-56 -58q-26 -26 -45 -26q-20 0 -34 14t-14 34q0 19 25 44l48 50q-54 67 -54 145q0 97 74.5 165t181.5 68q75 0 134 -31l48 49q26 26 46 26t33.5 -14t13.5 -33q0 -21 -25 -45zM442 286
l-189 -195q25 -7 52 -7q67 0 113 38.5t46 94.5q0 34 -22 69zM173 145l190 197q-34 8 -57 8q-67 0 -112.5 -38.5t-45.5 -94.5q0 -38 25 -72z" />
    <glyph glyph-name="ugrave" unicode="&#xf9;" horiz-adv-x="539" 
d="M80 680l133 -111q23 -19 23 -37q0 -14 -11 -25t-26 -11q-12 0 -32 16l-133 112q-23 18 -23 36q0 15 10.5 25.5t26.5 10.5q12 0 32 -16zM465 0h-100v48q-37 -35 -66.5 -48t-70.5 -13q-70 0 -119 37q-59 44 -59 132v281h100v-278q0 -72 88 -72q38 0 63 13.5t64 54.5v282
h100v-437z" />
    <glyph glyph-name="uacute" unicode="&#xfa;" horiz-adv-x="539" 
d="M260 624l-133 -112q-20 -16 -32 -16q-15 0 -26 11t-11 25q0 18 23 37l133 111q20 16 32 16q16 0 26.5 -10.5t10.5 -26.5q0 -17 -23 -35zM465 0h-100v48q-37 -35 -66.5 -48t-70.5 -13q-70 0 -119 37q-59 44 -59 132v281h100v-278q0 -72 88 -72q38 0 63 13.5t64 54.5v282
h100v-437z" />
    <glyph glyph-name="ucircumflex" unicode="&#xfb;" horiz-adv-x="539" 
d="M176 607l-113 -97q-16 -13 -28 -13q-14 0 -24.5 10.5t-10.5 24.5q0 11 4 16.5t20 18.5l152 129l151 -129q6 -4 9 -7q15 -12 15 -28q0 -14 -10.5 -24.5t-23.5 -10.5t-29 13zM465 0h-100v48q-37 -35 -66.5 -48t-70.5 -13q-70 0 -119 37q-59 44 -59 132v281h100v-278
q0 -72 88 -72q38 0 63 13.5t64 54.5v282h100v-437z" />
    <glyph glyph-name="udieresis" unicode="&#xfc;" horiz-adv-x="539" 
d="M84 654q25 0 42.5 -17.5t17.5 -43.5q0 -24 -17.5 -41.5t-42.5 -17.5t-42.5 17.5t-17.5 42.5t17.5 42.5t42.5 17.5zM292 654q25 0 42.5 -17.5t17.5 -43.5q0 -24 -17.5 -41.5t-42.5 -17.5t-42.5 17.5t-17.5 42.5t17.5 42.5t42.5 17.5zM465 0h-100v48q-37 -35 -66.5 -48
t-70.5 -13q-70 0 -119 37q-59 44 -59 132v281h100v-278q0 -72 88 -72q38 0 63 13.5t64 54.5v282h100v-437z" />
    <glyph glyph-name="yacute" unicode="&#xfd;" horiz-adv-x="583" 
d="M289 624l-133 -112q-20 -16 -32 -16q-15 0 -26 11t-11 25q0 18 23 37l133 111q20 16 32 16q16 0 26.5 -10.5t10.5 -26.5q0 -17 -23 -35zM422 437h107l-334 -642h-109l106 208l-224 434h115l165 -323z" />
    <glyph glyph-name="thorn" unicode="&#xfe;" horiz-adv-x="595" 
d="M64 -205v829h100v-232q37 32 72 45t82 13q104 0 173.5 -64.5t69.5 -161.5q0 -92 -69 -153t-173 -61q-82 0 -155 56v-271h-100zM313 350q-63 0 -101 -29q-22 -16 -35 -41t-13 -49q0 -53 41.5 -87t107.5 -34q65 0 106.5 34t41.5 86q0 25 -13 50t-35 41q-38 29 -100 29z" />
    <glyph glyph-name="ydieresis" unicode="&#xff;" horiz-adv-x="583" 
d="M84 654q25 0 42.5 -17.5t17.5 -43.5q0 -24 -17.5 -41.5t-42.5 -17.5t-42.5 17.5t-17.5 42.5t17.5 42.5t42.5 17.5zM292 654q25 0 42.5 -17.5t17.5 -43.5q0 -24 -17.5 -41.5t-42.5 -17.5t-42.5 17.5t-17.5 42.5t17.5 42.5t42.5 17.5zM422 437h107l-334 -642h-109l106 208
l-224 434h115l165 -323z" />
    <glyph glyph-name="Amacron" unicode="&#x100;" horiz-adv-x="595" 
d="M176 769h244q32 0 42 -11q11 -13 11 -29q0 -40 -53 -40h-244q-31 0 -42 12q-11 15 -11 28q0 40 53 40zM3 0l237 583h112l240 -583h-116l-62 158h-238l-62 -158h-111zM373 258l-78 192l-79 -192h157z" />
    <glyph glyph-name="amacron" unicode="&#x101;" horiz-adv-x="540" 
d="M372 0v23q-75 -39 -166 -39q-74 0 -127 39.5t-53 95.5q0 49 39 93q68 76 203 76q45 0 104 -10v23q0 49 -93 49q-51 0 -116 -17q-25 -6 -40 -6q-21 0 -35 14.5t-14 36.5q0 32 30 42q85 30 172 30q92 0 144.5 -39t52.5 -109v-302h-101zM373 135v50q-63 11 -111 11
q-51 0 -90.5 -22t-39.5 -51q0 -17 22 -28t54 -11q82 0 165 51zM111 626h244q32 0 42 -11q11 -13 11 -29q0 -40 -53 -40h-244q-31 0 -42 12q-11 15 -11 28q0 40 53 40z" />
    <glyph glyph-name="Abreve" unicode="&#x102;" horiz-adv-x="595" 
d="M51 831q15 0 22 -8.5t12 -31.5q8 -35 37 -55.5t70 -20.5t70 20.5t37 55.5q5 23 12 31.5t22 8.5t24.5 -10.5t9.5 -27.5q0 -57 -53 -101.5t-122 -44.5t-122 44.5t-53 101.5q0 17 9.5 27.5t24.5 10.5zM-44 0l237 583h112l240 -583h-116l-62 158h-238l-62 -158h-111zM326 258
l-78 192l-79 -192h157z" />
    <glyph glyph-name="abreve" unicode="&#x103;" horiz-adv-x="540" 
d="M372 0v23q-75 -39 -166 -39q-74 0 -127 39.5t-53 95.5q0 49 39 93q68 76 203 76q45 0 104 -10v23q0 49 -93 49q-51 0 -116 -17q-25 -6 -40 -6q-21 0 -35 14.5t-14 36.5q0 32 30 42q85 30 172 30q92 0 144.5 -39t52.5 -109v-302h-101zM373 135v50q-63 11 -111 11
q-51 0 -90.5 -22t-39.5 -51q0 -17 22 -28t54 -11q82 0 165 51zM84 687q15 0 22 -8.5t12 -31.5q8 -35 37 -55.5t70 -20.5t70 20.5t37 55.5q5 23 12 31.5t22 8.5t24.5 -10.5t9.5 -27.5q0 -57 -53 -101.5t-122 -44.5t-122 44.5t-53 101.5q0 17 9.5 27.5t24.5 10.5z" />
    <glyph glyph-name="Aogonek" unicode="&#x104;" horiz-adv-x="618" 
d="M481 0h-6l-62 158h-238l-63 -158h-109l236 583h112l240 -583q-12 -2 -23 -8q-39 -23 -64 -51.5t-25 -52.5q0 -20 24 -20q15 0 51 18q12 6 22 6q16 0 27.5 -11t11.5 -27q0 -27 -35 -43q-43 -19 -84 -19q-44 0 -69 24t-25 65q0 37 17.5 63.5t61.5 55.5zM372 258l-78 192
l-79 -192h157z" />
    <glyph glyph-name="aogonek" unicode="&#x105;" horiz-adv-x="573" 
d="M480 0q-74 -46 -94 -80q-9 -16 -9 -32q0 -20 24 -20q15 0 51 18q12 6 22 6q16 0 27.5 -11t11.5 -27q0 -27 -35 -43q-43 -19 -84 -19q-44 0 -69 24t-25 65q0 37 17.5 63.5t61.5 55.5v23q-75 -39 -166 -39q-74 0 -127 39.5t-53 95.5q0 49 39 93q68 76 203 76q45 0 104 -10
v23q0 49 -93 49q-51 0 -116 -17q-25 -6 -40 -6q-21 0 -35 14.5t-14 36.5q0 32 30 42q85 30 172 30q92 0 144.5 -39t52.5 -109v-302zM380 135v50q-63 11 -111 11q-51 0 -90.5 -22t-39.5 -51q0 -17 22 -28t54 -11q82 0 165 51z" />
    <glyph glyph-name="Cacute" unicode="&#x106;" horiz-adv-x="618" 
d="M342 768l-133 -112q-20 -16 -32 -16q-15 0 -26 11t-11 25q0 18 23 37l133 111q20 16 32 16q16 0 26.5 -10.5t10.5 -26.5q0 -17 -23 -35zM543 388q-13 -21 -41 -21q-21 0 -35 14q-9 9 -14 39q-4 18 -13.5 29.5t-30.5 23.5q-43 24 -97 24q-76 0 -126 -51.5t-50 -130.5v-64
q0 -75 53.5 -120t143.5 -45q72 0 110 23q11 6 38 34q16 16 36 16t35 -15t15 -35q0 -36 -53 -73q-69 -50 -184 -50q-127 0 -210.5 74.5t-83.5 188.5v66q0 120 78 201t194 81q71 0 142 -34q43 -21 72.5 -62t29.5 -78q0 -20 -9 -35z" />
    <glyph glyph-name="cacute" unicode="&#x107;" horiz-adv-x="571" 
d="M311 624l-133 -112q-20 -16 -32 -16q-15 0 -26 11t-11 25q0 18 23 37l133 111q20 16 32 16q16 0 26.5 -10.5t10.5 -26.5q0 -17 -23 -35zM503 262q-13 -21 -41 -21q-22 0 -36 14q-9 7 -15 34q-5 24 -23 36q-41 25 -106 25q-74 0 -116 -43q-40 -40 -40 -100
q0 -123 176 -123q66 0 105 13q19 6 50 31q13 12 30 12q20 0 35 -15t15 -36q0 -40 -64 -73q-66 -32 -178 -32q-138 0 -208 69q-61 61 -61 154q0 107 71.5 175t184.5 68q80 0 144 -30q35 -17 60.5 -53t25.5 -70q0 -20 -9 -35z" />
    <glyph glyph-name="Ccircumflex" unicode="&#x108;" horiz-adv-x="618" 
d="M294 710l-109 -94q-15 -12 -27 -12q-14 0 -24 10.5t-10 22.5q0 11 3.5 16t19.5 18l147 126l146 -126q6 0 9 -7q15 -11 15 -27q0 -12 -10 -22.5t-23 -10.5t-28 12zM545 388q-13 -21 -41 -21q-21 0 -35 14q-9 9 -14 39q-4 18 -13.5 29.5t-30.5 23.5q-43 24 -97 24
q-76 0 -126 -51.5t-50 -130.5v-64q0 -75 53.5 -120t143.5 -45q72 0 110 23q11 6 38 34q16 16 36 16t35 -15t15 -35q0 -36 -53 -73q-69 -50 -184 -50q-127 0 -210.5 74.5t-83.5 188.5v66q0 120 78 201t194 81q71 0 142 -34q43 -21 72.5 -62t29.5 -78q0 -20 -9 -35z" />
    <glyph glyph-name="ccircumflex" unicode="&#x109;" horiz-adv-x="583" 
d="M278 569l-109 -94q-15 -12 -27 -12q-14 0 -24 10.5t-10 22.5q0 11 3.5 16t19.5 18l147 126l146 -126q5 0 9 -7q15 -11 15 -27q0 -12 -10 -22.5t-23 -10.5t-28 12zM510 262q-13 -21 -41 -21q-22 0 -36 14q-9 7 -15 34q-5 24 -23 36q-41 25 -106 25q-74 0 -116 -43
q-40 -40 -40 -100q0 -123 176 -123q66 0 105 13q19 6 50 31q13 12 30 12q20 0 35 -15t15 -36q0 -40 -64 -73q-66 -32 -178 -32q-138 0 -208 69q-61 61 -61 154q0 107 71.5 175t184.5 68q80 0 144 -30q35 -17 60.5 -53t25.5 -70q0 -20 -9 -35z" />
    <glyph glyph-name="Cdotaccent" unicode="&#x10a;" horiz-adv-x="618" 
d="M196 798q25 0 42.5 -17.5t17.5 -43.5q0 -24 -17.5 -41.5t-42.5 -17.5t-42.5 17.5t-17.5 42.5t17.5 42.5t42.5 17.5zM543 388q-13 -21 -41 -21q-21 0 -35 14q-9 9 -14 39q-4 18 -13.5 29.5t-30.5 23.5q-43 24 -97 24q-76 0 -126 -51.5t-50 -130.5v-64q0 -75 53.5 -120
t143.5 -45q72 0 110 23q11 6 38 34q16 16 36 16t35 -15t15 -35q0 -36 -53 -73q-69 -50 -184 -50q-127 0 -210.5 74.5t-83.5 188.5v66q0 120 78 201t194 81q71 0 142 -34q43 -21 72.5 -62t29.5 -78q0 -20 -9 -35z" />
    <glyph glyph-name="cdotaccent" unicode="&#x10b;" horiz-adv-x="595" 
d="M173 654q25 0 42.5 -17.5t17.5 -43.5q0 -24 -17.5 -41.5t-42.5 -17.5t-42.5 17.5t-17.5 42.5t17.5 42.5t42.5 17.5zM503 262q-13 -21 -41 -21q-22 0 -36 14q-9 7 -15 34q-5 24 -23 36q-41 25 -106 25q-74 0 -116 -43q-40 -40 -40 -100q0 -123 176 -123q66 0 105 13
q19 6 50 31q13 12 30 12q20 0 35 -15t15 -36q0 -40 -64 -73q-66 -32 -178 -32q-138 0 -208 69q-61 61 -61 154q0 107 71.5 175t184.5 68q80 0 144 -30q35 -17 60.5 -53t25.5 -70q0 -20 -9 -35z" />
    <glyph glyph-name="Ccaron" unicode="&#x10c;" horiz-adv-x="618" 
d="M229 729l112 96q15 14 29 14q13 0 23.5 -11t10.5 -25q0 -16 -15 -28l-9 -7l-151 -128l-152 128q-16 13 -20 19t-4 16q0 14 10.5 25t24.5 11q11 0 28 -14zM543 388q-13 -21 -41 -21q-21 0 -35 14q-9 9 -14 39q-4 18 -13.5 29.5t-30.5 23.5q-43 24 -97 24q-76 0 -126 -51.5
t-50 -130.5v-64q0 -75 53.5 -120t143.5 -45q72 0 110 23q11 6 38 34q16 16 36 16t35 -15t15 -35q0 -36 -53 -73q-69 -50 -184 -50q-127 0 -210.5 74.5t-83.5 188.5v66q0 120 78 201t194 81q71 0 142 -34q43 -21 72.5 -62t29.5 -78q0 -20 -9 -35z" />
    <glyph glyph-name="ccaron" unicode="&#x10d;" horiz-adv-x="586" 
d="M300 586l112 96q15 14 29 14q13 0 23.5 -11t10.5 -25q0 -16 -15 -28l-9 -7l-151 -128l-152 128q-16 13 -20 19t-4 16q0 14 10.5 25t24.5 11q11 0 28 -14zM510 262q-13 -21 -41 -21q-22 0 -36 14q-9 7 -15 34q-5 24 -23 36q-41 25 -106 25q-74 0 -116 -43
q-40 -40 -40 -100q0 -123 176 -123q66 0 105 13q19 6 50 31q13 12 30 12q20 0 35 -15t15 -36q0 -40 -64 -73q-66 -32 -178 -32q-138 0 -208 69q-61 61 -61 154q0 107 71.5 175t184.5 68q80 0 144 -30q35 -17 60.5 -53t25.5 -70q0 -20 -9 -35z" />
    <glyph glyph-name="Dcaron" unicode="&#x10e;" horiz-adv-x="590" 
d="M226 729l112 96q15 14 29 14q13 0 23.5 -11t10.5 -25q0 -16 -15 -28l-9 -7l-151 -128l-152 128q-16 13 -20 19t-4 16q0 14 10.5 25t24.5 11q11 0 28 -14zM284 0h-210v583h-4h55.5h110.5h56q109 0 183.5 -80t74.5 -198v-47q0 -110 -70 -183q-71 -75 -196 -75zM174 100h111
q45 0 73 10t51 34q41 45 41 117v46q0 72 -45 125q-44 51 -121 51h-110v-383z" />
    <glyph glyph-name="dcaron" unicode="&#x10f;" horiz-adv-x="563" 
d="M532 0h-100v35q-72 -49 -151 -49q-109 0 -177 65q-70 68 -70 168t70 167q68 65 178 65q87 0 150 -50v223h100v-129l76 116q17 26 38 26q15 0 25.5 -10.5t10.5 -26.5q0 -10 -13 -30l-82 -125q-18 -26 -37 -26q-7 0 -18 4v-423zM282 351q-69 0 -109 -40q-39 -39 -39 -92
q0 -52 39 -93q41 -40 110 -40t110 40q39 39 39 91q0 55 -39 94q-41 40 -111 40z" />
    <glyph glyph-name="Dcroat" unicode="&#x110;" horiz-adv-x="601" 
d="M80 243q-34 0 -47 10q-21 15 -21 40q0 29 24 43q10 7 43 7h181q32 0 45 -9q21 -15 21 -41q0 -50 -66 -50h-180zM296 0h-210v583h-4h222q109 0 183.5 -80t74.5 -198v-47q0 -110 -70 -183q-71 -75 -196 -75zM186 100h111q45 0 73 10t51 34q41 45 41 117v46q0 72 -45 125
q-44 51 -121 51h-110v-383z" />
    <glyph glyph-name="dcroat" unicode="&#x111;" horiz-adv-x="620" 
d="M532 507h16q32 0 46 -9q20 -15 20 -41q0 -50 -66 -50h-16v-307h16q33 0 46 -9q20 -17 20 -41q0 -29 -24 -43q-11 -7 -42 -7h-116v24q-68 -40 -148 -40q-111 0 -180.5 62.5t-69.5 162.5q0 102 71.5 171.5t176.5 69.5q80 0 150 -46v121h-16q-33 0 -45 9q-21 16 -21 41
q0 28 24 42q11 7 42 7h116v-117zM283 350q-63 0 -106 -41t-43 -102q0 -56 40.5 -89.5t108.5 -33.5t108.5 33t40.5 89q0 62 -42.5 103t-106.5 41z" />
    <glyph glyph-name="Emacron" unicode="&#x112;" horiz-adv-x="582" 
d="M154 769h244q32 0 42 -11q11 -13 11 -29q0 -40 -53 -40h-244q-31 0 -42 12q-11 15 -11 28q0 40 53 40zM504 583v-100h-334v-141h184v-99h-184v-143h356v-100h-456v583h434z" />
    <glyph glyph-name="emacron" unicode="&#x113;" horiz-adv-x="587" 
d="M178 626h244q32 0 42 -11q11 -13 11 -29q0 -40 -53 -40h-244q-31 0 -42 12q-11 15 -11 28q0 40 53 40zM550 172h-408q34 -88 164 -88q56 0 163 28q20 5 33 5q20 0 34 -14.5t14 -35.5q0 -29 -35 -45q-34 -15 -99.5 -26.5t-118.5 -11.5q-116 0 -190 65t-74 167
q0 99 74.5 166.5t183.5 67.5q112 0 185.5 -68t73.5 -171v-39zM145 260h294q-12 41 -52 65.5t-95 24.5t-95.5 -25t-51.5 -65z" />
    <glyph glyph-name="Ebreve" unicode="&#x114;" horiz-adv-x="582" 
d="M59 831q15 0 22 -8.5t12 -31.5q8 -35 37 -55.5t70 -20.5t70 20.5t37 55.5q5 23 12 31.5t22 8.5t24.5 -10.5t9.5 -27.5q0 -57 -53 -101.5t-122 -44.5t-122 44.5t-53 101.5q0 17 9.5 27.5t24.5 10.5zM504 583v-100h-334v-141h184v-99h-184v-143h356v-100h-456v583h434z" />
    <glyph glyph-name="ebreve" unicode="&#x115;" horiz-adv-x="587" 
d="M77 687q15 0 22 -8.5t12 -31.5q8 -35 37 -55.5t70 -20.5t70 20.5t37 55.5q5 23 12 31.5t22 8.5t24.5 -10.5t9.5 -27.5q0 -57 -53 -101.5t-122 -44.5t-122 44.5t-53 101.5q0 17 9.5 27.5t24.5 10.5zM543 172h-408q34 -88 164 -88q56 0 163 28q20 5 33 5q20 0 34 -14.5
t14 -35.5q0 -29 -35 -45q-34 -15 -99.5 -26.5t-118.5 -11.5q-116 0 -190 65t-74 167q0 99 74.5 166.5t183.5 67.5q112 0 185.5 -68t73.5 -171v-39zM138 260h294q-12 41 -52 65.5t-95 24.5t-95.5 -25t-51.5 -65z" />
    <glyph glyph-name="Edotaccent" unicode="&#x116;" horiz-adv-x="582" 
d="M177 798q25 0 42.5 -17.5t17.5 -43.5q0 -24 -17.5 -41.5t-42.5 -17.5t-42.5 17.5t-17.5 42.5t17.5 42.5t42.5 17.5zM504 583v-100h-334v-141h184v-99h-184v-143h356v-100h-456v583h434z" />
    <glyph glyph-name="edotaccent" unicode="&#x117;" horiz-adv-x="587" 
d="M194 654q25 0 42.5 -17.5t17.5 -43.5q0 -24 -17.5 -41.5t-42.5 -17.5t-42.5 17.5t-17.5 42.5t17.5 42.5t42.5 17.5zM543 172h-408q34 -88 164 -88q56 0 163 28q20 5 33 5q20 0 34 -14.5t14 -35.5q0 -29 -35 -45q-34 -15 -99.5 -26.5t-118.5 -11.5q-116 0 -190 65t-74 167
q0 99 74.5 166.5t183.5 67.5q112 0 185.5 -68t73.5 -171v-39zM138 260h294q-12 41 -52 65.5t-95 24.5t-95.5 -25t-51.5 -65z" />
    <glyph glyph-name="Eogonek" unicode="&#x118;" horiz-adv-x="619" 
d="M526 0q-54 -37 -77 -62.5t-23 -49.5q0 -20 24 -20q17 0 52 18q12 6 22 6q16 0 27.5 -11t11.5 -27q0 -27 -35 -43q-43 -19 -85 -19q-44 0 -69 24t-25 65q0 37 17.5 63.5t61.5 55.5h-358v583h434v-100h-334v-141h184v-99h-184v-143h356v-100z" />
    <glyph glyph-name="eogonek" unicode="&#x119;" horiz-adv-x="587" 
d="M550 172h-408q34 -88 164 -88q56 0 163 28q20 5 33 5q20 0 34 -14.5t14 -35.5q0 -30 -42 -48q-68 -27 -108 -62.5t-40 -68.5q0 -20 24 -20q15 0 51 18q12 6 22 6q16 0 27.5 -11t11.5 -27q0 -27 -35 -43q-43 -19 -84 -19q-44 0 -69 24t-25 65q0 62 58 105q-20 -2 -42 -2
q-118 0 -192 64.5t-74 167.5q0 99 74.5 166.5t183.5 67.5q112 0 185.5 -68t73.5 -171v-39zM145 260h294q-12 41 -52 65.5t-95 24.5t-95.5 -25t-51.5 -65z" />
    <glyph glyph-name="Ecaron" unicode="&#x11a;" horiz-adv-x="582" 
d="M202 729l112 96q15 14 29 14q13 0 23.5 -11t10.5 -25q0 -16 -15 -28l-9 -7l-151 -128l-152 128q-16 13 -20 19t-4 16q0 14 10.5 25t24.5 11q11 0 28 -14zM504 583v-100h-334v-141h184v-99h-184v-143h356v-100h-456v583h434z" />
    <glyph glyph-name="ecaron" unicode="&#x11b;" horiz-adv-x="587" 
d="M301 586l112 96q15 14 29 14q13 0 23.5 -11t10.5 -25q0 -16 -15 -28l-9 -7l-151 -128l-152 128q-16 13 -20 19t-4 16q0 14 10.5 25t24.5 11q11 0 28 -14zM550 172h-408q34 -88 164 -88q56 0 163 28q20 5 33 5q20 0 34 -14.5t14 -35.5q0 -29 -35 -45q-34 -15 -99.5 -26.5
t-118.5 -11.5q-116 0 -190 65t-74 167q0 99 74.5 166.5t183.5 67.5q112 0 185.5 -68t73.5 -171v-39zM145 260h294q-12 41 -52 65.5t-95 24.5t-95.5 -25t-51.5 -65z" />
    <glyph glyph-name="Gcircumflex" unicode="&#x11c;" horiz-adv-x="612" 
d="M233 750l-113 -97q-16 -13 -28 -13q-14 0 -24.5 10.5t-10.5 24.5q0 11 4 16.5t20 18.5l152 129l151 -129q6 -4 9 -7q15 -12 15 -28q0 -14 -10.5 -24.5t-23.5 -10.5t-29 13zM341 180v100l212 -1v-231q-66 -35 -113 -48.5t-106 -13.5q-73 0 -134 20.5t-98 58.5
q-30 32 -48 80.5t-18 100.5v71q0 57 22.5 110t61.5 93q79 77 200 77q83 0 145 -32q28 -14 58.5 -48t30.5 -72q0 -19 -10 -37q-11 -21 -41 -21q-21 0 -35 15q-6 7 -14 38q-7 26 -42.5 41.5t-90.5 15.5q-85 0 -132 -47q-24 -25 -38.5 -60.5t-14.5 -72.5v-64q0 -85 45 -123
q52 -44 147 -44q70 0 125 25v69h-112z" />
    <glyph glyph-name="gcircumflex" unicode="&#x11d;" horiz-adv-x="575" 
d="M225 607l-113 -97q-16 -13 -28 -13q-14 0 -24.5 10.5t-10.5 24.5q0 11 4 16.5t20 18.5l152 129l151 -129q6 -4 9 -7q15 -12 15 -28q0 -14 -10.5 -24.5t-23.5 -10.5t-29 13zM505 437v-457q0 -79 -54.5 -132t-136.5 -53h-112q-34 0 -45 10q-21 15 -21 40q0 29 24 43
q10 7 42 7h109q43 0 68.5 23t25.5 62v55q-66 -49 -141 -49q-101 0 -168.5 66.5t-67.5 165.5q0 100 67.5 166.5t168.5 66.5q82 0 141 -50v36h100zM266 351q-57 0 -97.5 -38.5t-40.5 -93.5t40.5 -94t97.5 -39t98 38.5t41 92.5q0 56 -40.5 95t-98.5 39z" />
    <glyph glyph-name="Gbreve" unicode="&#x11e;" horiz-adv-x="612" 
d="M116 831q15 0 22 -8.5t12 -31.5q8 -35 37 -55.5t70 -20.5t70 20.5t37 55.5q5 23 12 31.5t22 8.5t24.5 -10.5t9.5 -27.5q0 -57 -53 -101.5t-122 -44.5t-122 44.5t-53 101.5q0 17 9.5 27.5t24.5 10.5zM341 180v100l212 -1v-231q-66 -35 -113 -48.5t-106 -13.5
q-73 0 -134 20.5t-98 58.5q-30 32 -48 80.5t-18 100.5v71q0 57 22.5 110t61.5 93q79 77 200 77q83 0 145 -32q28 -14 58.5 -48t30.5 -72q0 -19 -10 -37q-11 -21 -41 -21q-21 0 -35 15q-6 7 -14 38q-7 26 -42.5 41.5t-90.5 15.5q-85 0 -132 -47q-24 -25 -38.5 -60.5
t-14.5 -72.5v-64q0 -85 45 -123q52 -44 147 -44q70 0 125 25v69h-112z" />
    <glyph glyph-name="gbreve" unicode="&#x11f;" horiz-adv-x="575" 
d="M95 687q15 0 22 -8.5t12 -31.5q8 -35 37 -55.5t70 -20.5t70 20.5t37 55.5q5 23 12 31.5t22 8.5t24.5 -10.5t9.5 -27.5q0 -57 -53 -101.5t-122 -44.5t-122 44.5t-53 101.5q0 17 9.5 27.5t24.5 10.5zM505 437v-457q0 -79 -54.5 -132t-136.5 -53h-112q-34 0 -45 10
q-21 15 -21 40q0 29 24 43q10 7 42 7h109q43 0 68.5 23t25.5 62v55q-66 -49 -141 -49q-101 0 -168.5 66.5t-67.5 165.5q0 100 67.5 166.5t168.5 66.5q82 0 141 -50v36h100zM266 351q-57 0 -97.5 -38.5t-40.5 -93.5t40.5 -94t97.5 -39t98 38.5t41 92.5q0 56 -40.5 95
t-98.5 39z" />
    <glyph glyph-name="Gdotaccent" unicode="&#x120;" horiz-adv-x="612" 
d="M204 798q25 0 42.5 -17.5t17.5 -43.5q0 -24 -17.5 -41.5t-42.5 -17.5t-42.5 17.5t-17.5 42.5t17.5 42.5t42.5 17.5zM341 180v100l212 -1v-231q-66 -35 -113 -48.5t-106 -13.5q-73 0 -134 20.5t-98 58.5q-30 32 -48 80.5t-18 100.5v71q0 57 22.5 110t61.5 93q79 77 200 77
q83 0 145 -32q28 -14 58.5 -48t30.5 -72q0 -19 -10 -37q-11 -21 -41 -21q-21 0 -35 15q-6 7 -14 38q-7 26 -42.5 41.5t-90.5 15.5q-85 0 -132 -47q-24 -25 -38.5 -60.5t-14.5 -72.5v-64q0 -85 45 -123q52 -44 147 -44q70 0 125 25v69h-112z" />
    <glyph glyph-name="gdotaccent" unicode="&#x121;" horiz-adv-x="575" 
d="M196 654q25 0 42.5 -17.5t17.5 -43.5q0 -24 -17.5 -41.5t-42.5 -17.5t-42.5 17.5t-17.5 42.5t17.5 42.5t42.5 17.5zM505 437v-457q0 -79 -54.5 -132t-136.5 -53h-112q-34 0 -45 10q-21 15 -21 40q0 29 24 43q10 7 42 7h109q43 0 68.5 23t25.5 62v55q-66 -49 -141 -49
q-101 0 -168.5 66.5t-67.5 165.5q0 100 67.5 166.5t168.5 66.5q82 0 141 -50v36h100zM266 351q-57 0 -97.5 -38.5t-40.5 -93.5t40.5 -94t97.5 -39t98 38.5t41 92.5q0 56 -40.5 95t-98.5 39z" />
    <glyph glyph-name="Gcommaaccent" unicode="&#x122;" horiz-adv-x="612" 
d="M343 -126l-82 -126q-16 -26 -36 -26q-15 0 -26 10.5t-11 24.5t12 32l82 126q10 15 18 20.5t20 5.5q15 0 25.5 -11t10.5 -26q0 -10 -13 -30zM343 180v100l212 -1v-231q-66 -35 -113 -48.5t-106 -13.5q-73 0 -134 20.5t-98 58.5q-30 32 -48 80.5t-18 100.5v71
q0 57 22.5 110t61.5 93q79 77 200 77q83 0 145 -32q28 -14 58.5 -48t30.5 -72q0 -19 -10 -37q-11 -21 -41 -21q-21 0 -35 15q-6 7 -14 38q-7 26 -42.5 41.5t-90.5 15.5q-85 0 -132 -47q-24 -25 -38.5 -60.5t-14.5 -72.5v-64q0 -85 45 -123q52 -44 147 -44q70 0 125 25v69
h-112z" />
    <glyph glyph-name="gcommaaccent" unicode="&#x123;" horiz-adv-x="575" 
d="M379 654l-82 -126q-17 -26 -36 -26q-15 0 -26 10.5t-11 24.5t12 32l82 126q17 26 38 26q15 0 25.5 -11t10.5 -26q0 -10 -13 -30zM511 437v-457q0 -79 -54.5 -132t-136.5 -53h-112q-34 0 -45 10q-21 15 -21 40q0 29 24 43q10 7 42 7h109q43 0 68.5 23t25.5 62v55
q-66 -49 -141 -49q-101 0 -168.5 66.5t-67.5 165.5q0 100 67.5 166.5t168.5 66.5q82 0 141 -50v36h100zM272 351q-57 0 -97.5 -38.5t-40.5 -93.5t40.5 -94t97.5 -39t98 38.5t41 92.5q0 56 -40.5 95t-98.5 39z" />
    <glyph glyph-name="Hcircumflex" unicode="&#x124;" horiz-adv-x="554" 
d="M484 0h-100v241h-214v-241h-100v566h100v-225h214v225h100v-566zM277 750l-113 -97q-16 -13 -28 -13q-14 0 -24.5 10.5t-10.5 24.5q0 11 4 16.5t20 18.5l152 129l151 -129q6 -4 9 -7q15 -12 15 -28q0 -14 -10.5 -24.5t-23.5 -10.5t-29 13z" />
    <glyph glyph-name="hcircumflex" unicode="&#x125;" horiz-adv-x="467" 
d="M185 750l-109 -94q-15 -12 -27 -12q-14 0 -24 10.5t-10 22.5q0 11 3.5 16t19.5 18l147 126l146 -126q6 0 9 -7q15 -11 15 -27q0 -12 -10 -22.5t-23 -10.5t-28 12zM-6 624h99v-235q60 61 137 61q80 0 128.5 -45.5t48.5 -120.5v-284h-100v271q0 26 -4 38t-17 22
q-23 19 -67 19q-35 0 -59 -13t-67 -54v-283h-100z" />
    <glyph glyph-name="Hbar" unicode="&#x126;" horiz-adv-x="554" 
d="M484 0h-100v241h-214v-241h-100v584h100v-243h214v243h100v-584z" />
    <glyph glyph-name="hbar" unicode="&#x127;" horiz-adv-x="538" 
d="M57 624h99v-235q60 61 137 61q80 0 128.5 -45.5t48.5 -120.5v-284h-100v271q0 26 -4 38t-17 22q-23 19 -67 19q-35 0 -59 -13t-67 -54v-283h-100z" />
    <glyph glyph-name="Itilde" unicode="&#x128;" horiz-adv-x="394" 
d="M296 799q13 0 22.5 -8.5t9.5 -19.5q0 -20 -29 -57q-38 -48 -80 -48q-34 0 -99 43q-31 21 -50 21q-13 0 -23 -8.5t-32 -37.5q-11 -15 -26 -15q-13 0 -22 9t-9 21q0 22 27 55q39 45 83 45q29 0 90 -38q44 -26 58 -26q11 0 17.5 5.5t23.5 28.5q21 30 39 30zM252 0h-100v584
h100v-584z" />
    <glyph glyph-name="itilde" unicode="&#x129;" horiz-adv-x="375" 
d="M288 656q13 0 22.5 -8.5t9.5 -19.5q0 -20 -29 -57q-38 -48 -80 -48q-34 0 -99 43q-31 21 -50 21q-13 0 -23 -8.5t-32 -37.5q-11 -15 -26 -15q-13 0 -22 9t-9 21q0 22 27 55q39 45 83 45q29 0 90 -38q44 -26 58 -26q11 0 17.5 5.5t23.5 28.5q21 30 39 30zM105 0v337h-78
q-35 0 -46 10q-21 15 -21 40q0 29 24 43q11 7 43 7h178v-437h-100z" />
    <glyph glyph-name="Imacron" unicode="&#x12a;" horiz-adv-x="399" 
d="M77 769h244q32 0 42 -11q11 -13 11 -29q0 -40 -53 -40h-244q-31 0 -42 12q-11 15 -11 28q0 40 53 40zM249 0h-100v584h100v-584z" />
    <glyph glyph-name="imacron" unicode="&#x12b;" horiz-adv-x="396" 
d="M35 626h244q32 0 42 -11q11 -13 11 -29q0 -40 -53 -40h-244q-31 0 -42 12q-11 15 -11 28q0 40 53 40zM117 0v337h-78q-35 0 -46 10q-21 15 -21 40q0 29 24 43q11 7 43 7h178v-437h-100z" />
    <glyph glyph-name="Ibreve" unicode="&#x12c;" horiz-adv-x="383" 
d="M-9 831q15 0 22 -8.5t12 -31.5q8 -35 37 -55.5t70 -20.5t70 20.5t37 55.5q5 23 12 31.5t22 8.5t24.5 -10.5t9.5 -27.5q0 -57 -53 -101.5t-122 -44.5t-122 44.5t-53 101.5q0 17 9.5 27.5t24.5 10.5zM248 0h-100v584h100v-584z" />
    <glyph glyph-name="ibreve" unicode="&#x12d;" horiz-adv-x="372" 
d="M-8 687q15 0 22 -8.5t12 -31.5q8 -35 37 -55.5t70 -20.5t70 20.5t37 55.5q5 23 12 31.5t22 8.5t24.5 -10.5t9.5 -27.5q0 -57 -53 -101.5t-122 -44.5t-122 44.5t-53 101.5q0 17 9.5 27.5t24.5 10.5zM109 0v337h-78q-35 0 -46 10q-21 15 -21 40q0 29 24 43q11 7 43 7h178
v-437h-100z" />
    <glyph glyph-name="Iogonek" unicode="&#x12e;" horiz-adv-x="287" 
d="M246 0q-42 -24 -70.5 -56.5t-28.5 -55.5q0 -20 24 -20q15 0 51 18q12 6 22 6q16 0 27.5 -11t11.5 -27q0 -27 -35 -43q-43 -19 -84 -19q-44 0 -69 24t-25 65q0 38 16.5 64.5t59.5 54.5v584h100v-584z" />
    <glyph glyph-name="iogonek" unicode="&#x12f;" horiz-adv-x="342" 
d="M309 1q-21 -12 -49.5 -36t-37.5 -36q-15 -25 -15 -41q0 -20 24 -20q15 0 51 18q12 6 22 6q16 0 27.5 -11t11.5 -27q0 -27 -35 -43q-43 -19 -84 -19q-44 0 -69 24t-25 65q0 37 17.5 63.5t61.5 55.5v337h-78q-35 0 -46 10q-21 15 -21 40q0 29 24 43q11 7 43 7h178v-436z
M295 623v-105h-118v105h118z" />
    <glyph glyph-name="Idotaccent" unicode="&#x130;" horiz-adv-x="261" 
d="M130 798q25 0 42.5 -17.5t17.5 -43.5q0 -24 -17.5 -41.5t-42.5 -17.5t-42.5 17.5t-17.5 42.5t17.5 42.5t42.5 17.5zM180 0h-100v584h100v-584z" />
    <glyph glyph-name="dotlessi" unicode="&#x131;" horiz-adv-x="373" 
d="M209 0v337h-78q-35 0 -46 10q-21 15 -21 40q0 29 24 43q11 7 43 7h178v-437h-100z" />
    <glyph glyph-name="IJ" unicode="&#x132;" horiz-adv-x="711" 
d="M204 51l100 66q69 -31 117 -31q57 0 95 36q16 16 20 29t4 47v385h100v-396q0 -49 -14.5 -81.5t-49.5 -63.5q-65 -56 -157 -56q-84 0 -215 65zM170 0h-100v584h100v-584z" />
    <glyph glyph-name="ij" unicode="&#x133;" horiz-adv-x="602" 
d="M209 0v337h-78q-35 0 -46 10q-21 15 -21 40q0 29 24 43q10 7 43 7h178v-437h-100zM295 623v-105h-118v105h118zM537 423v-442q0 -77 -53 -128t-132 -51h-111q-33 0 -44 9q-20 15 -20 39q0 26 23 42q10 6 41 6h108q41 0 66 22.5t25 60.5v443zM538 626v-102h-116v102h116z
" />
    <glyph glyph-name="Jcircumflex" unicode="&#x134;" horiz-adv-x="519" 
d="M-43 51l100 66q69 -31 117 -31q57 0 95 36q16 16 20 29t4 47v385h100v-396q0 -49 -14.5 -81.5t-49.5 -63.5q-65 -56 -157 -56q-84 0 -215 65zM343 750l-113 -97q-16 -13 -28 -13q-14 0 -24.5 10.5t-10.5 24.5q0 11 4 16.5t20 18.5l152 129l151 -129q6 -4 9 -7
q15 -12 15 -28q0 -14 -10.5 -24.5t-23.5 -10.5t-29 13z" />
    <glyph glyph-name="jcircumflex" unicode="&#x135;" horiz-adv-x="326" 
d="M238 326h-196q-30 0 -44 10q-20 14 -20 39q0 28 24 42q10 6 40 6h293v-442q0 -77 -53 -128t-132 -51h-111q-33 0 -44 9q-20 15 -20 39q0 26 23 42q10 6 41 6h108q41 0 66 22.5t25 60.5v345zM156 686l-109 -95q-18 -11 -29 -11q-13 0 -23 10t-10 23q0 10 3.5 15t19.5 18
l148 126l146 -126q2 -1 5 -3t5 -3q13 -10 13 -27q0 -13 -10 -23t-23 -10q-14 0 -28 11z" />
    <glyph glyph-name="Kcommaaccent" unicode="&#x136;" horiz-adv-x="577" 
d="M170 0h-100v584h100v-250l291 249h36h103l-289 -253q54 -29 113.5 -118t82.5 -212h-105q-35 107 -80.5 176t-91.5 83l-60 -51v-208zM314 -126l-82 -126q-17 -26 -36 -26q-15 0 -26 10.5t-11 24.5t12 32l82 126q17 26 38 26q15 0 25.5 -11t10.5 -26q0 -10 -13 -30z" />
    <glyph glyph-name="kcommaaccent" unicode="&#x137;" horiz-adv-x="520" 
d="M281 -126l-82 -126q-17 -26 -36 -26q-15 0 -26 10.5t-11 24.5t12 32l82 126q17 26 38 26q15 0 25.5 -11t10.5 -26q0 -10 -13 -30zM528 0h-151l-201 178l-18 -14v-164h-100v624h100v-337l188 150h148l-240 -196z" />
    <glyph glyph-name="kgreenlandic" unicode="&#x138;" horiz-adv-x="476" 
d="M474 0h-146l-167 159v-159h-97v423h97v-146l185 146h144l-253 -203z" />
    <glyph glyph-name="Lacute" unicode="&#x139;" horiz-adv-x="506" 
d="M175 768l-133 -112q-20 -16 -32 -16q-15 0 -26 11t-11 25q0 18 23 37l133 111q20 16 32 16q16 0 26.5 -10.5t10.5 -26.5q0 -17 -23 -35zM70 0v583h100v-483h315v-100h-415z" />
    <glyph glyph-name="lacute" unicode="&#x13a;" horiz-adv-x="368" 
d="M242 768l-133 -112q-20 -16 -32 -16q-15 0 -26 11t-11 25q0 18 23 37l133 111q20 16 32 16q16 0 26.5 -10.5t10.5 -26.5q0 -17 -23 -35zM153 0v524h-8q-35 0 -46 10q-21 14 -21 40q0 29 24 43q10 7 43 7h108v-624h-100z" />
    <glyph glyph-name="Lcommaaccent" unicode="&#x13b;" horiz-adv-x="506" 
d="M252 -126l-82 -126q-17 -26 -36 -26q-15 0 -26 10.5t-11 24.5t12 32l82 126q17 26 38 26q15 0 25.5 -11t10.5 -26q0 -10 -13 -30zM70 0v583h100v-483h315v-100h-415z" />
    <glyph glyph-name="lcommaaccent" unicode="&#x13c;" horiz-adv-x="297" 
d="M143 0v524h-8q-35 0 -46 10q-21 14 -21 40q0 29 24 43q10 7 43 7h108v-624h-100zM231 -126l-82 -126q-17 -26 -36 -26q-15 0 -26 10.5t-11 24.5t12 32l82 126q17 26 38 26q15 0 25.5 -11t10.5 -26q0 -10 -13 -30z" />
    <glyph glyph-name="Lcaron" unicode="&#x13d;" horiz-adv-x="506" 
d="M471 531l-82 -126q-17 -26 -36 -26q-15 0 -26 10.5t-11 24.5t12 32l82 126q17 26 38 26q15 0 25.5 -11t10.5 -26q0 -10 -13 -30zM70 0v583h100v-483h315v-100h-415z" />
    <glyph glyph-name="lcaron" unicode="&#x13e;" horiz-adv-x="433" 
d="M153 0v524h-8q-35 0 -46 10q-21 14 -21 40q0 29 24 43q10 7 43 7h108v-624h-100zM420 570l-82 -126q-17 -26 -36 -26q-15 0 -26 10.5t-11 24.5t12 32l82 126q17 26 38 26q15 0 25.5 -11t10.5 -26q0 -10 -13 -30z" />
    <glyph glyph-name="Lslash" unicode="&#x141;" horiz-adv-x="545" 
d="M210 359l88 52q25 15 41 15q19 0 33 -15t14 -35q0 -18 -8 -28.5t-31 -22.5l-237 -122l-54 -32q-25 -15 -42 -15q-19 0 -33.5 15.5t-14.5 35.5q0 17 8 28t32 23zM110 0v583h100v-483h315v-100h-415z" />
    <glyph glyph-name="lslash" unicode="&#x142;" horiz-adv-x="339" 
d="M129 0v243l-34 -20q-24 -14 -40 -14q-19 0 -34 15.5t-15 35.5q0 17 8.5 28t31.5 24l83 47v165h-75q-35 0 -46 10q-21 15 -21 40q0 29 24 43q10 7 43 7h175v-225l35 20q26 16 40 16q20 0 34.5 -15.5t14.5 -36.5q0 -16 -8.5 -27.5t-30.5 -23.5l-85 -49v-283h-100z" />
    <glyph glyph-name="Nacute" unicode="&#x143;" horiz-adv-x="598" 
d="M449 767l-133 -111q-19 -16 -32 -16q-15 0 -26 11t-11 25q0 19 23 36l133 112q19 15 32 15q16 0 26.5 -10.5t10.5 -25.5q0 -18 -23 -36zM528 583v-583h-99l-259 394v-394h-100v583h100l258 -392v392h100z" />
    <glyph glyph-name="nacute" unicode="&#x144;" horiz-adv-x="538" 
d="M420 624l-133 -112q-20 -16 -32 -16q-15 0 -26 11t-11 25q0 18 23 37l133 111q20 16 32 16q16 0 26.5 -10.5t10.5 -26.5q0 -17 -23 -35zM64 437h99v-48q36 34 66 47.5t71 13.5q68 0 119 -37q59 -44 59 -131v-282h-100v278q0 72 -90 72q-35 0 -62.5 -15t-62.5 -53v-282
h-99v437z" />
    <glyph glyph-name="Ncommaaccent" unicode="&#x145;" horiz-adv-x="598" 
d="M335 -126l-82 -126q-17 -26 -36 -26q-15 0 -26 10.5t-11 24.5t12 32l82 126q17 26 38 26q15 0 25.5 -11t10.5 -26q0 -10 -13 -30zM528 583v-583h-99l-259 394v-394h-100v583h100l258 -392v392h100z" />
    <glyph glyph-name="ncommaaccent" unicode="&#x146;" horiz-adv-x="538" 
d="M300 -126l-82 -126q-17 -26 -36 -26q-15 0 -26 10.5t-11 24.5t12 32l82 126q17 26 38 26q15 0 25.5 -11t10.5 -26q0 -10 -13 -30zM58 437h99v-48q36 34 66 47.5t71 13.5q68 0 119 -37q59 -44 59 -131v-282h-100v278q0 72 -90 72q-35 0 -62.5 -15t-62.5 -53v-282h-99v437z
" />
    <glyph glyph-name="Ncaron" unicode="&#x147;" horiz-adv-x="598" 
d="M223 729l112 96q15 14 29 14q13 0 23.5 -11t10.5 -25q0 -16 -15 -28l-9 -7l-151 -128l-152 128q-16 13 -20 19t-4 16q0 14 10.5 25t24.5 11q11 0 28 -14zM528 583v-583h-99l-259 394v-394h-100v583h100l258 -392v392h100z" />
    <glyph glyph-name="ncaron" unicode="&#x148;" horiz-adv-x="538" 
d="M269 586l112 96q15 14 29 14q13 0 23.5 -11t10.5 -25q0 -16 -15 -28l-9 -7l-151 -128l-152 128q-16 13 -20 19t-4 16q0 14 10.5 25t24.5 11q11 0 28 -14zM64 437h99v-48q36 34 66 47.5t71 13.5q68 0 119 -37q59 -44 59 -131v-282h-100v278q0 72 -90 72q-35 0 -62.5 -15
t-62.5 -53v-282h-99v437z" />
    <glyph glyph-name="napostrophe" unicode="&#x149;" horiz-adv-x="523" 
d="M33 437h99v-48q36 34 66 47.5t71 13.5q68 0 119 -37q59 -44 59 -131v-282h-100v278q0 72 -90 72q-35 0 -62.5 -15t-62.5 -53v-282h-99v437z" />
    <glyph glyph-name="Eng" unicode="&#x14a;" horiz-adv-x="604" 
d="M522 583v-583h-99l-259 394v-394h-100v583h100l258 -392v392h100z" />
    <glyph glyph-name="eng" unicode="&#x14b;" horiz-adv-x="538" 
d="M58 437h99v-48q36 34 66 47.5t71 13.5q68 0 119 -37q59 -44 59 -131v-282h-100v278q0 72 -90 72q-35 0 -62.5 -15t-62.5 -53v-282h-99v437z" />
    <glyph glyph-name="Omacron" unicode="&#x14c;" horiz-adv-x="634" 
d="M195 769h244q32 0 42 -11q11 -13 11 -29q0 -40 -53 -40h-244q-31 0 -42 12q-11 15 -11 28q0 40 53 40zM317 597q103 0 185 -77q94 -90 94 -233q0 -123 -82.5 -212t-196.5 -89q-116 0 -197.5 89.5t-81.5 216.5q0 126 82 215.5t197 89.5zM317 497q-73 0 -126 -60.5
t-53 -144.5q0 -85 52.5 -145.5t126.5 -60.5q73 0 126 60t53 143q0 86 -52.5 147t-126.5 61z" />
    <glyph glyph-name="omacron" unicode="&#x14d;" horiz-adv-x="582" 
d="M169 626h244q32 0 42 -11q11 -13 11 -29q0 -40 -53 -40h-244q-31 0 -42 12q-11 15 -11 28q0 40 53 40zM294 450q106 0 180.5 -68t74.5 -165q0 -98 -75 -165.5t-183 -67.5t-183 67.5t-75 165.5q0 99 75 166t186 67zM293 350q-68 0 -114 -38t-46 -95q0 -56 45.5 -94.5
t112.5 -38.5t112.5 38.5t45.5 94.5t-45.5 94.5t-110.5 38.5z" />
    <glyph glyph-name="Obreve" unicode="&#x14e;" horiz-adv-x="634" 
d="M107 831q15 0 22 -8.5t12 -31.5q8 -35 37 -55.5t70 -20.5t70 20.5t37 55.5q5 23 12 31.5t22 8.5t24.5 -10.5t9.5 -27.5q0 -57 -53 -101.5t-122 -44.5t-122 44.5t-53 101.5q0 17 9.5 27.5t24.5 10.5zM315 597q103 0 185 -77q94 -90 94 -233q0 -123 -82.5 -212t-196.5 -89
q-116 0 -197.5 89.5t-81.5 216.5q0 126 82 215.5t197 89.5zM315 497q-73 0 -126 -60.5t-53 -144.5q0 -85 52.5 -145.5t126.5 -60.5q73 0 126 60t53 143q0 86 -52.5 147t-126.5 61z" />
    <glyph glyph-name="obreve" unicode="&#x14f;" horiz-adv-x="582" 
d="M145 642q14 0 21 -8.5t12 -30.5q7 -34 35 -53.5t69 -19.5q40 0 67.5 19.5t35.5 53.5q5 23 12 31t21 8t23.5 -10.5t9.5 -26.5q0 -56 -51 -99t-118 -43t-118.5 43t-51.5 99q0 16 9.5 26.5t23.5 10.5zM294 450q106 0 180.5 -68t74.5 -165q0 -98 -75 -165.5t-183 -67.5
t-183 67.5t-75 165.5q0 99 75 166t186 67zM293 350q-68 0 -114 -38t-46 -95q0 -56 45.5 -94.5t112.5 -38.5t112.5 38.5t45.5 94.5t-45.5 94.5t-110.5 38.5z" />
    <glyph glyph-name="Ohungarumlaut" unicode="&#x150;" horiz-adv-x="634" 
d="M293 765l-102 -110q-14 -16 -29 -16q-13 0 -24 11.5t-11 25.5q0 12 21 36l102 110q15 15 29 15q13 0 23.5 -11t10.5 -25q0 -15 -20 -36zM457 765l-102 -110q-16 -16 -29 -16t-24 11.5t-11 25.5q0 12 21 36l102 110q14 15 29 15q13 0 23.5 -11t10.5 -25q0 -15 -20 -36z
M315 597q103 0 185 -77q94 -90 94 -233q0 -123 -82.5 -212t-196.5 -89q-116 0 -197.5 89.5t-81.5 216.5q0 126 82 215.5t197 89.5zM315 497q-73 0 -126 -60.5t-53 -144.5q0 -85 52.5 -145.5t126.5 -60.5q73 0 126 60t53 143q0 86 -52.5 147t-126.5 61z" />
    <glyph glyph-name="ohungarumlaut" unicode="&#x151;" horiz-adv-x="582" 
d="M262 622l-102 -110q-14 -16 -29 -16q-13 0 -24 11.5t-11 25.5q0 12 21 36l102 110q15 15 29 15q13 0 23.5 -11t10.5 -25q0 -15 -20 -36zM426 622l-102 -110q-16 -16 -29 -16t-24 11.5t-11 25.5q0 12 21 36l102 110q14 15 29 15q13 0 23.5 -11t10.5 -25q0 -15 -20 -36z
M287 450q106 0 180.5 -68t74.5 -165q0 -98 -75 -165.5t-183 -67.5t-183 67.5t-75 165.5q0 99 75 166t186 67zM286 350q-68 0 -114 -38t-46 -95q0 -56 45.5 -94.5t112.5 -38.5t112.5 38.5t45.5 94.5t-45.5 94.5t-110.5 38.5z" />
    <glyph glyph-name="OE" unicode="&#x152;" horiz-adv-x="726" 
d="M542 243h-118v-143h246v-100h-353q-122 0 -200.5 82.5t-78.5 209.5t78.5 209t200.5 82h334l-2 -100h-225v-141h118v-99zM324 100v383q-71 -1 -111 -31q-34 -25 -54.5 -69.5t-20.5 -91.5q0 -50 24 -97t62 -70q40 -24 100 -24z" />
    <glyph glyph-name="oe" unicode="&#x153;" horiz-adv-x="694" 
d="M656 171h-252q20 -87 84 -87q32 0 96 28q13 5 24 5q20 0 34.5 -15t14.5 -37q0 -32 -37 -51q-25 -12 -66.5 -21t-71.5 -9q-83 0 -135 74q-54 -74 -132 -74q-76 0 -129 66.5t-53 161.5q0 100 52.5 169t128.5 69q77 0 133 -80q53 80 133 80q68 0 121 -61q55 -61 55 -173v-45
zM216 349q-34 0 -58.5 -39t-24.5 -94q0 -54 24.5 -93t58.5 -39q35 0 59.5 38.5t24.5 92.5q0 56 -24.5 95t-59.5 39zM407 257h141q-6 31 -16 53q-20 39 -54 39q-37 0 -56 -43q-8 -18 -15 -49z" />
    <glyph glyph-name="Racute" unicode="&#x154;" horiz-adv-x="581" 
d="M315 768l-133 -112q-20 -16 -32 -16q-15 0 -26 11t-11 25q0 18 23 37l133 111q20 16 32 16q16 0 26.5 -10.5t10.5 -26.5q0 -17 -23 -35zM566 0h-116q-37 72 -94.5 141.5t-89.5 80.5h-96v-222h-100v583h208q97 0 158.5 -49.5t61.5 -128.5q0 -92 -108 -151
q59 -55 98 -113.5t78 -140.5zM170 322h76q63 0 104.5 24.5t41.5 61.5q0 32 -31 53.5t-79 21.5h-112v-161z" />
    <glyph glyph-name="racute" unicode="&#x155;" horiz-adv-x="441" 
d="M219 624l-133 -112q-20 -16 -32 -16q-15 0 -26 11t-11 25q0 18 23 37l133 111q20 16 32 16q16 0 26.5 -10.5t10.5 -26.5q0 -17 -23 -35zM58 437h100v-65q60 45 95 61t72 16q53 0 98 -38q28 -23 28 -47q0 -21 -15 -36t-35 -15q-18 0 -39 18t-39 18q-24 0 -58.5 -21.5
t-106.5 -80.5v-247h-100v437z" />
    <glyph glyph-name="Rcommaaccent" unicode="&#x156;" horiz-adv-x="581" 
d="M314 -126l-82 -126q-17 -26 -36 -26q-15 0 -26 10.5t-11 24.5t12 32l82 126q17 26 38 26q15 0 25.5 -11t10.5 -26q0 -10 -13 -30zM566 0h-116q-37 72 -94.5 141.5t-89.5 80.5h-96v-222h-100v583h208q97 0 158.5 -49.5t61.5 -128.5q0 -92 -108 -151q59 -55 98 -113.5
t78 -140.5zM170 322h76q63 0 104.5 24.5t41.5 61.5q0 32 -31 53.5t-79 21.5h-112v-161z" />
    <glyph glyph-name="rcommaaccent" unicode="&#x157;" horiz-adv-x="450" 
d="M209 -126l-82 -126q-17 -26 -36 -26q-15 0 -26 10.5t-11 24.5t12 32l82 126q17 26 38 26q15 0 25.5 -11t10.5 -26q0 -10 -13 -30zM49 437h100v-65q60 45 95 61t72 16q53 0 98 -38q28 -23 28 -47q0 -21 -15 -36t-35 -15q-18 0 -39 18t-39 18q-24 0 -58.5 -21.5
t-106.5 -80.5v-247h-100v437z" />
    <glyph glyph-name="Rcaron" unicode="&#x158;" horiz-adv-x="581" 
d="M566 0h-116q-37 72 -94.5 141.5t-89.5 80.5h-96v-222h-100v583h208q97 0 158.5 -49.5t61.5 -128.5q0 -92 -108 -151q59 -55 98 -113.5t78 -140.5zM170 322h76q63 0 104.5 24.5t41.5 61.5q0 32 -31 53.5t-79 21.5h-112v-161zM202 729l112 96q15 14 29 14q13 0 23.5 -11
t10.5 -25q0 -16 -15 -28l-9 -7l-151 -128l-152 128q-16 13 -20 19t-4 16q0 14 10.5 25t24.5 11q11 0 28 -14z" />
    <glyph glyph-name="rcaron" unicode="&#x159;" horiz-adv-x="498" 
d="M165 586l112 96q15 14 29 14q13 0 23.5 -11t10.5 -25q0 -16 -15 -28l-9 -7l-151 -128l-152 128q-16 13 -20 19t-4 16q0 14 10.5 25t24.5 11q11 0 28 -14zM97 437h100v-65q60 45 95 61t72 16q53 0 98 -38q28 -23 28 -47q0 -21 -15 -36t-35 -15q-18 0 -39 18t-39 18
q-24 0 -58.5 -21.5t-106.5 -80.5v-247h-100v437z" />
    <glyph glyph-name="Sacute" unicode="&#x15a;" horiz-adv-x="587" 
d="M445 767l-133 -111q-19 -16 -32 -16q-15 0 -26 11t-11 25q0 19 23 36l133 112q19 15 32 15q16 0 26.5 -10.5t10.5 -25.5q0 -18 -23 -36zM64 179q12 20 41 20q22 0 36 -14q7 -7 15 -34q7 -27 48 -46t91 -19q56 0 94 22t38 54q0 33 -36 53q-24 13 -105 27q-85 14 -129 39
q-38 22 -60 59t-22 80q0 76 62 126.5t155 50.5q64 0 130 -33q38 -19 63 -56.5t25 -73.5q0 -21 -9 -37q-12 -21 -40 -21q-22 0 -36 14q-7 8 -14 40q-7 30 -39.5 48.5t-79.5 18.5t-80 -22t-33 -54q0 -16 10.5 -31.5t26.5 -23.5q23 -12 100 -26q114 -21 156 -55q59 -47 59 -125
t-63 -126t-166 -48q-73 0 -156 39q-35 16 -63 51t-28 69q0 18 9 34z" />
    <glyph glyph-name="sacute" unicode="&#x15b;" horiz-adv-x="529" 
d="M304 624l-133 -112q-20 -16 -32 -16q-15 0 -26 11t-11 25q0 18 23 37l133 111q20 16 32 16q16 0 26.5 -10.5t10.5 -26.5q0 -17 -23 -35zM48 146q16 21 41 21q38 0 51 -44q44 -39 125 -39q48 0 82.5 13t34.5 30q0 22 -34 35q-23 9 -92 17q-105 11 -152 43t-47 91
q0 60 58 98.5t148 38.5q75 0 129 -26q34 -16 56.5 -40.5t22.5 -51.5q0 -16 -9 -31q-14 -20 -41 -20q-30 0 -47 31l-5 9q-41 29 -103 29q-38 0 -68.5 -10.5t-30.5 -24.5t26 -24q15 -5 84 -15q102 -14 145 -38q33 -18 51.5 -48t18.5 -65q0 -61 -63 -101t-160 -40
q-81 0 -148 29q-36 15 -59.5 45t-23.5 58q0 17 10 30z" />
    <glyph glyph-name="Scircumflex" unicode="&#x15c;" horiz-adv-x="587" 
d="M224 750l-113 -97q-16 -13 -28 -13q-14 0 -24.5 10.5t-10.5 24.5q0 11 4 16.5t20 18.5l152 129l151 -129q6 -4 9 -7q15 -12 15 -28q0 -14 -10.5 -24.5t-23.5 -10.5t-29 13zM79 179q12 20 41 20q22 0 36 -14q7 -7 15 -34q7 -27 48 -46t91 -19q56 0 94 22t38 54
q0 33 -36 53q-24 13 -105 27q-85 14 -129 39q-38 22 -60 59t-22 80q0 76 62 126.5t155 50.5q64 0 130 -33q38 -19 63 -56.5t25 -73.5q0 -21 -9 -37q-12 -21 -40 -21q-22 0 -36 14q-7 8 -14 40q-7 30 -39.5 48.5t-79.5 18.5t-80 -22t-33 -54q0 -16 10.5 -31.5t26.5 -23.5
q23 -12 100 -26q114 -21 156 -55q59 -47 59 -125t-63 -126t-166 -48q-73 0 -156 39q-35 16 -63 51t-28 69q0 18 9 34z" />
    <glyph glyph-name="scircumflex" unicode="&#x15d;" horiz-adv-x="529" 
d="M257 569l-109 -94q-15 -12 -27 -12q-14 0 -24 10.5t-10 22.5q0 11 3.5 16t19.5 18l147 126l146 -126q6 0 9 -7q15 -11 15 -27q0 -12 -10 -22.5t-23 -10.5t-28 12zM49 146q16 21 41 21q38 0 51 -44q44 -39 125 -39q48 0 82.5 13t34.5 30q0 22 -34 35q-23 9 -92 17
q-105 11 -152 43t-47 91q0 60 58 98.5t148 38.5q75 0 129 -26q34 -16 56.5 -40.5t22.5 -51.5q0 -16 -9 -31q-14 -20 -41 -20q-30 0 -47 31l-5 9q-41 29 -103 29q-38 0 -68.5 -10.5t-30.5 -24.5t26 -24q15 -5 84 -15q102 -14 145 -38q33 -18 51.5 -48t18.5 -65
q0 -61 -63 -101t-160 -40q-81 0 -148 29q-36 15 -59.5 45t-23.5 58q0 17 10 30z" />
    <glyph glyph-name="Scedilla" unicode="&#x15e;" horiz-adv-x="587" 
d="M64 179q12 20 41 20q22 0 36 -14q7 -7 14 -34q8 -27 49 -46t90 -19q56 0 94.5 22t38.5 54q0 33 -36 53q-26 13 -105 27q-85 14 -129 39q-38 22 -60 59t-22 80q0 74 66 125.5t150 51.5q44 0 66.5 -6.5t63.5 -26.5q38 -19 63 -56.5t25 -73.5q0 -21 -9 -37q-12 -21 -40 -21
q-22 0 -36 14q-7 8 -14 40q-6 28 -40 47.5t-74 19.5h-5q-42 -2 -77.5 -23.5t-35.5 -52.5q0 -16 10.5 -31.5t26.5 -23.5q23 -11 100 -26q113 -21 157 -55q59 -47 59 -125q0 -74 -55 -120t-151 -53v-29q75 -15 75 -90q0 -43 -30.5 -70t-77.5 -27t-91 24q-28 16 -28 39
q0 14 10.5 24.5t24.5 10.5q8 0 29 -11q31 -17 57 -17q36 0 36 25q0 34 -53 34q-10 0 -22 -2v91q-46 6 -109 36q-33 16 -62 50.5t-29 69.5q0 18 9 34z" />
    <glyph glyph-name="scedilla" unicode="&#x15f;" horiz-adv-x="529" 
d="M272 42q22 0 56 -20q42 -23 -1 -33q-11 -3 -29 -4v-27q75 -15 75 -90q0 -43 -30 -70t-77 -27q-48 0 -92 24q-28 16 -28 39q0 14 10.5 24.5t24.5 10.5q8 0 29 -11q31 -17 57 -17q36 0 36 25q0 34 -53 34q-10 0 -22 -2v88q-24 2 -5 26q21 26 45 30h4zM49 146q16 21 41 21
q38 0 51 -44q44 -39 125 -39q48 0 82.5 13t34.5 30q0 22 -34 35q-23 9 -92 17q-105 11 -152 43t-47 91q0 60 58 98.5t148 38.5q75 0 129 -26q34 -16 56.5 -40.5t22.5 -51.5q0 -16 -9 -31q-14 -20 -41 -20q-30 0 -47 31l-5 9q-41 29 -103 29q-38 0 -68.5 -10.5t-30.5 -24.5
t26 -24q15 -5 84 -15q102 -14 145 -38q33 -18 51.5 -48t18.5 -65q0 -61 -63 -101t-160 -40q-81 0 -148 29q-36 15 -59.5 45t-23.5 58q0 17 10 30z" />
    <glyph glyph-name="Scaron" unicode="&#x160;" horiz-adv-x="587" 
d="M247 729l112 96q15 14 29 14q13 0 23.5 -11t10.5 -25q0 -16 -15 -28l-9 -7l-151 -128l-152 128q-16 13 -20 19t-4 16q0 14 10.5 25t24.5 11q11 0 28 -14zM79 179q12 20 41 20q22 0 36 -14q7 -7 15 -34q7 -27 48 -46t91 -19q56 0 94 22t38 54q0 33 -36 53q-24 13 -105 27
q-85 14 -129 39q-38 22 -60 59t-22 80q0 76 62 126.5t155 50.5q64 0 130 -33q38 -19 63 -56.5t25 -73.5q0 -21 -9 -37q-12 -21 -40 -21q-22 0 -36 14q-7 8 -14 40q-7 30 -39.5 48.5t-79.5 18.5t-80 -22t-33 -54q0 -16 10.5 -31.5t26.5 -23.5q23 -12 100 -26q114 -21 156 -55
q59 -47 59 -125t-63 -126t-166 -48q-73 0 -156 39q-35 16 -63 51t-28 69q0 18 9 34z" />
    <glyph glyph-name="scaron" unicode="&#x161;" horiz-adv-x="529" 
d="M200 586l112 96q15 14 29 14q13 0 23.5 -11t10.5 -25q0 -16 -15 -28l-9 -7l-151 -128l-152 128q-16 13 -20 19t-4 16q0 14 10.5 25t24.5 11q11 0 28 -14zM48 146q16 21 41 21q38 0 51 -44q44 -39 125 -39q48 0 82.5 13t34.5 30q0 22 -34 35q-23 9 -92 17q-105 11 -152 43
t-47 91q0 60 58 98.5t148 38.5q75 0 129 -26q34 -16 56.5 -40.5t22.5 -51.5q0 -16 -9 -31q-14 -20 -41 -20q-30 0 -47 31l-5 9q-41 29 -103 29q-38 0 -68.5 -10.5t-30.5 -24.5t26 -24q15 -5 84 -15q102 -14 145 -38q33 -18 51.5 -48t18.5 -65q0 -61 -63 -101t-160 -40
q-81 0 -148 29q-36 15 -59.5 45t-23.5 58q0 17 10 30z" />
    <glyph glyph-name="Tcommaaccent" unicode="&#x162;" horiz-adv-x="523" 
d="M221 0h68v-40q72 -15 72 -88q0 -41 -29.5 -67.5t-73.5 -26.5q-47 0 -89 24q-28 15 -28 37q0 13 10.5 23.5t23.5 10.5q9 0 28 -11q32 -16 55 -16q35 0 35 25q0 32 -51 32q-8 0 -21 -2v99zM519 584v-101h-209v-483h-100v483h-207v101h516z" />
    <glyph glyph-name="tcommaaccent" unicode="&#x163;" horiz-adv-x="543" 
d="M229 10h68v-66q72 -15 72 -88q0 -41 -29.5 -67.5t-73.5 -26.5q-47 0 -89 24q-28 15 -28 37q0 13 10.5 23.5t23.5 10.5q9 0 28 -11q32 -16 55 -16q35 0 35 25q0 32 -51 32q-8 0 -21 -2v125zM211 337v-196q0 -28 8 -37q18 -20 78 -20q79 0 146 34q21 11 35 11q20 0 34 -15
t14 -36q0 -18 -11 -29.5t-39 -24.5q-36 -17 -88.5 -28.5t-91.5 -11.5q-85 0 -135 37t-50 101v215h-35q-34 0 -46 10q-20 15 -20 40q0 29 24 43q10 7 42 7h35v88q0 33 10 46q15 20 40 20q29 0 43 -24q7 -11 7 -42v-88h181q32 0 46 -9q20 -17 20 -41q0 -29 -24 -43
q-11 -7 -42 -7h-181z" />
    <glyph glyph-name="Tcaron" unicode="&#x164;" horiz-adv-x="523" 
d="M140 729l112 96q15 14 29 14q13 0 23.5 -11t10.5 -25q0 -16 -15 -28l-9 -7l-151 -128l-152 128q-16 13 -20 19t-4 16q0 14 10.5 25t24.5 11q11 0 28 -14zM472 584v-101h-209v-483h-100v483h-207v101h516z" />
    <glyph glyph-name="tcaron" unicode="&#x165;" horiz-adv-x="505" 
d="M424 434q-17 -14 -37 -13.5t-24 16.5q-3 0 -4 2t-1 4t0.5 5.5t0.5 4.5q0 13 12 33l82 125q18 26 38 26q15 0 25.5 -10.5t10.5 -26.5q0 -9 -13 -30l-82 -125q-6 -10 -8 -11zM211 337v-196q0 -28 8 -37q18 -20 78 -20q79 0 146 34q21 11 35 11q20 0 34 -15t14 -36
q0 -18 -11 -29.5t-39 -24.5q-36 -17 -88.5 -28.5t-91.5 -11.5q-85 0 -135 37t-50 101v215h-35q-34 0 -46 10q-20 15 -20 40q0 29 24 43q10 7 42 7h35v88q0 33 10 46q15 20 40 20q29 0 43 -24q7 -11 7 -42v-88h181q32 0 46 -9q20 -17 20 -41q0 -29 -24 -43q-11 -7 -42 -7
h-181z" />
    <glyph glyph-name="Tbar" unicode="&#x166;" horiz-adv-x="523" 
d="M472 584v-101h-209v-483h-100v483h-207v101h516z" />
    <glyph glyph-name="tbar" unicode="&#x167;" horiz-adv-x="543" 
d="M181 337v-196q0 -28 8 -37q18 -20 78 -20q79 0 146 34q21 11 35 11q20 0 34 -15t14 -36q0 -18 -11 -29.5t-39 -24.5q-36 -17 -88.5 -28.5t-91.5 -11.5q-85 0 -135 37t-50 101v215h-35q-34 0 -46 10q-20 15 -20 40q0 29 24 43q10 7 42 7h35v88q0 33 10 46q15 20 40 20
q29 0 43 -24q7 -11 7 -42v-88h181q32 0 46 -9q20 -17 20 -41q0 -29 -24 -43q-11 -7 -42 -7h-181z" />
    <glyph glyph-name="Utilde" unicode="&#x168;" horiz-adv-x="598" 
d="M528 583v-378q0 -107 -84 -170q-64 -49 -145 -49t-145 49q-84 65 -84 170v378h100v-387q0 -46 38 -78t91 -32t91 32t38 78v387h100zM398 790q13 0 22.5 -8.5t9.5 -19.5q0 -20 -29 -57q-38 -48 -80 -48q-34 0 -99 43q-31 21 -50 21q-13 0 -23 -8.5t-32 -37.5
q-11 -15 -26 -15q-13 0 -22 9t-9 21q0 22 27 55q39 45 83 45q29 0 90 -38q44 -26 58 -26q11 0 17.5 5.5t23.5 28.5q21 30 39 30z" />
    <glyph glyph-name="utilde" unicode="&#x169;" horiz-adv-x="539" 
d="M465 0h-100v48q-37 -35 -66.5 -48t-70.5 -13q-70 0 -119 37q-59 44 -59 132v281h100v-278q0 -72 88 -72q38 0 63 13.5t64 54.5v282h100v-437zM348 643q13 0 22.5 -8.5t9.5 -19.5q0 -20 -29 -57q-38 -48 -80 -48q-34 0 -99 43q-31 21 -50 21q-13 0 -23 -8.5t-32 -37.5
q-11 -15 -26 -15q-13 0 -22 9t-9 21q0 22 27 55q39 45 83 45q29 0 90 -38q44 -26 58 -26q11 0 17.5 5.5t23.5 28.5q21 30 39 30z" />
    <glyph glyph-name="Umacron" unicode="&#x16a;" horiz-adv-x="598" 
d="M126 769h244q32 0 42 -11q11 -13 11 -29q0 -40 -53 -40h-244q-31 0 -42 12q-11 15 -11 28q0 40 53 40zM528 583v-378q0 -107 -84 -170q-64 -49 -145 -49t-145 49q-84 65 -84 170v378h100v-387q0 -46 38 -78t91 -32t91 32t38 78v387h100z" />
    <glyph glyph-name="umacron" unicode="&#x16b;" horiz-adv-x="539" 
d="M82 626h244q32 0 42 -11q11 -13 11 -29q0 -40 -53 -40h-244q-31 0 -42 12q-11 15 -11 28q0 40 53 40zM465 0h-100v48q-37 -35 -66.5 -48t-70.5 -13q-70 0 -119 37q-59 44 -59 132v281h100v-278q0 -72 88 -72q38 0 63 13.5t64 54.5v282h100v-437z" />
    <glyph glyph-name="Ubreve" unicode="&#x16c;" horiz-adv-x="598" 
d="M89 831q15 0 22 -8.5t12 -31.5q8 -35 37 -55.5t70 -20.5t70 20.5t37 55.5q5 23 12 31.5t22 8.5t24.5 -10.5t9.5 -27.5q0 -57 -53 -101.5t-122 -44.5t-122 44.5t-53 101.5q0 17 9.5 27.5t24.5 10.5zM528 583v-378q0 -107 -84 -170q-64 -49 -145 -49t-145 49
q-84 65 -84 170v378h100v-387q0 -46 38 -78t91 -32t91 32t38 78v387h100z" />
    <glyph glyph-name="ubreve" unicode="&#x16d;" horiz-adv-x="539" 
d="M55 687q15 0 22 -8.5t12 -31.5q8 -35 37 -55.5t70 -20.5t70 20.5t37 55.5q5 23 12 31.5t22 8.5t24.5 -10.5t9.5 -27.5q0 -57 -53 -101.5t-122 -44.5t-122 44.5t-53 101.5q0 17 9.5 27.5t24.5 10.5zM465 0h-100v48q-37 -35 -66.5 -48t-70.5 -13q-70 0 -119 37
q-59 44 -59 132v281h100v-278q0 -72 88 -72q38 0 63 13.5t64 54.5v282h100v-437z" />
    <glyph glyph-name="Uring" unicode="&#x16e;" horiz-adv-x="598" 
d="M299 871q51 0 87 -36t36 -86q0 -48 -36.5 -83.5t-86.5 -35.5t-86.5 36t-36.5 85t36.5 84.5t86.5 35.5zM299 818q-28 0 -49 -20t-21 -47t21 -47t49 -20t49 20t21 46q0 28 -20.5 48t-49.5 20zM528 583v-378q0 -107 -84 -170q-64 -49 -145 -49t-145 49q-84 65 -84 170v378
h100v-387q0 -46 38 -78t91 -32t91 32t38 78v387h100z" />
    <glyph glyph-name="uring" unicode="&#x16f;" horiz-adv-x="539" 
d="M265 727q51 0 87 -36t36 -86q0 -48 -36.5 -83.5t-86.5 -35.5t-86.5 36t-36.5 85t36.5 84.5t86.5 35.5zM265 674q-28 0 -49 -20t-21 -47t21 -47t49 -20t49 20t21 46q0 28 -20.5 48t-49.5 20zM475 0h-100v48q-37 -35 -66.5 -48t-70.5 -13q-70 0 -119 37q-59 44 -59 132v281
h100v-278q0 -72 88 -72q38 0 63 13.5t64 54.5v282h100v-437z" />
    <glyph glyph-name="Uhungarumlaut" unicode="&#x170;" horiz-adv-x="598" 
d="M330 765l-102 -109q-15 -17 -29 -17q-13 0 -24 11.5t-11 25.5q0 9 3 14.5t18 21.5l102 110q16 16 29 16q14 0 24 -11t10 -26t-20 -36zM494 765l-102 -109q-15 -17 -29 -17q-13 0 -24 11.5t-11 25.5q0 9 3 13.5t18 22.5l102 110q16 16 29 16q14 0 24 -11t10 -26t-20 -36z
M528 583v-378q0 -107 -84 -170q-64 -49 -145 -49t-145 49q-84 65 -84 170v378h100v-387q0 -46 38 -78t91 -32t91 32t38 78v387h100z" />
    <glyph glyph-name="uhungarumlaut" unicode="&#x171;" horiz-adv-x="539" 
d="M475 0h-100v48q-37 -35 -66.5 -48t-70.5 -13q-70 0 -119 37q-59 44 -59 132v281h100v-278q0 -72 88 -72q38 0 63 13.5t64 54.5v282h100v-437zM276 622l-102 -110q-14 -16 -29 -16q-13 0 -24 11.5t-11 25.5q0 12 21 36l102 110q15 15 29 15q13 0 23.5 -11t10.5 -25
q0 -15 -20 -36zM440 622l-102 -110q-16 -16 -29 -16t-24 11.5t-11 25.5q0 12 21 36l102 110q14 15 29 15q13 0 23.5 -11t10.5 -25q0 -15 -20 -36z" />
    <glyph glyph-name="Uogonek" unicode="&#x172;" horiz-adv-x="598" 
d="M428 583h100v-378q0 -55 -19 -93.5t-69 -85.5q-86 -80 -86 -139q0 -19 24 -19q16 0 51 18q11 6 22 6q16 0 27 -11t11 -27q0 -20 -17 -32q-41 -30 -102 -30q-44 0 -69 24t-25 65q0 32 13 55t48 53q-23 -4 -38 -4q-67 0 -121 33q-108 65 -108 187v378h100v-387
q0 -46 38 -78.5t91 -32.5t91 32.5t38 78.5v387z" />
    <glyph glyph-name="uogonek" unicode="&#x173;" horiz-adv-x="533" 
d="M60 437h100v-278q0 -72 88 -72q38 0 63 13.5t64 54.5v282h100v-337q61 0 61 -50q0 -17 -7.5 -27t-29.5 -22q-40 -22 -70 -56t-30 -57q0 -20 24 -20q15 0 51 18q12 6 22 6q16 0 27.5 -11t11.5 -27q0 -27 -35 -43q-43 -19 -84 -19q-44 0 -69 24t-25 65q0 37 17.5 63.5
t61.5 55.5h-26v48q-37 -35 -66.5 -48t-70.5 -13q-70 0 -119 37q-59 44 -59 132v281z" />
    <glyph glyph-name="Wcircumflex" unicode="&#x174;" 
d="M291 710l-109 -94q-15 -12 -27 -12q-14 0 -24 10.5t-10 22.5q0 11 3.5 16t19.5 18l147 126l146 -126q6 0 9 -7q15 -11 15 -27q0 -12 -10 -22.5t-23 -10.5t-28 12zM576 583l-73 -583h-110l-93 277l-91 -277h-111l-75 583h103l49 -372l76 226h104l76 -226l48 372h97z" />
    <glyph glyph-name="wcircumflex" unicode="&#x175;" horiz-adv-x="597" 
d="M289 569l-109 -94q-15 -12 -27 -12q-14 0 -24 10.5t-10 22.5q0 11 3.5 16t19.5 18l147 126l146 -126q6 0 9 -7q15 -11 15 -27q0 -12 -10 -22.5t-23 -10.5t-28 12zM133 437l64 -252l60 158h88l61 -158l66 252h99l-109 -437h-92l-71 181l-68 -181h-94l-110 437h106z" />
    <glyph glyph-name="Ycircumflex" unicode="&#x176;" horiz-adv-x="554" 
d="M139 750l-113 -97q-16 -13 -28 -13q-14 0 -24.5 10.5t-10.5 24.5q0 11 4 16.5t20 18.5l152 129l151 -129q6 -4 9 -7q15 -12 15 -28q0 -14 -10.5 -24.5t-23.5 -10.5t-29 13zM171 0v245l-235 338h120l165 -235l163 235h120l-233 -338v-245h-100z" />
    <glyph glyph-name="ycircumflex" unicode="&#x177;" horiz-adv-x="583" 
d="M463 437h107l-334 -642h-109l106 208l-224 434h115l165 -323zM282 569l-109 -94q-15 -12 -27 -12q-14 0 -24 10.5t-10 22.5q0 11 3.5 16t19.5 18l147 126l146 -126q5 0 9 -7q15 -11 15 -27q0 -12 -10 -22.5t-23 -10.5t-28 12z" />
    <glyph glyph-name="Ydieresis" unicode="&#x178;" horiz-adv-x="554" 
d="M174 798q25 0 42.5 -17.5t17.5 -43.5q0 -24 -17.5 -41.5t-42.5 -17.5t-42.5 17.5t-17.5 42.5t17.5 42.5t42.5 17.5zM382 798q25 0 42.5 -17.5t17.5 -43.5q0 -24 -17.5 -41.5t-42.5 -17.5t-42.5 17.5t-17.5 42.5t17.5 42.5t42.5 17.5zM228 0v245l-235 338h120l165 -235
l163 235h120l-233 -338v-245h-100z" />
    <glyph glyph-name="Zacute" unicode="&#x179;" horiz-adv-x="523" 
d="M264 768l-133 -112q-20 -16 -32 -16q-15 0 -26 11t-11 25q0 18 23 37l133 111q20 16 32 16q16 0 26.5 -10.5t10.5 -26.5q0 -17 -23 -35zM453 0h-455v100l302 383h-279v100h408v-97l-303 -386h327v-100z" />
    <glyph glyph-name="zacute" unicode="&#x17a;" horiz-adv-x="504" 
d="M252 624l-133 -112q-20 -16 -32 -16q-15 0 -26 11t-11 25q0 18 23 37l133 111q20 16 32 16q16 0 26.5 -10.5t10.5 -26.5q0 -17 -23 -35zM10 337v100h409v-81l-262 -256h275v-100h-434v83l261 254h-249z" />
    <glyph glyph-name="Zdotaccent" unicode="&#x17b;" horiz-adv-x="523" 
d="M126 798q25 0 42.5 -17.5t17.5 -43.5q0 -24 -17.5 -41.5t-42.5 -17.5t-42.5 17.5t-17.5 42.5t17.5 42.5t42.5 17.5zM453 0h-455v100l302 383h-279v100h408v-97l-303 -386h327v-100z" />
    <glyph glyph-name="zdotaccent" unicode="&#x17c;" horiz-adv-x="504" 
d="M114 654q25 0 42.5 -17.5t17.5 -43.5q0 -24 -17.5 -41.5t-42.5 -17.5t-42.5 17.5t-17.5 42.5t17.5 42.5t42.5 17.5zM10 337v100h409v-81l-262 -256h275v-100h-434v83l261 254h-249z" />
    <glyph glyph-name="Zcaron" unicode="&#x17d;" horiz-adv-x="523" 
d="M151 729l112 96q15 14 29 14q13 0 23.5 -11t10.5 -25q0 -16 -15 -28l-9 -7l-151 -128l-152 128q-16 13 -20 19t-4 16q0 14 10.5 25t24.5 11q11 0 28 -14zM453 0h-455v100l302 383h-279v100h408v-97l-303 -386h327v-100z" />
    <glyph glyph-name="zcaron" unicode="&#x17e;" horiz-adv-x="504" 
d="M140 586l112 96q15 14 29 14q13 0 23.5 -11t10.5 -25q0 -16 -15 -28l-9 -7l-151 -128l-152 128q-16 13 -20 19t-4 16q0 14 10.5 25t24.5 11q11 0 28 -14zM10 337v100h409v-81l-262 -256h275v-100h-434v83l261 254h-249z" />
    <glyph glyph-name="longs" unicode="&#x17f;" horiz-adv-x="489" 
d="M231 97h135q32 0 44 -9q19 -17 19 -40q0 -27 -22 -41q-11 -7 -41 -7h-289q-32 0 -44 9q-19 17 -19 39q0 28 24 42q8 7 39 7h57v229h-46q-30 0 -43 10q-20 13 -20 39q0 28 23 42q10 6 41 6h45v37q0 67 50 105.5t137 38.5q84 0 132 -16q42 -11 42 -46q0 -20 -13.5 -35
t-32.5 -15q-4 0 -28 4q-59 11 -109 11q-81 0 -81 -47v-363z" />
    <glyph glyph-name="florin" unicode="&#x192;" horiz-adv-x="441" 
d="M253 404h57q35 0 46 -9q21 -16 21 -41q0 -29 -24 -43q-11 -7 -43 -7h-57v-238q0 -80 -50.5 -134.5t-124.5 -54.5q-58 0 -90 17t-32 47q0 20 14.5 35t33.5 15q6 0 23 -6q26 -8 48 -8q35 0 56.5 24.5t21.5 64.5v238h-57q-34 0 -46 9q-21 16 -21 41q0 29 24 43q10 7 43 7h57
v55q0 74 51 126.5t123 52.5q56 0 88 -16t32 -45q0 -22 -14 -37.5t-34 -15.5q-9 0 -24 5q-24 9 -49 9q-30 0 -51.5 -24t-21.5 -58v-52z" />
    <glyph glyph-name="Ohorn" unicode="&#x1a0;" horiz-adv-x="613" 
d="M319 597q87 0 160 -56q38 15 38 51q0 9 -1 11h-13q-44 0 -44 39t44 39h41q19 -12 34.5 -36t15.5 -50q0 -69 -59 -110q63 -81 63 -198q0 -123 -82.5 -212t-196.5 -89q-116 0 -197.5 89.5t-81.5 216.5q0 126 82 215.5t197 89.5zM319 497q-73 0 -126 -60.5t-53 -144.5
q0 -85 52.5 -145.5t126.5 -60.5q73 0 126 60t53 143q0 86 -52.5 147t-126.5 61z" />
    <glyph glyph-name="ohorn" unicode="&#x1a1;" horiz-adv-x="562" 
d="M296 450q93 0 165 -56q40 15 40 52q0 9 -1 11h-13q-44 0 -44 39t44 39h41q19 -12 34.5 -36t15.5 -50q0 -72 -63 -113q36 -55 36 -119q0 -98 -75 -165.5t-183 -67.5t-183 67.5t-75 165.5q0 99 75 166t186 67zM295 350q-68 0 -114 -38t-46 -95q0 -56 45.5 -94.5
t112.5 -38.5t112.5 38.5t45.5 94.5t-45.5 94.5t-110.5 38.5z" />
    <glyph glyph-name="Uhorn" unicode="&#x1af;" horiz-adv-x="725" 
d="M454 583h135v-46q21 1 39.5 17t18.5 38q0 9 -1 11h-13q-44 0 -44 39t44 39h41q19 -12 34.5 -36t15.5 -50q0 -59 -43 -97t-92 -39v-254q0 -107 -84 -170q-64 -49 -145 -49t-145 49q-84 65 -84 170v278q-61 2 -61 50q0 29 24 43q10 7 42 7h130q34 0 46 -9q20 -17 20 -41
q0 -29 -24 -43q-11 -7 -42 -7h-35v-287q0 -46 38 -78t91 -32t91 32t38 78v287h-35q-33 0 -45 9q-21 16 -21 41q0 29 24 43q10 7 42 7z" />
    <glyph glyph-name="uhorn" unicode="&#x1b0;" horiz-adv-x="674" 
d="M555 437v-46q21 1 39.5 17t18.5 38q0 9 -1 11h-13q-44 0 -44 39t44 39h41q19 -12 34.5 -36t15.5 -50q0 -59 -43 -97t-92 -39v-213q61 0 61 -50q0 -27 -24 -43q-11 -7 -42 -7h-95v48q-37 -35 -66.5 -48t-70.5 -13q-70 0 -119 37q-59 44 -59 132v182h-16l-11 -1
q-22 -1 -38.5 13.5t-16.5 36.5q0 29 24 43q11 7 42 7h116v-278q0 -72 88 -72q38 0 63 13.5t64 54.5v182h-35q-34 0 -45 10q-21 15 -21 40q0 29 24 43q11 7 42 7h135z" />
    <glyph glyph-name="Scommaaccent" unicode="&#x218;" horiz-adv-x="587" 
d="M79 179q12 20 41 20q22 0 36 -14q7 -7 15 -34q7 -27 48 -46t91 -19q56 0 94 22t38 54q0 33 -36 53q-24 13 -105 27q-85 14 -129 39q-38 22 -60 59t-22 80q0 76 62 126.5t155 50.5q64 0 130 -33q38 -19 63 -56.5t25 -73.5q0 -21 -9 -37q-12 -21 -40 -21q-22 0 -36 14
q-7 8 -14 40q-7 30 -39.5 48.5t-79.5 18.5t-80 -22t-33 -54q0 -16 10.5 -31.5t26.5 -23.5q23 -12 100 -26q114 -21 156 -55q59 -47 59 -125t-63 -126t-166 -48q-73 0 -156 39q-35 16 -63 51t-28 69q0 18 9 34zM346 -126l-82 -126q-17 -26 -36 -26q-15 0 -26 10.5t-11 24.5
t12 32l82 126q17 26 38 26q15 0 25.5 -11t10.5 -26q0 -10 -13 -30z" />
    <glyph glyph-name="scommaaccent" unicode="&#x219;" horiz-adv-x="529" 
d="M48 146q16 21 41 21q38 0 51 -44q44 -39 125 -39q48 0 82.5 13t34.5 30q0 22 -34 35q-23 9 -92 17q-105 11 -152 43t-47 91q0 60 58 98.5t148 38.5q75 0 129 -26q34 -16 56.5 -40.5t22.5 -51.5q0 -16 -9 -31q-14 -20 -41 -20q-30 0 -47 31l-5 9q-41 29 -103 29
q-38 0 -68.5 -10.5t-30.5 -24.5t26 -24q15 -5 84 -15q102 -14 145 -38q33 -18 51.5 -48t18.5 -65q0 -61 -63 -101t-160 -40q-81 0 -148 29q-36 15 -59.5 45t-23.5 58q0 17 10 30zM303 -126l-82 -126q-17 -26 -36 -26q-15 0 -26 10.5t-11 24.5t12 32l82 126q17 26 38 26
q15 0 25.5 -11t10.5 -26q0 -10 -13 -30z" />
    <glyph glyph-name="circumflex" unicode="&#x2c6;" horiz-adv-x="451" 
d="M226 607l-113 -97q-16 -13 -28 -13q-14 0 -24.5 10.5t-10.5 24.5q0 11 4 16.5t20 18.5l152 129l151 -129q6 -4 9 -7q15 -12 15 -28q0 -14 -10.5 -24.5t-23.5 -10.5t-29 13z" />
    <glyph glyph-name="caron" unicode="&#x2c7;" horiz-adv-x="451" 
d="M226 586l112 96q15 14 29 14q13 0 23.5 -11t10.5 -25q0 -16 -15 -28l-9 -7l-151 -128l-152 128q-16 13 -20 19t-4 16q0 14 10.5 25t24.5 11q11 0 28 -14z" />
    <glyph glyph-name="breve" unicode="&#x2d8;" horiz-adv-x="482" 
d="M100 687q15 0 22 -8.5t12 -31.5q8 -35 37 -55.5t70 -20.5t70 20.5t37 55.5q5 23 12 31.5t22 8.5t24.5 -10.5t9.5 -27.5q0 -57 -53 -101.5t-122 -44.5t-122 44.5t-53 101.5q0 17 9.5 27.5t24.5 10.5z" />
    <glyph glyph-name="dotaccent" unicode="&#x2d9;" horiz-adv-x="402" 
d="M201 654q25 0 42.5 -17.5t17.5 -43.5q0 -24 -17.5 -41.5t-42.5 -17.5t-42.5 17.5t-17.5 42.5t17.5 42.5t42.5 17.5z" />
    <glyph glyph-name="ring" unicode="&#x2da;" horiz-adv-x="416" 
d="M208 727q51 0 87 -36t36 -86q0 -48 -36.5 -83.5t-86.5 -35.5t-86.5 36t-36.5 85t36.5 84.5t86.5 35.5zM208 674q-28 0 -49 -20t-21 -47t21 -47t49 -20t49 20t21 46q0 28 -20.5 48t-49.5 20z" />
    <glyph glyph-name="ogonek" unicode="&#x2db;" horiz-adv-x="436" 
d="M207 0h98q-54 -37 -77 -62.5t-23 -49.5q0 -20 24 -20q14 0 51 18q12 6 22 6q16 0 27.5 -11t11.5 -27q0 -27 -35 -43q-43 -19 -84 -19q-44 0 -69 24t-25 65q0 37 18 64.5t61 54.5z" />
    <glyph glyph-name="tilde" unicode="&#x2dc;" horiz-adv-x="492" 
d="M399 656q13 0 22.5 -8.5t9.5 -19.5q0 -20 -29 -57q-38 -48 -80 -48q-34 0 -99 43q-31 21 -50 21q-13 0 -23 -8.5t-32 -37.5q-11 -15 -26 -15q-13 0 -22 9t-9 21q0 22 27 55q39 45 83 45q29 0 90 -38q44 -26 58 -26q11 0 17.5 5.5t23.5 28.5q21 30 39 30z" />
    <glyph glyph-name="hungarumlaut" unicode="&#x2dd;" horiz-adv-x="438" 
d="M238 622l-102 -110q-14 -16 -29 -16q-13 0 -24 11.5t-11 25.5q0 12 21 36l102 110q15 15 29 15q13 0 23.5 -11t10.5 -25q0 -15 -20 -36zM402 622l-102 -110q-16 -16 -29 -16t-24 11.5t-11 25.5q0 12 21 36l102 110q14 15 29 15q13 0 23.5 -11t10.5 -25q0 -15 -20 -36z
" />
    <glyph glyph-name="uni031B" unicode="&#x31b;" 
d="M510 313l-50 -2v80h50q21 1 39.5 17t18.5 38q0 9 -1 11h-13q-44 0 -44 39t44 39h41q19 -12 34.5 -36t15.5 -50q0 -59 -43 -97t-92 -39z" />
    <glyph glyph-name="Delta" unicode="&#x394;" horiz-adv-x="570" 
d="M0 0l248 583h75l247 -583h-570zM149 100h272l-136 321z" />
    <glyph glyph-name="mu" unicode="&#x3bc;" horiz-adv-x="504" 
d="M480 0h-100v22q-79 -38 -157 -38q-28 0 -58 9v-80q0 -32 -9 -45q-16 -21 -41 -21q-27 0 -43 24q-7 11 -7 42v524h100v-293q0 -32 15 -46t50 -14q61 0 150 54v299h100v-437z" />
    <glyph glyph-name="uni0400" unicode="&#x400;" horiz-adv-x="596" 
d="M187 824l133 -112q23 -19 23 -36q0 -14 -11 -25t-26 -11q-13 0 -32 16l-133 111q-23 19 -23 36q0 15 10.5 25.5t26.5 10.5q13 0 32 -15zM504 583v-100h-334v-141h184v-99h-184v-143h356v-100h-456v583h434z" />
    <glyph glyph-name="afii10023" unicode="&#x401;" horiz-adv-x="582" 
d="M504 583v-100h-334v-141h184v-99h-184v-143h356v-100h-456v583h434zM101 798q25 0 42.5 -17.5t17.5 -43.5q0 -24 -17.5 -41.5t-42.5 -17.5t-42.5 17.5t-17.5 42.5t17.5 42.5t42.5 17.5zM309 798q25 0 42.5 -17.5t17.5 -43.5q0 -24 -17.5 -41.5t-42.5 -17.5t-42.5 17.5
t-17.5 42.5t17.5 42.5t42.5 17.5z" />
    <glyph glyph-name="afii10051" unicode="&#x402;" 
d="M549 118v-122q0 -20 -1.5 -33t-7 -31.5t-18 -30.5t-32.5 -23.5t-53.5 -17t-77.5 -5.5v96q43 0 67.5 16.5t24.5 45.5v104v55q0 30 -29.5 45.5t-65.5 15.5q-38 0 -72.5 -15.5t-34.5 -45.5v-172h-98v468h-151v97h401v-97h-152v-177q45 38 113 38q31 0 54.5 -2.5t49.5 -10.5
t43.5 -21.5t28.5 -38t11 -58.5v-80z" />
    <glyph glyph-name="afii10052" unicode="&#x403;" 
d="M272 768l-133 -112q-20 -16 -32 -16q-15 0 -26 11t-11 25q0 18 23 37l133 111q20 16 32 16q16 0 26.5 -10.5t10.5 -26.5q0 -17 -23 -35zM205 0h-97v565h442v-97h-345v-468z" />
    <glyph glyph-name="afii10053" unicode="&#x404;" 
d="M434 546q19 -13 32 -25t27 -33t18.5 -29t21.5 -40q11 -21 -8 -43q-15 -20 -41 -20q-18 0 -33 13q-8 9 -14 38q-5 31 -42 51q-43 24 -96 24q-66 0 -112.5 -42.5t-54.5 -109.5h207q30 0 41 -6q23 -14 23 -42q0 -23 -19 -40q-11 -8 -45 -8h-210q5 -69 57 -109.5t136 -40.5
q71 0 106 21q9 7 38 34q12 15 34 15q19 0 34 -14.5t15 -34.5q0 -35 -53 -70q-69 -50 -178 -50q-124 0 -204.5 73t-80.5 183v65q0 116 75.5 194t187.5 78q31 0 49.5 -1.5t42.5 -8.5t46 -22z" />
    <glyph glyph-name="afii10054" unicode="&#x405;" horiz-adv-x="587" 
d="M64 179q12 20 41 20q22 0 36 -14q7 -7 15 -34q7 -27 48 -46t91 -19q56 0 94 22t38 54q0 33 -36 53q-24 13 -105 27q-85 14 -129 39q-38 22 -60 59t-22 80q0 76 62 126.5t155 50.5q64 0 130 -33q38 -19 63 -56.5t25 -73.5q0 -21 -9 -37q-12 -21 -40 -21q-22 0 -36 14
q-7 8 -14 40q-7 30 -39.5 48.5t-79.5 18.5t-80 -22t-33 -54q0 -16 10.5 -31.5t26.5 -23.5q23 -12 100 -26q114 -21 156 -55q59 -47 59 -125t-63 -126t-166 -48q-73 0 -156 39q-35 16 -63 51t-28 69q0 18 9 34z" />
    <glyph glyph-name="afii10055" unicode="&#x406;" horiz-adv-x="241" 
d="M170 0h-100v584h100v-584z" />
    <glyph glyph-name="afii10056" unicode="&#x407;" horiz-adv-x="241" 
d="M170 0h-100v584h100v-584zM-46 798q25 0 42.5 -17.5t17.5 -43.5q0 -24 -17.5 -41.5t-42.5 -17.5t-42.5 17.5t-17.5 42.5t17.5 42.5t42.5 17.5zM162 798q25 0 42.5 -17.5t17.5 -43.5q0 -24 -17.5 -41.5t-42.5 -17.5t-42.5 17.5t-17.5 42.5t17.5 42.5t42.5 17.5z" />
    <glyph glyph-name="afii10057" unicode="&#x408;" horiz-adv-x="241" 
d="M170 0h-100v584h100v-584zM-46 798q25 0 42.5 -17.5t17.5 -43.5q0 -24 -17.5 -41.5t-42.5 -17.5t-42.5 17.5t-17.5 42.5t17.5 42.5t42.5 17.5zM162 798q25 0 42.5 -17.5t17.5 -43.5q0 -24 -17.5 -41.5t-42.5 -17.5t-42.5 17.5t-17.5 42.5t17.5 42.5t42.5 17.5z" />
    <glyph glyph-name="afii10058" unicode="&#x409;" 
d="M146 565h286v-220q72 0 107.5 -10t65.5 -46q49 -54 49 -119q0 -79 -58 -124.5t-151 -45.5h-110v468h-93v-342q0 -67 -40.5 -96.5t-105.5 -29.5q-57 0 -97.5 35t-40.5 91q0 39 8 51q16 21 41 21t41 -24q7 -10 7 -38q0 -20 13.5 -29.5t33.5 -9.5q17 0 30.5 11.5t13.5 27.5
v429zM432 97h13q106 0 106 76q0 75 -106 75h-13v-151z" />
    <glyph glyph-name="afii10059" unicode="&#x40a;" 
d="M60 0h-97v565h97v-224h207v224h97v-220h38q73 0 111.5 -10.5t67.5 -45.5q49 -54 49 -119q0 -79 -58 -124.5t-151 -45.5h-154v245h-207v-245zM364 97h57q106 0 106 76q0 75 -106 75h-57v-151z" />
    <glyph glyph-name="afii10060" unicode="&#x40b;" 
d="M151 0v468h-151v97h401v-97h-152v-177q45 38 113 38q31 0 54.5 -2.5t49.5 -10.5t43.5 -21.5t28.5 -38t11 -58.5v-198h-98v172q0 30 -29.5 45.5t-65.5 15.5q-38 0 -72.5 -15.5t-34.5 -45.5v-172h-98z" />
    <glyph glyph-name="afii10061" unicode="&#x40c;" horiz-adv-x="497" 
d="M244 768l-133 -112q-20 -16 -32 -16q-15 0 -26 11t-11 25q0 18 23 37l133 111q20 16 32 16q16 0 26.5 -10.5t10.5 -26.5q0 -17 -23 -35zM170 0h-100v584h100v-250l211 249h36h103l-209 -253q54 -29 113.5 -118t82.5 -212h-105q-35 107 -80.5 176t-91.5 83l-60 -51v-208z
" />
    <glyph glyph-name="uni040D" unicode="&#x40d;" 
d="M249 782l129 -107q22 -18 22 -36q0 -14 -10.5 -24.5t-25.5 -10.5q-11 0 -32 16l-127 108q-23 18 -23 33q0 16 10.5 26t25.5 10q12 0 31 -15zM90 0v565h97v-317l207 179v138h97v-565h-97v316l-207 -180v-136h-97z" />
    <glyph glyph-name="afii10062" unicode="&#x40e;" 
d="M91 831q15 0 22 -8.5t12 -31.5q8 -35 37 -55.5t70 -20.5t70 20.5t37 55.5q5 23 12 31.5t22 8.5t24.5 -10.5t9.5 -27.5q0 -57 -53 -101.5t-122 -44.5t-122 44.5t-53 101.5q0 17 9.5 27.5t24.5 10.5zM558 565l-319 -565h-126l123 209l-213 356h125l143 -263l142 263h125z
" />
    <glyph glyph-name="afii10145" unicode="&#x40f;" 
d="M90 0v565h97v-468h207v468h97v-565h-151v-73q0 -34 -7 -43q-15 -20 -40 -20q-28 0 -43 23q-6 10 -6 40v73h-154z" />
    <glyph glyph-name="afii10017" unicode="&#x410;" horiz-adv-x="595" 
d="M3 0l237 583h112l240 -583h-116l-62 158h-238l-62 -158h-111zM373 258l-78 192l-79 -192h157z" />
    <glyph glyph-name="afii10018" unicode="&#x411;" 
d="M541 468h-346v-136h174q96 0 144 -45.5t48 -116.5q0 -170 -191 -170h-271v565h442v-97zM195 97h166q50 0 75 17.5t24 54.5q0 65 -100 65h-165v-137z" />
    <glyph glyph-name="afii10019" unicode="&#x412;" horiz-adv-x="601" 
d="M350 0h-280v583h238q85 0 140.5 -47t55.5 -118q0 -64 -63 -113q106 -53 106 -145q0 -72 -54 -116t-143 -44zM170 342h113q54 0 87.5 21.5t33.5 55.5q0 30 -27 47t-74 17h-133v-141zM170 100h175q102 0 102 54q0 40 -43 66q-37 22 -99 22h-135v-142z" />
    <glyph glyph-name="afii10020" unicode="&#x413;" 
d="M205 0h-97v565h442v-97h-345v-468z" />
    <glyph glyph-name="afii10021" unicode="&#x414;" 
d="M480 565v-468h101v-170q0 -29 -9 -43q-15 -20 -40 -20q-27 0 -42 23q-6 10 -6 40v73h-382v-73q0 -29 -7 -40q-14 -23 -42 -23q-26 0 -38 20q-10 11 -10 43v170h99q22 0 35 21.5t13 45.5v401h328zM231 98l150 -1v371h-132v-313q0 -43 -18 -57z" />
    <glyph glyph-name="afii10022" unicode="&#x415;" horiz-adv-x="582" 
d="M504 583v-100h-334v-141h184v-99h-184v-143h356v-100h-456v583h434z" />
    <glyph glyph-name="afii10024" unicode="&#x416;" 
d="M530 0h-77q0 113 -28.5 182.5t-85.5 69.5v-252h-97v252q-57 0 -85.5 -69t-30.5 -183h-77l1 97q1 84 25 142t68 80l-186 246h99l186 -239v239h97v-239l186 239h99l-187 -246q44 -21 67.5 -79.5t25.5 -142.5v-97z" />
    <glyph glyph-name="afii10025" unicode="&#x417;" 
d="M148 24q-31 19 -48.5 41t-39.5 64q-11 22 10 43q12 21 38 21q24 0 35 -15q7 -6 15 -32t47.5 -44t87.5 -18q53 0 90 20.5t37 51.5q0 34 -34 52q-1 1 -8.5 5t-10 5l-10 4t-13.5 4t-15.5 3t-20.5 2.5t-25 0.5h-57q-28 0 -44 9q-20 15 -20 40q0 28 24 41q10 8 40 8h41
q25 0 43.5 3t24.5 5t17 9.5t12 8.5q16 7 26 21.5t10 30.5q0 31 -31.5 52.5t-77.5 21.5q-45 0 -76.5 -18t-39.5 -47q-6 -31 -13 -39q-14 -14 -35 -14q-24 0 -39 20q-17 24 -7 45q31 66 50 88q14 16 33 29q29 20 56.5 26t70.5 6q90 0 150 -49t60 -122q0 -41 -15 -72.5
t-40 -44.5q8 -6 18 -14q57 -47 57 -121q0 -76 -61 -123t-161 -47q-86 0 -151 39z" />
    <glyph glyph-name="afii10026" unicode="&#x418;" 
d="M90 0v565h97v-317l207 179v138h97v-565h-97v316l-207 -180v-136h-97z" />
    <glyph glyph-name="afii10027" unicode="&#x419;" 
d="M91 831q15 0 22 -8.5t12 -31.5q8 -35 37 -55.5t70 -20.5t70 20.5t37 55.5q5 23 12 31.5t22 8.5t24.5 -10.5t9.5 -27.5q0 -57 -53 -101.5t-122 -44.5t-122 44.5t-53 101.5q0 17 9.5 27.5t24.5 10.5zM90 0v565h97v-317l207 179v138h97v-565h-97v316l-207 -180v-136h-97z
" />
    <glyph glyph-name="afii10028" unicode="&#x41a;" horiz-adv-x="497" 
d="M170 0h-100v584h100v-250l211 249h36h103l-209 -253q54 -29 113.5 -118t82.5 -212h-105q-35 107 -80.5 176t-91.5 83l-60 -51v-208z" />
    <glyph glyph-name="afii10029" unicode="&#x41b;" 
d="M402 0v468h-106v-342q0 -67 -40.5 -96.5t-105.5 -29.5q-57 0 -97.5 35t-40.5 91v7q0 31 8 44q16 21 41 21t41 -24q7 -10 7 -38q0 -20 13.5 -29.5t33.5 -9.5q17 0 30.5 11t13.5 28v429h299v-565h-97z" />
    <glyph glyph-name="afii10030" unicode="&#x41c;" horiz-adv-x="660" 
d="M322 277zM590 583v-583h-100v389l-111 -251h-91q-118 250 -118 251v-389h-100v583h123l138 -297l135 297h124z" />
    <glyph glyph-name="afii10031" unicode="&#x41d;" horiz-adv-x="554" 
d="M484 0h-100v241h-214v-241h-100v584h100v-243h214v243h100v-584z" />
    <glyph glyph-name="afii10032" unicode="&#x41e;" horiz-adv-x="634" 
d="M317 597q103 0 185 -77q94 -90 94 -233q0 -123 -82.5 -212t-196.5 -89q-116 0 -197.5 89.5t-81.5 216.5q0 126 82 215.5t197 89.5zM317 497q-73 0 -126 -60.5t-53 -144.5q0 -85 52.5 -145.5t126.5 -60.5q73 0 126 60t53 143q0 86 -52.5 147t-126.5 61z" />
    <glyph glyph-name="afii10033" unicode="&#x41f;" 
d="M90 0v565h401v-565h-97v468h-207v-468h-97z" />
    <glyph glyph-name="afii10034" unicode="&#x420;" horiz-adv-x="536" 
d="M288 583q95 0 156 -53t61 -136q0 -73 -50 -128q-33 -37 -75 -51.5t-112 -14.5h-98v-200h-100v583h218zM170 483v-183h118q52 0 81.5 24.5t29.5 66.5q0 43 -29.5 67.5t-81.5 24.5h-118z" />
    <glyph glyph-name="afii10035" unicode="&#x421;" horiz-adv-x="618" 
d="M545 388q-13 -21 -41 -21q-21 0 -35 14q-9 9 -14 39q-4 18 -13.5 29.5t-30.5 23.5q-43 24 -97 24q-76 0 -126 -51.5t-50 -130.5v-64q0 -75 53.5 -120t143.5 -45q72 0 110 23q11 6 38 34q16 16 36 16t35 -15t15 -35q0 -36 -53 -73q-69 -50 -184 -50q-127 0 -210.5 74.5
t-83.5 188.5v66q0 120 78 201t194 81q71 0 142 -34q43 -21 72.5 -62t29.5 -78q0 -20 -9 -35z" />
    <glyph glyph-name="afii10036" unicode="&#x422;" horiz-adv-x="523" 
d="M519 584v-101h-209v-483h-100v483h-207v101h516z" />
    <glyph glyph-name="afii10037" unicode="&#x423;" 
d="M558 565l-319 -565h-126l123 209l-213 356h125l143 -263l142 263h125z" />
    <glyph glyph-name="afii10038" unicode="&#x424;" 
d="M339 350v-136q21 0 31.5 0.5t30.5 2t31 6t24 12t18.5 20.5t5.5 31q0 16 -5.5 27.5t-19 18.5t-23.5 11t-31.5 5.5t-30 1.5h-31.5zM242 0v117q-27 0 -42 0.5t-43.5 3.5t-46 9.5t-40 19t-35.5 30.5t-22 46.5t-9 64.5q0 32 9 58t22 42t35.5 27.5t40 17t46 8.5t43.5 3.5
t42 0.5v117h97v-117q27 0 42 -0.5t43.5 -3.5t46 -8.5t40 -17t35.5 -27.5t22 -42t9 -58q0 -36 -9 -64.5t-22 -46.5t-35.5 -30.5t-40 -19t-46 -9.5t-43.5 -3.5t-42 -0.5v-117h-97zM242 350h-31.5t-30 -1.5t-31.5 -5.5t-23.5 -11t-19 -18.5t-5.5 -27.5q0 -18 5.5 -31
t18.5 -20.5t23.5 -12t31 -6t30.5 -2t32 -0.5v136z" />
    <glyph glyph-name="afii10039" unicode="&#x425;" horiz-adv-x="540" 
d="M396 0l-126 220l-126 -220h-130l190 298l-185 285h128l122 -208l118 208h128l-182 -286l192 -297h-129z" />
    <glyph glyph-name="afii10040" unicode="&#x426;" 
d="M76 0v565h96v-468h208v468h97v-468h97v-170q0 -34 -7 -43q-15 -20 -40 -20q-27 0 -42 23q-6 10 -6 40v73h-403z" />
    <glyph glyph-name="afii10041" unicode="&#x427;" 
d="M378 0v202q-45 -38 -103 -38q-39 0 -68 4.5t-58.5 17t-45.5 40t-16 69.5v270h98v-267q7 -18 35 -28t61 -10q65 0 97 38v267h96v-565h-96z" />
    <glyph glyph-name="afii10042" unicode="&#x428;" 
d="M22 565h97v-468h123v468h97v-468h124v468h97v-565h-538v565z" />
    <glyph glyph-name="afii10043" unicode="&#x429;" 
d="M46 0v565h97v-468h100v468h97v-468h102v468h97v-468h39v-170q0 -33 -8 -43q-15 -20 -40 -20t-42 23q-6 12 -6 40v73h-436z" />
    <glyph glyph-name="afii10044" unicode="&#x42a;" 
d="M189 0v468h-181v97h278v-194h95q93 0 145 -49.5t52 -138.5q0 -81 -54 -132t-145 -51h-190zM286 97h93q49 0 73.5 23.5t24.5 65.5q0 41 -25 64.5t-73 23.5h-93v-177z" />
    <glyph glyph-name="afii10045" unicode="&#x42b;" 
d="M525 565v-565h-97v565h97zM67 0v565h97v-194h8q70 0 111 -14t73 -50q48 -53 48 -124q0 -80 -59.5 -131.5t-151.5 -51.5h-126zM164 97h29q50 0 79 24t29 65t-29 64.5t-79 23.5h-29v-177z" />
    <glyph glyph-name="afii10046" unicode="&#x42c;" 
d="M90 0v565h98v-194h118q206 0 206 -188q0 -80 -59 -131.5t-151 -51.5h-212zM188 97h114q50 0 79.5 24t29.5 65t-29.5 64.5t-79.5 23.5h-114v-177z" />
    <glyph glyph-name="afii10047" unicode="&#x42d;" 
d="M48 419q0 20 8.5 37.5t14.5 25t29.5 28t30.5 26.5l16 10q34 21 63 26.5t75 5.5q112 0 188 -78.5t76 -193.5v-65q0 -110 -81 -183t-204 -73q-110 0 -178 50q-53 33 -53 70q0 20 14.5 34.5t33.5 14.5q21 0 35 -15q27 -27 37 -34q35 -21 107 -21q83 0 135 41t56 109h-209
q-35 0 -44 8q-20 17 -20 40q0 28 24 42q8 6 40 6h208q-10 67 -56 109.5t-113 42.5q-52 0 -95 -24q-35 -19 -43 -51q-4 -28 -14 -38q-11 -13 -32 -13q-26 0 -41 20q-8 11 -8 43z" />
    <glyph glyph-name="afii10048" unicode="&#x42e;" 
d="M50 0v565h97v-235h41q-1 108 49 177.5t144 70.5q55 1 95 -24.5t62 -69.5t32 -95.5t10 -111.5q0 -78 -18 -141t-64.5 -107t-116.5 -44q-63 0 -108 37t-64.5 92t-19.5 120h-42v-234h-97zM381 482q-27 0 -46.5 -11t-29.5 -27t-15.5 -45t-7 -53.5t-1.5 -62.5q0 -32 1 -53.5
t4 -47t10 -41t17.5 -30t27.5 -21t40 -6.5q28 0 47.5 11t30 26.5t16 44t6.5 52t1 62.5q0 33 -1 54t-4 47t-9.5 42t-17.5 31t-28.5 21.5t-40.5 6.5z" />
    <glyph glyph-name="afii10049" unicode="&#x42f;" 
d="M-3 0q39 82 78 140.5t98 113.5q-108 59 -108 151q0 79 61.5 128.5t158.5 49.5h208v-583h-100v222h-96q-32 -11 -89.5 -80.5t-94.5 -141.5h-116zM393 322v161h-112q-48 0 -79 -21.5t-31 -53.5q0 -37 41.5 -61.5t104.5 -24.5h76z" />
    <glyph glyph-name="afii10065" unicode="&#x430;" horiz-adv-x="540" 
d="M379 0v23q-75 -39 -166 -39q-74 0 -127 39.5t-53 95.5q0 49 39 93q68 76 203 76q45 0 104 -10v23q0 49 -93 49q-51 0 -116 -17q-25 -6 -40 -6q-21 0 -35 14.5t-14 36.5q0 32 30 42q85 30 172 30q92 0 144.5 -39t52.5 -109v-302h-101zM380 135v50q-63 11 -111 11
q-51 0 -90.5 -22t-39.5 -51q0 -17 22 -28t54 -11q82 0 165 51z" />
    <glyph glyph-name="afii10066" unicode="&#x431;" 
d="M492 550v-66q-22 0 -63 0.5t-59 0.5t-49.5 -1t-46 -3.5t-36.5 -7t-33 -11.5t-24.5 -17t-21 -24.5t-12.5 -32.5q63 49 146 49q104 0 170 -63q69 -64 69 -163q0 -95 -69 -161q-68 -65 -170 -65q-109 0 -176 63t-67 178q0 74 7.5 126.5t27 89t44 58t67 33t86.5 14.5t113 3
h97zM291 340q-70 0 -106 -39q-38 -38 -38 -88q0 -58 40 -93.5t104 -35.5q65 0 106 38q37 39 37 89q0 51 -37 90q-40 39 -106 39z" />
    <glyph glyph-name="afii10067" unicode="&#x432;" 
d="M239 326v-55q117 -1 137 5q18 6 18 22q0 20 -26 24t-103 4h-26zM239 97q115 0 138 7q25 8 24 28q1 13 -10.5 21.5t-35 13t-51 6t-65.5 1.5v-77zM141 0v423h169q24 0 46.5 -2.5t57 -12t55.5 -34t21 -62.5q0 -72 -53 -93q35 -11 49 -34t14 -72q0 -113 -190 -113h-169z" />
    <glyph glyph-name="afii10068" unicode="&#x433;" 
d="M154 0v423h333v-97h-237v-326h-96z" />
    <glyph glyph-name="afii10069" unicode="&#x434;" 
d="M242 97h149v229h-137v-187q0 -36 -12 -42zM488 423v-326h55v-121q0 -33 -8 -46q-17 -19 -41 -19q-29 0 -41 23q-7 13 -7 42v24h-315v-24q0 -30 -8 -42q-12 -23 -41 -23q-25 0 -39 19q-9 15 -9 46v121h97q11 1 19 14.5t8 27.5v284h330z" />
    <glyph glyph-name="afii10070" unicode="&#x435;" horiz-adv-x="587" 
d="M550 172h-408q34 -88 164 -88q56 0 163 28q20 5 33 5q20 0 34 -14.5t14 -35.5q0 -29 -35 -45q-34 -15 -99.5 -26.5t-118.5 -11.5q-116 0 -190 65t-74 167q0 99 74.5 166.5t183.5 67.5q112 0 185.5 -68t73.5 -171v-39zM145 260h294q-12 41 -52 65.5t-95 24.5t-95.5 -25
t-51.5 -65z" />
    <glyph glyph-name="afii10072" unicode="&#x436;" 
d="M502 0l-162 156v-156h-100v156l-164 -156h-144l232 220l-254 203h147l183 -146v146h100v-146l184 146h146l-255 -203l240 -220h-153z" />
    <glyph glyph-name="afii10073" unicode="&#x437;" 
d="M151 11q-3 2 -12 8.5t-12 8.5t-10.5 7.5t-10.5 8.5t-9 8t-8.5 8.5t-6 8.5t-5.5 9t-3.5 9.5t-1.5 10.5q-2 31 9 43q13 21 39 21q37 0 50 -43q43 -38 121 -38q46 0 79.5 12.5t33.5 29.5q0 21 -33 33q-30 16 -89 16h-41q-28 0 -43.5 13t-15.5 36q0 49 65 49h30q18 0 31 0.5
t21.5 2.5t12.5 2.5t9.5 3t6.5 3.5q26 10 26 24q0 12 -30 22.5t-66 10.5q-60 0 -100 -27l-5 -10q-17 -29 -45 -29q-25 0 -40 18q-13 16 -10 47q2 17 25.5 40.5t51.5 33.5q65 24 126 24q87 0 143 -37.5t56 -95.5q0 -49 -34 -75v-10q24 -15 39.5 -42t15.5 -55
q0 -60 -61.5 -98.5t-155.5 -38.5q-105 0 -143 27z" />
    <glyph glyph-name="afii10074" unicode="&#x438;" 
d="M491 0h-97v218l-208 -109v-109h-97v423h97v-215l208 107v108h97v-423z" />
    <glyph glyph-name="afii10075" unicode="&#x439;" 
d="M91 687q15 0 22 -8.5t12 -31.5q8 -35 37 -55.5t70 -20.5t70 20.5t37 55.5q5 23 12 31.5t22 8.5t24.5 -10.5t9.5 -27.5q0 -57 -53 -101.5t-122 -44.5t-122 44.5t-53 101.5q0 17 9.5 27.5t24.5 10.5zM491 0h-97v218l-208 -109v-109h-97v423h97v-215l208 107v108h97v-423z
" />
    <glyph glyph-name="afii10076" unicode="&#x43a;" 
d="M539 0h-146l-167 159v-159h-97v423h97v-146l185 146h144l-253 -203z" />
    <glyph glyph-name="afii10077" unicode="&#x43b;" 
d="M505 0h-97v326h-137v-229q0 -97 -130 -97q-51 0 -88 22.5t-37 61.5v52q0 27 13 43t37 16q25 0 36 -13.5t11 -45.5v-26q0 -26 31 -25t31 25v313h330v-423z" />
    <glyph glyph-name="afii10078" unicode="&#x43c;" 
d="M519 423v-423h-97v326h-18l-75 -229h-72l-77 229h-18v-326h-96v423h170l57 -187l56 187h170z" />
    <glyph glyph-name="afii10079" unicode="&#x43d;" 
d="M109 0v423h96v-168h170v168h98v-423h-98v156h-170v-156h-96z" />
    <glyph glyph-name="afii10080" unicode="&#x43e;" horiz-adv-x="582" 
d="M294 450q106 0 180.5 -68t74.5 -165q0 -98 -75 -165.5t-183 -67.5t-183 67.5t-75 165.5q0 99 75 166t186 67zM293 350q-68 0 -114 -38t-46 -95q0 -56 45.5 -94.5t112.5 -38.5t112.5 38.5t45.5 94.5t-45.5 94.5t-110.5 38.5z" />
    <glyph glyph-name="afii10081" unicode="&#x43f;" 
d="M477 423v-423h-97v326h-178v-326h-97v423h372z" />
    <glyph glyph-name="afii10082" unicode="&#x440;" horiz-adv-x="595" 
d="M64 437h100v-45q68 58 153 58q105 0 174.5 -64.5t69.5 -161.5q0 -92 -69 -153t-173 -61q-82 0 -155 56v-271h-100v642zM313 350q-63 0 -101 -29q-22 -16 -35 -41t-13 -49q0 -53 41.5 -87t107.5 -34q65 0 106.5 34t41.5 86q0 25 -13 50t-35 41q-38 29 -100 29z" />
    <glyph glyph-name="afii10083" unicode="&#x441;" horiz-adv-x="595" 
d="M510 262q-13 -21 -41 -21q-22 0 -36 14q-9 7 -15 34q-5 24 -23 36q-41 25 -106 25q-74 0 -116 -43q-40 -40 -40 -100q0 -123 176 -123q66 0 105 13q19 6 50 31q13 12 30 12q20 0 35 -15t15 -36q0 -40 -64 -73q-66 -32 -178 -32q-138 0 -208 69q-61 61 -61 154
q0 107 71.5 175t184.5 68q80 0 144 -30q35 -17 60.5 -53t25.5 -70q0 -20 -9 -35z" />
    <glyph glyph-name="afii10084" unicode="&#x442;" 
d="M339 1h-97v325h-182v99h461v-99h-182v-325z" />
    <glyph glyph-name="afii10085" unicode="&#x443;" horiz-adv-x="583" 
d="M463 437h107l-334 -642h-109l106 208l-224 434h115l165 -323z" />
    <glyph glyph-name="afii10086" unicode="&#x444;" 
d="M371 339h-32v-232h32q59 0 79 29t22 88q-2 45 -27 80t-74 35zM242 628h97v-192h11q101 0 160 -61.5t59 -156.5q0 -92 -58.5 -150.5t-157.5 -58.5h-14v-207h-97v207h-14q-98 0 -155.5 58.5t-57.5 150.5q0 95 58 156.5t158 61.5h11v192zM209 339q-48 0 -72.5 -35t-26.5 -80
q2 -59 21.5 -88t77.5 -29h33v232h-33z" />
    <glyph glyph-name="afii10087" unicode="&#x445;" horiz-adv-x="545" 
d="M534 0h-148l-118 161l-112 -161h-145l178 228l-166 209h145l100 -144l97 144h149l-172 -210z" />
    <glyph glyph-name="afii10088" unicode="&#x446;" 
d="M89 0v423h97v-326h177v326h97v-326h91v-121q0 -33 -9 -46q-16 -19 -39 -19q-28 0 -42 23q-8 14 -8 42v24h-364z" />
    <glyph glyph-name="afii10089" unicode="&#x447;" 
d="M474 0h-96v136q-34 -29 -85 -29q-85 0 -135.5 29.5t-50.5 107.5v179h96v-179q0 -42 88 -42q29 0 58 13.5t29 28.5v179h96v-423z" />
    <glyph glyph-name="afii10090" unicode="&#x448;" 
d="M28 423h97v-326h117v326h98v-326h117v326h97v-423h-526v423z" />
    <glyph glyph-name="afii10091" unicode="&#x449;" 
d="M38 0v423h98v-326h106v326h98v-326h108v326h96v-326h30v-121q0 -35 -8 -46q-17 -19 -34 -19q-28 0 -43 23q-7 13 -7 42v24h-444z" />
    <glyph glyph-name="afii10092" unicode="&#x44a;" 
d="M202 0v326h-182v97h279v-152h79q181 -1 183 -132q0 -37 -15.5 -64.5t-37 -41t-51 -21.5t-48.5 -10t-38 -2h-169zM299 97q115 0 137 6q27 7 27 29q0 29 -33.5 35.5t-113.5 6.5h-17v-77z" />
    <glyph glyph-name="afii10093" unicode="&#x44b;" 
d="M51 0v423h97v-152h52q101 0 140.5 -30t40.5 -102q0 -31 -9 -55.5t-24 -39t-31 -24t-36 -13.5t-33.5 -5.5t-27.5 -1.5h-169zM148 97q101 0 118 6q18 7 17 29q0 29 -27 35.5t-108 6.5v-77zM443 0v423h96v-423h-96z" />
    <glyph glyph-name="afii10094" unicode="&#x44c;" 
d="M141 423h98v-152q110 0 163 -10t75 -37.5t23 -84.5q0 -37 -16 -64.5t-37.5 -41t-50.5 -22t-48 -10t-38 -1.5h-169v423zM239 97q115 0 138 7q25 8 24 28q0 15 -10.5 24t-37.5 12.5t-48 4.5t-66 1v-77z" />
    <glyph glyph-name="afii10095" unicode="&#x44d;" 
d="M150 405q33 20 62 25.5t79 5.5q109 0 178.5 -65.5t69.5 -168.5q0 -91 -60 -151q-67 -67 -202 -67q-106 0 -172 32q-62 30 -62 70q0 20 14.5 35t32.5 15q20 0 30 -13q31 -23 49 -29q37 -13 102 -13q130 0 162 71h-189q-27 0 -42.5 13t-15.5 37q0 49 64 47h184
q-11 27 -31 49q-40 41 -112 41q-63 0 -103 -24q-17 -11 -24 -35q-4 -26 -12 -33q-17 -13 -36 -13q-25 0 -40 20q-8 12 -8 44q0 36 20.5 59t61.5 48z" />
    <glyph glyph-name="afii10096" unicode="&#x44e;" 
d="M141 0h-91v422h91v-172h53q0 82 52 134t145 52q95 0 142 -62.5t47 -163.5t-47.5 -163.5t-145.5 -62.5q-88 0 -138.5 45.5t-50.5 122.5h-57v-152zM388 339q-60 0 -80.5 -33t-20.5 -96t20.5 -96t79.5 -33t77 32t18 97q0 25 -1.5 41.5t-7 34.5t-15.5 28.5t-27.5 17.5
t-42.5 7z" />
    <glyph glyph-name="afii10097" unicode="&#x44f;" 
d="M376 0v152h-27l-161 -152h188zM188 0h-143l170 162q-57 10 -78.5 37.5t-21.5 85.5q0 45 21.5 75.5t56.5 42.5t60 16t51 4h169v-423h-97h-188zM376 326q-95 3 -130 -3t-35 -32q0 -30 31 -38q19 -4 134 -4v77z" />
    <glyph glyph-name="uni0450" unicode="&#x450;" horiz-adv-x="587" 
d="M550 172h-408q34 -88 164 -88q56 0 163 28q20 5 33 5q20 0 34 -14.5t14 -35.5q0 -29 -35 -45q-34 -15 -99.5 -26.5t-118.5 -11.5q-116 0 -190 65t-74 167q0 99 74.5 166.5t183.5 67.5q112 0 185.5 -68t73.5 -171v-39zM145 260h294q-12 41 -52 65.5t-95 24.5t-95.5 -25
t-51.5 -65zM128 680l133 -111q23 -19 23 -37q0 -14 -11 -25t-26 -11q-12 0 -32 16l-133 112q-23 18 -23 36q0 15 10.5 25.5t26.5 10.5q12 0 32 -16z" />
    <glyph glyph-name="afii10071" unicode="&#x451;" horiz-adv-x="587" 
d="M550 172h-408q34 -88 164 -88q56 0 163 28q20 5 33 5q20 0 34 -14.5t14 -35.5q0 -29 -35 -45q-34 -15 -99.5 -26.5t-118.5 -11.5q-116 0 -190 65t-74 167q0 99 74.5 166.5t183.5 67.5q112 0 185.5 -68t73.5 -171v-39zM145 260h294q-12 41 -52 65.5t-95 24.5t-95.5 -25
t-51.5 -65zM138 654q25 0 42.5 -17.5t17.5 -43.5q0 -24 -17.5 -41.5t-42.5 -17.5t-42.5 17.5t-17.5 42.5t17.5 42.5t42.5 17.5zM346 654q25 0 42.5 -17.5t17.5 -43.5q0 -24 -17.5 -41.5t-42.5 -17.5t-42.5 17.5t-17.5 42.5t17.5 42.5t42.5 17.5z" />
    <glyph glyph-name="afii10099" unicode="&#x452;" 
d="M92 0v396h-28q-27 0 -39 12.5t-12 29.5q0 19 14 31t37 12h28v123h97v-123h82q51 0 51 -43q0 -17 -14 -29.5t-37 -12.5h-82v-90q58 58 133 58q77 0 123.5 -44.5t46.5 -116.5v-159q0 -72 -49 -116t-131 -45v97q44 0 64 15.5t20 60.5v135q0 45 -20 60.5t-64 15.5
q-36 0 -59 -12t-64 -53v-202h-97z" />
    <glyph glyph-name="afii10100" unicode="&#x453;" 
d="M272 624l-133 -112q-20 -16 -32 -16q-15 0 -26 11t-11 25q0 18 23 37l133 111q20 16 32 16q16 0 26.5 -10.5t10.5 -26.5q0 -17 -23 -35zM154 0v423h333v-97h-237v-326h-96z" />
    <glyph glyph-name="afii10101" unicode="&#x454;" 
d="M433 408q23 -16 36 -27t28.5 -35t15.5 -48q0 -34 -8 -44q-14 -20 -39 -20q-23 0 -36 13q-9 7 -13 33q-7 24 -23 35q-42 24 -103 24q-73 0 -113 -41q-20 -22 -31 -49h185q63 1 63 -47q0 -50 -58 -50h-188q30 -71 161 -71q65 0 102 13q19 6 49 29q12 13 29 13q19 0 34 -15
t15 -35q0 -39 -62 -70q-66 -32 -173 -32q-134 0 -202 67q-59 61 -59 151q0 103 69.5 168.5t178.5 65.5q103 0 142 -28z" />
    <glyph glyph-name="afii10102" unicode="&#x455;" horiz-adv-x="529" 
d="M49 146q16 21 41 21q38 0 51 -44q44 -39 125 -39q48 0 82.5 13t34.5 30q0 22 -34 35q-23 9 -92 17q-105 11 -152 43t-47 91q0 60 58 98.5t148 38.5q75 0 129 -26q34 -16 56.5 -40.5t22.5 -51.5q0 -16 -9 -31q-14 -20 -41 -20q-30 0 -47 31l-5 9q-41 29 -103 29
q-38 0 -68.5 -10.5t-30.5 -24.5t26 -24q15 -5 84 -15q102 -14 145 -38q33 -18 51.5 -48t18.5 -65q0 -61 -63 -101t-160 -40q-81 0 -148 29q-36 15 -59.5 45t-23.5 58q0 17 10 30z" />
    <glyph glyph-name="afii10103" unicode="&#x456;" horiz-adv-x="246" 
d="M173 437v-437h-100v436zM182 623v-105h-118v105h118z" />
    <glyph glyph-name="afii10104" unicode="&#x457;" horiz-adv-x="373" 
d="M209 0v337h-78q-35 0 -46 10q-21 15 -21 40q0 29 24 43q11 7 43 7h178v-437h-100zM76 654q25 0 42.5 -17.5t17.5 -43.5q0 -24 -17.5 -41.5t-42.5 -17.5t-42.5 17.5t-17.5 42.5t17.5 42.5t42.5 17.5zM284 654q25 0 42.5 -17.5t17.5 -43.5q0 -24 -17.5 -41.5t-42.5 -17.5
t-42.5 17.5t-17.5 42.5t17.5 42.5t42.5 17.5z" />
    <glyph glyph-name="afii10105" unicode="&#x458;" 
d="M446 585v-63q0 -19 -19 -19h-58q-20 0 -20 19v63q0 19 20 19h58q11 0 15 -4t4 -15zM376 326h-196q-30 0 -44 10q-20 14 -20 39q0 28 24 42q10 6 40 6h293v-442q0 -77 -53 -128t-132 -51h-111q-33 0 -44 9q-20 15 -20 39q0 26 23 42q10 6 41 6h108q41 0 66 22.5t25 60.5
v345z" />
    <glyph glyph-name="afii10106" unicode="&#x459;" 
d="M378 0v326h-107v-229q0 -97 -130 -97q-51 0 -88 22.5t-37 61.5v52q0 27 13 43t37 16q25 0 36 -13.5t11 -45.5v-26q0 -26 31 -25t31 25v313h301v-152q121 0 168 -27.5t47 -104.5q0 -139 -144 -139h-169zM476 97q91 0 103 5q14 6 13 30q0 30 -19.5 36t-96.5 6v-77z" />
    <glyph glyph-name="afii10107" unicode="&#x45a;" 
d="M16 423h98v-150h178v150h97v-152q121 0 168 -27.5t47 -104.5q0 -139 -144 -139h-168v174h-178v-174h-98v423zM389 97q91 0 103 5q14 6 13 30q0 30 -19.5 36t-96.5 6v-77z" />
    <glyph glyph-name="afii10108" unicode="&#x45b;" 
d="M492 0h-96v191q0 76 -104 76q-42 0 -72.5 -18t-30.5 -58v-191h-97v396h-28q-27 0 -39 12.5t-12 29.5q0 19 14 31t37 12h28v123h97v-123h82q51 0 51 -43q0 -17 -14 -29.5t-37 -12.5h-82v-90q16 27 48.5 42.5t71.5 15.5q87 0 135 -43.5t48 -117.5v-203z" />
    <glyph glyph-name="afii10109" unicode="&#x45c;" 
d="M378 587l-129 -110q-20 -15 -31 -15q-15 0 -25.5 10.5t-10.5 24.5q0 16 23 36l127 107q21 16 32 16q15 0 25.5 -10.5t10.5 -25.5q0 -18 -22 -33zM539 0h-146l-167 159v-159h-97v423h97v-146l185 146h144l-253 -203z" />
    <glyph glyph-name="uni045D" unicode="&#x45d;" 
d="M248 640l130 -107q20 -20 20 -36q0 -13 -11 -24t-24 -11q-11 0 -31 15l-129 110q-22 15 -22 34q0 14 10.5 24.5t26.5 10.5q10 0 30 -16zM491 0h-97v218l-208 -109v-109h-97v423h97v-215l208 107v108h97v-423z" />
    <glyph glyph-name="afii10110" unicode="&#x45e;" horiz-adv-x="583" 
d="M86 670q15 0 22 -8.5t12 -31.5q8 -35 37 -55.5t70 -20.5t70 20.5t37 55.5q5 23 12 31.5t22 8.5t24.5 -10.5t9.5 -27.5q0 -57 -53 -101.5t-122 -44.5t-122 44.5t-53 101.5q0 17 9.5 27.5t24.5 10.5zM463 437h107l-334 -642h-109l106 208l-224 434h115l165 -323z" />
    <glyph glyph-name="afii10193" unicode="&#x45f;" 
d="M90 0v423h97v-325h208v325h97v-423h-152v-24q0 -33 -9 -46q-16 -19 -39 -19q-28 0 -42 23q-8 14 -8 42v24h-152z" />
    <glyph glyph-name="uni048C" unicode="&#x48c;" 
d="M90 0v565h98v-194h95q68 0 108 -14t73 -50q48 -53 48 -124q0 -80 -59 -131.5t-151 -51.5h-212zM188 97h114q50 0 79.5 24t29.5 65t-29.5 64.5t-79.5 23.5h-114v-177z" />
    <glyph glyph-name="uni048D" unicode="&#x48d;" 
d="M141 0v423h98v-152q110 0 163 -10t75 -37.5t23 -84.5q0 -37 -16 -64.5t-37.5 -41t-50.5 -22t-48 -10t-38 -1.5h-169zM239 97q115 0 138 7q25 8 24 28q0 15 -10.5 24t-37.5 12.5t-48 4.5t-66 1v-77z" />
    <glyph glyph-name="uni048E" unicode="&#x48e;" horiz-adv-x="545" 
d="M346 358l128 -104q20 -16 20 -36q0 -14 -11 -24.5t-24 -10.5t-31 15l-126 107q-25 18 -25 37q0 14 10.5 24.5t26.5 10.5q11 0 32 -19zM288 583q95 0 156 -53t61 -136q0 -73 -50 -128q-33 -37 -75 -51.5t-112 -14.5h-98v-200h-100v583h218zM170 483v-183h118
q52 0 81.5 24.5t29.5 66.5q0 43 -29.5 67.5t-81.5 24.5h-118z" />
    <glyph glyph-name="uni048F" unicode="&#x48f;" horiz-adv-x="607" 
d="M368 195l165 -164q24 -24 21 -37q-2 -17 -11 -28q-29 -26 -65 10l-164 164q-24 25 -23 40q2 20 12 25q25 30 65 -10zM70 437h100v-45q68 58 153 58q105 0 174.5 -64.5t69.5 -161.5q0 -92 -69 -153t-173 -61q-82 0 -155 56v-271h-100v642zM319 350q-63 0 -101 -29
q-22 -16 -35 -41t-13 -49q0 -53 41.5 -87t107.5 -34q65 0 106.5 34t41.5 86q0 25 -13 50t-35 41q-38 29 -100 29z" />
    <glyph glyph-name="afii10050" unicode="&#x490;" 
d="M453 565v48q0 28 8 42q14 23 41 23q25 0 40 -21q8 -10 8 -44v-145zM205 0h-97v565h442v-97h-345v-468z" />
    <glyph glyph-name="afii10098" unicode="&#x491;" 
d="M387 420l2 30q2 30 7 39q13 23 41 23q26 0 40 -20q10 -11 10 -42v-124zM154 0v423h333v-97h-237v-326h-96z" />
    <glyph glyph-name="uni0492" unicode="&#x492;" 
d="M97 289q-38 0 -47 9q-19 17 -19 39q0 28 23 42q9 8 43 7h205q32 0 45 -9q18 -16 18 -40q0 -28 -22 -41q-8 -7 -41 -7h-205zM205 0h-97v565h442v-97h-345v-468z" />
    <glyph glyph-name="uni0493" unicode="&#x493;" 
d="M118 171q-25 0 -34 12q-7 19 -7 27q0 39 41 39h183q22 0 31 -10q9 -13 9 -29q0 -18 -10.5 -28.5t-29.5 -10.5h-183zM154 0v423h333v-97h-237v-326h-96z" />
    <glyph glyph-name="uni0494" unicode="&#x494;" 
d="M108 565h442v-97h-345v-177q45 38 103 38q30 0 53 -2.5t47.5 -10.5t40.5 -21.5t26 -38t10 -58.5v-202q0 -20 -1.5 -33t-7 -31.5t-18 -30.5t-32.5 -23.5t-53.5 -17t-77.5 -5.5v96q43 0 67.5 16.5t24.5 45.5v159q0 32 -25 46.5t-60 14.5q-19 0 -33 -1.5t-30.5 -6t-25 -16
t-8.5 -29.5v-180h-97v565z" />
    <glyph glyph-name="uni0495" unicode="&#x495;" 
d="M154 0v423h333v-97h-237v-326h-96z" />
    <glyph glyph-name="uni0496" unicode="&#x496;" 
d="M469 0q-7 28 -2 59t24 41h66q33 0 46 -9q20 -17 20 -41v-125q0 -32 -9 -45q-16 -21 -41 -21q-27 0 -43 24q-7 11 -7 42v75h-54zM530 0h-77q0 113 -28.5 182.5t-85.5 69.5v-252h-97v252q-57 0 -85.5 -69t-30.5 -183h-77l1 97q1 84 25 142t68 80l-186 246h99l186 -239v239
h97v-239l186 239h99l-187 -246q44 -21 67.5 -79.5t25.5 -142.5v-97z" />
    <glyph glyph-name="uni0497" unicode="&#x497;" 
d="M566 40q5 6 15 -1.5t21.5 -17.5t17.5 -9v-38q0 -33 -9 -46q-17 -20 -41 -20q-29 0 -43 24q-7 10 -7 42v26zM502 0l-162 156v-156h-100v156l-164 -156h-144l232 220l-254 203h147l183 -146v146h100v-146l184 146h146l-255 -203l240 -220h-153z" />
    <glyph glyph-name="uni0498" unicode="&#x498;" 
d="M148 24q-31 19 -48.5 41t-39.5 64q-11 22 10 43q12 21 38 21q24 0 35 -15q7 -6 15 -32t47.5 -44t87.5 -18q53 0 90 20.5t37 51.5q0 34 -34 52q-1 1 -8.5 5t-10 5l-10 4t-13.5 4t-15.5 3t-20.5 2.5t-25 0.5h-57q-28 0 -44 9q-20 15 -20 40q0 28 24 41q10 8 40 8h41
q25 0 43.5 3t24.5 5t17 9.5t12 8.5q16 7 26 21.5t10 30.5q0 31 -31.5 52.5t-77.5 21.5q-45 0 -76.5 -18t-39.5 -47q-6 -31 -13 -39q-14 -14 -35 -14q-24 0 -39 20q-17 24 -7 45q31 66 50 88q14 16 33 29q29 20 56.5 26t70.5 6q90 0 150 -49t60 -122q0 -41 -15 -72.5
t-40 -44.5q8 -6 18 -14q57 -47 57 -121q0 -76 -61 -123t-161 -47q-86 0 -151 39z" />
    <glyph glyph-name="uni0499" unicode="&#x499;" 
d="M151 11q-3 2 -12 8.5t-12 8.5t-10.5 7.5t-10.5 8.5t-9 8t-8.5 8.5t-6 8.5t-5.5 9t-3.5 9.5t-1.5 10.5q-2 31 9 43q13 21 39 21q37 0 50 -43q43 -38 121 -38q46 0 79.5 12.5t33.5 29.5q0 21 -33 33q-30 16 -89 16h-41q-28 0 -43.5 13t-15.5 36q0 49 65 49h30q18 0 31 0.5
t21.5 2.5t12.5 2.5t9.5 3t6.5 3.5q26 10 26 24q0 12 -30 22.5t-66 10.5q-60 0 -100 -27l-5 -10q-17 -29 -45 -29q-25 0 -40 18q-13 16 -10 47q2 17 25.5 40.5t51.5 33.5q65 24 126 24q87 0 143 -37.5t56 -95.5q0 -49 -34 -75v-10q24 -15 39.5 -42t15.5 -55
q0 -60 -61.5 -98.5t-155.5 -38.5q-105 0 -143 27z" />
    <glyph glyph-name="uni049A" unicode="&#x49a;" horiz-adv-x="570" 
d="M424 0q5 0 12.5 45t7.5 52h64q31 0 44 -9q18 -16 18 -40v-121q0 -34 -7 -43q-15 -20 -40 -20q-27 0 -42 23q-6 10 -6 40v73h-51zM170 0h-100v584h100v-250l211 249h36h103l-209 -253q54 -29 113.5 -118t82.5 -212h-105q-35 107 -80.5 176t-91.5 83l-60 -51v-208z" />
    <glyph glyph-name="uni049B" unicode="&#x49b;" 
d="M417 0l-79 97h96h32q32 0 42 -9q24 -16 24 -40v-72q0 -32 -10 -46q-14 -19 -38 -19q-30 0 -42 23q-8 12 -8 42v24h-17zM539 0h-146l-167 159v-159h-97v423h97v-146l185 146h144l-253 -203z" />
    <glyph glyph-name="uni049C" unicode="&#x49c;" horiz-adv-x="497" 
d="M170 0h-100v584h100v-250l211 249h36h103l-209 -253q54 -29 113.5 -118t82.5 -212h-105q-35 107 -80.5 176t-91.5 83l-60 -51v-208z" />
    <glyph glyph-name="uni049D" unicode="&#x49d;" 
d="M539 0h-146l-167 159v-159h-97v423h97v-146l185 146h144l-253 -203z" />
    <glyph glyph-name="uni049E" unicode="&#x49e;" horiz-adv-x="497" 
d="M170 0h-100v584h100v-250l211 249h36h103l-209 -253q54 -29 113.5 -118t82.5 -212h-105q-35 107 -80.5 176t-91.5 83l-60 -51v-208z" />
    <glyph glyph-name="uni049F" unicode="&#x49f;" 
d="M539 0h-146l-167 159v-159h-97v423h97v-146l185 146h144l-253 -203z" />
    <glyph glyph-name="uni04A0" unicode="&#x4a0;" horiz-adv-x="497" 
d="M170 0h-100v584h100v-250l211 249h36h103l-209 -253q54 -29 113.5 -118t82.5 -212h-105q-35 107 -80.5 176t-91.5 83l-60 -51v-208z" />
    <glyph glyph-name="uni04A1" unicode="&#x4a1;" 
d="M539 0h-146l-167 159v-159h-97v423h97v-146l185 146h144l-253 -203z" />
    <glyph glyph-name="uni04A2" unicode="&#x4a2;" horiz-adv-x="554" 
d="M456 100h34q33 0 45 -9q21 -16 21 -41v-125q0 -32 -9 -45q-16 -21 -41 -21q-27 0 -43 24q-7 11 -7 42v175zM484 0h-100v241h-214v-241h-100v584h100v-243h214v243h100v-584z" />
    <glyph glyph-name="uni04A3" unicode="&#x4a3;" 
d="M448 99l59 1q29 0 45.5 -13t15.5 -37v-76q0 -33 -9 -46q-17 -20 -41 -20q-29 0 -43 24q-7 10 -7 42v26h-55q2 6 6 16.5t12 33t13 36.5t4 13zM109 0v423h96v-168h170v168h98v-423h-98v156h-170v-156h-96z" />
    <glyph glyph-name="uni04A4" unicode="&#x4a4;" horiz-adv-x="554" 
d="M484 0h-100v241h-214v-241h-100v584h100v-243h214v243h100v-584z" />
    <glyph glyph-name="uni04A5" unicode="&#x4a5;" 
d="M109 0v423h96v-168h170v168h98v-423h-98v156h-170v-156h-96z" />
    <glyph glyph-name="uni04A6" unicode="&#x4a6;" 
d="M393 0h-97v468h-189v-468h-97v565h383v-274q25 38 79 38q38 0 63.5 -4.5t48.5 -17.5t34.5 -40t11.5 -69v-202q0 -20 -1.5 -33t-7 -31.5t-18 -30.5t-32.5 -23.5t-53.5 -17t-77.5 -5.5v96q43 0 67.5 16.5t24.5 45.5v159q0 61 -66 61q-35 0 -54 -12t-19 -47v-174z" />
    <glyph glyph-name="uni04A7" unicode="&#x4a7;" 
d="M477 423v-423h-97v326h-178v-326h-97v423h372z" />
    <glyph glyph-name="uni04A8" unicode="&#x4a8;" horiz-adv-x="618" 
d="M545 388q-13 -21 -41 -21q-21 0 -35 14q-9 9 -14 39q-4 18 -13.5 29.5t-30.5 23.5q-43 24 -97 24q-76 0 -126 -51.5t-50 -130.5v-64q0 -75 53.5 -120t143.5 -45q72 0 110 23q11 6 38 34q16 16 36 16t35 -15t15 -35q0 -36 -53 -73q-69 -50 -184 -50q-127 0 -210.5 74.5
t-83.5 188.5v66q0 120 78 201t194 81q71 0 142 -34q43 -21 72.5 -62t29.5 -78q0 -20 -9 -35z" />
    <glyph glyph-name="uni04A9" unicode="&#x4a9;" horiz-adv-x="595" 
d="M510 262q-13 -21 -41 -21q-22 0 -36 14q-9 7 -15 34q-5 24 -23 36q-41 25 -106 25q-74 0 -116 -43q-40 -40 -40 -100q0 -123 176 -123q66 0 105 13q19 6 50 31q13 12 30 12q20 0 35 -15t15 -36q0 -40 -64 -73q-66 -32 -178 -32q-138 0 -208 69q-61 61 -61 154
q0 107 71.5 175t184.5 68q80 0 144 -30q35 -17 60.5 -53t25.5 -70q0 -20 -9 -35z" />
    <glyph glyph-name="uni04AA" unicode="&#x4aa;" horiz-adv-x="618" 
d="M545 388q-13 -21 -41 -21q-21 0 -35 14q-9 9 -14 39q-4 18 -13.5 29.5t-30.5 23.5q-43 24 -97 24q-76 0 -126 -51.5t-50 -130.5v-64q0 -75 53.5 -120t143.5 -45q72 0 110 23q11 6 38 34q16 16 36 16t35 -15t15 -35q0 -36 -53 -73q-69 -50 -184 -50q-127 0 -210.5 74.5
t-83.5 188.5v66q0 120 78 201t194 81q71 0 142 -34q43 -21 72.5 -62t29.5 -78q0 -20 -9 -35z" />
    <glyph glyph-name="uni04AB" unicode="&#x4ab;" horiz-adv-x="595" 
d="M510 262q-13 -21 -41 -21q-22 0 -36 14q-9 7 -15 34q-5 24 -23 36q-41 25 -106 25q-74 0 -116 -43q-40 -40 -40 -100q0 -123 176 -123q66 0 105 13q19 6 50 31q13 12 30 12q20 0 35 -15t15 -36q0 -40 -64 -73q-66 -32 -178 -32q-138 0 -208 69q-61 61 -61 154
q0 107 71.5 175t184.5 68q80 0 144 -30q35 -17 60.5 -53t25.5 -70q0 -20 -9 -35z" />
    <glyph glyph-name="uni04AC" unicode="&#x4ac;" horiz-adv-x="616" 
d="M357 100h66q33 0 45 -9q21 -16 21 -41v-125q0 -32 -9 -45q-16 -21 -41 -21q-27 0 -43 24q-7 11 -7 42v75h-100zM566 584v-101h-209v-483h-100v483h-207v101h516z" />
    <glyph glyph-name="uni04AD" unicode="&#x4ad;" 
d="M411 50v-76q0 -33 -9 -46q-17 -20 -41 -20q-29 0 -43 24q-7 10 -7 42v26h-55q-67 0 -67 50t61 50v236h-88v-26q0 -32 -7 -42q-14 -24 -43 -24q-24 0 -41 20q-9 13 -9 46v127h476v-127q0 -33 -9 -46q-17 -20 -41 -20q-29 0 -43 24q-7 10 -7 42v26h-88v-236q61 0 61 -50z
" />
    <glyph glyph-name="uni04AE" unicode="&#x4ae;" horiz-adv-x="554" 
d="M228 0v245l-235 338h120l165 -235l163 235h120l-233 -338v-245h-100z" />
    <glyph glyph-name="uni04AF" unicode="&#x4af;" 
d="M250 -146v245l-235 338h120l165 -235l163 235h120l-233 -338v-245h-100z" />
    <glyph glyph-name="uni04B0" unicode="&#x4b0;" horiz-adv-x="668" 
d="M189 145q-37 0 -50 10q-21 15 -21 40q0 29 24 43q10 7 48 7h295q33 0 46 -9q21 -16 21 -41q0 -29 -24 -43q-12 -7 -43 -7h-296zM285 0v245l-235 338h120l165 -235l163 235h120l-233 -338v-245h-100z" />
    <glyph glyph-name="uni04B1" unicode="&#x4b1;" 
d="M157 -1q-35 0 -48 10q-21 15 -21 40q0 29 24 43q10 7 45 7h288q33 0 46 -9q21 -16 21 -41q0 -29 -24 -43q-12 -7 -43 -7h-288zM250 -146v245l-235 338h120l165 -235l163 235h120l-233 -338v-245h-100z" />
    <glyph glyph-name="uni04B2" unicode="&#x4b2;" horiz-adv-x="611" 
d="M501 3l37 94q27 0 42 -13t15 -36v-121q0 -34 -7 -43q-15 -20 -40 -20q-27 0 -42 23q-6 9 -6 40zM432 0l-126 220l-126 -220h-130l190 298l-185 285h128l122 -208l118 208h128l-182 -286l192 -297h-129z" />
    <glyph glyph-name="uni04B3" unicode="&#x4b3;" horiz-adv-x="623" 
d="M492 47l45 50q53 -3 53 -49v-72q0 -33 -9 -46q-16 -19 -39 -19q-28 0 -42 23q-8 14 -8 42v71zM573 0h-148l-118 161l-112 -161h-145l178 228l-166 209h145l100 -144l97 144h149l-172 -210z" />
    <glyph glyph-name="uni04B4" unicode="&#x4b4;" 
d="M76 0v565h96v-468h208v468h97v-468h97v-170q0 -34 -7 -43q-15 -20 -40 -20q-27 0 -42 23q-6 10 -6 40v73h-403z" />
    <glyph glyph-name="uni04B5" unicode="&#x4b5;" 
d="M82 0v423h96v-325l193 -1v326h97v-326h90v-121q0 -35 -8 -46q-16 -19 -39 -19q-30 0 -42 23q-7 10 -7 42v24h-380z" />
    <glyph glyph-name="uni04B6" unicode="&#x4b6;" 
d="M444 100h46h6q33 0 46 -9q20 -17 20 -41v-125q0 -32 -9 -45q-16 -21 -41 -21q-27 0 -43 24q-7 11 -7 42v75h-48q-14 0 16 62q17 36 14 38zM378 0v202q-45 -38 -103 -38q-39 0 -68 4.5t-58.5 17t-45.5 40t-16 69.5v270h98v-267q7 -18 35 -28t61 -10q65 0 97 38v267h96
v-565h-96z" />
    <glyph glyph-name="uni04B7" unicode="&#x4b7;" 
d="M436 1q-1 0 8 23.5t18 48.5t9 27q64 0 64 -50v-76q0 -33 -9 -46q-17 -20 -41 -20q-29 0 -43 24q-8 12 -7 42zM474 0h-96v136q-34 -29 -85 -29q-85 0 -135.5 29.5t-50.5 107.5v179h96v-179q0 -42 88 -42q29 0 58 13.5t29 28.5v179h96v-423z" />
    <glyph glyph-name="uni04B8" unicode="&#x4b8;" 
d="M378 0v202q-45 -38 -103 -38q-39 0 -68 4.5t-58.5 17t-45.5 40t-16 69.5v270h98v-267q7 -18 35 -28t61 -10q65 0 97 38v267h96v-565h-96z" />
    <glyph glyph-name="uni04B9" unicode="&#x4b9;" 
d="M474 0h-96v136q-34 -29 -85 -29q-85 0 -135.5 29.5t-50.5 107.5v179h96v-179q0 -42 88 -42q29 0 58 13.5t29 28.5v179h96v-423z" />
    <glyph glyph-name="uni04BA" unicode="&#x4ba;" 
d="M494 0h-98v267q-7 18 -35 28t-61 10q-65 0 -97 -38v-267h-96v565h96v-202q45 38 103 38q39 0 68 -4.5t58.5 -17t45.5 -40.5t16 -69v-270z" />
    <glyph glyph-name="uni04BB" unicode="&#x4bb;" 
d="M203 423v-136q34 29 85 29q85 0 135.5 -29.5t50.5 -107.5v-179h-96v179q0 42 -88 42q-29 0 -58 -13.5t-29 -28.5v-179h-96v423h96z" />
    <glyph glyph-name="uni04BC" unicode="&#x4bc;" horiz-adv-x="618" 
d="M545 388q-13 -21 -41 -21q-21 0 -35 14q-9 9 -14 39q-4 18 -13.5 29.5t-30.5 23.5q-43 24 -97 24q-76 0 -126 -51.5t-50 -130.5v-64q0 -75 53.5 -120t143.5 -45q72 0 110 23q11 6 38 34q16 16 36 16t35 -15t15 -35q0 -36 -53 -73q-69 -50 -184 -50q-127 0 -210.5 74.5
t-83.5 188.5v66q0 120 78 201t194 81q71 0 142 -34q43 -21 72.5 -62t29.5 -78q0 -20 -9 -35z" />
    <glyph glyph-name="uni04BD" unicode="&#x4bd;" horiz-adv-x="595" 
d="M510 262q-13 -21 -41 -21q-22 0 -36 14q-9 7 -15 34q-5 24 -23 36q-41 25 -106 25q-74 0 -116 -43q-40 -40 -40 -100q0 -123 176 -123q66 0 105 13q19 6 50 31q13 12 30 12q20 0 35 -15t15 -36q0 -40 -64 -73q-66 -32 -178 -32q-138 0 -208 69q-61 61 -61 154
q0 107 71.5 175t184.5 68q80 0 144 -30q35 -17 60.5 -53t25.5 -70q0 -20 -9 -35z" />
    <glyph glyph-name="uni04BE" unicode="&#x4be;" horiz-adv-x="618" 
d="M545 388q-13 -21 -41 -21q-21 0 -35 14q-9 9 -14 39q-4 18 -13.5 29.5t-30.5 23.5q-43 24 -97 24q-76 0 -126 -51.5t-50 -130.5v-64q0 -75 53.5 -120t143.5 -45q72 0 110 23q11 6 38 34q16 16 36 16t35 -15t15 -35q0 -36 -53 -73q-69 -50 -184 -50q-127 0 -210.5 74.5
t-83.5 188.5v66q0 120 78 201t194 81q71 0 142 -34q43 -21 72.5 -62t29.5 -78q0 -20 -9 -35z" />
    <glyph glyph-name="uni04BF" unicode="&#x4bf;" horiz-adv-x="595" 
d="M510 262q-13 -21 -41 -21q-22 0 -36 14q-9 7 -15 34q-5 24 -23 36q-41 25 -106 25q-74 0 -116 -43q-40 -40 -40 -100q0 -123 176 -123q66 0 105 13q19 6 50 31q13 12 30 12q20 0 35 -15t15 -36q0 -40 -64 -73q-66 -32 -178 -32q-138 0 -208 69q-61 61 -61 154
q0 107 71.5 175t184.5 68q80 0 144 -30q35 -17 60.5 -53t25.5 -70q0 -20 -9 -35z" />
    <glyph glyph-name="uni04C0" unicode="&#x4c0;" horiz-adv-x="241" 
d="M170 0h-100v584h100v-584z" />
    <glyph glyph-name="uni04C1" unicode="&#x4c1;" 
d="M92 831q15 0 22 -8.5t12 -31.5q8 -35 37 -55.5t70 -20.5t70 20.5t37 55.5q5 23 12 31.5t22 8.5t24.5 -10.5t9.5 -27.5q0 -57 -53 -101.5t-122 -44.5t-122 44.5t-53 101.5q0 17 9.5 27.5t24.5 10.5zM530 0h-77q0 113 -28.5 182.5t-85.5 69.5v-252h-97v252q-57 0 -85.5 -69
t-30.5 -183h-77l1 97q1 84 25 142t68 80l-186 246h99l186 -239v239h97v-239l186 239h99l-187 -246q44 -21 67.5 -79.5t25.5 -142.5v-97z" />
    <glyph glyph-name="uni04C2" unicode="&#x4c2;" 
d="M95 687q15 0 22 -8.5t12 -31.5q8 -35 37 -55.5t70 -20.5t70 20.5t37 55.5q5 23 12 31.5t22 8.5t24.5 -10.5t9.5 -27.5q0 -57 -53 -101.5t-122 -44.5t-122 44.5t-53 101.5q0 17 9.5 27.5t24.5 10.5zM502 0l-162 156v-156h-100v156l-164 -156h-144l232 220l-254 203h147
l183 -146v146h100v-146l184 146h146l-255 -203l240 -220h-153z" />
    <glyph glyph-name="uni04C3" unicode="&#x4c3;" horiz-adv-x="497" 
d="M170 0h-100v584h100v-250l211 249h36h103l-209 -253q54 -29 113.5 -118t82.5 -212h-105q-35 107 -80.5 176t-91.5 83l-60 -51v-208z" />
    <glyph glyph-name="uni04C4" unicode="&#x4c4;" 
d="M539 0h-146l-167 159v-159h-97v423h97v-146l185 146h144l-253 -203z" />
    <glyph glyph-name="uni04C7" unicode="&#x4c7;" horiz-adv-x="554" 
d="M484 0h-100v241h-214v-241h-100v584h100v-243h214v243h100v-584z" />
    <glyph glyph-name="uni04C8" unicode="&#x4c8;" 
d="M109 0v423h96v-168h170v168h98v-423h-98v156h-170v-156h-96z" />
    <glyph glyph-name="uni04CB" unicode="&#x4cb;" 
d="M378 0v202q-45 -38 -103 -38q-39 0 -68 4.5t-58.5 17t-45.5 40t-16 69.5v270h98v-267q7 -18 35 -28t61 -10q65 0 97 38v267h96v-565h-96z" />
    <glyph glyph-name="uni04CC" unicode="&#x4cc;" 
d="M474 0h-96v136q-34 -29 -85 -29q-85 0 -135.5 29.5t-50.5 107.5v179h96v-179q0 -42 88 -42q29 0 58 13.5t29 28.5v179h96v-423z" />
    <glyph glyph-name="uni04D0" unicode="&#x4d0;" horiz-adv-x="595" 
d="M3 0l237 583h112l240 -583h-116l-62 158h-238l-62 -158h-111zM373 258l-78 192l-79 -192h157zM98 831q15 0 22 -8.5t12 -31.5q8 -35 37 -55.5t70 -20.5t70 20.5t37 55.5q5 23 12 31.5t22 8.5t24.5 -10.5t9.5 -27.5q0 -57 -53 -101.5t-122 -44.5t-122 44.5t-53 101.5
q0 17 9.5 27.5t24.5 10.5z" />
    <glyph glyph-name="uni04D1" unicode="&#x4d1;" horiz-adv-x="540" 
d="M91 687q15 0 22 -8.5t12 -31.5q8 -35 37 -55.5t70 -20.5t70 20.5t37 55.5q5 23 12 31.5t22 8.5t24.5 -10.5t9.5 -27.5q0 -57 -53 -101.5t-122 -44.5t-122 44.5t-53 101.5q0 17 9.5 27.5t24.5 10.5zM379 0v23q-75 -39 -166 -39q-74 0 -127 39.5t-53 95.5q0 49 39 93
q68 76 203 76q45 0 104 -10v23q0 49 -93 49q-51 0 -116 -17q-25 -6 -40 -6q-21 0 -35 14.5t-14 36.5q0 32 30 42q85 30 172 30q92 0 144.5 -39t52.5 -109v-302h-101zM380 135v50q-63 11 -111 11q-51 0 -90.5 -22t-39.5 -51q0 -17 22 -28t54 -11q82 0 165 51z" />
    <glyph glyph-name="uni04D2" unicode="&#x4d2;" horiz-adv-x="595" 
d="M3 0l237 583h112l240 -583h-116l-62 158h-238l-62 -158h-111zM373 258l-78 192l-79 -192h157zM130 798q25 0 42.5 -17.5t17.5 -43.5q0 -24 -17.5 -41.5t-42.5 -17.5t-42.5 17.5t-17.5 42.5t17.5 42.5t42.5 17.5zM338 798q25 0 42.5 -17.5t17.5 -43.5q0 -24 -17.5 -41.5
t-42.5 -17.5t-42.5 17.5t-17.5 42.5t17.5 42.5t42.5 17.5z" />
    <glyph glyph-name="uni04D3" unicode="&#x4d3;" horiz-adv-x="540" 
d="M379 0v23q-75 -39 -166 -39q-74 0 -127 39.5t-53 95.5q0 49 39 93q68 76 203 76q45 0 104 -10v23q0 49 -93 49q-51 0 -116 -17q-25 -6 -40 -6q-21 0 -35 14.5t-14 36.5q0 32 30 42q85 30 172 30q92 0 144.5 -39t52.5 -109v-302h-101zM380 135v50q-63 11 -111 11
q-51 0 -90.5 -22t-39.5 -51q0 -17 22 -28t54 -11q82 0 165 51zM114 654q25 0 42.5 -17.5t17.5 -43.5q0 -24 -17.5 -41.5t-42.5 -17.5t-42.5 17.5t-17.5 42.5t17.5 42.5t42.5 17.5zM322 654q25 0 42.5 -17.5t17.5 -43.5q0 -24 -17.5 -41.5t-42.5 -17.5t-42.5 17.5t-17.5 42.5
t17.5 42.5t42.5 17.5z" />
    <glyph glyph-name="uni04D4" unicode="&#x4d4;" horiz-adv-x="647" 
d="M175 583h395v-100h-226v-141h119v-99h-119v-143h247v-100h-347v158h-93l-46 -158h-105zM244 259v212l-64 -212h64z" />
    <glyph glyph-name="uni04D5" unicode="&#x4d5;" horiz-adv-x="694" 
d="M657 172h-251q13 -47 31.5 -67.5t49.5 -20.5q30 0 68 17q41 17 57 17q20 0 33 -15t13 -37q0 -28 -25 -44q-26 -16 -67.5 -27t-77.5 -11q-53 0 -100 32q-14 -17 -37 -17q-21 0 -36 17q-51 -32 -110 -32q-78 0 -125 44t-47 117q0 33 13.5 55.5t44.5 41.5q30 19 72 31.5
t78 12.5q17 0 60 -5v20q0 21 -13.5 35t-34.5 14q-19 0 -90 -21q-12 -4 -23 -4q-20 0 -34 15t-14 36q0 36 41 50q74 24 120 24q66 0 116 -56q52 56 112 56q74 0 128 -69q48 -62 48 -163v-46zM301 130v59q-31 8 -56 8q-63 0 -98 -26q-13 -11 -13 -29q0 -26 19 -42t51 -16
q43 0 97 46zM408 258h140q-6 39 -15 55q-19 37 -55 37q-17 0 -33 -12t-24 -31q-7 -16 -13 -49z" />
    <glyph glyph-name="uni04D6" unicode="&#x4d6;" horiz-adv-x="582" 
d="M53 831q15 0 22 -8.5t12 -31.5q8 -35 37 -55.5t70 -20.5t70 20.5t37 55.5q5 23 12 31.5t22 8.5t24.5 -10.5t9.5 -27.5q0 -57 -53 -101.5t-122 -44.5t-122 44.5t-53 101.5q0 17 9.5 27.5t24.5 10.5zM504 583v-100h-334v-141h184v-99h-184v-143h356v-100h-456v583h434z" />
    <glyph glyph-name="uni04D7" unicode="&#x4d7;" horiz-adv-x="587" 
d="M550 172h-408q34 -88 164 -88q56 0 163 28q20 5 33 5q20 0 34 -14.5t14 -35.5q0 -29 -35 -45q-34 -15 -99.5 -26.5t-118.5 -11.5q-116 0 -190 65t-74 167q0 99 74.5 166.5t183.5 67.5q112 0 185.5 -68t73.5 -171v-39zM145 260h294q-12 41 -52 65.5t-95 24.5t-95.5 -25
t-51.5 -65zM84 687q15 0 22 -8.5t12 -31.5q8 -35 37 -55.5t70 -20.5t70 20.5t37 55.5q5 23 12 31.5t22 8.5t24.5 -10.5t9.5 -27.5q0 -57 -53 -101.5t-122 -44.5t-122 44.5t-53 101.5q0 17 9.5 27.5t24.5 10.5z" />
    <glyph glyph-name="uni04D8" unicode="&#x4d8;" 
d="M48 419q0 20 8.5 37.5t14.5 25t29.5 28t30.5 26.5l16 10q34 21 63 26.5t75 5.5q112 0 188 -78.5t76 -193.5v-65q0 -110 -81 -183t-204 -73q-110 0 -178 50q-53 33 -53 70q0 20 14.5 34.5t33.5 14.5q21 0 35 -15q27 -27 37 -34q35 -21 107 -21q83 0 135 41t56 109h-209
q-35 0 -44 8q-20 17 -20 40q0 28 24 42q8 6 40 6h208q-10 67 -56 109.5t-113 42.5q-52 0 -95 -24q-35 -19 -43 -51q-4 -28 -14 -38q-11 -13 -32 -13q-26 0 -41 20q-8 11 -8 43z" />
    <glyph glyph-name="afii10846" unicode="&#x4d9;" 
d="M150 405q33 20 62 25.5t79 5.5q109 0 178.5 -65.5t69.5 -168.5q0 -91 -60 -151q-67 -67 -202 -67q-106 0 -172 32q-62 30 -62 70q0 20 14.5 35t32.5 15q20 0 30 -13q31 -23 49 -29q37 -13 102 -13q130 0 162 71h-189q-27 0 -42.5 13t-15.5 37q0 49 64 47h184
q-11 27 -31 49q-40 41 -112 41q-63 0 -103 -24q-17 -11 -24 -35q-4 -26 -12 -33q-17 -13 -36 -13q-25 0 -40 20q-8 12 -8 44q0 36 20.5 59t61.5 48z" />
    <glyph glyph-name="uni04DA" unicode="&#x4da;" 
d="M48 419q0 20 8.5 37.5t14.5 25t29.5 28t30.5 26.5l16 10q34 21 63 26.5t75 5.5q112 0 188 -78.5t76 -193.5v-65q0 -110 -81 -183t-204 -73q-110 0 -178 50q-53 33 -53 70q0 20 14.5 34.5t33.5 14.5q21 0 35 -15q27 -27 37 -34q35 -21 107 -21q83 0 135 41t56 109h-209
q-35 0 -44 8q-20 17 -20 40q0 28 24 42q8 6 40 6h208q-10 67 -56 109.5t-113 42.5q-52 0 -95 -24q-35 -19 -43 -51q-4 -28 -14 -38q-11 -13 -32 -13q-26 0 -41 20q-8 11 -8 43zM126 798q25 0 42.5 -17.5t17.5 -43.5q0 -24 -17.5 -41.5t-42.5 -17.5t-42.5 17.5t-17.5 42.5
t17.5 42.5t42.5 17.5zM334 798q25 0 42.5 -17.5t17.5 -43.5q0 -24 -17.5 -41.5t-42.5 -17.5t-42.5 17.5t-17.5 42.5t17.5 42.5t42.5 17.5z" />
    <glyph glyph-name="uni04DB" unicode="&#x4db;" 
d="M128 654q25 0 42.5 -17.5t17.5 -43.5q0 -24 -17.5 -41.5t-42.5 -17.5t-42.5 17.5t-17.5 42.5t17.5 42.5t42.5 17.5zM336 654q25 0 42.5 -17.5t17.5 -43.5q0 -24 -17.5 -41.5t-42.5 -17.5t-42.5 17.5t-17.5 42.5t17.5 42.5t42.5 17.5zM150 405q33 20 62 25.5t79 5.5
q109 0 178.5 -65.5t69.5 -168.5q0 -91 -60 -151q-67 -67 -202 -67q-106 0 -172 32q-62 30 -62 70q0 20 14.5 35t32.5 15q20 0 30 -13q31 -23 49 -29q37 -13 102 -13q130 0 162 71h-189q-27 0 -42.5 13t-15.5 37q0 49 64 47h184q-11 27 -31 49q-40 41 -112 41q-63 0 -103 -24
q-17 -11 -24 -35q-4 -26 -12 -33q-17 -13 -36 -13q-25 0 -40 20q-8 12 -8 44q0 36 20.5 59t61.5 48z" />
    <glyph glyph-name="uni04DC" unicode="&#x4dc;" 
d="M127 798q25 0 42.5 -17.5t17.5 -43.5q0 -24 -17.5 -41.5t-42.5 -17.5t-42.5 17.5t-17.5 42.5t17.5 42.5t42.5 17.5zM335 798q25 0 42.5 -17.5t17.5 -43.5q0 -24 -17.5 -41.5t-42.5 -17.5t-42.5 17.5t-17.5 42.5t17.5 42.5t42.5 17.5zM530 0h-77q0 113 -28.5 182.5
t-85.5 69.5v-252h-97v252q-57 0 -85.5 -69t-30.5 -183h-77l1 97q1 84 25 142t68 80l-186 246h99l186 -239v239h97v-239l186 239h99l-187 -246q44 -21 67.5 -79.5t25.5 -142.5v-97z" />
    <glyph glyph-name="uni04DD" unicode="&#x4dd;" 
d="M127 654q25 0 42.5 -17.5t17.5 -43.5q0 -24 -17.5 -41.5t-42.5 -17.5t-42.5 17.5t-17.5 42.5t17.5 42.5t42.5 17.5zM335 654q25 0 42.5 -17.5t17.5 -43.5q0 -24 -17.5 -41.5t-42.5 -17.5t-42.5 17.5t-17.5 42.5t17.5 42.5t42.5 17.5zM502 0l-162 156v-156h-100v156
l-164 -156h-144l232 220l-254 203h147l183 -146v146h100v-146l184 146h146l-255 -203l240 -220h-153z" />
    <glyph glyph-name="uni04DE" unicode="&#x4de;" 
d="M148 24q-31 19 -48.5 41t-39.5 64q-11 22 10 43q12 21 38 21q24 0 35 -15q7 -6 15 -32t47.5 -44t87.5 -18q53 0 90 20.5t37 51.5q0 34 -34 52q-1 1 -8.5 5t-10 5l-10 4t-13.5 4t-15.5 3t-20.5 2.5t-25 0.5h-57q-28 0 -44 9q-20 15 -20 40q0 28 24 41q10 8 40 8h41
q25 0 43.5 3t24.5 5t17 9.5t12 8.5q16 7 26 21.5t10 30.5q0 31 -31.5 52.5t-77.5 21.5q-45 0 -76.5 -18t-39.5 -47q-6 -31 -13 -39q-14 -14 -35 -14q-24 0 -39 20q-17 24 -7 45q31 66 50 88q14 16 33 29q29 20 56.5 26t70.5 6q90 0 150 -49t60 -122q0 -41 -15 -72.5
t-40 -44.5q8 -6 18 -14q57 -47 57 -121q0 -76 -61 -123t-161 -47q-86 0 -151 39zM127 798q25 0 42.5 -17.5t17.5 -43.5q0 -24 -17.5 -41.5t-42.5 -17.5t-42.5 17.5t-17.5 42.5t17.5 42.5t42.5 17.5zM335 798q25 0 42.5 -17.5t17.5 -43.5q0 -24 -17.5 -41.5t-42.5 -17.5
t-42.5 17.5t-17.5 42.5t17.5 42.5t42.5 17.5z" />
    <glyph glyph-name="uni04DF" unicode="&#x4df;" 
d="M129 654q25 0 42.5 -17.5t17.5 -43.5q0 -24 -17.5 -41.5t-42.5 -17.5t-42.5 17.5t-17.5 42.5t17.5 42.5t42.5 17.5zM337 654q25 0 42.5 -17.5t17.5 -43.5q0 -24 -17.5 -41.5t-42.5 -17.5t-42.5 17.5t-17.5 42.5t17.5 42.5t42.5 17.5zM151 11q-3 2 -12 8.5t-12 8.5
t-10.5 7.5t-10.5 8.5t-9 8t-8.5 8.5t-6 8.5t-5.5 9t-3.5 9.5t-1.5 10.5q-2 31 9 43q13 21 39 21q37 0 50 -43q43 -38 121 -38q46 0 79.5 12.5t33.5 29.5q0 21 -33 33q-30 16 -89 16h-41q-28 0 -43.5 13t-15.5 36q0 49 65 49h30q18 0 31 0.5t21.5 2.5t12.5 2.5t9.5 3t6.5 3.5
q26 10 26 24q0 12 -30 22.5t-66 10.5q-60 0 -100 -27l-5 -10q-17 -29 -45 -29q-25 0 -40 18q-13 16 -10 47q2 17 25.5 40.5t51.5 33.5q65 24 126 24q87 0 143 -37.5t56 -95.5q0 -49 -34 -75v-10q24 -15 39.5 -42t15.5 -55q0 -60 -61.5 -98.5t-155.5 -38.5q-105 0 -143 27z
" />
    <glyph glyph-name="uni04E0" unicode="&#x4e0;" 
d="M148 24q-31 19 -48.5 41t-39.5 64q-11 22 10 43q12 21 38 21q24 0 35 -15q7 -6 15 -32t47.5 -44t87.5 -18q53 0 90 20.5t37 51.5q0 34 -34 52q-1 1 -8.5 5t-10 5l-10 4t-13.5 4t-15.5 3t-20.5 2.5t-25 0.5h-57q-28 0 -44 9q-20 15 -20 40q0 28 24 41q10 8 40 8h41
q25 0 43.5 3t24.5 5t17 9.5t12 8.5q16 7 26 21.5t10 30.5q0 31 -31.5 52.5t-77.5 21.5q-45 0 -76.5 -18t-39.5 -47q-6 -31 -13 -39q-14 -14 -35 -14q-24 0 -39 20q-17 24 -7 45q31 66 50 88q14 16 33 29q29 20 56.5 26t70.5 6q90 0 150 -49t60 -122q0 -41 -15 -72.5
t-40 -44.5q8 -6 18 -14q57 -47 57 -121q0 -76 -61 -123t-161 -47q-86 0 -151 39z" />
    <glyph glyph-name="uni04E1" unicode="&#x4e1;" 
d="M151 11q-3 2 -12 8.5t-12 8.5t-10.5 7.5t-10.5 8.5t-9 8t-8.5 8.5t-6 8.5t-5.5 9t-3.5 9.5t-1.5 10.5q-2 31 9 43q13 21 39 21q37 0 50 -43q43 -38 121 -38q46 0 79.5 12.5t33.5 29.5q0 21 -33 33q-30 16 -89 16h-41q-28 0 -43.5 13t-15.5 36q0 49 65 49h30q18 0 31 0.5
t21.5 2.5t12.5 2.5t9.5 3t6.5 3.5q26 10 26 24q0 12 -30 22.5t-66 10.5q-60 0 -100 -27l-5 -10q-17 -29 -45 -29q-25 0 -40 18q-13 16 -10 47q2 17 25.5 40.5t51.5 33.5q65 24 126 24q87 0 143 -37.5t56 -95.5q0 -49 -34 -75v-10q24 -15 39.5 -42t15.5 -55
q0 -60 -61.5 -98.5t-155.5 -38.5q-105 0 -143 27z" />
    <glyph glyph-name="uni04E2" unicode="&#x4e2;" 
d="M121 769h244q32 0 42 -11q11 -13 11 -29q0 -40 -53 -40h-244q-31 0 -42 12q-11 15 -11 28q0 40 53 40zM90 0v565h97v-317l207 179v138h97v-565h-97v316l-207 -180v-136h-97z" />
    <glyph glyph-name="uni04E3" unicode="&#x4e3;" 
d="M120 626h244q32 0 42 -11q11 -13 11 -29q0 -40 -53 -40h-244q-31 0 -42 12q-11 15 -11 28q0 40 53 40zM491 0h-97v218l-208 -109v-109h-97v423h97v-215l208 107v108h97v-423z" />
    <glyph glyph-name="uni04E4" unicode="&#x4e4;" 
d="M128 798q25 0 42.5 -17.5t17.5 -43.5q0 -24 -17.5 -41.5t-42.5 -17.5t-42.5 17.5t-17.5 42.5t17.5 42.5t42.5 17.5zM336 798q25 0 42.5 -17.5t17.5 -43.5q0 -24 -17.5 -41.5t-42.5 -17.5t-42.5 17.5t-17.5 42.5t17.5 42.5t42.5 17.5zM90 0v565h97v-317l207 179v138h97
v-565h-97v316l-207 -180v-136h-97z" />
    <glyph glyph-name="uni04E5" unicode="&#x4e5;" 
d="M127 654q25 0 42.5 -17.5t17.5 -43.5q0 -24 -17.5 -41.5t-42.5 -17.5t-42.5 17.5t-17.5 42.5t17.5 42.5t42.5 17.5zM335 654q25 0 42.5 -17.5t17.5 -43.5q0 -24 -17.5 -41.5t-42.5 -17.5t-42.5 17.5t-17.5 42.5t17.5 42.5t42.5 17.5zM491 0h-97v218l-208 -109v-109h-97
v423h97v-215l208 107v108h97v-423z" />
    <glyph glyph-name="uni04E6" unicode="&#x4e6;" horiz-adv-x="634" 
d="M317 597q103 0 185 -77q94 -90 94 -233q0 -123 -82.5 -212t-196.5 -89q-116 0 -197.5 89.5t-81.5 216.5q0 126 82 215.5t197 89.5zM317 497q-73 0 -126 -60.5t-53 -144.5q0 -85 52.5 -145.5t126.5 -60.5q73 0 126 60t53 143q0 86 -52.5 147t-126.5 61zM151 798
q25 0 42.5 -17.5t17.5 -43.5q0 -24 -17.5 -41.5t-42.5 -17.5t-42.5 17.5t-17.5 42.5t17.5 42.5t42.5 17.5zM359 798q25 0 42.5 -17.5t17.5 -43.5q0 -24 -17.5 -41.5t-42.5 -17.5t-42.5 17.5t-17.5 42.5t17.5 42.5t42.5 17.5z" />
    <glyph glyph-name="uni04E7" unicode="&#x4e7;" horiz-adv-x="582" 
d="M294 450q106 0 180.5 -68t74.5 -165q0 -98 -75 -165.5t-183 -67.5t-183 67.5t-75 165.5q0 99 75 166t186 67zM293 350q-68 0 -114 -38t-46 -95q0 -56 45.5 -94.5t112.5 -38.5t112.5 38.5t45.5 94.5t-45.5 94.5t-110.5 38.5zM125 654q25 0 42.5 -17.5t17.5 -43.5
q0 -24 -17.5 -41.5t-42.5 -17.5t-42.5 17.5t-17.5 42.5t17.5 42.5t42.5 17.5zM333 654q25 0 42.5 -17.5t17.5 -43.5q0 -24 -17.5 -41.5t-42.5 -17.5t-42.5 17.5t-17.5 42.5t17.5 42.5t42.5 17.5z" />
    <glyph glyph-name="uni04E8" unicode="&#x4e8;" 
d="M291 578q99 0 179 -75q91 -84 91 -226q0 -118 -80 -205t-190 -87q-112 0 -191.5 87.5t-79.5 210.5q0 122 79.5 208.5t191.5 86.5zM458 229h-335q16 -63 62.5 -104t105.5 -41q58 0 104.5 41.5t62.5 103.5zM460 326q-14 68 -61 112t-108 44t-108.5 -44.5t-61.5 -111.5h339z
" />
    <glyph glyph-name="uni04E9" unicode="&#x4e9;" 
d="M294 436q102 0 174.5 -66t72.5 -160t-73 -160t-177 -66t-177.5 66t-73.5 160q0 97 73 161.5t181 64.5zM436 250q-14 39 -53 64t-90 25q-53 0 -93.5 -24.5t-55.5 -64.5h292zM437 172h-294q14 -40 54.5 -65.5t93.5 -25.5q52 0 92 25.5t54 65.5z" />
    <glyph glyph-name="uni04EA" unicode="&#x4ea;" 
d="M291 578q99 0 179 -75q91 -84 91 -226q0 -118 -80 -205t-190 -87q-112 0 -191.5 87.5t-79.5 210.5q0 122 79.5 208.5t191.5 86.5zM458 229h-335q16 -63 62.5 -104t105.5 -41q58 0 104.5 41.5t62.5 103.5zM460 326q-14 68 -61 112t-108 44t-108.5 -44.5t-61.5 -111.5h339z
M190 798q25 0 42.5 -17.5t17.5 -43.5q0 -24 -17.5 -41.5t-42.5 -17.5t-42.5 17.5t-17.5 42.5t17.5 42.5t42.5 17.5zM398 798q25 0 42.5 -17.5t17.5 -43.5q0 -24 -17.5 -41.5t-42.5 -17.5t-42.5 17.5t-17.5 42.5t17.5 42.5t42.5 17.5z" />
    <glyph glyph-name="uni04EB" unicode="&#x4eb;" 
d="M294 436q102 0 174.5 -66t72.5 -160t-73 -160t-177 -66t-177.5 66t-73.5 160q0 97 73 161.5t181 64.5zM436 250q-14 39 -53 64t-90 25q-53 0 -93.5 -24.5t-55.5 -64.5h292zM437 172h-294q14 -40 54.5 -65.5t93.5 -25.5q52 0 92 25.5t54 65.5zM188 654q25 0 42.5 -17.5
t17.5 -43.5q0 -24 -17.5 -41.5t-42.5 -17.5t-42.5 17.5t-17.5 42.5t17.5 42.5t42.5 17.5zM396 654q25 0 42.5 -17.5t17.5 -43.5q0 -24 -17.5 -41.5t-42.5 -17.5t-42.5 17.5t-17.5 42.5t17.5 42.5t42.5 17.5z" />
    <glyph glyph-name="uni04EC" unicode="&#x4ec;" 
d="M127 798q25 0 42.5 -17.5t17.5 -43.5q0 -24 -17.5 -41.5t-42.5 -17.5t-42.5 17.5t-17.5 42.5t17.5 42.5t42.5 17.5zM335 798q25 0 42.5 -17.5t17.5 -43.5q0 -24 -17.5 -41.5t-42.5 -17.5t-42.5 17.5t-17.5 42.5t17.5 42.5t42.5 17.5zM48 419q0 20 8.5 37.5t14.5 25
t29.5 28t30.5 26.5l16 10q34 21 63 26.5t75 5.5q112 0 188 -78.5t76 -193.5v-65q0 -110 -81 -183t-204 -73q-110 0 -178 50q-53 33 -53 70q0 20 14.5 34.5t33.5 14.5q21 0 35 -15q27 -27 37 -34q35 -21 107 -21q83 0 135 41t56 109h-209q-35 0 -44 8q-20 17 -20 40
q0 28 24 42q8 6 40 6h208q-10 67 -56 109.5t-113 42.5q-52 0 -95 -24q-35 -19 -43 -51q-4 -28 -14 -38q-11 -13 -32 -13q-26 0 -41 20q-8 11 -8 43z" />
    <glyph glyph-name="uni04ED" unicode="&#x4ed;" 
d="M124 654q25 0 42.5 -17.5t17.5 -43.5q0 -24 -17.5 -41.5t-42.5 -17.5t-42.5 17.5t-17.5 42.5t17.5 42.5t42.5 17.5zM332 654q25 0 42.5 -17.5t17.5 -43.5q0 -24 -17.5 -41.5t-42.5 -17.5t-42.5 17.5t-17.5 42.5t17.5 42.5t42.5 17.5zM150 405q33 20 62 25.5t79 5.5
q109 0 178.5 -65.5t69.5 -168.5q0 -91 -60 -151q-67 -67 -202 -67q-106 0 -172 32q-62 30 -62 70q0 20 14.5 35t32.5 15q20 0 30 -13q31 -23 49 -29q37 -13 102 -13q130 0 162 71h-189q-27 0 -42.5 13t-15.5 37q0 49 64 47h184q-11 27 -31 49q-40 41 -112 41q-63 0 -103 -24
q-17 -11 -24 -35q-4 -26 -12 -33q-17 -13 -36 -13q-25 0 -40 20q-8 12 -8 44q0 36 20.5 59t61.5 48z" />
    <glyph glyph-name="uni04EE" unicode="&#x4ee;" 
d="M118 769h244q32 0 42 -11q11 -13 11 -29q0 -40 -53 -40h-244q-31 0 -42 12q-11 15 -11 28q0 40 53 40zM558 565l-319 -565h-126l123 209l-213 356h125l143 -263l142 263h125z" />
    <glyph glyph-name="uni04EF" unicode="&#x4ef;" horiz-adv-x="583" 
d="M109 626h244q32 0 42 -11q11 -13 11 -29q0 -40 -53 -40h-244q-31 0 -42 12q-11 15 -11 28q0 40 53 40zM463 437h107l-334 -642h-109l106 208l-224 434h115l165 -323z" />
    <glyph glyph-name="uni04F0" unicode="&#x4f0;" 
d="M558 565l-319 -565h-126l123 209l-213 356h125l143 -263l142 263h125zM128 798q25 0 42.5 -17.5t17.5 -43.5q0 -24 -17.5 -41.5t-42.5 -17.5t-42.5 17.5t-17.5 42.5t17.5 42.5t42.5 17.5zM336 798q25 0 42.5 -17.5t17.5 -43.5q0 -24 -17.5 -41.5t-42.5 -17.5t-42.5 17.5
t-17.5 42.5t17.5 42.5t42.5 17.5z" />
    <glyph glyph-name="uni04F1" unicode="&#x4f1;" horiz-adv-x="583" 
d="M463 437h107l-334 -642h-109l106 208l-224 434h115l165 -323zM125 654q25 0 42.5 -17.5t17.5 -43.5q0 -24 -17.5 -41.5t-42.5 -17.5t-42.5 17.5t-17.5 42.5t17.5 42.5t42.5 17.5zM333 654q25 0 42.5 -17.5t17.5 -43.5q0 -24 -17.5 -41.5t-42.5 -17.5t-42.5 17.5
t-17.5 42.5t17.5 42.5t42.5 17.5z" />
    <glyph glyph-name="uni04F2" unicode="&#x4f2;" 
d="M230 765l-102 -110q-14 -16 -29 -16q-13 0 -24 11.5t-11 25.5q0 12 21 36l102 110q15 15 29 15q13 0 23.5 -11t10.5 -25q0 -15 -20 -36zM394 765l-102 -110q-16 -16 -29 -16t-24 11.5t-11 25.5q0 12 21 36l102 110q14 15 29 15q13 0 23.5 -11t10.5 -25q0 -15 -20 -36z
M558 565l-319 -565h-126l123 209l-213 356h125l143 -263l142 263h125z" />
    <glyph glyph-name="uni04F3" unicode="&#x4f3;" horiz-adv-x="583" 
d="M231 622l-102 -110q-14 -16 -29 -16q-13 0 -24 11.5t-11 25.5q0 12 21 36l102 110q15 15 29 15q13 0 23.5 -11t10.5 -25q0 -15 -20 -36zM395 622l-102 -110q-16 -16 -29 -16t-24 11.5t-11 25.5q0 12 21 36l102 110q14 15 29 15q13 0 23.5 -11t10.5 -25q0 -15 -20 -36z
M463 437h107l-334 -642h-109l106 208l-224 434h115l165 -323z" />
    <glyph glyph-name="uni04F4" unicode="&#x4f4;" 
d="M191 720q25 0 41 -17t16 -43q0 -23 -17 -39.5t-40 -16.5q-25 0 -42 16.5t-17 39.5q0 25 17 42.5t42 17.5zM391 720q25 0 42 -17t17 -43q0 -23 -17.5 -39.5t-41.5 -16.5t-41.5 16.5t-17.5 39.5q0 25 17.5 42.5t41.5 17.5zM378 0v202q-45 -38 -103 -38q-39 0 -68 4.5
t-58.5 17t-45.5 40t-16 69.5v270h98v-267q7 -18 35 -28t61 -10q65 0 97 38v267h96v-565h-96z" />
    <glyph glyph-name="uni04F5" unicode="&#x4f5;" 
d="M128 654q25 0 42.5 -17.5t17.5 -43.5q0 -24 -17.5 -41.5t-42.5 -17.5t-42.5 17.5t-17.5 42.5t17.5 42.5t42.5 17.5zM336 654q25 0 42.5 -17.5t17.5 -43.5q0 -24 -17.5 -41.5t-42.5 -17.5t-42.5 17.5t-17.5 42.5t17.5 42.5t42.5 17.5zM474 0h-96v136q-34 -29 -85 -29
q-85 0 -135.5 29.5t-50.5 107.5v179h96v-179q0 -42 88 -42q29 0 58 13.5t29 28.5v179h96v-423z" />
    <glyph glyph-name="uni04F8" unicode="&#x4f8;" 
d="M127 798q25 0 42.5 -17.5t17.5 -43.5q0 -24 -17.5 -41.5t-42.5 -17.5t-42.5 17.5t-17.5 42.5t17.5 42.5t42.5 17.5zM335 798q25 0 42.5 -17.5t17.5 -43.5q0 -24 -17.5 -41.5t-42.5 -17.5t-42.5 17.5t-17.5 42.5t17.5 42.5t42.5 17.5zM525 565v-565h-97v565h97zM67 0v565
h97v-194h8q70 0 111 -14t73 -50q48 -53 48 -124q0 -80 -59.5 -131.5t-151.5 -51.5h-126zM164 97h29q50 0 79 24t29 65t-29 64.5t-79 23.5h-29v-177z" />
    <glyph glyph-name="uni04F9" unicode="&#x4f9;" 
d="M191 579q25 0 41 -17t16 -43q0 -23 -17 -39.5t-40 -16.5q-25 0 -42 16.5t-17 39.5q0 25 17 42.5t42 17.5zM391 579q25 0 42 -17t17 -43q0 -23 -17.5 -39.5t-41.5 -16.5t-41.5 16.5t-17.5 39.5q0 25 17.5 42.5t41.5 17.5zM51 0v423h97v-152h52q101 0 140.5 -30t40.5 -102
q0 -31 -9 -55.5t-24 -39t-31 -24t-36 -13.5t-33.5 -5.5t-27.5 -1.5h-169zM148 97q101 0 118 6q18 7 17 29q0 29 -27 35.5t-108 6.5v-77zM443 0v423h96v-423h-96z" />
    <glyph glyph-name="uni1EA0" unicode="&#x1ea0;" horiz-adv-x="595" 
d="M193 -110q25 0 42.5 -17.5t17.5 -43.5q0 -24 -17.5 -41.5t-42.5 -17.5t-42.5 17.5t-17.5 42.5t17.5 42.5t42.5 17.5zM3 0l237 583h112l240 -583h-116l-62 158h-238l-62 -158h-111zM373 258l-78 192l-79 -192h157z" />
    <glyph glyph-name="uni1EA1" unicode="&#x1ea1;" horiz-adv-x="540" 
d="M192 -110q25 0 42.5 -17.5t17.5 -43.5q0 -24 -17.5 -41.5t-42.5 -17.5t-42.5 17.5t-17.5 42.5t17.5 42.5t42.5 17.5zM379 0v23q-75 -39 -166 -39q-74 0 -127 39.5t-53 95.5q0 49 39 93q68 76 203 76q45 0 104 -10v23q0 49 -93 49q-51 0 -116 -17q-25 -6 -40 -6
q-21 0 -35 14.5t-14 36.5q0 32 30 42q85 30 172 30q92 0 144.5 -39t52.5 -109v-302h-101zM380 135v50q-63 11 -111 11q-51 0 -90.5 -22t-39.5 -51q0 -17 22 -28t54 -11q82 0 165 51z" />
    <glyph glyph-name="uni1EA2" unicode="&#x1ea2;" horiz-adv-x="689" 
d="M228 817v46q70 33 115 33q53 0 85.5 -29.5t32.5 -77.5q0 -34 -19.5 -56.5t-69.5 -44.5q-4 -30 -31 -30q-17 0 -27 15q-5 7 -5 24v34q53 20 71 32.5t18 28.5q0 19 -14.5 30.5t-39.5 11.5q-26 0 -53 -12v-5q0 -19 -6 -27q-9 -12 -25 -12q-18 0 -27 14q-5 6 -5 25zM50 0
l237 583h112l240 -583h-116l-62 158h-238l-62 -158h-111zM420 258l-78 192l-79 -192h157z" />
    <glyph glyph-name="uni1EA3" unicode="&#x1ea3;" horiz-adv-x="557" 
d="M181 679v46q70 33 115 33q53 0 85.5 -29.5t32.5 -77.5q0 -34 -19.5 -56.5t-69.5 -44.5q-5 -30 -31 -30q-17 0 -27 15q-5 7 -5 24v34q53 20 71 32.5t18 28.5q0 19 -14.5 30.5t-39.5 11.5q-26 0 -53 -12v-5q0 -19 -6 -27q-9 -12 -25 -12q-18 0 -27 14q-5 6 -5 25zM40 119z
M386 0v23q-75 -39 -166 -39q-74 0 -127 39.5t-53 95.5q0 49 39 93q68 76 203 76q45 0 104 -10v23q0 49 -93 49q-51 0 -116 -17q-25 -6 -40 -6q-21 0 -35 14.5t-14 36.5q0 32 30 42q85 30 172 30q92 0 144.5 -39t52.5 -109v-302h-101zM387 135v50q-63 11 -111 11
q-51 0 -90.5 -22t-39.5 -51q0 -17 22 -28t54 -11q82 0 165 51z" />
    <glyph glyph-name="uni1EA4" unicode="&#x1ea4;" horiz-adv-x="595" 
d="M211 1011l-133 -112q-20 -16 -32 -16q-15 0 -26 11t-11 25q0 18 23 37l133 111q20 16 32 16q16 0 26.5 -10.5t10.5 -26.5q0 -17 -23 -35zM223 750l-113 -97q-16 -13 -28 -13q-14 0 -24.5 10.5t-10.5 24.5q0 11 4 16.5t20 18.5l152 129l151 -129q6 -4 9 -7q15 -12 15 -28
q0 -14 -10.5 -24.5t-23.5 -10.5t-29 13zM3 0l237 583h112l240 -583h-116l-62 158h-238l-62 -158h-111zM373 258l-78 192l-79 -192h157z" />
    <glyph glyph-name="uni1EA5" unicode="&#x1ea5;" horiz-adv-x="540" 
d="M204 873l-133 -112q-20 -16 -32 -16q-15 0 -26 11t-11 25q0 18 23 37l133 111q20 16 32 16q16 0 26.5 -10.5t10.5 -26.5q0 -17 -23 -35zM206 607l-113 -97q-16 -13 -28 -13q-14 0 -24.5 10.5t-10.5 24.5q0 11 4 16.5t20 18.5l152 129l151 -129q6 -4 9 -7q15 -12 15 -28
q0 -14 -10.5 -24.5t-23.5 -10.5t-29 13zM379 0v23q-75 -39 -166 -39q-74 0 -127 39.5t-53 95.5q0 49 39 93q68 76 203 76q45 0 104 -10v23q0 49 -93 49q-51 0 -116 -17q-25 -6 -40 -6q-21 0 -35 14.5t-14 36.5q0 32 30 42q85 30 172 30q92 0 144.5 -39t52.5 -109v-302h-101z
M380 135v50q-63 11 -111 11q-51 0 -90.5 -22t-39.5 -51q0 -17 22 -28t54 -11q82 0 165 51z" />
    <glyph glyph-name="uni1EA6" unicode="&#x1ea6;" horiz-adv-x="595" 
d="M232 1065l133 -111q23 -19 23 -37q0 -14 -11 -25t-26 -11q-12 0 -32 16l-133 112q-23 18 -23 36q0 15 10.5 25.5t26.5 10.5q12 0 32 -16zM224 750l-113 -97q-16 -13 -28 -13q-14 0 -24.5 10.5t-10.5 24.5q0 11 4 16.5t20 18.5l152 129l151 -129q6 -4 9 -7q15 -12 15 -28
q0 -14 -10.5 -24.5t-23.5 -10.5t-29 13zM3 0l237 583h112l240 -583h-116l-62 158h-238l-62 -158h-111zM373 258l-78 192l-79 -192h157z" />
    <glyph glyph-name="uni1EA7" unicode="&#x1ea7;" horiz-adv-x="540" 
d="M223 928l133 -111q23 -19 23 -37q0 -14 -11 -25t-26 -11q-12 0 -32 16l-133 112q-23 18 -23 36q0 15 10.5 25.5t26.5 10.5q12 0 32 -16zM206 607l-113 -97q-16 -13 -28 -13q-14 0 -24.5 10.5t-10.5 24.5q0 11 4 16.5t20 18.5l152 129l151 -129q6 -4 9 -7q15 -12 15 -28
q0 -14 -10.5 -24.5t-23.5 -10.5t-29 13zM379 0v23q-75 -39 -166 -39q-74 0 -127 39.5t-53 95.5q0 49 39 93q68 76 203 76q45 0 104 -10v23q0 49 -93 49q-51 0 -116 -17q-25 -6 -40 -6q-21 0 -35 14.5t-14 36.5q0 32 30 42q85 30 172 30q92 0 144.5 -39t52.5 -109v-302h-101z
M380 135v50q-63 11 -111 11q-51 0 -90.5 -22t-39.5 -51q0 -17 22 -28t54 -11q82 0 165 51z" />
    <glyph glyph-name="uni1EA8" unicode="&#x1ea8;" horiz-adv-x="689" 
d="M398 966v46q70 33 115 33q53 0 85.5 -29.5t32.5 -77.5q0 -34 -19.5 -56.5t-69.5 -44.5q-4 -30 -31 -30q-17 0 -27 15q-5 8 -5 24v34q53 20 71 32.5t18 28.5q0 19 -14.5 30.5t-39.5 11.5q-26 0 -53 -12v-5q0 -19 -6 -27q-9 -12 -25 -12q-18 0 -27 14q-5 6 -5 25zM346 750
l-113 -97q-16 -13 -28 -13q-14 0 -24.5 10.5t-10.5 24.5q0 11 4 16.5t20 18.5l152 129l151 -129q6 -4 9 -7q15 -12 15 -28q0 -14 -10.5 -24.5t-23.5 -10.5t-29 13zM50 0l237 583h112l240 -583h-116l-62 158h-238l-62 -158h-111zM420 258l-78 192l-79 -192h157z" />
    <glyph glyph-name="uni1EA9" unicode="&#x1ea9;" horiz-adv-x="557" 
d="M351 828v46q70 33 115 33q53 0 85.5 -29.5t32.5 -77.5q0 -34 -19.5 -56.5t-69.5 -44.5q-5 -30 -31 -30q-17 0 -27 15q-5 8 -5 24v34q53 20 71 32.5t18 28.5q0 19 -14.5 30.5t-39.5 11.5q-26 0 -53 -12v-5q0 -19 -6 -27q-9 -12 -25 -12q-18 0 -27 14q-5 6 -5 25zM288 607
l-113 -97q-16 -13 -28 -13q-14 0 -24.5 10.5t-10.5 24.5q0 11 4 16.5t20 18.5l152 129l151 -129q6 -4 9 -7q15 -12 15 -28q0 -14 -10.5 -24.5t-23.5 -10.5t-29 13zM386 0v23q-75 -39 -166 -39q-74 0 -127 39.5t-53 95.5q0 49 39 93q68 76 203 76q45 0 104 -10v23
q0 49 -93 49q-51 0 -116 -17q-25 -6 -40 -6q-21 0 -35 14.5t-14 36.5q0 32 30 42q85 30 172 30q92 0 144.5 -39t52.5 -109v-302h-101zM387 135v50q-63 11 -111 11q-51 0 -90.5 -22t-39.5 -51q0 -17 22 -28t54 -11q82 0 165 51z" />
    <glyph glyph-name="uni1EAA" unicode="&#x1eaa;" horiz-adv-x="595" 
d="M386 1041q13 0 22.5 -8.5t9.5 -19.5q0 -20 -29 -57q-38 -48 -80 -48q-34 0 -99 43q-31 21 -50 21q-13 0 -23 -8.5t-32 -37.5q-11 -15 -26 -15q-13 0 -22 9t-9 21q0 22 27 55q39 45 83 45q29 0 90 -38q44 -26 58 -26q11 0 17.5 5.5t23.5 28.5q21 30 39 30zM224 750
l-113 -97q-16 -13 -28 -13q-14 0 -24.5 10.5t-10.5 24.5q0 11 4 16.5t20 18.5l152 129l151 -129q6 -4 9 -7q15 -12 15 -28q0 -14 -10.5 -24.5t-23.5 -10.5t-29 13zM3 0l237 583h112l240 -583h-116l-62 158h-238l-62 -158h-111zM373 258l-78 192l-79 -192h157z" />
    <glyph glyph-name="uni1EAB" unicode="&#x1eab;" horiz-adv-x="540" 
d="M206 607l-113 -97q-16 -13 -28 -13q-14 0 -24.5 10.5t-10.5 24.5q0 11 4 16.5t20 18.5l152 129l151 -129q6 -4 9 -7q15 -12 15 -28q0 -14 -10.5 -24.5t-23.5 -10.5t-29 13zM429 898q13 0 22.5 -8.5t9.5 -19.5q0 -20 -29 -57q-38 -48 -80 -48q-34 0 -99 43q-31 21 -50 21
q-13 0 -23 -8.5t-32 -37.5q-11 -15 -26 -15q-13 0 -22 9t-9 21q0 22 27 55q39 45 83 45q29 0 90 -38q44 -26 58 -26q11 0 17.5 5.5t23.5 28.5q21 30 39 30zM379 0v23q-75 -39 -166 -39q-74 0 -127 39.5t-53 95.5q0 49 39 93q68 76 203 76q45 0 104 -10v23q0 49 -93 49
q-51 0 -116 -17q-25 -6 -40 -6q-21 0 -35 14.5t-14 36.5q0 32 30 42q85 30 172 30q92 0 144.5 -39t52.5 -109v-302h-101zM380 135v50q-63 11 -111 11q-51 0 -90.5 -22t-39.5 -51q0 -17 22 -28t54 -11q82 0 165 51z" />
    <glyph glyph-name="uni1EAC" unicode="&#x1eac;" horiz-adv-x="595" 
d="M193 -110q25 0 42.5 -17.5t17.5 -43.5q0 -24 -17.5 -41.5t-42.5 -17.5t-42.5 17.5t-17.5 42.5t17.5 42.5t42.5 17.5zM224 750l-113 -97q-16 -13 -28 -13q-14 0 -24.5 10.5t-10.5 24.5q0 11 4 16.5t20 18.5l152 129l151 -129q6 -4 9 -7q15 -12 15 -28q0 -14 -10.5 -24.5
t-23.5 -10.5t-29 13zM3 0l237 583h112l240 -583h-116l-62 158h-238l-62 -158h-111zM373 258l-78 192l-79 -192h157z" />
    <glyph glyph-name="uni1EAD" unicode="&#x1ead;" horiz-adv-x="540" 
d="M192 -110q25 0 42.5 -17.5t17.5 -43.5q0 -24 -17.5 -41.5t-42.5 -17.5t-42.5 17.5t-17.5 42.5t17.5 42.5t42.5 17.5zM206 607l-113 -97q-16 -13 -28 -13q-14 0 -24.5 10.5t-10.5 24.5q0 11 4 16.5t20 18.5l152 129l151 -129q6 -4 9 -7q15 -12 15 -28q0 -14 -10.5 -24.5
t-23.5 -10.5t-29 13zM379 0v23q-75 -39 -166 -39q-74 0 -127 39.5t-53 95.5q0 49 39 93q68 76 203 76q45 0 104 -10v23q0 49 -93 49q-51 0 -116 -17q-25 -6 -40 -6q-21 0 -35 14.5t-14 36.5q0 32 30 42q85 30 172 30q92 0 144.5 -39t52.5 -109v-302h-101zM380 135v50
q-63 11 -111 11q-51 0 -90.5 -22t-39.5 -51q0 -17 22 -28t54 -11q82 0 165 51z" />
    <glyph glyph-name="uni1EAE" unicode="&#x1eae;" horiz-adv-x="595" 
d="M293 1011l-133 -112q-20 -16 -32 -16q-15 0 -26 11t-11 25q0 18 23 37l133 111q20 16 32 16q16 0 26.5 -10.5t10.5 -26.5q0 -17 -23 -35zM98 831q15 0 22 -8.5t12 -31.5q8 -35 37 -55.5t70 -20.5t70 20.5t37 55.5q5 23 12 31.5t22 8.5t24.5 -10.5t9.5 -27.5
q0 -57 -53 -101.5t-122 -44.5t-122 44.5t-53 101.5q0 17 9.5 27.5t24.5 10.5zM3 0l237 583h112l240 -583h-116l-62 158h-238l-62 -158h-111zM373 258l-78 192l-79 -192h157z" />
    <glyph glyph-name="uni1EAF" unicode="&#x1eaf;" horiz-adv-x="540" 
d="M308 873l-133 -112q-20 -16 -32 -16q-15 0 -26 11t-11 25q0 18 23 37l133 111q20 16 32 16q16 0 26.5 -10.5t10.5 -26.5q0 -17 -23 -35zM102 687q15 0 22 -8.5t12 -31.5q8 -35 37 -55.5t70 -20.5t70 20.5t37 55.5q5 23 12 31.5t22 8.5t24.5 -10.5t9.5 -27.5
q0 -57 -53 -101.5t-122 -44.5t-122 44.5t-53 101.5q0 17 9.5 27.5t24.5 10.5zM379 0v23q-75 -39 -166 -39q-74 0 -127 39.5t-53 95.5q0 49 39 93q68 76 203 76q45 0 104 -10v23q0 49 -93 49q-51 0 -116 -17q-25 -6 -40 -6q-21 0 -35 14.5t-14 36.5q0 32 30 42q85 30 172 30
q92 0 144.5 -39t52.5 -109v-302h-101zM380 135v50q-63 11 -111 11q-51 0 -90.5 -22t-39.5 -51q0 -17 22 -28t54 -11q82 0 165 51z" />
    <glyph glyph-name="uni1EB0" unicode="&#x1eb0;" horiz-adv-x="595" 
d="M127 1062l133 -111q23 -19 23 -37q0 -14 -11 -25t-26 -11q-12 0 -32 16l-133 112q-23 18 -23 36q0 15 10.5 25.5t26.5 10.5q12 0 32 -16zM98 831q15 0 22 -8.5t12 -31.5q8 -35 37 -55.5t70 -20.5t70 20.5t37 55.5q5 23 12 31.5t22 8.5t24.5 -10.5t9.5 -27.5
q0 -57 -53 -101.5t-122 -44.5t-122 44.5t-53 101.5q0 17 9.5 27.5t24.5 10.5zM3 0l237 583h112l240 -583h-116l-62 158h-238l-62 -158h-111zM373 258l-78 192l-79 -192h157z" />
    <glyph glyph-name="uni1EB1" unicode="&#x1eb1;" horiz-adv-x="540" 
d="M142 928l133 -111q23 -19 23 -37q0 -14 -11 -25t-26 -11q-12 0 -32 16l-133 112q-23 18 -23 36q0 15 10.5 25.5t26.5 10.5q12 0 32 -16zM102 687q15 0 22 -8.5t12 -31.5q8 -35 37 -55.5t70 -20.5t70 20.5t37 55.5q5 23 12 31.5t22 8.5t24.5 -10.5t9.5 -27.5
q0 -57 -53 -101.5t-122 -44.5t-122 44.5t-53 101.5q0 17 9.5 27.5t24.5 10.5zM379 0v23q-75 -39 -166 -39q-74 0 -127 39.5t-53 95.5q0 49 39 93q68 76 203 76q45 0 104 -10v23q0 49 -93 49q-51 0 -116 -17q-25 -6 -40 -6q-21 0 -35 14.5t-14 36.5q0 32 30 42q85 30 172 30
q92 0 144.5 -39t52.5 -109v-302h-101zM380 135v50q-63 11 -111 11q-51 0 -90.5 -22t-39.5 -51q0 -17 22 -28t54 -11q82 0 165 51z" />
    <glyph glyph-name="uni1EB2" unicode="&#x1eb2;" horiz-adv-x="689" 
d="M216 1007v46q70 33 115 33q53 0 85.5 -29.5t32.5 -77.5q0 -34 -19.5 -56.5t-69.5 -44.5q-4 -30 -31 -30q-17 0 -27 15q-5 7 -5 24v34q53 20 71 32.5t18 28.5q0 19 -14.5 30.5t-39.5 11.5q-26 0 -53 -12v-5q0 -19 -6 -27q-9 -12 -25 -12q-18 0 -27 14q-5 6 -5 25zM204 831
q15 0 22 -8.5t12 -31.5q8 -35 37 -55.5t70 -20.5t70 20.5t37 55.5q5 23 12 31.5t22 8.5t24.5 -10.5t9.5 -27.5q0 -57 -53 -101.5t-122 -44.5t-122 44.5t-53 101.5q0 17 9.5 27.5t24.5 10.5zM50 0l237 583h112l240 -583h-116l-62 158h-238l-62 -158h-111zM420 258l-78 192
l-79 -192h157z" />
    <glyph glyph-name="uni1EB3" unicode="&#x1eb3;" horiz-adv-x="557" 
d="M193 870v46q70 33 115 33q53 0 85.5 -29.5t32.5 -77.5q0 -34 -19.5 -56.5t-69.5 -44.5q-5 -30 -31 -30q-17 0 -27 15q-5 8 -5 24v34q53 20 71 32.5t18 28.5q0 19 -14.5 30.5t-39.5 11.5q-26 0 -53 -12v-5q0 -19 -6 -27q-9 -12 -25 -12q-18 0 -27 14q-5 6 -5 25zM169 687
q15 0 22 -8.5t12 -31.5q8 -35 37 -55.5t70 -20.5t70 20.5t37 55.5q5 23 12 31.5t22 8.5t24.5 -10.5t9.5 -27.5q0 -57 -53 -101.5t-122 -44.5t-122 44.5t-53 101.5q0 17 9.5 27.5t24.5 10.5zM386 0v23q-75 -39 -166 -39q-74 0 -127 39.5t-53 95.5q0 49 39 93q68 76 203 76
q45 0 104 -10v23q0 49 -93 49q-51 0 -116 -17q-25 -6 -40 -6q-21 0 -35 14.5t-14 36.5q0 32 30 42q85 30 172 30q92 0 144.5 -39t52.5 -109v-302h-101zM387 135v50q-63 11 -111 11q-51 0 -90.5 -22t-39.5 -51q0 -17 22 -28t54 -11q82 0 165 51z" />
    <glyph glyph-name="uni1EB4" unicode="&#x1eb4;" horiz-adv-x="595" 
d="M386 1041q13 0 22.5 -8.5t9.5 -19.5q0 -20 -29 -57q-38 -48 -80 -48q-34 0 -99 43q-31 21 -50 21q-13 0 -23 -8.5t-32 -37.5q-11 -15 -26 -15q-13 0 -22 9t-9 21q0 22 27 55q39 45 83 45q29 0 90 -38q44 -26 58 -26q11 0 17.5 5.5t23.5 28.5q21 30 39 30zM98 831
q15 0 22 -8.5t12 -31.5q8 -35 37 -55.5t70 -20.5t70 20.5t37 55.5q5 23 12 31.5t22 8.5t24.5 -10.5t9.5 -27.5q0 -57 -53 -101.5t-122 -44.5t-122 44.5t-53 101.5q0 17 9.5 27.5t24.5 10.5zM3 0l237 583h112l240 -583h-116l-62 158h-238l-62 -158h-111zM373 258l-78 192
l-79 -192h157z" />
    <glyph glyph-name="uni1EB5" unicode="&#x1eb5;" horiz-adv-x="540" 
d="M400 898q13 0 22.5 -8.5t9.5 -19.5q0 -20 -29 -57q-38 -48 -80 -48q-34 0 -99 43q-31 21 -50 21q-13 0 -23 -8.5t-32 -37.5q-11 -15 -26 -15q-13 0 -22 9t-9 21q0 22 27 55q39 45 83 45q29 0 90 -38q44 -26 58 -26q11 0 17.5 5.5t23.5 28.5q21 30 39 30zM102 687
q15 0 22 -8.5t12 -31.5q8 -35 37 -55.5t70 -20.5t70 20.5t37 55.5q5 23 12 31.5t22 8.5t24.5 -10.5t9.5 -27.5q0 -57 -53 -101.5t-122 -44.5t-122 44.5t-53 101.5q0 17 9.5 27.5t24.5 10.5zM379 0v23q-75 -39 -166 -39q-74 0 -127 39.5t-53 95.5q0 49 39 93q68 76 203 76
q45 0 104 -10v23q0 49 -93 49q-51 0 -116 -17q-25 -6 -40 -6q-21 0 -35 14.5t-14 36.5q0 32 30 42q85 30 172 30q92 0 144.5 -39t52.5 -109v-302h-101zM380 135v50q-63 11 -111 11q-51 0 -90.5 -22t-39.5 -51q0 -17 22 -28t54 -11q82 0 165 51z" />
    <glyph glyph-name="uni1EB6" unicode="&#x1eb6;" horiz-adv-x="595" 
d="M193 -110q25 0 42.5 -17.5t17.5 -43.5q0 -24 -17.5 -41.5t-42.5 -17.5t-42.5 17.5t-17.5 42.5t17.5 42.5t42.5 17.5zM98 831q15 0 22 -8.5t12 -31.5q8 -35 37 -55.5t70 -20.5t70 20.5t37 55.5q5 23 12 31.5t22 8.5t24.5 -10.5t9.5 -27.5q0 -57 -53 -101.5t-122 -44.5
t-122 44.5t-53 101.5q0 17 9.5 27.5t24.5 10.5zM3 0l237 583h112l240 -583h-116l-62 158h-238l-62 -158h-111zM373 258l-78 192l-79 -192h157z" />
    <glyph glyph-name="uni1EB7" unicode="&#x1eb7;" horiz-adv-x="540" 
d="M192 -110q25 0 42.5 -17.5t17.5 -43.5q0 -24 -17.5 -41.5t-42.5 -17.5t-42.5 17.5t-17.5 42.5t17.5 42.5t42.5 17.5zM104 687q15 0 22 -8.5t12 -31.5q8 -35 37 -55.5t70 -20.5t70 20.5t37 55.5q5 23 12 31.5t22 8.5t24.5 -10.5t9.5 -27.5q0 -57 -53 -101.5t-122 -44.5
t-122 44.5t-53 101.5q0 17 9.5 27.5t24.5 10.5zM379 0v23q-75 -39 -166 -39q-74 0 -127 39.5t-53 95.5q0 49 39 93q68 76 203 76q45 0 104 -10v23q0 49 -93 49q-51 0 -116 -17q-25 -6 -40 -6q-21 0 -35 14.5t-14 36.5q0 32 30 42q85 30 172 30q92 0 144.5 -39t52.5 -109
v-302h-101zM380 135v50q-63 11 -111 11q-51 0 -90.5 -22t-39.5 -51q0 -17 22 -28t54 -11q82 0 165 51z" />
    <glyph glyph-name="uni1EB8" unicode="&#x1eb8;" horiz-adv-x="582" 
d="M177 -110q25 0 42.5 -17.5t17.5 -43.5q0 -24 -17.5 -41.5t-42.5 -17.5t-42.5 17.5t-17.5 42.5t17.5 42.5t42.5 17.5zM504 583v-100h-334v-141h184v-99h-184v-143h356v-100h-456v583h434z" />
    <glyph glyph-name="uni1EB9" unicode="&#x1eb9;" horiz-adv-x="587" 
d="M201 -110q25 0 42.5 -17.5t17.5 -43.5q0 -24 -17.5 -41.5t-42.5 -17.5t-42.5 17.5t-17.5 42.5t17.5 42.5t42.5 17.5zM550 172h-408q34 -88 164 -88q56 0 163 28q20 5 33 5q20 0 34 -14.5t14 -35.5q0 -29 -35 -45q-34 -15 -99.5 -26.5t-118.5 -11.5q-116 0 -190 65
t-74 167q0 99 74.5 166.5t183.5 67.5q112 0 185.5 -68t73.5 -171v-39zM145 260h294q-12 41 -52 65.5t-95 24.5t-95.5 -25t-51.5 -65z" />
    <glyph glyph-name="uni1EBA" unicode="&#x1eba;" horiz-adv-x="596" 
d="M159 817v46q70 33 115 33q53 0 85.5 -29.5t32.5 -77.5q0 -34 -19.5 -56.5t-69.5 -44.5q-5 -30 -31 -30q-17 0 -27 15q-5 7 -5 24v34q53 20 71 32.5t18 28.5q0 19 -14.5 30.5t-39.5 11.5q-26 0 -53 -12v-5q0 -19 -6 -27q-9 -12 -25 -12q-18 0 -27 14q-5 6 -5 25zM504 583
v-100h-334v-141h184v-99h-184v-143h356v-100h-456v583h434z" />
    <glyph glyph-name="uni1EBB" unicode="&#x1ebb;" horiz-adv-x="597" 
d="M205 679v46q70 33 115 33q53 0 85.5 -29.5t32.5 -77.5q0 -34 -19.5 -56.5t-69.5 -44.5q-5 -30 -31 -30q-17 0 -27 15q-5 7 -5 24v34q53 20 71 32.5t18 28.5q0 19 -14.5 30.5t-39.5 11.5q-26 0 -53 -12v-5q0 -19 -6 -27q-9 -12 -25 -12q-18 0 -27 14q-5 6 -5 25zM557 172
h-408q34 -88 164 -88q56 0 163 28q20 5 33 5q20 0 34 -14.5t14 -35.5q0 -29 -35 -45q-34 -15 -99.5 -26.5t-118.5 -11.5q-116 0 -190 65t-74 167q0 99 74.5 166.5t183.5 67.5q112 0 185.5 -68t73.5 -171v-39zM152 260h294q-12 41 -52 65.5t-95 24.5t-95.5 -25t-51.5 -65z
" />
    <glyph glyph-name="uni1EBC" unicode="&#x1ebc;" horiz-adv-x="582" 
d="M375 799q13 0 22.5 -8.5t9.5 -19.5q0 -20 -29 -57q-38 -48 -80 -48q-34 0 -99 43q-31 21 -50 21q-13 0 -23 -8.5t-32 -37.5q-11 -15 -26 -15q-13 0 -22 9t-9 21q0 22 27 55q39 45 83 45q29 0 90 -38q44 -26 58 -26q11 0 17.5 5.5t23.5 28.5q21 30 39 30zM504 583v-100
h-334v-141h184v-99h-184v-143h356v-100h-456v583h434z" />
    <glyph glyph-name="uni1EBD" unicode="&#x1ebd;" horiz-adv-x="597" 
d="M460 680q13 0 22.5 -8.5t9.5 -19.5q0 -20 -29 -57q-38 -48 -80 -48q-34 0 -99 43q-32 21 -50 21q-13 0 -23 -8.5t-32 -37.5q-11 -15 -26 -15q-13 0 -22 9t-9 21q0 22 27 55q39 45 83 45q29 0 90 -38q44 -26 58 -26q11 0 17.5 5.5t23.5 28.5q21 30 39 30zM557 172h-408
q34 -88 164 -88q56 0 163 28q20 5 33 5q20 0 34 -14.5t14 -35.5q0 -29 -35 -45q-34 -15 -99.5 -26.5t-118.5 -11.5q-116 0 -190 65t-74 167q0 99 74.5 166.5t183.5 67.5q112 0 185.5 -68t73.5 -171v-39zM152 260h294q-12 41 -52 65.5t-95 24.5t-95.5 -25t-51.5 -65z" />
    <glyph glyph-name="uni1EBE" unicode="&#x1ebe;" horiz-adv-x="582" 
d="M189 1011l-133 -112q-20 -16 -32 -16q-15 0 -26 11t-11 25q0 18 23 37l133 111q20 16 32 16q16 0 26.5 -10.5t10.5 -26.5q0 -17 -23 -35zM202 750l-113 -97q-16 -13 -28 -13q-14 0 -24.5 10.5t-10.5 24.5q0 11 4 16.5t20 18.5l152 129l151 -129q6 -4 9 -7q15 -12 15 -28
q0 -14 -10.5 -24.5t-23.5 -10.5t-29 13zM504 583v-100h-334v-141h184v-99h-184v-143h356v-100h-456v583h434z" />
    <glyph glyph-name="uni1EBF" unicode="&#x1ebf;" horiz-adv-x="587" 
d="M213 873l-133 -112q-20 -16 -32 -16q-15 0 -26 11t-11 25q0 18 23 37l133 111q20 16 32 16q16 0 26.5 -10.5t10.5 -26.5q0 -17 -23 -35zM550 172h-408q34 -88 164 -88q56 0 163 28q20 5 33 5q20 0 34 -14.5t14 -35.5q0 -29 -35 -45q-34 -15 -99.5 -26.5t-118.5 -11.5
q-116 0 -190 65t-74 167q0 99 74.5 166.5t183.5 67.5q112 0 185.5 -68t73.5 -171v-39zM145 260h294q-12 41 -52 65.5t-95 24.5t-95.5 -25t-51.5 -65zM229 607l-113 -97q-16 -13 -28 -13q-14 0 -24.5 10.5t-10.5 24.5q0 11 4 16.5t20 18.5l152 129l151 -129q6 -4 9 -7
q15 -12 15 -28q0 -14 -10.5 -24.5t-23.5 -10.5t-29 13z" />
    <glyph glyph-name="uni1EC0" unicode="&#x1ec0;" horiz-adv-x="582" 
d="M204 1062l133 -111q23 -19 23 -37q0 -14 -11 -25t-26 -11q-12 0 -32 16l-133 112q-23 18 -23 36q0 15 10.5 25.5t26.5 10.5q12 0 32 -16zM202 750l-113 -97q-16 -13 -28 -13q-14 0 -24.5 10.5t-10.5 24.5q0 11 4 16.5t20 18.5l152 129l151 -129q6 -4 9 -7q15 -12 15 -28
q0 -14 -10.5 -24.5t-23.5 -10.5t-29 13zM504 583v-100h-334v-141h184v-99h-184v-143h356v-100h-456v583h434z" />
    <glyph glyph-name="uni1EC1" unicode="&#x1ec1;" horiz-adv-x="587" 
d="M232 928l133 -111q23 -19 23 -37q0 -14 -11 -25t-26 -11q-12 0 -32 16l-133 112q-23 18 -23 36q0 15 10.5 25.5t26.5 10.5q12 0 32 -16zM550 172h-408q34 -88 164 -88q56 0 163 28q20 5 33 5q20 0 34 -14.5t14 -35.5q0 -29 -35 -45q-34 -15 -99.5 -26.5t-118.5 -11.5
q-116 0 -190 65t-74 167q0 99 74.5 166.5t183.5 67.5q112 0 185.5 -68t73.5 -171v-39zM145 260h294q-12 41 -52 65.5t-95 24.5t-95.5 -25t-51.5 -65zM229 607l-113 -97q-16 -13 -28 -13q-14 0 -24.5 10.5t-10.5 24.5q0 11 4 16.5t20 18.5l152 129l151 -129q6 -4 9 -7
q15 -12 15 -28q0 -14 -10.5 -24.5t-23.5 -10.5t-29 13z" />
    <glyph glyph-name="uni1EC2" unicode="&#x1ec2;" horiz-adv-x="596" 
d="M329 966v46q70 33 115 33q53 0 85.5 -29.5t32.5 -77.5q0 -34 -19.5 -56.5t-69.5 -44.5q-5 -30 -31 -30q-17 0 -27 15q-5 8 -5 24v34q53 20 71 32.5t18 28.5q0 19 -14.5 30.5t-39.5 11.5q-26 0 -53 -12v-5q0 -19 -6 -27q-9 -12 -25 -12q-18 0 -27 14q-5 6 -5 25zM277 750
l-113 -97q-16 -13 -28 -13q-14 0 -24.5 10.5t-10.5 24.5q0 11 4 16.5t20 18.5l152 129l151 -129q6 -4 9 -7q15 -12 15 -28q0 -14 -10.5 -24.5t-23.5 -10.5t-29 13zM504 583v-100h-334v-141h184v-99h-184v-143h356v-100h-456v583h434z" />
    <glyph glyph-name="uni1EC3" unicode="&#x1ec3;" horiz-adv-x="597" 
d="M360 828v46q70 33 115 33q53 0 85.5 -29.5t32.5 -77.5q0 -34 -19.5 -56.5t-69.5 -44.5q-4 -30 -31 -30q-17 0 -27 15q-5 8 -5 24v34q53 20 71 32.5t18 28.5q0 19 -14.5 30.5t-39.5 11.5q-26 0 -53 -12v-5q0 -19 -6 -27q-9 -12 -25 -12q-18 0 -27 14q-5 6 -5 25zM557 172
h-408q34 -88 164 -88q56 0 163 28q20 5 33 5q20 0 34 -14.5t14 -35.5q0 -29 -35 -45q-34 -15 -99.5 -26.5t-118.5 -11.5q-116 0 -190 65t-74 167q0 99 74.5 166.5t183.5 67.5q112 0 185.5 -68t73.5 -171v-39zM152 260h294q-12 41 -52 65.5t-95 24.5t-95.5 -25t-51.5 -65z
M311 607l-113 -97q-16 -13 -28 -13q-14 0 -24.5 10.5t-10.5 24.5q0 11 4 16.5t20 18.5l152 129l151 -129q6 -4 9 -7q15 -12 15 -28q0 -14 -10.5 -24.5t-23.5 -10.5t-29 13z" />
    <glyph glyph-name="uni1EC4" unicode="&#x1ec4;" horiz-adv-x="582" 
d="M415 1041q13 0 22.5 -8.5t9.5 -19.5q0 -20 -29 -57q-38 -48 -80 -48q-34 0 -99 43q-31 21 -50 21q-13 0 -23 -8.5t-32 -37.5q-11 -15 -26 -15q-13 0 -22 9t-9 21q0 22 27 55q39 45 83 45q29 0 90 -38q44 -26 58 -26q11 0 17.5 5.5t23.5 28.5q21 30 39 30zM202 750
l-113 -97q-16 -13 -28 -13q-14 0 -24.5 10.5t-10.5 24.5q0 11 4 16.5t20 18.5l152 129l151 -129q6 -4 9 -7q15 -12 15 -28q0 -14 -10.5 -24.5t-23.5 -10.5t-29 13zM504 583v-100h-334v-141h184v-99h-184v-143h356v-100h-456v583h434z" />
    <glyph glyph-name="uni1EC5" unicode="&#x1ec5;" horiz-adv-x="587" 
d="M550 172h-408q34 -88 164 -88q56 0 163 28q20 5 33 5q20 0 34 -14.5t14 -35.5q0 -29 -35 -45q-34 -15 -99.5 -26.5t-118.5 -11.5q-116 0 -190 65t-74 167q0 99 74.5 166.5t183.5 67.5q112 0 185.5 -68t73.5 -171v-39zM145 260h294q-12 41 -52 65.5t-95 24.5t-95.5 -25
t-51.5 -65zM229 607l-113 -97q-16 -13 -28 -13q-14 0 -24.5 10.5t-10.5 24.5q0 11 4 16.5t20 18.5l152 129l151 -129q6 -4 9 -7q15 -12 15 -28q0 -14 -10.5 -24.5t-23.5 -10.5t-29 13zM438 898q13 0 22.5 -8.5t9.5 -19.5q0 -20 -29 -57q-38 -48 -80 -48q-34 0 -99 43
q-31 21 -50 21q-13 0 -23 -8.5t-32 -37.5q-11 -15 -26 -15q-13 0 -22 9t-9 21q0 22 27 55q39 45 83 45q29 0 90 -38q44 -26 58 -26q11 0 17.5 5.5t23.5 28.5q21 30 39 30z" />
    <glyph glyph-name="uni1EC6" unicode="&#x1ec6;" horiz-adv-x="582" 
d="M177 -110q25 0 42.5 -17.5t17.5 -43.5q0 -24 -17.5 -41.5t-42.5 -17.5t-42.5 17.5t-17.5 42.5t17.5 42.5t42.5 17.5zM202 750l-113 -97q-16 -13 -28 -13q-14 0 -24.5 10.5t-10.5 24.5q0 11 4 16.5t20 18.5l152 129l151 -129q6 -4 9 -7q15 -12 15 -28q0 -14 -10.5 -24.5
t-23.5 -10.5t-29 13zM504 583v-100h-334v-141h184v-99h-184v-143h356v-100h-456v583h434z" />
    </font>
</defs>
</svg>
